<svg width="1644" height="764" viewBox="0 0 1644 764" fill="none" xmlns="http://www.w3.org/2000/svg">
<rect width="1644" height="764" fill="white"/>
<rect x="1192" y="304" width="152" height="152" fill="#D9D9D9"/>
<rect x="844" y="478" width="152" height="152" fill="#D9D9D9"/>
<rect x="1018" y="130" width="152" height="152" fill="#D9D9D9"/>
<rect x="844" y="130" width="152" height="152" fill="#D9D9D9"/>
<rect x="1193" y="130" width="151" height="152" fill="#D9D9D9"/>
<mask id="path-6-inside-1_1477_251" fill="white">
<rect x="844" y="304" width="152" height="152" rx="2"/>
</mask>
<rect x="844" y="304" width="152" height="152" rx="2" fill="url(#paint0_linear_1477_251)" stroke="black" stroke-width="6" mask="url(#path-6-inside-1_1477_251)"/>
<path d="M932.99 428.645L871.984 388.751C871.37 388.35 871 387.666 871 386.933L871 354.534C871 353.785 871.387 353.088 872.024 352.691L904.663 332.33C905.383 331.881 906.3 331.891 907.01 332.355L968.016 372.249C968.63 372.65 969 373.334 969 374.067V406.466C969 407.215 968.613 407.912 967.976 408.309L935.338 428.67C934.617 429.119 933.7 429.109 932.99 428.645Z" fill="white"/>
<path fill-rule="evenodd" clip-rule="evenodd" d="M934.197 425.536L874.267 386.346L874.267 355.137L905.803 335.464L965.733 374.654V405.863L934.197 425.536ZM871.984 388.751L932.99 428.645C933.7 429.109 934.617 429.119 935.338 428.67L967.976 408.309C968.613 407.912 969 407.215 969 406.466V374.067C969 373.334 968.63 372.65 968.016 372.249L907.01 332.355C906.3 331.891 905.383 331.881 904.663 332.33L872.024 352.691C871.387 353.088 871 353.785 871 354.534L871 386.933C871 387.666 871.37 388.35 871.984 388.751Z" fill="black"/>
<path fill-rule="evenodd" clip-rule="evenodd" d="M932.522 393.716L967.057 372.589L968.765 375.369L935.789 395.541V426.146H932.522V393.716Z" fill="black"/>
<path fill-rule="evenodd" clip-rule="evenodd" d="M873.178 353.33L935.244 393.542L933.465 396.277L871.399 356.064L873.178 353.33Z" fill="black"/>
<path d="M878.622 366.873C878.622 365.652 879.917 364.865 881.004 365.424C881.547 365.704 881.889 366.263 881.889 366.873V386.411C881.889 387.657 880.545 388.442 879.456 387.833C878.941 387.544 878.622 387.001 878.622 386.411V366.873Z" fill="black"/>
<path d="M886.244 371.22C886.244 369.999 887.539 369.212 888.626 369.771C889.169 370.051 889.511 370.61 889.511 371.22V390.758C889.511 392.004 888.167 392.79 887.078 392.18C886.563 391.892 886.244 391.348 886.244 390.758V371.22Z" fill="black"/>
<path d="M893.867 376.654C893.867 375.433 895.162 374.646 896.249 375.206C896.792 375.485 897.133 376.044 897.133 376.654V396.192C897.133 397.438 895.79 398.224 894.701 397.614C894.186 397.326 893.867 396.782 893.867 396.192V376.654Z" fill="black"/>
<path d="M901.489 381.002C901.489 379.781 902.784 378.993 903.871 379.553C904.414 379.832 904.755 380.391 904.755 381.002V400.539C904.755 401.785 903.412 402.571 902.323 401.961C901.808 401.673 901.489 401.129 901.489 400.539V381.002Z" fill="black"/>
<path d="M909.111 386.436C909.111 385.215 910.406 384.427 911.493 384.987C912.036 385.266 912.377 385.826 912.377 386.436V405.974C912.377 407.219 911.034 408.005 909.945 407.395C909.43 407.107 909.111 406.563 909.111 405.974V386.436Z" fill="black"/>
<path d="M916.733 391.87C916.733 390.649 918.028 389.861 919.115 390.421C919.658 390.701 920 391.26 920 391.87V411.408C920 412.654 918.656 413.439 917.567 412.829C917.052 412.541 916.733 411.997 916.733 411.408V391.87Z" fill="black"/>
<path d="M924.355 396.217C924.355 394.996 925.65 394.208 926.738 394.768C927.281 395.048 927.622 395.607 927.622 396.217V415.755C927.622 417.001 926.278 417.786 925.19 417.177C924.675 416.888 924.355 416.344 924.355 415.755V396.217Z" fill="black"/>
<mask id="path-18-inside-2_1477_251" fill="white">
<rect x="1018" y="304" width="152" height="152" rx="2"/>
</mask>
<rect x="1018" y="304" width="152" height="152" rx="2" fill="url(#paint1_linear_1477_251)" stroke="black" stroke-width="6" mask="url(#path-18-inside-2_1477_251)"/>
<path d="M1107.36 428.645L1046.97 388.751C1046.37 388.35 1046 387.666 1046 386.933L1046 354.534C1046 353.785 1046.38 353.088 1047.01 352.691L1079.32 332.33C1080.03 331.881 1080.94 331.891 1081.64 332.355L1142.03 372.249C1142.63 372.65 1143 373.334 1143 374.067V406.466C1143 407.215 1142.62 407.912 1141.99 408.309L1109.68 428.67C1108.97 429.119 1108.06 429.109 1107.36 428.645Z" fill="white"/>
<path fill-rule="evenodd" clip-rule="evenodd" d="M1108.55 425.536L1049.23 386.346L1049.23 355.137L1080.45 335.464L1139.77 374.654V405.863L1108.55 425.536ZM1046.97 388.751L1107.36 428.645C1108.06 429.109 1108.97 429.119 1109.68 428.67L1141.99 408.309C1142.62 407.912 1143 407.215 1143 406.466V374.067C1143 373.334 1142.63 372.65 1142.03 372.249L1081.64 332.355C1080.94 331.891 1080.03 331.881 1079.32 332.33L1047.01 352.691C1046.38 353.088 1046 353.785 1046 354.534L1046 386.933C1046 387.666 1046.37 388.35 1046.97 388.751Z" fill="black"/>
<path fill-rule="evenodd" clip-rule="evenodd" d="M1106.89 393.716L1141.08 372.589L1142.77 375.369L1110.13 395.541V426.146H1106.89V393.716Z" fill="black"/>
<path fill-rule="evenodd" clip-rule="evenodd" d="M1048.16 353.33L1109.59 393.542L1107.83 396.277L1046.4 356.064L1048.16 353.33Z" fill="black"/>
<path d="M1053.54 366.873C1053.54 365.652 1054.83 364.865 1055.9 365.424C1056.44 365.704 1056.78 366.263 1056.78 366.873V386.411C1056.78 387.657 1055.45 388.442 1054.37 387.833C1053.86 387.544 1053.54 387.001 1053.54 386.411V366.873Z" fill="black"/>
<path d="M1061.09 371.22C1061.09 369.999 1062.37 369.212 1063.45 369.771C1063.98 370.051 1064.32 370.61 1064.32 371.22V390.758C1064.32 392.004 1062.99 392.79 1061.91 392.18C1061.4 391.892 1061.09 391.348 1061.09 390.758V371.22Z" fill="black"/>
<path d="M1068.63 376.654C1068.63 375.433 1069.92 374.646 1070.99 375.206C1071.53 375.485 1071.87 376.044 1071.87 376.654V396.192C1071.87 397.438 1070.54 398.224 1069.46 397.614C1068.95 397.326 1068.63 396.782 1068.63 396.192V376.654Z" fill="black"/>
<path d="M1076.18 381.002C1076.18 379.781 1077.46 378.993 1078.54 379.553C1079.07 379.832 1079.41 380.391 1079.41 381.002V400.539C1079.41 401.785 1078.08 402.571 1077 401.961C1076.49 401.673 1076.18 401.129 1076.18 400.539V381.002Z" fill="black"/>
<path d="M1083.72 386.436C1083.72 385.215 1085 384.427 1086.08 384.987C1086.62 385.266 1086.96 385.826 1086.96 386.436V405.974C1086.96 407.219 1085.63 408.005 1084.55 407.395C1084.04 407.107 1083.72 406.563 1083.72 405.974V386.436Z" fill="black"/>
<path d="M1091.27 391.87C1091.27 390.649 1092.55 389.861 1093.62 390.421C1094.16 390.701 1094.5 391.26 1094.5 391.87V411.408C1094.5 412.654 1093.17 413.439 1092.09 412.829C1091.58 412.541 1091.27 411.997 1091.27 411.408V391.87Z" fill="black"/>
<path d="M1098.81 396.217C1098.81 394.996 1100.09 394.208 1101.17 394.768C1101.71 395.048 1102.04 395.607 1102.04 396.217V415.755C1102.04 417.001 1100.71 417.786 1099.64 417.177C1099.13 416.888 1098.81 416.344 1098.81 415.755V396.217Z" fill="black"/>
<mask id="path-30-inside-3_1477_251" fill="white">
<rect x="1018" y="478" width="152" height="152" rx="2"/>
</mask>
<rect x="1018" y="478" width="152" height="152" rx="2" fill="url(#paint2_linear_1477_251)" stroke="black" stroke-width="6" mask="url(#path-30-inside-3_1477_251)"/>
<path d="M1107.36 602.645L1046.97 562.751C1046.37 562.35 1046 561.666 1046 560.933L1046 528.534C1046 527.785 1046.38 527.088 1047.01 526.691L1079.32 506.33C1080.03 505.881 1080.94 505.891 1081.64 506.355L1142.03 546.249C1142.63 546.65 1143 547.334 1143 548.067V580.466C1143 581.215 1142.62 581.912 1141.99 582.309L1109.68 602.67C1108.97 603.119 1108.06 603.109 1107.36 602.645Z" fill="white"/>
<path fill-rule="evenodd" clip-rule="evenodd" d="M1108.55 599.536L1049.23 560.346L1049.23 529.137L1080.45 509.464L1139.77 548.654V579.863L1108.55 599.536ZM1046.97 562.751L1107.36 602.645C1108.06 603.109 1108.97 603.119 1109.68 602.67L1141.99 582.309C1142.62 581.912 1143 581.215 1143 580.466V548.067C1143 547.334 1142.63 546.65 1142.03 546.249L1081.64 506.355C1080.94 505.891 1080.03 505.881 1079.32 506.33L1047.01 526.691C1046.38 527.088 1046 527.785 1046 528.534L1046 560.933C1046 561.666 1046.37 562.35 1046.97 562.751Z" fill="black"/>
<path fill-rule="evenodd" clip-rule="evenodd" d="M1106.89 567.716L1141.08 546.589L1142.77 549.369L1110.13 569.541V600.146H1106.89V567.716Z" fill="black"/>
<path fill-rule="evenodd" clip-rule="evenodd" d="M1048.16 527.33L1109.59 567.542L1107.83 570.277L1046.4 530.064L1048.16 527.33Z" fill="black"/>
<path d="M1053.54 540.873C1053.54 539.652 1054.83 538.865 1055.9 539.424C1056.44 539.704 1056.78 540.263 1056.78 540.873V560.411C1056.78 561.657 1055.45 562.442 1054.37 561.833C1053.86 561.544 1053.54 561.001 1053.54 560.411V540.873Z" fill="black"/>
<path d="M1061.09 545.22C1061.09 543.999 1062.37 543.212 1063.45 543.771C1063.98 544.051 1064.32 544.61 1064.32 545.22V564.758C1064.32 566.004 1062.99 566.79 1061.91 566.18C1061.4 565.892 1061.09 565.348 1061.09 564.758V545.22Z" fill="black"/>
<path d="M1068.63 550.654C1068.63 549.433 1069.92 548.646 1070.99 549.206C1071.53 549.485 1071.87 550.044 1071.87 550.654V570.192C1071.87 571.438 1070.54 572.224 1069.46 571.614C1068.95 571.326 1068.63 570.782 1068.63 570.192V550.654Z" fill="black"/>
<path d="M1076.18 555.002C1076.18 553.781 1077.46 552.993 1078.54 553.553C1079.07 553.832 1079.41 554.391 1079.41 555.002V574.539C1079.41 575.785 1078.08 576.571 1077 575.961C1076.49 575.673 1076.18 575.129 1076.18 574.539V555.002Z" fill="black"/>
<path d="M1083.72 560.436C1083.72 559.215 1085 558.427 1086.08 558.987C1086.62 559.266 1086.96 559.826 1086.96 560.436V579.974C1086.96 581.219 1085.63 582.005 1084.55 581.395C1084.04 581.107 1083.72 580.563 1083.72 579.974V560.436Z" fill="black"/>
<path d="M1091.27 565.87C1091.27 564.649 1092.55 563.861 1093.62 564.421C1094.16 564.701 1094.5 565.26 1094.5 565.87V585.408C1094.5 586.654 1093.17 587.439 1092.09 586.829C1091.58 586.541 1091.27 585.997 1091.27 585.408V565.87Z" fill="black"/>
<path d="M1098.81 570.217C1098.81 568.996 1100.09 568.208 1101.17 568.768C1101.71 569.048 1102.04 569.607 1102.04 570.217V589.755C1102.04 591.001 1100.71 591.786 1099.64 591.177C1099.13 590.888 1098.81 590.344 1098.81 589.755V570.217Z" fill="black"/>
<mask id="path-42-inside-4_1477_251" fill="white">
<rect x="1192" y="478" width="152" height="152" rx="2"/>
</mask>
<rect x="1192" y="478" width="152" height="152" rx="2" fill="url(#paint3_linear_1477_251)" stroke="black" stroke-width="6" mask="url(#path-42-inside-4_1477_251)"/>
<path d="M1281.36 602.645L1220.97 562.751C1220.37 562.35 1220 561.666 1220 560.933L1220 528.534C1220 527.785 1220.38 527.088 1221.01 526.691L1253.32 506.33C1254.03 505.881 1254.94 505.891 1255.64 506.355L1316.03 546.249C1316.63 546.65 1317 547.334 1317 548.067V580.466C1317 581.215 1316.62 581.912 1315.99 582.309L1283.68 602.67C1282.97 603.119 1282.06 603.109 1281.36 602.645Z" fill="white"/>
<path fill-rule="evenodd" clip-rule="evenodd" d="M1282.55 599.536L1223.23 560.346L1223.23 529.137L1254.45 509.464L1313.77 548.654V579.863L1282.55 599.536ZM1220.97 562.751L1281.36 602.645C1282.06 603.109 1282.97 603.119 1283.68 602.67L1315.99 582.309C1316.62 581.912 1317 581.215 1317 580.466V548.067C1317 547.334 1316.63 546.65 1316.03 546.249L1255.64 506.355C1254.94 505.891 1254.03 505.881 1253.32 506.33L1221.01 526.691C1220.38 527.088 1220 527.785 1220 528.534L1220 560.933C1220 561.666 1220.37 562.35 1220.97 562.751Z" fill="black"/>
<path fill-rule="evenodd" clip-rule="evenodd" d="M1280.89 567.716L1315.08 546.589L1316.77 549.369L1284.13 569.541V600.146H1280.89V567.716Z" fill="black"/>
<path fill-rule="evenodd" clip-rule="evenodd" d="M1222.16 527.33L1283.59 567.542L1281.83 570.277L1220.4 530.064L1222.16 527.33Z" fill="black"/>
<path d="M1227.54 540.873C1227.54 539.652 1228.83 538.865 1229.9 539.424C1230.44 539.704 1230.78 540.263 1230.78 540.873V560.411C1230.78 561.657 1229.45 562.442 1228.37 561.833C1227.86 561.544 1227.54 561.001 1227.54 560.411V540.873Z" fill="black"/>
<path d="M1235.09 545.22C1235.09 543.999 1236.37 543.212 1237.45 543.771C1237.98 544.051 1238.32 544.61 1238.32 545.22V564.758C1238.32 566.004 1236.99 566.79 1235.91 566.18C1235.4 565.892 1235.09 565.348 1235.09 564.758V545.22Z" fill="black"/>
<path d="M1242.63 550.654C1242.63 549.433 1243.92 548.646 1244.99 549.206C1245.53 549.485 1245.87 550.044 1245.87 550.654V570.192C1245.87 571.438 1244.54 572.224 1243.46 571.614C1242.95 571.326 1242.63 570.782 1242.63 570.192V550.654Z" fill="black"/>
<path d="M1250.18 555.002C1250.18 553.781 1251.46 552.993 1252.54 553.553C1253.07 553.832 1253.41 554.391 1253.41 555.002V574.539C1253.41 575.785 1252.08 576.571 1251 575.961C1250.49 575.673 1250.18 575.129 1250.18 574.539V555.002Z" fill="black"/>
<path d="M1257.72 560.436C1257.72 559.215 1259 558.427 1260.08 558.987C1260.62 559.266 1260.96 559.826 1260.96 560.436V579.974C1260.96 581.219 1259.63 582.005 1258.55 581.395C1258.04 581.107 1257.72 580.563 1257.72 579.974V560.436Z" fill="black"/>
<path d="M1265.27 565.87C1265.27 564.649 1266.55 563.861 1267.62 564.421C1268.16 564.701 1268.5 565.26 1268.5 565.87V585.408C1268.5 586.654 1267.17 587.439 1266.09 586.829C1265.58 586.541 1265.27 585.997 1265.27 585.408V565.87Z" fill="black"/>
<path d="M1272.81 570.217C1272.81 568.996 1274.09 568.208 1275.17 568.768C1275.71 569.048 1276.04 569.607 1276.04 570.217V589.755C1276.04 591.001 1274.71 591.786 1273.64 591.177C1273.13 590.888 1272.81 590.344 1272.81 589.755V570.217Z" fill="black"/>
<path d="M525.5 381C524.395 381 523.5 381.895 523.5 383C523.5 384.105 524.395 385 525.5 385L525.5 381ZM832.5 383L812.5 371.453L812.5 394.547L832.5 383ZM525.5 385L530.617 385L530.617 381L525.5 381L525.5 385ZM540.85 385L551.083 385L551.083 381L540.85 381L540.85 385ZM561.317 385L571.55 385L571.55 381L561.317 381L561.317 385ZM581.783 385L592.017 385L592.017 381L581.783 381L581.783 385ZM602.25 385L612.483 385L612.483 381L602.25 381L602.25 385ZM622.717 385L632.95 385L632.95 381L622.717 381L622.717 385ZM643.183 385L653.417 385L653.417 381L643.183 381L643.183 385ZM663.65 385L673.883 385L673.883 381L663.65 381L663.65 385ZM684.117 385L694.35 385L694.35 381L684.117 381L684.117 385ZM704.583 385L714.817 385L714.817 381L704.583 381L704.583 385ZM725.05 385L735.283 385L735.283 381L725.05 381L725.05 385ZM745.517 385L755.75 385L755.75 381L745.517 381L745.517 385ZM765.983 385L776.217 385L776.217 381L765.983 381L765.983 385ZM786.45 385L796.683 385L796.683 381L786.45 381L786.45 385ZM806.917 385L817.15 385L817.15 381L806.917 381L806.917 385Z" fill="black"/>
<path d="M1277.73 212.416C1277.59 212.39 1277.46 212.379 1277.32 212.385C1277.09 212.398 1276.86 212.457 1276.65 212.559C1276.24 212.755 1275.92 213.101 1275.76 213.523C1275.6 213.946 1275.61 214.413 1275.79 214.828L1275.78 214.845L1279.82 224.531C1283.69 222.083 1286.62 218.427 1288.16 214.14L1277.74 212.394L1277.73 212.416ZM1261.53 213.789C1261.44 213.407 1261.23 213.065 1260.92 212.819C1260.61 212.572 1260.23 212.434 1259.84 212.428C1259.72 212.427 1259.61 212.437 1259.49 212.459L1259.47 212.438L1249.15 214.176C1250.7 218.429 1253.62 222.056 1257.46 224.493L1261.46 214.903L1261.43 214.865C1261.58 214.526 1261.61 214.149 1261.53 213.789ZM1270.17 217.55C1270.02 217.271 1269.8 217.038 1269.52 216.875C1269.25 216.713 1268.94 216.628 1268.62 216.628C1268.3 216.628 1267.99 216.715 1267.71 216.878C1267.44 217.041 1267.22 217.274 1267.07 217.553H1267.06L1261.98 226.66C1265.62 227.888 1269.52 228.088 1273.26 227.236C1273.96 227.08 1274.64 226.892 1275.3 226.672L1270.21 217.549L1270.17 217.55ZM1286.24 196.394L1278.43 203.33L1278.43 203.352C1278.19 203.56 1278.01 203.829 1277.92 204.13C1277.82 204.43 1277.8 204.752 1277.87 205.06C1277.95 205.369 1278.1 205.652 1278.32 205.881C1278.54 206.109 1278.82 206.274 1279.12 206.359L1279.13 206.4L1289.25 209.292C1289.69 204.782 1288.63 200.254 1286.24 196.395V196.394ZM1271.73 197.172C1271.75 197.487 1271.85 197.793 1272.02 198.057C1272.2 198.321 1272.44 198.532 1272.73 198.669C1273.02 198.806 1273.34 198.863 1273.65 198.835C1273.97 198.806 1274.27 198.693 1274.53 198.507L1274.56 198.519L1283.11 192.508C1279.85 189.346 1275.65 187.333 1271.13 186.777L1271.72 197.169L1271.73 197.172ZM1262.68 198.545C1262.94 198.731 1263.24 198.844 1263.56 198.872C1263.88 198.9 1264.2 198.843 1264.49 198.705C1264.77 198.568 1265.02 198.356 1265.19 198.091C1265.37 197.827 1265.47 197.521 1265.48 197.205L1265.52 197.185L1266.12 186.776C1265.4 186.862 1264.69 186.984 1263.98 187.141C1260.24 187.977 1256.8 189.834 1254.07 192.505L1262.67 198.555L1262.68 198.545ZM1258.1 206.409C1258.41 206.326 1258.69 206.161 1258.91 205.933C1259.13 205.704 1259.28 205.42 1259.35 205.112C1259.42 204.803 1259.41 204.481 1259.31 204.18C1259.21 203.879 1259.03 203.61 1258.79 203.402L1258.8 203.361L1250.95 196.392C1248.55 200.261 1247.52 204.812 1248.03 209.325L1258.09 206.443L1258.1 206.409ZM1265.72 209.471L1268.62 210.853L1271.51 209.473L1272.23 206.38L1270.23 203.899H1267.01L1265.01 206.376L1265.72 209.471Z" fill="#326CE5"/>
<path d="M1316.5 215.566L1308.25 179.99C1308.03 179.07 1307.6 178.21 1307 177.472C1306.41 176.735 1305.65 176.138 1304.79 175.725L1271.39 159.896C1270.52 159.486 1269.57 159.273 1268.61 159.273C1267.65 159.273 1266.71 159.486 1265.84 159.896L1232.44 175.733C1231.58 176.146 1230.83 176.743 1230.23 177.48C1229.63 178.218 1229.21 179.078 1228.99 179.998L1220.75 215.573C1220.54 216.473 1220.54 217.405 1220.74 218.305C1220.8 218.579 1220.88 218.848 1220.98 219.112C1221.14 219.563 1221.35 219.993 1221.61 220.394C1221.73 220.565 1221.85 220.732 1221.98 220.894L1245.09 249.42C1245.2 249.544 1245.31 249.657 1245.42 249.772C1245.78 250.156 1246.19 250.492 1246.64 250.775C1247.2 251.128 1247.82 251.394 1248.46 251.563C1248.99 251.707 1249.54 251.782 1250.09 251.786H1250.45L1287.16 251.777C1287.38 251.776 1287.61 251.763 1287.83 251.738C1288.15 251.703 1288.46 251.643 1288.77 251.561C1288.99 251.503 1289.21 251.433 1289.43 251.353C1289.59 251.289 1289.76 251.226 1289.92 251.149C1290.16 251.035 1290.4 250.906 1290.62 250.763C1291.2 250.4 1291.72 249.945 1292.16 249.416L1292.86 248.546L1315.27 220.885C1315.7 220.35 1316.03 219.749 1316.26 219.105C1316.36 218.841 1316.44 218.57 1316.5 218.295C1316.7 217.395 1316.7 216.463 1316.5 215.563L1316.5 215.566ZM1281.85 229.403C1281.94 229.676 1282.05 229.944 1282.18 230.203C1281.98 230.558 1281.92 230.979 1282.03 231.374C1282.51 232.479 1283.11 233.533 1283.8 234.524C1284.19 235.03 1284.55 235.558 1284.87 236.105C1284.95 236.253 1285.06 236.483 1285.13 236.639C1285.28 236.878 1285.37 237.144 1285.4 237.42C1285.44 237.696 1285.41 237.976 1285.33 238.242C1285.25 238.508 1285.11 238.754 1284.93 238.965C1284.75 239.176 1284.52 239.346 1284.27 239.465C1284.02 239.584 1283.74 239.648 1283.46 239.655C1283.18 239.662 1282.9 239.611 1282.64 239.504C1282.38 239.398 1282.15 239.239 1281.96 239.037C1281.76 238.836 1281.61 238.597 1281.52 238.335C1281.44 238.18 1281.34 237.973 1281.27 237.826C1281.04 237.232 1280.85 236.624 1280.69 236.008C1280.35 234.854 1279.89 233.736 1279.32 232.671C1279.07 232.342 1278.71 232.121 1278.3 232.057C1278.24 231.947 1278 231.516 1277.87 231.294C1271.93 233.529 1265.36 233.512 1259.42 231.247L1258.97 232.06C1258.65 232.11 1258.35 232.255 1258.11 232.477C1257.43 233.587 1256.91 234.787 1256.56 236.042C1256.4 236.658 1256.21 237.265 1255.98 237.86C1255.92 238.006 1255.81 238.21 1255.74 238.364V238.369L1255.73 238.372C1255.64 238.635 1255.49 238.874 1255.3 239.076C1255.1 239.278 1254.87 239.437 1254.61 239.543C1254.35 239.65 1254.07 239.701 1253.79 239.694C1253.51 239.687 1253.23 239.622 1252.98 239.502C1252.73 239.383 1252.5 239.212 1252.32 239.001C1252.14 238.79 1252 238.543 1251.92 238.276C1251.84 238.01 1251.82 237.729 1251.85 237.453C1251.89 237.177 1251.98 236.911 1252.12 236.672C1252.2 236.515 1252.3 236.287 1252.38 236.139C1252.71 235.59 1253.06 235.061 1253.45 234.553C1254.16 233.537 1254.76 232.456 1255.26 231.325C1255.31 230.942 1255.25 230.552 1255.08 230.203L1255.45 229.338C1249.97 226.133 1245.87 221.052 1243.92 215.053L1243.05 215.2C1242.71 214.962 1242.31 214.823 1241.9 214.798C1240.7 215.024 1239.54 215.365 1238.41 215.816C1237.83 216.077 1237.23 216.304 1236.62 216.498C1236.47 216.537 1236.26 216.577 1236.1 216.612C1236.09 216.617 1236.07 216.623 1236.06 216.626C1236.05 216.627 1236.04 216.628 1236.03 216.629C1235.77 216.715 1235.48 216.746 1235.21 216.719C1234.93 216.692 1234.66 216.607 1234.42 216.471C1234.17 216.334 1233.96 216.149 1233.79 215.927C1233.63 215.704 1233.51 215.45 1233.45 215.179C1233.39 214.909 1233.38 214.629 1233.43 214.357C1233.49 214.085 1233.6 213.827 1233.76 213.599C1233.92 213.372 1234.12 213.18 1234.36 213.036C1234.6 212.892 1234.87 212.799 1235.14 212.762L1235.17 212.755L1235.19 212.751C1235.36 212.712 1235.57 212.657 1235.72 212.628C1236.36 212.54 1237 212.489 1237.64 212.474C1238.85 212.396 1240.05 212.2 1241.22 211.89C1241.57 211.671 1241.87 211.377 1242.08 211.03L1242.92 210.788C1242.01 204.526 1243.47 198.153 1247 192.889L1246.36 192.322C1246.34 191.91 1246.2 191.514 1245.96 191.177C1245.04 190.391 1244.04 189.697 1242.99 189.104C1242.41 188.815 1241.86 188.494 1241.33 188.142C1241.21 188.052 1241.05 187.917 1240.91 187.811L1240.88 187.79C1240.43 187.466 1240.12 186.976 1240.03 186.428C1239.94 185.88 1240.07 185.318 1240.39 184.865C1240.58 184.632 1240.83 184.448 1241.1 184.326C1241.38 184.205 1241.68 184.15 1241.99 184.165C1242.49 184.187 1242.98 184.37 1243.38 184.687C1243.51 184.793 1243.7 184.935 1243.82 185.038C1244.29 185.474 1244.73 185.937 1245.14 186.424C1245.96 187.315 1246.86 188.125 1247.83 188.842C1248.2 189.032 1248.63 189.073 1249.02 188.956C1249.26 189.128 1249.5 189.298 1249.74 189.465C1253.26 185.759 1257.81 183.179 1262.81 182.058C1264 181.79 1265.2 181.606 1266.42 181.506L1266.47 180.668C1266.78 180.394 1267 180.038 1267.12 179.641C1267.16 178.437 1267.09 177.232 1266.89 176.043C1266.77 175.419 1266.68 174.789 1266.62 174.156C1266.62 174.011 1266.62 173.812 1266.63 173.648C1266.63 173.629 1266.62 173.61 1266.62 173.592C1266.59 173.315 1266.62 173.035 1266.71 172.77C1266.8 172.505 1266.94 172.261 1267.13 172.054C1267.32 171.847 1267.55 171.682 1267.8 171.568C1268.06 171.455 1268.34 171.397 1268.62 171.396C1268.9 171.396 1269.18 171.455 1269.44 171.568C1269.69 171.681 1269.92 171.846 1270.11 172.053C1270.3 172.259 1270.44 172.503 1270.53 172.768C1270.62 173.033 1270.65 173.313 1270.62 173.59C1270.62 173.764 1270.63 173.995 1270.62 174.154C1270.57 174.788 1270.48 175.418 1270.35 176.041C1270.16 177.231 1270.08 178.436 1270.12 179.64C1270.2 180.043 1270.44 180.399 1270.78 180.632C1270.78 180.775 1270.81 181.254 1270.83 181.518C1277.15 182.088 1283.04 184.916 1287.42 189.475L1288.18 188.936C1288.59 189.006 1289.01 188.96 1289.39 188.805C1290.37 188.087 1291.27 187.277 1292.09 186.385C1292.5 185.898 1292.94 185.435 1293.41 184.998C1293.53 184.894 1293.72 184.754 1293.85 184.648C1294.05 184.451 1294.29 184.299 1294.56 184.201C1294.82 184.103 1295.1 184.06 1295.38 184.077C1295.66 184.094 1295.94 184.169 1296.19 184.298C1296.44 184.427 1296.66 184.606 1296.83 184.825C1297.01 185.044 1297.14 185.296 1297.21 185.567C1297.28 185.838 1297.29 186.12 1297.25 186.396C1297.2 186.672 1297.09 186.935 1296.94 187.168C1296.78 187.401 1296.58 187.599 1296.34 187.75C1296.21 187.857 1296.03 188.007 1295.9 188.102C1295.37 188.454 1294.81 188.775 1294.24 189.064C1293.19 189.658 1292.19 190.352 1291.27 191.137C1291 191.449 1290.87 191.852 1290.89 192.261C1290.78 192.362 1290.39 192.706 1290.18 192.892C1293.73 198.137 1295.21 204.491 1294.35 210.749L1295.16 210.982C1295.36 211.342 1295.66 211.64 1296.02 211.842C1297.19 212.152 1298.39 212.348 1299.6 212.428C1300.24 212.442 1300.88 212.493 1301.52 212.58C1301.69 212.611 1301.93 212.677 1302.1 212.716C1302.38 212.753 1302.65 212.846 1302.88 212.99C1303.12 213.134 1303.33 213.326 1303.49 213.554C1303.65 213.781 1303.76 214.039 1303.81 214.312C1303.86 214.584 1303.86 214.864 1303.8 215.134C1303.74 215.405 1303.62 215.659 1303.45 215.881C1303.28 216.103 1303.07 216.289 1302.83 216.425C1302.58 216.561 1302.31 216.646 1302.04 216.673C1301.76 216.7 1301.48 216.669 1301.21 216.582L1301.18 216.578C1301.17 216.575 1301.16 216.568 1301.14 216.564C1300.98 216.529 1300.77 216.493 1300.63 216.456C1300.02 216.261 1299.42 216.032 1298.84 215.768C1297.71 215.318 1296.54 214.977 1295.35 214.751C1294.93 214.738 1294.53 214.886 1294.23 215.163C1293.94 215.109 1293.66 215.06 1293.37 215.014C1291.44 221.051 1287.34 226.172 1281.85 229.403Z" fill="#326CE5"/>
<path d="M1320.86 216.478L1311.85 177.666C1311.61 176.661 1311.15 175.723 1310.5 174.918C1309.84 174.113 1309.02 173.462 1308.08 173.011L1271.64 155.744C1270.69 155.297 1269.66 155.064 1268.61 155.064C1267.57 155.064 1266.53 155.297 1265.59 155.744L1229.15 173.022C1228.21 173.472 1227.39 174.123 1226.74 174.927C1226.08 175.731 1225.62 176.669 1225.38 177.674L1216.39 216.488C1216.19 217.383 1216.17 218.309 1216.33 219.212C1216.49 220.115 1216.83 220.977 1217.33 221.747C1217.46 221.935 1217.59 222.117 1217.73 222.293L1242.95 253.417C1243.62 254.218 1244.45 254.864 1245.39 255.31C1246.33 255.756 1247.36 255.99 1248.4 255.996L1288.85 255.987C1289.89 255.981 1290.92 255.747 1291.86 255.302C1292.8 254.857 1293.64 254.211 1294.3 253.411L1319.51 222.284C1320.16 221.477 1320.61 220.537 1320.85 219.533C1321.08 218.529 1321.08 217.486 1320.86 216.48V216.478ZM1316.5 218.296C1316.44 218.57 1316.36 218.841 1316.26 219.106C1316.03 219.75 1315.7 220.351 1315.27 220.885L1292.86 248.546L1292.16 249.417C1291.72 249.946 1291.2 250.401 1290.62 250.764C1290.4 250.906 1290.16 251.035 1289.92 251.15C1289.76 251.224 1289.6 251.292 1289.43 251.352C1289.21 251.433 1288.99 251.503 1288.77 251.561C1288.46 251.644 1288.15 251.704 1287.83 251.74C1287.61 251.764 1287.39 251.777 1287.16 251.778L1250.45 251.787H1250.09C1249.54 251.783 1248.99 251.709 1248.46 251.565C1247.82 251.395 1247.2 251.129 1246.64 250.775C1246.19 250.493 1245.78 250.156 1245.42 249.773C1245.31 249.657 1245.2 249.544 1245.1 249.42L1221.98 220.894C1221.85 220.733 1221.73 220.566 1221.61 220.393C1221.35 219.992 1221.14 219.562 1220.98 219.112C1220.88 218.848 1220.8 218.578 1220.74 218.304C1220.54 217.404 1220.54 216.472 1220.75 215.573L1228.99 179.997C1229.21 179.077 1229.63 178.217 1230.23 177.479C1230.83 176.742 1231.58 176.145 1232.44 175.733L1265.84 159.897C1266.71 159.487 1267.66 159.274 1268.61 159.274C1269.57 159.274 1270.52 159.487 1271.39 159.897L1304.79 175.726C1305.65 176.139 1306.41 176.736 1307 177.473C1307.6 178.211 1308.03 179.071 1308.25 179.991L1316.5 215.567C1316.7 216.465 1316.7 217.398 1316.5 218.297V218.296Z" fill="white"/>
<path d="M1302.1 212.716C1301.93 212.677 1301.69 212.611 1301.52 212.58C1300.89 212.493 1300.25 212.442 1299.6 212.427C1298.39 212.348 1297.19 212.153 1296.02 211.843C1295.66 211.641 1295.36 211.342 1295.16 210.982L1294.35 210.749C1295.21 204.491 1293.73 198.137 1290.18 192.892C1290.39 192.706 1290.78 192.362 1290.89 192.261C1290.87 191.853 1291 191.449 1291.27 191.138C1292.19 190.353 1293.19 189.658 1294.24 189.065C1294.81 188.776 1295.37 188.455 1295.9 188.103C1296.03 188.008 1296.21 187.857 1296.34 187.75C1296.58 187.6 1296.78 187.402 1296.94 187.169C1297.09 186.936 1297.2 186.673 1297.25 186.397C1297.29 186.121 1297.28 185.839 1297.21 185.568C1297.14 185.298 1297.01 185.045 1296.84 184.826C1296.66 184.607 1296.44 184.428 1296.19 184.299C1295.94 184.17 1295.67 184.095 1295.38 184.078C1295.1 184.061 1294.82 184.103 1294.56 184.201C1294.29 184.299 1294.05 184.451 1293.85 184.647C1293.72 184.754 1293.53 184.894 1293.41 184.999C1292.94 185.435 1292.5 185.898 1292.09 186.385C1291.27 187.277 1290.37 188.087 1289.39 188.806C1289.01 188.961 1288.59 189.006 1288.18 188.936L1287.42 189.475C1283.04 184.916 1277.15 182.088 1270.83 181.518C1270.81 181.254 1270.78 180.776 1270.78 180.632C1270.44 180.399 1270.2 180.043 1270.12 179.64C1270.08 178.436 1270.16 177.231 1270.35 176.041C1270.48 175.418 1270.57 174.788 1270.62 174.155C1270.63 173.995 1270.62 173.763 1270.62 173.59C1270.65 173.313 1270.62 173.033 1270.53 172.768C1270.44 172.503 1270.3 172.259 1270.11 172.053C1269.92 171.846 1269.69 171.681 1269.44 171.568C1269.18 171.455 1268.9 171.396 1268.62 171.396C1268.34 171.397 1268.06 171.455 1267.8 171.568C1267.55 171.682 1267.32 171.847 1267.13 172.054C1266.94 172.261 1266.8 172.505 1266.71 172.77C1266.62 173.035 1266.59 173.315 1266.62 173.592C1266.62 173.611 1266.63 173.629 1266.63 173.648C1266.62 173.812 1266.62 174.012 1266.62 174.155C1266.68 174.789 1266.77 175.419 1266.89 176.043C1267.09 177.232 1267.16 178.437 1267.12 179.641C1267 180.037 1266.78 180.393 1266.47 180.667L1266.42 181.507C1265.2 181.606 1264 181.79 1262.81 182.058C1257.81 183.179 1253.26 185.759 1249.74 189.464C1249.5 189.298 1249.26 189.128 1249.02 188.956C1248.63 189.073 1248.2 189.032 1247.83 188.841C1246.86 188.125 1245.96 187.315 1245.14 186.424C1244.73 185.937 1244.29 185.474 1243.82 185.038C1243.7 184.934 1243.52 184.793 1243.38 184.685C1242.98 184.368 1242.49 184.185 1241.99 184.163C1241.68 184.147 1241.38 184.203 1241.1 184.324C1240.83 184.446 1240.58 184.631 1240.39 184.864C1240.07 185.317 1239.94 185.879 1240.03 186.427C1240.12 186.975 1240.43 187.465 1240.88 187.789L1240.91 187.81C1241.05 187.917 1241.21 188.052 1241.33 188.14C1241.86 188.493 1242.41 188.814 1242.99 189.103C1244.04 189.697 1245.04 190.391 1245.96 191.177C1246.2 191.514 1246.34 191.91 1246.36 192.322L1247 192.889C1243.47 198.153 1242.01 204.527 1242.92 210.788L1242.08 211.03C1241.87 211.376 1241.57 211.669 1241.22 211.889C1240.05 212.199 1238.85 212.396 1237.64 212.475C1237 212.489 1236.36 212.54 1235.72 212.628C1235.57 212.656 1235.36 212.71 1235.19 212.751L1235.17 212.755L1235.14 212.763C1234.87 212.8 1234.6 212.893 1234.36 213.037C1234.12 213.181 1233.92 213.373 1233.76 213.6C1233.6 213.828 1233.49 214.086 1233.44 214.358C1233.38 214.63 1233.39 214.91 1233.45 215.181C1233.51 215.451 1233.63 215.705 1233.8 215.928C1233.96 216.15 1234.17 216.335 1234.42 216.471C1234.66 216.608 1234.93 216.692 1235.21 216.72C1235.49 216.747 1235.77 216.716 1236.03 216.63L1236.06 216.625C1236.07 216.622 1236.09 216.616 1236.1 216.613C1236.26 216.576 1236.47 216.537 1236.62 216.498C1237.23 216.304 1237.83 216.076 1238.41 215.815C1239.54 215.365 1240.7 215.024 1241.9 214.798C1242.31 214.823 1242.71 214.962 1243.04 215.201L1243.92 215.052C1245.87 221.052 1249.97 226.133 1255.45 229.338L1255.08 230.203C1255.25 230.551 1255.31 230.942 1255.26 231.325C1254.76 232.455 1254.16 233.536 1253.45 234.552C1253.06 235.059 1252.71 235.589 1252.38 236.137C1252.3 236.287 1252.2 236.516 1252.12 236.672C1251.98 236.91 1251.89 237.176 1251.85 237.452C1251.82 237.728 1251.84 238.008 1251.92 238.274C1252 238.541 1252.14 238.787 1252.32 238.998C1252.5 239.208 1252.73 239.379 1252.98 239.498C1253.24 239.617 1253.51 239.683 1253.79 239.69C1254.07 239.697 1254.35 239.646 1254.61 239.54C1254.87 239.434 1255.1 239.275 1255.3 239.074C1255.49 238.873 1255.64 238.634 1255.73 238.372L1255.74 238.368V238.364C1255.81 238.208 1255.92 238.005 1255.98 237.86C1256.21 237.265 1256.4 236.658 1256.56 236.041C1256.91 234.787 1257.43 233.587 1258.11 232.477C1258.35 232.255 1258.65 232.109 1258.97 232.059L1259.42 231.246C1265.36 233.511 1271.93 233.527 1277.87 231.293C1278 231.517 1278.24 231.947 1278.3 232.056C1278.71 232.12 1279.07 232.341 1279.32 232.671C1279.89 233.736 1280.35 234.854 1280.69 236.007C1280.85 236.624 1281.04 237.231 1281.27 237.826C1281.34 237.972 1281.44 238.178 1281.52 238.334C1281.61 238.596 1281.76 238.836 1281.96 239.037C1282.15 239.238 1282.38 239.397 1282.64 239.504C1282.9 239.61 1283.18 239.662 1283.46 239.655C1283.74 239.648 1284.02 239.583 1284.27 239.464C1284.52 239.345 1284.75 239.175 1284.93 238.965C1285.11 238.754 1285.25 238.508 1285.33 238.242C1285.41 237.976 1285.44 237.695 1285.4 237.419C1285.37 237.143 1285.28 236.877 1285.13 236.639C1285.06 236.482 1284.95 236.253 1284.87 236.105C1284.55 235.557 1284.19 235.029 1283.8 234.523C1283.11 233.533 1282.52 232.478 1282.03 231.373C1281.92 230.978 1281.98 230.558 1282.18 230.203C1282.05 229.943 1281.94 229.676 1281.85 229.402C1287.34 226.172 1291.44 221.051 1293.37 215.014C1293.63 215.055 1294.08 215.133 1294.23 215.163C1294.53 214.886 1294.93 214.738 1295.35 214.751C1296.54 214.977 1297.71 215.318 1298.83 215.768C1299.42 216.032 1300.02 216.261 1300.63 216.456C1300.77 216.493 1300.98 216.529 1301.14 216.565C1301.16 216.569 1301.17 216.575 1301.18 216.578L1301.21 216.583C1301.48 216.669 1301.76 216.7 1302.04 216.672C1302.31 216.645 1302.58 216.56 1302.83 216.424C1303.07 216.288 1303.28 216.103 1303.45 215.88C1303.61 215.658 1303.73 215.404 1303.79 215.134C1303.86 214.864 1303.86 214.584 1303.81 214.312C1303.76 214.04 1303.65 213.782 1303.49 213.554C1303.33 213.327 1303.12 213.135 1302.88 212.991C1302.64 212.846 1302.38 212.753 1302.1 212.716ZM1283.11 192.508L1274.56 198.519L1274.53 198.505C1274.27 198.691 1273.97 198.805 1273.65 198.834C1273.34 198.863 1273.02 198.806 1272.73 198.669C1272.44 198.532 1272.2 198.32 1272.02 198.057C1271.85 197.793 1271.75 197.487 1271.73 197.171L1271.72 197.166L1271.13 186.775C1275.65 187.332 1279.85 189.346 1283.11 192.508H1283.11ZM1267.01 203.898H1270.23L1272.23 206.378L1271.51 209.471L1268.62 210.851L1265.72 209.468L1265.01 206.374L1267.01 203.898ZM1263.99 187.139C1264.69 186.982 1265.4 186.86 1266.12 186.775L1265.52 197.182L1265.48 197.203C1265.47 197.519 1265.37 197.825 1265.19 198.09C1265.02 198.354 1264.77 198.566 1264.49 198.704C1264.2 198.841 1263.88 198.899 1263.56 198.871C1263.25 198.843 1262.94 198.729 1262.68 198.543L1262.67 198.553L1254.07 192.502C1256.81 189.832 1260.24 187.974 1263.99 187.139ZM1250.95 196.391L1258.8 203.36L1258.79 203.402C1259.03 203.61 1259.21 203.879 1259.31 204.18C1259.41 204.481 1259.42 204.803 1259.35 205.111C1259.28 205.42 1259.13 205.703 1258.91 205.932C1258.69 206.16 1258.41 206.325 1258.1 206.408L1258.09 206.442L1248.03 209.324C1247.53 204.811 1248.55 200.26 1250.95 196.391ZM1261.46 214.904L1257.46 224.493C1253.62 222.055 1250.7 218.428 1249.16 214.175L1259.47 212.435L1259.49 212.458C1259.61 212.437 1259.72 212.426 1259.84 212.428C1260.13 212.432 1260.41 212.507 1260.66 212.646C1260.92 212.785 1261.13 212.984 1261.29 213.225C1261.45 213.466 1261.54 213.741 1261.57 214.027C1261.59 214.314 1261.55 214.601 1261.43 214.865L1261.46 214.904ZM1273.26 227.235C1269.52 228.087 1265.62 227.887 1261.98 226.66L1267.06 217.553H1267.07C1267.22 217.275 1267.44 217.042 1267.71 216.88C1267.99 216.718 1268.3 216.632 1268.62 216.632C1268.94 216.631 1269.25 216.717 1269.52 216.878C1269.8 217.04 1270.02 217.272 1270.17 217.55H1270.21L1275.3 226.672C1274.64 226.891 1273.96 227.079 1273.26 227.236V227.235ZM1279.82 224.531L1275.78 214.845L1275.79 214.827C1275.61 214.413 1275.6 213.946 1275.76 213.524C1275.92 213.101 1276.24 212.756 1276.65 212.56C1276.86 212.457 1277.09 212.398 1277.32 212.386C1277.46 212.38 1277.59 212.39 1277.73 212.416L1277.74 212.394L1288.16 214.14C1286.62 218.427 1283.69 222.083 1279.82 224.531ZM1289.25 209.29L1279.13 206.399L1279.12 206.357C1278.82 206.273 1278.54 206.107 1278.32 205.879C1278.1 205.65 1277.95 205.367 1277.87 205.059C1277.8 204.75 1277.82 204.429 1277.92 204.128C1278.01 203.827 1278.19 203.559 1278.43 203.35L1278.43 203.33L1286.24 196.396C1288.63 200.254 1289.69 204.782 1289.25 209.291L1289.25 209.29Z" fill="white"/>
<g filter="url(#filter0_d_1477_251)">
<path fill-rule="evenodd" clip-rule="evenodd" d="M526.001 263H406.001V299.864C415.221 299.803 424.609 301.276 433.821 304.45C461.653 314.04 482.737 335.798 488.084 366.462L454.2 366.478C448.076 350.481 437.833 339.818 423.354 334.829C396.44 325.555 367.103 339.856 357.829 366.77C348.555 393.684 362.856 423.02 389.77 432.294C415.718 441.235 446.778 426.481 454.214 398.478L488.099 398.463C488.1 401.129 486.578 408.197 485.674 410.821C473.676 445.641 440.935 467.484 406.001 467.255V503H526.001V263Z" fill="#7A49F6"/>
<path d="M454.214 398.479C446.778 426.482 415.718 441.236 389.77 432.295C362.856 423.021 348.555 393.685 357.829 366.771C367.103 339.856 396.439 325.555 423.353 334.829C437.832 339.818 448.076 350.481 454.199 366.478L488.084 366.463C482.736 335.799 461.652 314.04 433.82 304.45C390.128 289.395 342.504 312.61 327.45 356.303C312.395 399.995 335.61 447.619 379.302 462.674C422.995 477.729 470.633 454.471 485.673 410.822C486.578 408.198 488.099 401.13 488.098 398.463L454.214 398.479Z" fill="white"/>
<path fill-rule="evenodd" clip-rule="evenodd" d="M286 263H406V299.864C371.493 300.096 339.33 321.823 327.449 356.303C312.395 399.995 335.61 447.618 379.302 462.673C388.141 465.719 397.141 467.196 406 467.255V503H286V263ZM319.429 320.429C332.683 320.429 343.429 309.683 343.429 296.429C343.429 283.174 332.683 272.429 319.429 272.429C306.174 272.429 295.429 283.174 295.429 296.429C295.429 309.683 306.174 320.429 319.429 320.429Z" fill="black"/>
<path d="M343.429 296.43C343.429 309.685 332.684 320.43 319.429 320.43C306.174 320.43 295.429 309.685 295.429 296.43C295.429 283.175 306.174 272.43 319.429 272.43C332.684 272.43 343.429 283.175 343.429 296.43Z" fill="white"/>
</g>
<path d="M496.988 541.276V546.791H482.141V541.276H496.988ZM485.252 535.638H492.745V557.41C492.745 557.869 492.816 558.243 492.959 558.528C493.112 558.805 493.331 559.004 493.617 559.126C493.903 559.238 494.246 559.294 494.644 559.294C494.93 559.294 495.232 559.269 495.548 559.218C495.875 559.157 496.12 559.105 496.284 559.065L497.417 564.474C497.06 564.575 496.554 564.704 495.901 564.857C495.257 565.01 494.486 565.107 493.587 565.148C491.83 565.229 490.323 565.025 489.067 564.534C487.82 564.034 486.866 563.258 486.201 562.206C485.548 561.154 485.232 559.831 485.252 558.237V535.638Z" fill="black"/>
<path d="M479.433 548.46L472.554 548.644C472.482 548.153 472.288 547.72 471.971 547.342C471.655 546.954 471.241 546.652 470.731 546.437C470.23 546.213 469.648 546.101 468.983 546.101C468.115 546.101 467.375 546.274 466.762 546.622C466.159 546.969 465.863 547.439 465.873 548.032C465.863 548.491 466.047 548.889 466.425 549.227C466.813 549.563 467.502 549.834 468.493 550.039L473.028 550.897C475.378 551.346 477.125 552.092 478.268 553.134C479.423 554.176 480.005 555.554 480.016 557.27C480.005 558.884 479.525 560.289 478.575 561.484C477.635 562.679 476.348 563.609 474.714 564.273C473.08 564.927 471.211 565.254 469.106 565.254C465.746 565.254 463.095 564.563 461.154 563.185C459.223 561.796 458.12 559.937 457.845 557.608L465.244 557.424C465.408 558.282 465.832 558.936 466.516 559.385C467.201 559.835 468.075 560.059 469.136 560.059C470.097 560.059 470.878 559.881 471.481 559.523C472.083 559.166 472.391 558.69 472.4 558.098C472.391 557.567 472.156 557.143 471.696 556.826C471.235 556.499 470.516 556.244 469.535 556.06L465.429 555.279C463.069 554.85 461.313 554.058 460.159 552.904C459.004 551.739 458.432 550.258 458.442 548.46C458.432 546.887 458.85 545.544 459.698 544.431C460.546 543.307 461.752 542.449 463.315 541.856C464.878 541.264 466.721 540.967 468.846 540.967C472.033 540.967 474.546 541.637 476.384 542.975C478.223 544.303 479.239 546.131 479.433 548.46Z" fill="black"/>
<path d="M440.239 565.207C438.738 565.207 437.405 564.957 436.24 564.457C435.085 563.946 434.172 563.179 433.498 562.158C432.833 561.127 432.502 559.834 432.502 558.282C432.502 556.974 432.732 555.871 433.191 554.972C433.651 554.073 434.284 553.343 435.091 552.781C435.898 552.219 436.827 551.795 437.879 551.509C438.932 551.214 440.055 551.014 441.25 550.912C442.589 550.79 443.666 550.661 444.484 550.529C445.301 550.386 445.893 550.187 446.261 549.931C446.639 549.666 446.828 549.293 446.828 548.813V548.736C446.828 547.95 446.557 547.342 446.016 546.913C445.474 546.484 444.744 546.269 443.825 546.269C442.834 546.269 442.037 546.484 441.435 546.913C440.832 547.342 440.449 547.934 440.285 548.691L433.375 548.445C433.58 547.015 434.105 545.738 434.953 544.614C435.811 543.481 436.986 542.592 438.477 541.949C439.978 541.294 441.782 540.967 443.886 540.967C445.388 540.967 446.772 541.146 448.038 541.504C449.305 541.852 450.408 542.362 451.348 543.036C452.287 543.701 453.013 544.517 453.523 545.488C454.044 546.458 454.305 547.567 454.305 548.813V564.809H447.257V561.53H447.073C446.654 562.327 446.118 563.001 445.464 563.553C444.82 564.104 444.06 564.518 443.181 564.794C442.313 565.069 441.332 565.207 440.239 565.207ZM442.553 560.305C443.36 560.305 444.085 560.141 444.729 559.814C445.382 559.487 445.903 559.037 446.292 558.466C446.679 557.883 446.873 557.209 446.873 556.443V554.206C446.66 554.318 446.399 554.421 446.092 554.512C445.796 554.605 445.469 554.691 445.112 554.773C444.754 554.855 444.387 554.926 444.008 554.988C443.631 555.048 443.268 555.106 442.921 555.156C442.215 555.268 441.614 555.442 441.113 555.677C440.622 555.912 440.245 556.219 439.978 556.596C439.724 556.964 439.595 557.403 439.595 557.914C439.595 558.69 439.872 559.283 440.423 559.691C440.985 560.1 441.694 560.305 442.553 560.305Z" fill="black"/>
<path d="M416.328 564.81V541.276H423.607V545.566H423.852C424.281 544.012 424.98 542.858 425.951 542.103C426.921 541.336 428.05 540.953 429.337 540.953C429.684 540.953 430.041 540.979 430.409 541.03C430.777 541.071 431.12 541.138 431.436 541.229V547.741C431.079 547.618 430.609 547.521 430.026 547.45C429.455 547.379 428.943 547.343 428.495 547.343C427.606 547.343 426.804 547.542 426.089 547.941C425.384 548.328 424.827 548.875 424.418 549.579C424.02 550.274 423.821 551.092 423.821 552.031V564.81H416.328Z" fill="black"/>
<path d="M412.506 541.276V546.791H397.659V541.276H412.506ZM400.769 535.638H408.261V557.41C408.261 557.869 408.333 558.243 408.476 558.528C408.629 558.805 408.849 559.004 409.135 559.126C409.421 559.238 409.763 559.294 410.162 559.294C410.448 559.294 410.748 559.269 411.066 559.218C411.392 559.157 411.637 559.105 411.801 559.065L412.935 564.474C412.577 564.575 412.072 564.704 411.417 564.857C410.774 565.01 410.003 565.107 409.105 565.148C407.347 565.229 405.84 565.025 404.584 564.534C403.338 564.034 402.383 563.258 401.719 562.206C401.065 561.154 400.748 559.831 400.769 558.237V535.638Z" fill="black"/>
<path d="M379.367 551.387V564.809H371.875V541.275H379V545.595H379.26C379.781 544.155 380.67 543.026 381.927 542.209C383.182 541.381 384.68 540.967 386.416 540.967C388.071 540.967 389.506 541.34 390.721 542.086C391.947 542.822 392.897 543.854 393.571 545.182C394.256 546.499 394.593 548.041 394.583 549.808V564.809H387.09V551.279C387.1 549.972 386.768 548.951 386.094 548.215C385.43 547.479 384.506 547.111 383.32 547.111C382.534 547.111 381.839 547.285 381.236 547.632C380.644 547.97 380.185 548.455 379.858 549.089C379.541 549.722 379.378 550.488 379.367 551.387Z" fill="black"/>
<path d="M356.148 565.254C353.676 565.254 351.551 564.748 349.774 563.736C348.007 562.715 346.643 561.295 345.683 559.477C344.733 557.648 344.258 555.529 344.258 553.119C344.258 550.697 344.733 548.577 345.683 546.76C346.643 544.931 348.007 543.511 349.774 542.5C351.551 541.479 353.676 540.967 356.148 540.967C358.62 540.967 360.739 541.479 362.507 542.5C364.284 543.511 365.647 544.931 366.597 546.76C367.557 548.577 368.037 550.697 368.037 553.119C368.037 555.529 367.557 557.648 366.597 559.477C365.647 561.295 364.284 562.715 362.507 563.736C360.739 564.748 358.62 565.254 356.148 565.254ZM356.194 559.599C357.093 559.599 357.854 559.324 358.477 558.772C359.1 558.221 359.575 557.455 359.902 556.473C360.239 555.493 360.407 554.359 360.407 553.072C360.407 551.765 360.239 550.62 359.902 549.64C359.575 548.659 359.1 547.894 358.477 547.342C357.854 546.79 357.093 546.515 356.194 546.515C355.264 546.515 354.478 546.79 353.834 547.342C353.201 547.894 352.716 548.659 352.379 549.64C352.052 550.62 351.888 551.765 351.888 553.072C351.888 554.359 352.052 555.493 352.379 556.473C352.716 557.455 353.201 558.221 353.834 558.772C354.478 559.324 355.264 559.599 356.194 559.599Z" fill="black"/>
<path d="M340.821 544.799H333.16C333.058 544.012 332.848 543.301 332.532 542.668C332.215 542.035 331.796 541.494 331.275 541.045C330.754 540.595 330.136 540.253 329.421 540.018C328.717 539.773 327.935 539.65 327.077 539.65C325.555 539.65 324.242 540.023 323.139 540.769C322.046 541.514 321.204 542.592 320.611 544.001C320.029 545.411 319.738 547.117 319.738 549.119C319.738 551.203 320.034 552.95 320.626 554.359C321.229 555.759 322.072 556.816 323.155 557.531C324.248 558.236 325.54 558.588 327.031 558.588C327.869 558.588 328.63 558.481 329.314 558.267C330.009 558.052 330.617 557.741 331.137 557.332C331.669 556.913 332.103 556.407 332.44 555.815C332.787 555.212 333.027 554.533 333.16 553.778L340.821 553.823C340.688 555.212 340.285 556.581 339.611 557.929C338.947 559.278 338.032 560.509 336.868 561.622C335.703 562.725 334.284 563.603 332.608 564.258C330.943 564.912 329.033 565.239 326.878 565.239C324.038 565.239 321.495 564.615 319.247 563.369C317.01 562.113 315.243 560.284 313.946 557.883C312.649 555.483 312 552.562 312 549.119C312 545.667 312.659 542.741 313.977 540.339C315.294 537.939 317.077 536.115 319.324 534.869C321.571 533.623 324.089 533 326.878 533C328.778 533 330.535 533.265 332.149 533.797C333.763 534.318 335.182 535.084 336.408 536.096C337.634 537.097 338.63 538.328 339.396 539.788C340.162 541.249 340.637 542.918 340.821 544.799Z" fill="black"/>
<g clip-path="url(#clip0_1477_251)">
<path d="M642.5 362.027C642.5 359.235 644.799 356.972 647.635 356.972H712.873C715.709 356.972 718.008 359.235 718.008 362.027V408.945C718.008 411.737 715.709 414 712.873 414H647.635C644.799 414 642.5 411.737 642.5 408.945V362.027Z" fill="#7A49F6"/>
<path fill-rule="evenodd" clip-rule="evenodd" d="M712.873 360.005H647.635C646.501 360.005 645.581 360.91 645.581 362.027V408.945C645.581 410.062 646.501 410.967 647.635 410.967H712.873C714.007 410.967 714.927 410.062 714.927 408.945V362.027C714.927 360.91 714.007 360.005 712.873 360.005ZM647.635 356.972C644.799 356.972 642.5 359.235 642.5 362.027V408.945C642.5 411.737 644.799 414 647.635 414H712.873C715.709 414 718.008 411.737 718.008 408.945V362.027C718.008 359.235 715.709 356.972 712.873 356.972H647.635Z" fill="#7A49F6"/>
<path d="M688.716 382.13C688.716 385.461 686.658 388.32 683.722 389.55C683.722 390.404 683.722 396.667 683.722 398.301C683.287 398.301 677.695 398.365 677.278 398.301C677.278 395.306 677.278 390.677 677.278 389.55C674.342 388.32 672.284 385.461 672.284 382.13C672.284 377.676 675.962 374.066 680.5 374.066C685.038 374.066 688.716 377.676 688.716 382.13Z" fill="white"/>
<path fill-rule="evenodd" clip-rule="evenodd" d="M680.5 375.582C676.809 375.582 673.824 378.518 673.824 382.13C673.824 384.829 675.491 387.153 677.881 388.154L678.818 388.547V396.813C679.321 396.814 679.901 396.812 680.485 396.809C681.07 396.805 681.664 396.801 682.181 396.797V388.547L683.119 388.154C685.509 387.153 687.176 384.829 687.176 382.13C687.176 378.518 684.191 375.582 680.5 375.582ZM670.743 382.13C670.743 376.834 675.116 372.549 680.5 372.549C685.884 372.549 690.257 376.834 690.257 382.13C690.257 385.726 688.239 388.855 685.262 390.492V399.818H683.722C683.64 399.818 683.379 399.82 683.004 399.823C682.384 399.828 681.452 399.837 680.501 399.842C679.748 399.846 678.99 399.848 678.392 399.845C678.093 399.843 677.829 399.84 677.621 399.836H677.62C677.467 399.832 677.216 399.826 677.041 399.799L675.737 399.599V390.493C672.761 388.855 670.743 385.726 670.743 382.13Z" fill="white"/>
<path fill-rule="evenodd" clip-rule="evenodd" d="M666.311 330.608C662.305 333.984 659.451 339.123 659.451 346.264V346.306L659.449 346.348C659.449 346.347 659.449 346.383 659.449 346.453C659.448 346.674 659.447 347.237 659.446 348.06C659.446 349.095 659.446 350.459 659.447 351.823C659.448 353.925 659.45 356.03 659.451 356.932C659.451 357.199 659.451 357.361 659.451 357.384H656.37C656.37 357.371 656.37 357.268 656.37 357.093C656.368 355.431 656.36 347.214 656.371 346.264C656.371 338.239 659.616 332.257 664.308 328.304C668.962 324.381 674.976 322.505 680.503 322.505C686.03 322.505 692.043 324.381 696.698 328.304C701.389 332.257 704.635 338.239 704.635 346.264V357.384H701.554V346.264C701.554 339.123 698.7 333.984 694.694 330.608C690.651 327.201 685.368 325.538 680.503 325.538C675.637 325.538 670.355 327.201 666.311 330.608Z" fill="#7A49F6"/>
<path fill-rule="evenodd" clip-rule="evenodd" d="M670.478 335.263C667.669 337.733 665.612 341.605 665.612 347.275L665.612 357.385H658.731L658.731 347.275C658.731 340.812 659.21 334.195 662.725 331.104C666.206 328.044 676.394 323.829 680.5 323.829C684.606 323.829 691.945 326.147 695.427 329.207C698.943 332.297 702.273 340.812 702.273 347.275V357.385H695.392V347.275C695.392 341.605 693.335 337.733 690.525 335.263C687.68 332.763 683.952 331.604 680.5 331.604C677.048 331.604 673.322 332.763 670.478 335.263Z" fill="#7A49F6"/>
</g>
<path d="M1005 640.874V470.748C1005 469.091 1003.66 467.748 1002 467.748H835C833.343 467.748 832 466.405 832 464.748V295C832 293.343 833.343 292 835 292H1178.9C1180.55 292 1181.9 293.343 1181.9 295V462.748C1181.9 464.405 1183.24 465.748 1184.9 465.748H1354.5C1356.16 465.748 1357.5 467.091 1357.5 468.748V640.874C1357.5 642.531 1356.16 643.874 1354.5 643.874H1008C1006.34 643.874 1005 642.531 1005 640.874Z" stroke="black" stroke-width="4" stroke-dasharray="10 10"/>
<defs>
<filter id="filter0_d_1477_251" x="282" y="263" width="248.001" height="248" filterUnits="userSpaceOnUse" color-interpolation-filters="sRGB">
<feFlood flood-opacity="0" result="BackgroundImageFix"/>
<feColorMatrix in="SourceAlpha" type="matrix" values="0 0 0 0 0 0 0 0 0 0 0 0 0 0 0 0 0 0 127 0" result="hardAlpha"/>
<feOffset dy="4"/>
<feGaussianBlur stdDeviation="2"/>
<feComposite in2="hardAlpha" operator="out"/>
<feColorMatrix type="matrix" values="0 0 0 0 0 0 0 0 0 0 0 0 0 0 0 0 0 0 0.25 0"/>
<feBlend mode="normal" in2="BackgroundImageFix" result="effect1_dropShadow_1477_251"/>
<feBlend mode="normal" in="SourceGraphic" in2="effect1_dropShadow_1477_251" result="shape"/>
</filter>
<linearGradient id="paint0_linear_1477_251" x1="920" y1="304" x2="920" y2="456" gradientUnits="userSpaceOnUse">
<stop stop-color="#75FB7A"/>
<stop offset="1" stop-color="#D9D9D9"/>
</linearGradient>
<linearGradient id="paint1_linear_1477_251" x1="1094" y1="304" x2="1094" y2="456" gradientUnits="userSpaceOnUse">
<stop stop-color="#75FB7A"/>
<stop offset="1" stop-color="#D9D9D9"/>
</linearGradient>
<linearGradient id="paint2_linear_1477_251" x1="1094" y1="478" x2="1094" y2="630" gradientUnits="userSpaceOnUse">
<stop stop-color="#75FB7A"/>
<stop offset="1" stop-color="#D9D9D9"/>
</linearGradient>
<linearGradient id="paint3_linear_1477_251" x1="1268" y1="478" x2="1268" y2="630" gradientUnits="userSpaceOnUse">
<stop stop-color="#75FB7A"/>
<stop offset="1" stop-color="#D9D9D9"/>
</linearGradient>
<clipPath id="clip0_1477_251">
<rect width="76" height="92" fill="white" transform="translate(642.5 322)"/>
</clipPath>
</defs>
</svg>
