<svg width="1776" height="746" viewBox="0 0 1776 746" fill="none" xmlns="http://www.w3.org/2000/svg">
<g clip-path="url(#clip0_543_1292)">
<rect width="1776" height="746" fill="white"/>
<path fill-rule="evenodd" clip-rule="evenodd" d="M409 131H328V155.883C334.224 155.842 340.56 156.836 346.779 158.979C365.565 165.452 379.797 180.139 383.406 200.837L360.534 200.847C356.401 190.049 349.487 182.852 339.713 179.484C321.546 173.225 301.744 182.877 295.485 201.044C289.225 219.212 298.877 239.013 317.045 245.273C334.56 251.308 355.525 241.349 360.544 222.448L383.416 222.437C383.417 224.237 382.389 229.008 381.779 230.779C373.681 254.282 351.58 269.026 328 268.871V292.999H409V131Z" fill="#7A49F6"/>
<path d="M360.544 222.447C355.525 241.349 334.559 251.308 317.045 245.273C298.877 239.013 289.224 219.212 295.484 201.044C301.744 182.877 321.546 173.224 339.713 179.484C349.486 182.852 356.401 190.049 360.534 200.847L383.406 200.837C379.796 180.138 365.564 165.451 346.778 158.978C317.286 148.816 285.14 164.486 274.978 193.979C264.816 223.471 280.487 255.617 309.978 265.779C339.471 275.941 371.627 260.242 381.779 230.779C382.389 229.008 383.416 224.237 383.416 222.437L360.544 222.447Z" fill="white"/>
<path fill-rule="evenodd" clip-rule="evenodd" d="M247 131H328V155.883C304.707 156.039 282.998 170.705 274.978 193.979C264.816 223.471 280.487 255.617 309.978 265.779C315.945 267.835 322.02 268.832 328 268.871V292.999H247V131ZM269.564 169.764C278.511 169.764 285.764 162.511 285.764 153.564C285.764 144.617 278.511 137.364 269.564 137.364C260.617 137.364 253.364 144.617 253.364 153.564C253.364 162.511 260.617 169.764 269.564 169.764Z" fill="black"/>
<path d="M285.764 153.565C285.764 162.512 278.511 169.765 269.564 169.765C260.617 169.765 253.364 162.512 253.364 153.565C253.364 144.618 260.617 137.365 269.564 137.365C278.511 137.365 285.764 144.618 285.764 153.565Z" fill="white"/>
<path d="M589 145C589 143.895 589.895 143 591 143H727C728.105 143 729 143.895 729 145V281C729 282.105 728.105 283 727 283H591C589.895 283 589 282.105 589 281V145Z" fill="url(#paint0_linear_543_1292)"/>
<path fill-rule="evenodd" clip-rule="evenodd" d="M592 146V280H726V146H592ZM591 143C589.895 143 589 143.895 589 145V281C589 282.105 589.895 283 591 283H727C728.105 283 729 282.105 729 281V145C729 143.895 728.105 143 727 143H591Z" fill="black"/>
<path d="M749 145C749 143.895 749.895 143 751 143H887C888.105 143 889 143.895 889 145V281C889 282.105 888.105 283 887 283H751C749.895 283 749 282.105 749 281V145Z" fill="url(#paint1_linear_543_1292)"/>
<path fill-rule="evenodd" clip-rule="evenodd" d="M752 146V280H886V146H752ZM751 143C749.895 143 749 143.895 749 145V281C749 282.105 749.895 283 751 283H887C888.105 283 889 282.105 889 281V145C889 143.895 888.105 143 887 143H751Z" fill="black"/>
<path d="M909 -17H1049V123H909V-17Z" fill="#D9D9D9"/>
<path d="M1069 143H1209V283H1069V143Z" fill="#D9D9D9"/>
<path d="M1069 -17H1209V123H1069V-17Z" fill="#D9D9D9"/>
<path d="M749 303H889V443H749V303Z" fill="#D9D9D9"/>
<path d="M749 463H889V603H749V463Z" fill="#D9D9D9"/>
<path d="M589 463H729V603H589V463Z" fill="#D9D9D9"/>
<path d="M589 623H729V763H589V623Z" fill="#D9D9D9"/>
<path d="M909 623H1049V763H909V623Z" fill="#D9D9D9"/>
<path d="M1069 623H1209V763H1069V623Z" fill="#D9D9D9"/>
<path d="M749 -17H889V123H749V-17Z" fill="#D9D9D9"/>
<path d="M1389 463H1529V603H1389V463Z" fill="#D9D9D9"/>
<path d="M1389 303H1529V443H1389V303Z" fill="#D9D9D9"/>
<path d="M1389 -17H1529V123H1389V-17Z" fill="#D9D9D9"/>
<path d="M1229 143H1369V283H1229V143Z" fill="#D9D9D9"/>
<path d="M909 145C909 143.895 909.895 143 911 143H1047C1048.1 143 1049 143.895 1049 145V281C1049 282.105 1048.1 283 1047 283H911C909.895 283 909 282.105 909 281V145Z" fill="url(#paint2_linear_543_1292)"/>
<path fill-rule="evenodd" clip-rule="evenodd" d="M912 146V280H1046V146H912ZM911 143C909.895 143 909 143.895 909 145V281C909 282.105 909.895 283 911 283H1047C1048.1 283 1049 282.105 1049 281V145C1049 143.895 1048.1 143 1047 143H911Z" fill="black"/>
<path d="M909 305C909 303.895 909.895 303 911 303H1047C1048.1 303 1049 303.895 1049 305V441C1049 442.105 1048.1 443 1047 443H911C909.895 443 909 442.105 909 441V305Z" fill="url(#paint3_linear_543_1292)"/>
<path fill-rule="evenodd" clip-rule="evenodd" d="M912 306V440H1046V306H912ZM911 303C909.895 303 909 303.895 909 305V441C909 442.105 909.895 443 911 443H1047C1048.1 443 1049 442.105 1049 441V305C1049 303.895 1048.1 303 1047 303H911Z" fill="black"/>
<path d="M909 465C909 463.895 909.895 463 911 463H1047C1048.1 463 1049 463.895 1049 465V601C1049 602.105 1048.1 603 1047 603H911C909.895 603 909 602.105 909 601V465Z" fill="url(#paint4_linear_543_1292)"/>
<path fill-rule="evenodd" clip-rule="evenodd" d="M912 466V600H1046V466H912ZM911 463C909.895 463 909 463.895 909 465V601C909 602.105 909.895 603 911 603H1047C1048.1 603 1049 602.105 1049 601V465C1049 463.895 1048.1 463 1047 463H911Z" fill="black"/>
<path d="M1069 465C1069 463.895 1069.9 463 1071 463H1207C1208.1 463 1209 463.895 1209 465V601C1209 602.105 1208.1 603 1207 603H1071C1069.9 603 1069 602.105 1069 601V465Z" fill="url(#paint5_linear_543_1292)"/>
<path fill-rule="evenodd" clip-rule="evenodd" d="M1072 466V600H1206V466H1072ZM1071 463C1069.9 463 1069 463.895 1069 465V601C1069 602.105 1069.9 603 1071 603H1207C1208.1 603 1209 602.105 1209 601V465C1209 463.895 1208.1 463 1207 463H1071Z" fill="black"/>
<path d="M1229 465C1229 463.895 1229.9 463 1231 463H1367C1368.1 463 1369 463.895 1369 465V601C1369 602.105 1368.1 603 1367 603H1231C1229.9 603 1229 602.105 1229 601V465Z" fill="url(#paint6_linear_543_1292)"/>
<path fill-rule="evenodd" clip-rule="evenodd" d="M1232 466V600H1366V466H1232ZM1231 463C1229.9 463 1229 463.895 1229 465V601C1229 602.105 1229.9 603 1231 603H1367C1368.1 603 1369 602.105 1369 601V465C1369 463.895 1368.1 463 1367 463H1231Z" fill="black"/>
<path d="M670.93 256.924L614.904 220.218C614.34 219.848 614 219.219 614 218.545L614 188.734C614 188.045 614.355 187.404 614.94 187.038L644.915 168.304C645.576 167.89 646.418 167.899 647.071 168.327L703.096 205.033C703.66 205.403 704 206.032 704 206.706V236.517C704 237.207 703.645 237.848 703.06 238.213L673.086 256.947C672.424 257.361 671.582 257.352 670.93 256.924Z" fill="white"/>
<path fill-rule="evenodd" clip-rule="evenodd" d="M672.038 254.064L617 218.005L617 189.288L645.962 171.187L701 207.247V235.963L672.038 254.064ZM614.904 220.218L670.93 256.924C671.582 257.352 672.424 257.361 673.086 256.947L703.06 238.213C703.645 237.848 704 237.207 704 236.517V206.706C704 206.032 703.66 205.403 703.096 205.033L647.071 168.327C646.418 167.899 645.576 167.89 644.915 168.304L614.94 187.038C614.355 187.404 614 188.045 614 188.734L614 218.545C614 219.219 614.34 219.848 614.904 220.218Z" fill="black"/>
<path fill-rule="evenodd" clip-rule="evenodd" d="M670.5 224.786L702.216 205.347L703.784 207.904L673.5 226.466V254.626H670.5V224.786Z" fill="black"/>
<path fill-rule="evenodd" clip-rule="evenodd" d="M616 187.625L673 224.625L671.366 227.142L614.366 190.142L616 187.625Z" fill="black"/>
<path d="M621 200.087C621 198.964 622.189 198.239 623.187 198.754C623.686 199.011 624 199.526 624 200.087V218.064C624 219.21 622.766 219.933 621.766 219.372C621.293 219.107 621 218.607 621 218.064V200.087Z" fill="black"/>
<path d="M628 204.087C628 202.964 629.189 202.239 630.187 202.754C630.686 203.011 631 203.526 631 204.087V222.064C631 223.21 629.766 223.933 628.766 223.372C628.293 223.107 628 222.607 628 222.064V204.087Z" fill="black"/>
<path d="M635 209.087C635 207.964 636.189 207.239 637.187 207.754C637.686 208.011 638 208.526 638 209.087V227.064C638 228.21 636.766 228.933 635.766 228.372C635.293 228.107 635 227.607 635 227.064V209.087Z" fill="black"/>
<path d="M642 213.087C642 211.964 643.189 211.239 644.187 211.754C644.686 212.011 645 212.526 645 213.087V231.064C645 232.21 643.766 232.933 642.766 232.372C642.293 232.107 642 231.607 642 231.064V213.087Z" fill="black"/>
<path d="M649 218.087C649 216.964 650.189 216.239 651.187 216.754C651.686 217.011 652 217.526 652 218.087V236.064C652 237.21 650.766 237.933 649.766 237.372C649.293 237.107 649 236.607 649 236.064V218.087Z" fill="black"/>
<path d="M656 223.087C656 221.964 657.189 221.239 658.187 221.754C658.686 222.011 659 222.526 659 223.087V241.064C659 242.21 657.766 242.933 656.766 242.372C656.293 242.107 656 241.607 656 241.064V223.087Z" fill="black"/>
<path d="M663 227.087C663 225.964 664.189 225.239 665.187 225.754C665.686 226.011 666 226.526 666 227.087V245.064C666 246.21 664.766 246.933 663.766 246.372C663.293 246.107 663 245.607 663 245.064V227.087Z" fill="black"/>
<path d="M830.93 261.924L774.904 225.218C774.34 224.848 774 224.219 774 223.545L774 193.734C774 193.045 774.355 192.404 774.94 192.038L804.915 173.304C805.576 172.89 806.418 172.899 807.071 173.327L863.096 210.033C863.66 210.403 864 211.032 864 211.706V241.517C864 242.207 863.645 242.848 863.06 243.213L833.086 261.947C832.424 262.361 831.582 262.352 830.93 261.924Z" fill="white"/>
<path fill-rule="evenodd" clip-rule="evenodd" d="M832.038 259.064L777 223.005L777 194.288L805.962 176.187L861 212.247V240.963L832.038 259.064ZM774.904 225.218L830.93 261.924C831.582 262.352 832.424 262.361 833.086 261.947L863.06 243.213C863.645 242.848 864 242.207 864 241.517V211.706C864 211.032 863.66 210.403 863.096 210.033L807.071 173.327C806.418 172.899 805.576 172.89 804.915 173.304L774.94 192.038C774.355 192.404 774 193.045 774 193.734L774 223.545C774 224.219 774.34 224.848 774.904 225.218Z" fill="black"/>
<path fill-rule="evenodd" clip-rule="evenodd" d="M830.5 229.786L862.216 210.347L863.784 212.904L833.5 231.466V259.626H830.5V229.786Z" fill="black"/>
<path fill-rule="evenodd" clip-rule="evenodd" d="M776 192.625L833 229.625L831.366 232.142L774.366 195.142L776 192.625Z" fill="black"/>
<path d="M781 205.087C781 203.964 782.189 203.239 783.187 203.754C783.686 204.011 784 204.526 784 205.087V223.064C784 224.21 782.766 224.933 781.766 224.372C781.293 224.107 781 223.607 781 223.064V205.087Z" fill="black"/>
<path d="M788 209.087C788 207.964 789.189 207.239 790.187 207.754C790.686 208.011 791 208.526 791 209.087V227.064C791 228.21 789.766 228.933 788.766 228.372C788.293 228.107 788 227.607 788 227.064V209.087Z" fill="black"/>
<path d="M795 214.087C795 212.964 796.189 212.239 797.187 212.754C797.686 213.011 798 213.526 798 214.087V232.064C798 233.21 796.766 233.933 795.766 233.372C795.293 233.107 795 232.607 795 232.064V214.087Z" fill="black"/>
<path d="M802 218.087C802 216.964 803.189 216.239 804.187 216.754C804.686 217.011 805 217.526 805 218.087V236.064C805 237.21 803.766 237.933 802.766 237.372C802.293 237.107 802 236.607 802 236.064V218.087Z" fill="black"/>
<path d="M809 223.087C809 221.964 810.189 221.239 811.187 221.754C811.686 222.011 812 222.526 812 223.087V241.064C812 242.21 810.766 242.933 809.766 242.372C809.293 242.107 809 241.607 809 241.064V223.087Z" fill="black"/>
<path d="M816 228.087C816 226.964 817.189 226.239 818.187 226.754C818.686 227.011 819 227.526 819 228.087V246.064C819 247.21 817.766 247.933 816.766 247.372C816.293 247.107 816 246.607 816 246.064V228.087Z" fill="black"/>
<path d="M823 232.087C823 230.964 824.189 230.239 825.187 230.754C825.686 231.011 826 231.526 826 232.087V250.064C826 251.21 824.766 251.933 823.766 251.372C823.293 251.107 823 250.607 823 250.064V232.087Z" fill="black"/>
<path d="M990.93 261.924L934.904 225.218C934.34 224.848 934 224.219 934 223.545L934 193.734C934 193.045 934.355 192.404 934.94 192.038L964.915 173.304C965.576 172.89 966.418 172.899 967.071 173.327L1023.1 210.033C1023.66 210.403 1024 211.032 1024 211.706V241.517C1024 242.207 1023.65 242.848 1023.06 243.213L993.086 261.947C992.424 262.361 991.582 262.352 990.93 261.924Z" fill="white"/>
<path fill-rule="evenodd" clip-rule="evenodd" d="M992.038 259.064L937 223.005L937 194.288L965.962 176.187L1021 212.247V240.963L992.038 259.064ZM934.904 225.218L990.93 261.924C991.582 262.352 992.424 262.361 993.086 261.947L1023.06 243.213C1023.65 242.848 1024 242.207 1024 241.517V211.706C1024 211.032 1023.66 210.403 1023.1 210.033L967.071 173.327C966.418 172.899 965.576 172.89 964.915 173.304L934.94 192.038C934.355 192.404 934 193.045 934 193.734L934 223.545C934 224.219 934.34 224.848 934.904 225.218Z" fill="black"/>
<path fill-rule="evenodd" clip-rule="evenodd" d="M990.5 229.786L1022.22 210.347L1023.78 212.904L993.5 231.466V259.626H990.5V229.786Z" fill="black"/>
<path fill-rule="evenodd" clip-rule="evenodd" d="M936 192.625L993 229.625L991.366 232.142L934.366 195.142L936 192.625Z" fill="black"/>
<path d="M941 205.087C941 203.964 942.189 203.239 943.187 203.754C943.686 204.011 944 204.526 944 205.087V223.064C944 224.21 942.766 224.933 941.766 224.372C941.293 224.107 941 223.607 941 223.064V205.087Z" fill="black"/>
<path d="M948 209.087C948 207.964 949.189 207.239 950.187 207.754C950.686 208.011 951 208.526 951 209.087V227.064C951 228.21 949.766 228.933 948.766 228.372C948.293 228.107 948 227.607 948 227.064V209.087Z" fill="black"/>
<path d="M955 214.087C955 212.964 956.189 212.239 957.187 212.754C957.686 213.011 958 213.526 958 214.087V232.064C958 233.21 956.766 233.933 955.766 233.372C955.293 233.107 955 232.607 955 232.064V214.087Z" fill="black"/>
<path d="M962 218.087C962 216.964 963.189 216.239 964.187 216.754C964.686 217.011 965 217.526 965 218.087V236.064C965 237.21 963.766 237.933 962.766 237.372C962.293 237.107 962 236.607 962 236.064V218.087Z" fill="black"/>
<path d="M969 223.087C969 221.964 970.189 221.239 971.187 221.754C971.686 222.011 972 222.526 972 223.087V241.064C972 242.21 970.766 242.933 969.766 242.372C969.293 242.107 969 241.607 969 241.064V223.087Z" fill="black"/>
<path d="M976 228.087C976 226.964 977.189 226.239 978.187 226.754C978.686 227.011 979 227.526 979 228.087V246.064C979 247.21 977.766 247.933 976.766 247.372C976.293 247.107 976 246.607 976 246.064V228.087Z" fill="black"/>
<path d="M983 232.087C983 230.964 984.189 230.239 985.187 230.754C985.686 231.011 986 231.526 986 232.087V250.064C986 251.21 984.766 251.933 983.766 251.372C983.293 251.107 983 250.607 983 250.064V232.087Z" fill="black"/>
<path d="M990.93 416.924L934.904 380.218C934.34 379.848 934 379.219 934 378.545L934 348.734C934 348.045 934.355 347.404 934.94 347.038L964.915 328.304C965.576 327.89 966.418 327.899 967.071 328.327L1023.1 365.033C1023.66 365.403 1024 366.032 1024 366.706V396.517C1024 397.207 1023.65 397.848 1023.06 398.213L993.086 416.947C992.424 417.361 991.582 417.352 990.93 416.924Z" fill="white"/>
<path fill-rule="evenodd" clip-rule="evenodd" d="M992.038 414.064L937 378.005L937 349.288L965.962 331.187L1021 367.247V395.963L992.038 414.064ZM934.904 380.218L990.93 416.924C991.582 417.352 992.424 417.361 993.086 416.947L1023.06 398.213C1023.65 397.848 1024 397.207 1024 396.517V366.706C1024 366.032 1023.66 365.403 1023.1 365.033L967.071 328.327C966.418 327.899 965.576 327.89 964.915 328.304L934.94 347.038C934.355 347.404 934 348.045 934 348.734L934 378.545C934 379.219 934.34 379.848 934.904 380.218Z" fill="black"/>
<path fill-rule="evenodd" clip-rule="evenodd" d="M990.5 384.786L1022.22 365.347L1023.78 367.904L993.5 386.466V414.626H990.5V384.786Z" fill="black"/>
<path fill-rule="evenodd" clip-rule="evenodd" d="M936 347.625L993 384.625L991.366 387.142L934.366 350.142L936 347.625Z" fill="black"/>
<path d="M941 360.087C941 358.964 942.189 358.239 943.187 358.754C943.686 359.011 944 359.526 944 360.087V378.064C944 379.21 942.766 379.933 941.766 379.372C941.293 379.107 941 378.607 941 378.064V360.087Z" fill="black"/>
<path d="M948 364.087C948 362.964 949.189 362.239 950.187 362.754C950.686 363.011 951 363.526 951 364.087V382.064C951 383.21 949.766 383.933 948.766 383.372C948.293 383.107 948 382.607 948 382.064V364.087Z" fill="black"/>
<path d="M955 369.087C955 367.964 956.189 367.239 957.187 367.754C957.686 368.011 958 368.526 958 369.087V387.064C958 388.21 956.766 388.933 955.766 388.372C955.293 388.107 955 387.607 955 387.064V369.087Z" fill="black"/>
<path d="M962 373.087C962 371.964 963.189 371.239 964.187 371.754C964.686 372.011 965 372.526 965 373.087V391.064C965 392.21 963.766 392.933 962.766 392.372C962.293 392.107 962 391.607 962 391.064V373.087Z" fill="black"/>
<path d="M969 378.087C969 376.964 970.189 376.239 971.187 376.754C971.686 377.011 972 377.526 972 378.087V396.064C972 397.21 970.766 397.933 969.766 397.372C969.293 397.107 969 396.607 969 396.064V378.087Z" fill="black"/>
<path d="M976 383.087C976 381.964 977.189 381.239 978.187 381.754C978.686 382.011 979 382.526 979 383.087V401.064C979 402.21 977.766 402.933 976.766 402.372C976.293 402.107 976 401.607 976 401.064V383.087Z" fill="black"/>
<path d="M983 387.087C983 385.964 984.189 385.239 985.187 385.754C985.686 386.011 986 386.526 986 387.087V405.064C986 406.21 984.766 406.933 983.766 406.372C983.293 406.107 983 405.607 983 405.064V387.087Z" fill="black"/>
<path d="M1069 305C1069 303.895 1069.9 303 1071 303H1207C1208.1 303 1209 303.895 1209 305V441C1209 442.105 1208.1 443 1207 443H1071C1069.9 443 1069 442.105 1069 441V305Z" fill="url(#paint7_linear_543_1292)"/>
<path fill-rule="evenodd" clip-rule="evenodd" d="M1072 306V440H1206V306H1072ZM1071 303C1069.9 303 1069 303.895 1069 305V441C1069 442.105 1069.9 443 1071 443H1207C1208.1 443 1209 442.105 1209 441V305C1209 303.895 1208.1 303 1207 303H1071Z" fill="black"/>
<path d="M1150.93 416.924L1094.9 380.218C1094.34 379.848 1094 379.219 1094 378.545L1094 348.734C1094 348.045 1094.36 347.404 1094.94 347.038L1124.91 328.304C1125.58 327.89 1126.42 327.899 1127.07 328.327L1183.1 365.033C1183.66 365.403 1184 366.032 1184 366.706V396.517C1184 397.207 1183.65 397.848 1183.06 398.213L1153.09 416.947C1152.42 417.361 1151.58 417.352 1150.93 416.924Z" fill="white"/>
<path fill-rule="evenodd" clip-rule="evenodd" d="M1152.04 414.064L1097 378.005L1097 349.288L1125.96 331.187L1181 367.247V395.963L1152.04 414.064ZM1094.9 380.218L1150.93 416.924C1151.58 417.352 1152.42 417.361 1153.09 416.947L1183.06 398.213C1183.65 397.848 1184 397.207 1184 396.517V366.706C1184 366.032 1183.66 365.403 1183.1 365.033L1127.07 328.327C1126.42 327.899 1125.58 327.89 1124.91 328.304L1094.94 347.038C1094.36 347.404 1094 348.045 1094 348.734L1094 378.545C1094 379.219 1094.34 379.848 1094.9 380.218Z" fill="black"/>
<path fill-rule="evenodd" clip-rule="evenodd" d="M1150.5 384.786L1182.22 365.347L1183.78 367.904L1153.5 386.466V414.626H1150.5V384.786Z" fill="black"/>
<path fill-rule="evenodd" clip-rule="evenodd" d="M1096 347.625L1153 384.625L1151.37 387.142L1094.37 350.142L1096 347.625Z" fill="black"/>
<path d="M1101 360.087C1101 358.964 1102.19 358.239 1103.19 358.754C1103.69 359.011 1104 359.526 1104 360.087V378.064C1104 379.21 1102.77 379.933 1101.77 379.372C1101.29 379.107 1101 378.607 1101 378.064V360.087Z" fill="black"/>
<path d="M1108 364.087C1108 362.964 1109.19 362.239 1110.19 362.754C1110.69 363.011 1111 363.526 1111 364.087V382.064C1111 383.21 1109.77 383.933 1108.77 383.372C1108.29 383.107 1108 382.607 1108 382.064V364.087Z" fill="black"/>
<path d="M1115 369.087C1115 367.964 1116.19 367.239 1117.19 367.754C1117.69 368.011 1118 368.526 1118 369.087V387.064C1118 388.21 1116.77 388.933 1115.77 388.372C1115.29 388.107 1115 387.607 1115 387.064V369.087Z" fill="black"/>
<path d="M1122 373.087C1122 371.964 1123.19 371.239 1124.19 371.754C1124.69 372.011 1125 372.526 1125 373.087V391.064C1125 392.21 1123.77 392.933 1122.77 392.372C1122.29 392.107 1122 391.607 1122 391.064V373.087Z" fill="black"/>
<path d="M1129 378.087C1129 376.964 1130.19 376.239 1131.19 376.754C1131.69 377.011 1132 377.526 1132 378.087V396.064C1132 397.21 1130.77 397.933 1129.77 397.372C1129.29 397.107 1129 396.607 1129 396.064V378.087Z" fill="black"/>
<path d="M1136 383.087C1136 381.964 1137.19 381.239 1138.19 381.754C1138.69 382.011 1139 382.526 1139 383.087V401.064C1139 402.21 1137.77 402.933 1136.77 402.372C1136.29 402.107 1136 401.607 1136 401.064V383.087Z" fill="black"/>
<path d="M1143 387.087C1143 385.964 1144.19 385.239 1145.19 385.754C1145.69 386.011 1146 386.526 1146 387.087V405.064C1146 406.21 1144.77 406.933 1143.77 406.372C1143.29 406.107 1143 405.607 1143 405.064V387.087Z" fill="black"/>
<path d="M990.93 576.924L934.904 540.218C934.34 539.848 934 539.219 934 538.545L934 508.734C934 508.045 934.355 507.404 934.94 507.038L964.915 488.304C965.576 487.89 966.418 487.899 967.071 488.327L1023.1 525.033C1023.66 525.403 1024 526.032 1024 526.706V556.517C1024 557.207 1023.65 557.848 1023.06 558.213L993.086 576.947C992.424 577.361 991.582 577.352 990.93 576.924Z" fill="white"/>
<path fill-rule="evenodd" clip-rule="evenodd" d="M992.038 574.064L937 538.005L937 509.288L965.962 491.187L1021 527.247V555.963L992.038 574.064ZM934.904 540.218L990.93 576.924C991.582 577.352 992.424 577.361 993.086 576.947L1023.06 558.213C1023.65 557.848 1024 557.207 1024 556.517V526.706C1024 526.032 1023.66 525.403 1023.1 525.033L967.071 488.327C966.418 487.899 965.576 487.89 964.915 488.304L934.94 507.038C934.355 507.404 934 508.045 934 508.734L934 538.545C934 539.219 934.34 539.848 934.904 540.218Z" fill="black"/>
<path fill-rule="evenodd" clip-rule="evenodd" d="M990.5 544.786L1022.22 525.347L1023.78 527.904L993.5 546.466V574.626H990.5V544.786Z" fill="black"/>
<path fill-rule="evenodd" clip-rule="evenodd" d="M936 507.625L993 544.625L991.366 547.142L934.366 510.142L936 507.625Z" fill="black"/>
<path d="M941 520.087C941 518.964 942.189 518.239 943.187 518.754C943.686 519.011 944 519.526 944 520.087V538.064C944 539.21 942.766 539.933 941.766 539.372C941.293 539.107 941 538.607 941 538.064V520.087Z" fill="black"/>
<path d="M948 524.087C948 522.964 949.189 522.239 950.187 522.754C950.686 523.011 951 523.526 951 524.087V542.064C951 543.21 949.766 543.933 948.766 543.372C948.293 543.107 948 542.607 948 542.064V524.087Z" fill="black"/>
<path d="M955 529.087C955 527.964 956.189 527.239 957.187 527.754C957.686 528.011 958 528.526 958 529.087V547.064C958 548.21 956.766 548.933 955.766 548.372C955.293 548.107 955 547.607 955 547.064V529.087Z" fill="black"/>
<path d="M962 533.087C962 531.964 963.189 531.239 964.187 531.754C964.686 532.011 965 532.526 965 533.087V551.064C965 552.21 963.766 552.933 962.766 552.372C962.293 552.107 962 551.607 962 551.064V533.087Z" fill="black"/>
<path d="M969 538.087C969 536.964 970.189 536.239 971.187 536.754C971.686 537.011 972 537.526 972 538.087V556.064C972 557.21 970.766 557.933 969.766 557.372C969.293 557.107 969 556.607 969 556.064V538.087Z" fill="black"/>
<path d="M976 543.087C976 541.964 977.189 541.239 978.187 541.754C978.686 542.011 979 542.526 979 543.087V561.064C979 562.21 977.766 562.933 976.766 562.372C976.293 562.107 976 561.607 976 561.064V543.087Z" fill="black"/>
<path d="M983 547.087C983 545.964 984.189 545.239 985.187 545.754C985.686 546.011 986 546.526 986 547.087V565.064C986 566.21 984.766 566.933 983.766 566.372C983.293 566.107 983 565.607 983 565.064V547.087Z" fill="black"/>
<path d="M1150.93 576.924L1094.9 540.218C1094.34 539.848 1094 539.219 1094 538.545L1094 508.734C1094 508.045 1094.36 507.404 1094.94 507.038L1124.91 488.304C1125.58 487.89 1126.42 487.899 1127.07 488.327L1183.1 525.033C1183.66 525.403 1184 526.032 1184 526.706V556.517C1184 557.207 1183.65 557.848 1183.06 558.213L1153.09 576.947C1152.42 577.361 1151.58 577.352 1150.93 576.924Z" fill="white"/>
<path fill-rule="evenodd" clip-rule="evenodd" d="M1152.04 574.064L1097 538.005L1097 509.288L1125.96 491.187L1181 527.247V555.963L1152.04 574.064ZM1094.9 540.218L1150.93 576.924C1151.58 577.352 1152.42 577.361 1153.09 576.947L1183.06 558.213C1183.65 557.848 1184 557.207 1184 556.517V526.706C1184 526.032 1183.66 525.403 1183.1 525.033L1127.07 488.327C1126.42 487.899 1125.58 487.89 1124.91 488.304L1094.94 507.038C1094.36 507.404 1094 508.045 1094 508.734L1094 538.545C1094 539.219 1094.34 539.848 1094.9 540.218Z" fill="black"/>
<path fill-rule="evenodd" clip-rule="evenodd" d="M1150.5 544.786L1182.22 525.347L1183.78 527.904L1153.5 546.466V574.626H1150.5V544.786Z" fill="black"/>
<path fill-rule="evenodd" clip-rule="evenodd" d="M1096 507.625L1153 544.625L1151.37 547.142L1094.37 510.142L1096 507.625Z" fill="black"/>
<path d="M1101 520.087C1101 518.964 1102.19 518.239 1103.19 518.754C1103.69 519.011 1104 519.526 1104 520.087V538.064C1104 539.21 1102.77 539.933 1101.77 539.372C1101.29 539.107 1101 538.607 1101 538.064V520.087Z" fill="black"/>
<path d="M1108 524.087C1108 522.964 1109.19 522.239 1110.19 522.754C1110.69 523.011 1111 523.526 1111 524.087V542.064C1111 543.21 1109.77 543.933 1108.77 543.372C1108.29 543.107 1108 542.607 1108 542.064V524.087Z" fill="black"/>
<path d="M1115 529.087C1115 527.964 1116.19 527.239 1117.19 527.754C1117.69 528.011 1118 528.526 1118 529.087V547.064C1118 548.21 1116.77 548.933 1115.77 548.372C1115.29 548.107 1115 547.607 1115 547.064V529.087Z" fill="black"/>
<path d="M1122 533.087C1122 531.964 1123.19 531.239 1124.19 531.754C1124.69 532.011 1125 532.526 1125 533.087V551.064C1125 552.21 1123.77 552.933 1122.77 552.372C1122.29 552.107 1122 551.607 1122 551.064V533.087Z" fill="black"/>
<path d="M1129 538.087C1129 536.964 1130.19 536.239 1131.19 536.754C1131.69 537.011 1132 537.526 1132 538.087V556.064C1132 557.21 1130.77 557.933 1129.77 557.372C1129.29 557.107 1129 556.607 1129 556.064V538.087Z" fill="black"/>
<path d="M1136 543.087C1136 541.964 1137.19 541.239 1138.19 541.754C1138.69 542.011 1139 542.526 1139 543.087V561.064C1139 562.21 1137.77 562.933 1136.77 562.372C1136.29 562.107 1136 561.607 1136 561.064V543.087Z" fill="black"/>
<path d="M1143 547.087C1143 545.964 1144.19 545.239 1145.19 545.754C1145.69 546.011 1146 546.526 1146 547.087V565.064C1146 566.21 1144.77 566.933 1143.77 566.372C1143.29 566.107 1143 565.607 1143 565.064V547.087Z" fill="black"/>
<path d="M1310.93 576.924L1254.9 540.218C1254.34 539.848 1254 539.219 1254 538.545L1254 508.734C1254 508.045 1254.36 507.404 1254.94 507.038L1284.91 488.304C1285.58 487.89 1286.42 487.899 1287.07 488.327L1343.1 525.033C1343.66 525.403 1344 526.032 1344 526.706V556.517C1344 557.207 1343.65 557.848 1343.06 558.213L1313.09 576.947C1312.42 577.361 1311.58 577.352 1310.93 576.924Z" fill="white"/>
<path fill-rule="evenodd" clip-rule="evenodd" d="M1312.04 574.064L1257 538.005L1257 509.288L1285.96 491.187L1341 527.247V555.963L1312.04 574.064ZM1254.9 540.218L1310.93 576.924C1311.58 577.352 1312.42 577.361 1313.09 576.947L1343.06 558.213C1343.65 557.848 1344 557.207 1344 556.517V526.706C1344 526.032 1343.66 525.403 1343.1 525.033L1287.07 488.327C1286.42 487.899 1285.58 487.89 1284.91 488.304L1254.94 507.038C1254.36 507.404 1254 508.045 1254 508.734L1254 538.545C1254 539.219 1254.34 539.848 1254.9 540.218Z" fill="black"/>
<path fill-rule="evenodd" clip-rule="evenodd" d="M1310.5 544.786L1342.22 525.347L1343.78 527.904L1313.5 546.466V574.626H1310.5V544.786Z" fill="black"/>
<path fill-rule="evenodd" clip-rule="evenodd" d="M1256 507.625L1313 544.625L1311.37 547.142L1254.37 510.142L1256 507.625Z" fill="black"/>
<path d="M1261 520.087C1261 518.964 1262.19 518.239 1263.19 518.754C1263.69 519.011 1264 519.526 1264 520.087V538.064C1264 539.21 1262.77 539.933 1261.77 539.372C1261.29 539.107 1261 538.607 1261 538.064V520.087Z" fill="black"/>
<path d="M1268 524.087C1268 522.964 1269.19 522.239 1270.19 522.754C1270.69 523.011 1271 523.526 1271 524.087V542.064C1271 543.21 1269.77 543.933 1268.77 543.372C1268.29 543.107 1268 542.607 1268 542.064V524.087Z" fill="black"/>
<path d="M1275 529.087C1275 527.964 1276.19 527.239 1277.19 527.754C1277.69 528.011 1278 528.526 1278 529.087V547.064C1278 548.21 1276.77 548.933 1275.77 548.372C1275.29 548.107 1275 547.607 1275 547.064V529.087Z" fill="black"/>
<path d="M1282 533.087C1282 531.964 1283.19 531.239 1284.19 531.754C1284.69 532.011 1285 532.526 1285 533.087V551.064C1285 552.21 1283.77 552.933 1282.77 552.372C1282.29 552.107 1282 551.607 1282 551.064V533.087Z" fill="black"/>
<path d="M1289 538.087C1289 536.964 1290.19 536.239 1291.19 536.754C1291.69 537.011 1292 537.526 1292 538.087V556.064C1292 557.21 1290.77 557.933 1289.77 557.372C1289.29 557.107 1289 556.607 1289 556.064V538.087Z" fill="black"/>
<path d="M1296 543.087C1296 541.964 1297.19 541.239 1298.19 541.754C1298.69 542.011 1299 542.526 1299 543.087V561.064C1299 562.21 1297.77 562.933 1296.77 562.372C1296.29 562.107 1296 561.607 1296 561.064V543.087Z" fill="black"/>
<path d="M1303 547.087C1303 545.964 1304.19 545.239 1305.19 545.754C1305.69 546.011 1306 546.526 1306 547.087V565.064C1306 566.21 1304.77 566.933 1303.77 566.372C1303.29 566.107 1303 565.607 1303 565.064V547.087Z" fill="black"/>
<path fill-rule="evenodd" clip-rule="evenodd" d="M1221.46 442.735H1217.46V447.5C1217.46 451.366 1220.6 454.5 1224.46 454.5H1229.26V450.5H1224.46C1222.81 450.5 1221.46 449.157 1221.46 447.5V442.735ZM1381 606.483H1377V610.417L1373.02 610.414L1373.02 614.414L1378 614.418C1379.66 614.419 1381 613.076 1381 611.418V606.483ZM1363.06 614.405L1363.06 610.405L1353.11 610.396L1353.1 614.396L1363.06 614.405ZM1343.14 614.388L1343.15 610.388L1333.19 610.379L1333.19 614.379L1343.14 614.388ZM1323.23 614.37L1323.23 610.37L1313.27 610.362L1313.27 614.362L1323.23 614.37ZM1303.31 614.353L1303.31 610.353L1293.36 610.344L1293.35 614.344L1303.31 614.353ZM1283.39 614.336L1283.4 610.336L1273.44 610.327L1273.44 614.327L1283.39 614.336ZM1263.48 614.319L1263.48 610.319L1253.52 610.31L1253.52 614.31L1263.48 614.319ZM1243.56 614.301L1243.56 610.301L1233.61 610.293L1233.6 614.293L1243.56 614.301ZM1223.64 614.284L1213.68 614.275L1213.69 610.275L1223.65 610.284L1223.64 614.284ZM1203.73 614.267L1203.73 610.267L1193.77 610.258L1193.77 614.258L1203.73 614.267ZM1183.81 614.249L1183.81 610.249L1173.86 610.241L1173.85 614.241L1183.81 614.249ZM1163.89 614.232L1163.9 610.232L1153.94 610.223L1153.93 614.223L1163.89 614.232ZM1143.98 614.215L1143.98 610.215L1134.02 610.206L1134.02 614.206L1143.98 614.215ZM1124.06 614.198L1124.06 610.198L1114.11 610.189L1114.1 614.189L1124.06 614.198ZM1104.14 614.18L1104.15 610.18L1094.19 610.172L1094.18 614.172L1104.14 614.18ZM1084.23 614.163L1074.27 614.154L1074.27 610.154L1084.23 610.163L1084.23 614.163ZM1064.31 614.146L1054.35 614.137L1054.36 610.137L1064.31 610.146L1064.31 614.146ZM1044.39 614.128L1044.4 610.128L1034.44 610.12L1034.43 614.12L1044.39 614.128ZM1024.48 614.111L1024.48 610.111L1014.52 610.102L1014.52 614.102L1024.48 614.111ZM1004.56 614.094L1004.56 610.094L994.605 610.085L994.602 614.085L1004.56 614.094ZM984.643 614.076L984.647 610.076L974.688 610.068L974.685 614.068L984.643 614.076ZM964.727 614.059L964.73 610.059L954.772 610.051L954.768 614.051L964.727 614.059ZM944.81 614.042L944.813 610.042L934.855 610.033L934.852 614.033L944.81 614.042ZM924.893 614.025L924.897 610.025L914.938 610.016L914.935 614.016L924.893 614.025ZM1221.46 433.203H1217.46V423.672H1221.46V433.203ZM1221.46 414.141H1217.46V404.61H1221.46V414.141ZM1221.46 395.078H1217.46V385.547H1221.46V395.078ZM1221.46 376.016H1217.46V366.485H1221.46V376.016ZM1221.46 356.953H1217.46V347.422H1221.46V356.953ZM1221.46 337.891H1217.46V328.36H1221.46V337.891ZM1221.46 318.828H1217.46V309.297H1221.46V318.828ZM1221.46 299.766H1217.46V296H1213.67V292H1218.46C1220.12 292 1221.46 293.343 1221.46 295V299.766ZM1204.08 292V296H1194.48V292H1204.08ZM1184.89 292V296H1175.3V292H1184.89ZM1165.71 292V296H1156.12V292H1165.71ZM1146.53 292V296H1136.94V292H1146.53ZM1127.34 292V296H1117.75V292H1127.34ZM1108.16 292V296H1098.57V292H1108.16ZM1088.98 292V296H1079.39V292H1088.98ZM1069.8 292V296H1065C1061.13 296 1058 292.866 1058 289V284.156H1062V289C1062 290.657 1063.34 292 1065 292H1069.8ZM1062 274.469H1058V264.781H1062V274.469ZM1062 255.094H1058V245.406H1062V255.094ZM1062 235.719H1058V226.031H1062V235.719ZM1062 216.344H1058V206.657H1062V216.344ZM1062 196.969H1058V187.282H1062V196.969ZM1062 177.594H1058V167.907H1062V177.594ZM1062 158.219H1058V148.532H1062V158.219ZM1062 138.844H1058V135H1054V131H1059C1060.66 131 1062 132.344 1062 134V138.844ZM1044 131V135H1034V131H1044ZM1024 131V135H1014V131H1024ZM1004 131V135H994V131H1004ZM984 131V135H974V131H984ZM964 131V135H954V131H964ZM944 131V135H934V131H944ZM924 131V135H914V131H924ZM904 131V135H894V131H904ZM884 131V135H874V131H884ZM864 131V135H854V131H864ZM844 131V135H834V131H844ZM824 131V135H814V131H824ZM804 131V135H794V131H804ZM784 131V135H774V131H784ZM764 131V135H754V131H764ZM744 131V135H734V131H744ZM724 131V135H714V131H724ZM704 131V135H694V131H704ZM684 131V135H674V131H684ZM664 131V135H654V131H664ZM644 131V135H634V131H644ZM624 131V135H614V131H624ZM604 131V135H594V131H604ZM584 131V135H580V138.891H576V134C576 132.344 577.343 131 579 131H584ZM576 148.672H580V158.454H576V148.672ZM576 168.235H580V178.016H576V168.235ZM576 187.797H580V197.579H576V187.797ZM576 207.36H580V217.141H576V207.36ZM576 226.922H580V236.704H576V226.922ZM576 246.485H580V256.266H576V246.485ZM576 266.047H580V275.829H576V266.047ZM576 285.61H580V289.5H583.922V293.5H579C577.343 293.5 576 292.157 576 290.5V285.61ZM593.766 293.5V289.5H603.609V293.5H593.766ZM613.453 293.5V289.5H623.297V293.5H613.453ZM633.141 293.5V289.5H642.984V293.5H633.141ZM652.828 293.5V289.5H662.672V293.5H652.828ZM672.516 293.5V289.5H682.359V293.5H672.516ZM692.203 293.5V289.5H702.047V293.5H692.203ZM711.891 293.5V289.5H721.734V293.5H711.891ZM731.578 293.5V289.5H741.422V293.5H731.578ZM751.266 293.5V289.5H761.109V293.5H751.266ZM770.953 293.5V289.5H780.797V293.5H770.953ZM790.641 293.5V289.5H800.484V293.5H790.641ZM810.328 293.5V289.5H820.172V293.5H810.328ZM830.016 293.5V289.5H839.859V293.5H830.016ZM849.703 293.5V289.5H859.547V293.5H849.703ZM869.391 293.5V289.5H879.234V293.5H869.391ZM889.078 293.5V289.5H894C897.866 289.5 901 292.634 901 296.5V301.414H897V296.5C897 294.844 895.657 293.5 894 293.5H889.078ZM897 311.243H901V321.071H897V311.243ZM897 330.899H901V340.727H897V330.899ZM897 350.556H901V360.384H897V350.556ZM897 370.212H901V380.04H897V370.212ZM897 389.868H901V399.697H897V389.868ZM897 409.525H901V419.353H897V409.525ZM897 429.181H901V439.009H897V429.181ZM897 448.838H901V458.666H897V448.838ZM897 468.494H901V478.322H897V468.494ZM897 488.15H901V497.979H897V488.15ZM897 507.807H901V517.635H897V507.807ZM897 527.463H901V537.291H897V527.463ZM897 547.12H901V556.948H897V547.12ZM897 566.776H901V576.604H897V566.776ZM897 586.432H901V596.261H897V586.432ZM897 606.089H901V610.004L904.98 610.007L904.977 614.007L899.997 614.003C898.342 614.002 897 612.659 897 611.003V606.089ZM1381 596.613H1377V586.743H1381V596.613ZM1381 576.873H1377V567.004H1381V576.873ZM1381 557.134H1377V547.264H1381V557.134ZM1381 537.394H1377V527.524H1381V537.394ZM1381 517.654H1377V507.784H1381V517.654ZM1381 497.915H1377V488.045H1381V497.915ZM1381 478.175H1377V468.305H1381V478.175ZM1381 458.435H1377V454.5H1373.2V450.5H1378C1379.66 450.5 1381 451.843 1381 453.5V458.435ZM1363.61 450.5V454.5H1354.01V450.5H1363.61ZM1344.41 450.5V454.5H1334.82V450.5H1344.41ZM1325.22 450.5V454.5H1315.63V450.5H1325.22ZM1306.03 450.5V454.5H1296.43V450.5H1306.03ZM1286.84 450.5V454.5H1277.24V450.5H1286.84ZM1267.65 450.5V454.5H1258.05V450.5H1267.65ZM1248.45 450.5V454.5H1238.86V450.5H1248.45Z" fill="black"/>
<path fill-rule="evenodd" clip-rule="evenodd" d="M541 203.34L556 212L541 220.66L541 213.5L434 213.5C433.172 213.5 432.5 212.829 432.5 212C432.5 211.172 433.172 210.5 434 210.5L541 210.5L541 203.34Z" fill="black"/>
<path d="M1307.47 219.889C1307.34 219.864 1307.22 219.855 1307.09 219.86C1306.88 219.872 1306.67 219.927 1306.47 220.021C1306.1 220.202 1305.81 220.521 1305.66 220.912C1305.52 221.302 1305.53 221.734 1305.69 222.117L1305.68 222.133L1309.39 231.081C1312.93 228.819 1315.62 225.442 1317.03 221.482L1307.48 219.869L1307.47 219.889ZM1292.6 221.157C1292.52 220.804 1292.33 220.489 1292.05 220.261C1291.77 220.033 1291.42 219.906 1291.05 219.9C1290.95 219.899 1290.84 219.908 1290.74 219.928L1290.72 219.909L1281.25 221.515C1282.67 225.444 1285.35 228.794 1288.87 231.046L1292.54 222.186L1292.51 222.151C1292.65 221.838 1292.68 221.489 1292.6 221.157ZM1300.53 224.631C1300.4 224.374 1300.19 224.158 1299.94 224.008C1299.69 223.858 1299.4 223.779 1299.11 223.78C1298.82 223.78 1298.53 223.86 1298.28 224.01C1298.03 224.161 1297.82 224.377 1297.68 224.635H1297.68L1293.02 233.048C1296.35 234.182 1299.94 234.366 1303.37 233.58C1304.01 233.435 1304.63 233.261 1305.24 233.059L1300.57 224.631L1300.53 224.631ZM1315.27 205.088L1308.11 211.495L1308.11 211.515C1307.89 211.708 1307.73 211.956 1307.64 212.234C1307.55 212.512 1307.54 212.809 1307.6 213.094C1307.67 213.378 1307.81 213.64 1308.01 213.851C1308.21 214.062 1308.47 214.215 1308.75 214.293L1308.76 214.331L1318.03 217.002C1318.44 212.837 1317.47 208.654 1315.27 205.089V205.088ZM1301.96 205.806C1301.98 206.098 1302.07 206.38 1302.23 206.624C1302.39 206.868 1302.62 207.063 1302.88 207.189C1303.14 207.316 1303.44 207.369 1303.73 207.342C1304.02 207.316 1304.3 207.211 1304.53 207.039L1304.56 207.051L1312.4 201.497C1309.42 198.577 1305.56 196.717 1301.41 196.203L1301.96 205.803L1301.96 205.806ZM1293.66 207.074C1293.9 207.246 1294.18 207.351 1294.47 207.377C1294.76 207.403 1295.05 207.35 1295.32 207.223C1295.58 207.096 1295.8 206.9 1295.96 206.656C1296.13 206.411 1296.22 206.128 1296.23 205.837L1296.27 205.818L1296.81 196.203C1296.16 196.282 1295.5 196.394 1294.86 196.54C1291.42 197.311 1288.27 199.028 1285.76 201.495L1293.65 207.083L1293.66 207.074ZM1289.46 214.34C1289.74 214.263 1290 214.111 1290.2 213.899C1290.4 213.688 1290.54 213.426 1290.61 213.141C1290.67 212.856 1290.66 212.558 1290.57 212.28C1290.48 212.002 1290.31 211.754 1290.09 211.562L1290.1 211.524L1282.9 205.086C1280.7 208.66 1279.76 212.864 1280.22 217.033L1289.45 214.371L1289.46 214.34ZM1296.45 217.168L1299.11 218.445L1301.76 217.17L1302.42 214.312L1300.58 212.021H1297.63L1295.79 214.309L1296.45 217.168Z" fill="#326CE5"/>
<path d="M1343.04 222.799L1335.47 189.934C1335.26 189.084 1334.87 188.289 1334.32 187.608C1333.78 186.926 1333.08 186.375 1332.3 185.994L1301.65 171.371C1300.85 170.992 1299.98 170.795 1299.1 170.795C1298.22 170.795 1297.35 170.992 1296.56 171.371L1265.92 186.001C1265.13 186.383 1264.44 186.934 1263.89 187.615C1263.34 188.296 1262.95 189.091 1262.75 189.941L1255.19 222.806C1255 223.636 1255 224.498 1255.19 225.329C1255.24 225.582 1255.31 225.831 1255.4 226.075C1255.55 226.491 1255.74 226.888 1255.98 227.259C1256.09 227.418 1256.2 227.572 1256.32 227.721L1277.53 254.073C1277.62 254.188 1277.72 254.293 1277.82 254.399C1278.16 254.753 1278.53 255.064 1278.94 255.325C1279.46 255.652 1280.03 255.897 1280.62 256.054C1281.1 256.187 1281.6 256.256 1282.11 256.259H1282.44L1316.12 256.251C1316.33 256.25 1316.53 256.238 1316.73 256.215C1317.03 256.182 1317.31 256.127 1317.6 256.051C1317.8 255.998 1318 255.934 1318.2 255.859C1318.35 255.801 1318.5 255.742 1318.65 255.671C1318.87 255.565 1319.09 255.446 1319.3 255.314C1319.83 254.979 1320.3 254.558 1320.7 254.07L1321.35 253.266L1341.9 227.712C1342.3 227.219 1342.61 226.663 1342.82 226.069C1342.91 225.824 1342.98 225.574 1343.04 225.32C1343.22 224.489 1343.22 223.627 1343.04 222.797L1343.04 222.799ZM1311.25 235.581C1311.33 235.834 1311.44 236.081 1311.55 236.321C1311.37 236.649 1311.31 237.037 1311.41 237.402C1311.86 238.423 1312.4 239.398 1313.04 240.312C1313.39 240.78 1313.72 241.268 1314.02 241.773C1314.09 241.91 1314.19 242.122 1314.26 242.267C1314.39 242.487 1314.48 242.733 1314.51 242.988C1314.54 243.243 1314.52 243.502 1314.44 243.747C1314.37 243.993 1314.24 244.221 1314.07 244.415C1313.91 244.61 1313.7 244.767 1313.47 244.877C1313.23 244.987 1312.98 245.047 1312.72 245.053C1312.47 245.059 1312.21 245.012 1311.97 244.913C1311.74 244.815 1311.52 244.668 1311.35 244.482C1311.17 244.296 1311.03 244.075 1310.94 243.833C1310.87 243.69 1310.78 243.499 1310.72 243.363C1310.51 242.814 1310.33 242.253 1310.19 241.683C1309.87 240.617 1309.45 239.585 1308.93 238.601C1308.7 238.297 1308.37 238.093 1307.99 238.033C1307.93 237.932 1307.71 237.534 1307.6 237.329C1302.14 239.393 1296.12 239.378 1290.67 237.285L1290.26 238.037C1289.96 238.083 1289.69 238.217 1289.47 238.422C1288.84 239.447 1288.36 240.556 1288.05 241.715C1287.9 242.284 1287.73 242.845 1287.52 243.394C1287.46 243.529 1287.36 243.718 1287.29 243.86V243.864L1287.29 243.868C1287.2 244.11 1287.06 244.331 1286.89 244.518C1286.71 244.704 1286.49 244.851 1286.26 244.95C1286.02 245.048 1285.76 245.095 1285.51 245.089C1285.25 245.082 1285 245.022 1284.76 244.912C1284.53 244.801 1284.32 244.644 1284.16 244.448C1283.99 244.253 1283.86 244.025 1283.79 243.779C1283.71 243.533 1283.69 243.274 1283.72 243.018C1283.76 242.763 1283.84 242.518 1283.98 242.297C1284.04 242.152 1284.14 241.941 1284.21 241.804C1284.51 241.298 1284.84 240.809 1285.19 240.34C1285.84 239.401 1286.4 238.402 1286.85 237.358C1286.9 237.004 1286.85 236.643 1286.69 236.321L1287.02 235.522C1282 232.561 1278.24 227.867 1276.45 222.325L1275.65 222.461C1275.34 222.241 1274.97 222.112 1274.59 222.09C1273.5 222.299 1272.43 222.614 1271.4 223.03C1270.86 223.271 1270.31 223.481 1269.75 223.66C1269.62 223.696 1269.43 223.733 1269.27 223.766C1269.26 223.77 1269.25 223.775 1269.24 223.778C1269.23 223.78 1269.22 223.78 1269.21 223.781C1268.97 223.861 1268.71 223.889 1268.46 223.864C1268.2 223.839 1267.95 223.761 1267.73 223.635C1267.51 223.509 1267.31 223.337 1267.16 223.132C1267.01 222.927 1266.9 222.692 1266.84 222.442C1266.78 222.192 1266.78 221.933 1266.83 221.682C1266.88 221.431 1266.98 221.192 1267.13 220.982C1267.27 220.772 1267.46 220.594 1267.68 220.461C1267.9 220.328 1268.14 220.242 1268.4 220.209L1268.42 220.203L1268.44 220.198C1268.59 220.162 1268.79 220.111 1268.93 220.084C1269.51 220.004 1270.1 219.956 1270.69 219.943C1271.8 219.87 1272.9 219.69 1273.98 219.403C1274.3 219.201 1274.57 218.929 1274.77 218.609L1275.53 218.385C1274.7 212.6 1276.03 206.712 1279.28 201.85L1278.69 201.326C1278.67 200.946 1278.54 200.579 1278.32 200.268C1277.48 199.542 1276.56 198.901 1275.59 198.353C1275.07 198.086 1274.56 197.789 1274.07 197.464C1273.96 197.381 1273.81 197.257 1273.69 197.158L1273.66 197.139C1273.25 196.84 1272.97 196.388 1272.88 195.881C1272.8 195.375 1272.92 194.856 1273.21 194.437C1273.39 194.222 1273.61 194.052 1273.87 193.939C1274.12 193.827 1274.4 193.776 1274.67 193.791C1275.14 193.811 1275.59 193.98 1275.95 194.273C1276.08 194.371 1276.25 194.501 1276.36 194.597C1276.79 195 1277.19 195.428 1277.57 195.878C1278.32 196.701 1279.15 197.449 1280.04 198.111C1280.38 198.287 1280.77 198.325 1281.13 198.216C1281.35 198.376 1281.57 198.532 1281.79 198.686C1285.01 195.263 1289.19 192.88 1293.78 191.844C1294.87 191.597 1295.98 191.427 1297.09 191.335L1297.14 190.56C1297.42 190.307 1297.63 189.978 1297.73 189.611C1297.77 188.499 1297.7 187.386 1297.53 186.287C1297.41 185.711 1297.33 185.129 1297.28 184.544C1297.27 184.411 1297.28 184.226 1297.28 184.074C1297.28 184.057 1297.28 184.04 1297.28 184.023C1297.25 183.767 1297.28 183.508 1297.36 183.263C1297.44 183.019 1297.57 182.793 1297.74 182.602C1297.92 182.411 1298.13 182.258 1298.36 182.154C1298.6 182.049 1298.85 181.995 1299.11 181.995C1299.37 181.995 1299.62 182.048 1299.86 182.153C1300.09 182.257 1300.3 182.41 1300.48 182.601C1300.65 182.792 1300.78 183.017 1300.86 183.262C1300.94 183.506 1300.97 183.765 1300.94 184.021C1300.94 184.182 1300.95 184.395 1300.95 184.543C1300.9 185.128 1300.81 185.71 1300.7 186.285C1300.52 187.384 1300.45 188.498 1300.49 189.61C1300.56 189.982 1300.78 190.311 1301.09 190.527C1301.1 190.659 1301.12 191.101 1301.13 191.345C1306.93 191.872 1312.34 194.484 1316.36 198.696L1317.06 198.198C1317.43 198.262 1317.82 198.221 1318.17 198.077C1319.06 197.414 1319.89 196.665 1320.64 195.842C1321.02 195.392 1321.42 194.964 1321.85 194.56C1321.96 194.464 1322.13 194.335 1322.26 194.236C1322.44 194.055 1322.66 193.914 1322.91 193.824C1323.15 193.733 1323.41 193.694 1323.66 193.709C1323.92 193.725 1324.17 193.794 1324.4 193.913C1324.63 194.032 1324.83 194.198 1325 194.4C1325.16 194.602 1325.27 194.836 1325.34 195.086C1325.4 195.336 1325.41 195.597 1325.37 195.851C1325.33 196.106 1325.23 196.349 1325.09 196.565C1324.95 196.78 1324.76 196.963 1324.54 197.102C1324.42 197.201 1324.26 197.34 1324.14 197.428C1323.65 197.753 1323.14 198.05 1322.62 198.316C1321.65 198.865 1320.73 199.506 1319.89 200.231C1319.64 200.519 1319.52 200.892 1319.54 201.269C1319.44 201.363 1319.08 201.681 1318.89 201.853C1322.15 206.698 1323.51 212.568 1322.71 218.349L1323.46 218.564C1323.64 218.897 1323.91 219.172 1324.25 219.359C1325.32 219.645 1326.42 219.827 1327.53 219.9C1328.12 219.913 1328.71 219.96 1329.29 220.041C1329.45 220.069 1329.67 220.13 1329.83 220.167C1330.08 220.2 1330.33 220.286 1330.55 220.419C1330.76 220.552 1330.95 220.73 1331.1 220.94C1331.25 221.15 1331.35 221.389 1331.4 221.64C1331.44 221.892 1331.44 222.15 1331.38 222.4C1331.33 222.65 1331.22 222.885 1331.06 223.09C1330.91 223.296 1330.72 223.467 1330.49 223.593C1330.27 223.718 1330.02 223.796 1329.77 223.821C1329.51 223.846 1329.26 223.818 1329.01 223.738L1328.99 223.734C1328.97 223.731 1328.96 223.725 1328.95 223.721C1328.8 223.689 1328.61 223.656 1328.48 223.621C1327.92 223.441 1327.37 223.229 1326.83 222.986C1325.8 222.569 1324.73 222.255 1323.63 222.046C1323.25 222.034 1322.88 222.17 1322.6 222.427C1322.34 222.377 1322.08 222.331 1321.82 222.289C1320.05 227.866 1316.28 232.597 1311.25 235.581Z" fill="#326CE5"/>
<path d="M1347.03 223.642L1338.77 187.786C1338.55 186.859 1338.13 185.992 1337.53 185.248C1336.93 184.504 1336.17 183.903 1335.32 183.487L1301.88 167.535C1301.01 167.122 1300.07 166.907 1299.1 166.907C1298.14 166.907 1297.2 167.122 1296.33 167.535L1262.9 183.496C1262.04 183.912 1261.28 184.513 1260.68 185.256C1260.09 186 1259.66 186.866 1259.44 187.794L1251.19 223.651C1251.01 224.478 1250.99 225.333 1251.14 226.167C1251.28 227.002 1251.6 227.798 1252.06 228.509C1252.17 228.683 1252.29 228.851 1252.42 229.014L1275.56 257.766C1276.17 258.506 1276.93 259.103 1277.8 259.515C1278.66 259.927 1279.6 260.143 1280.56 260.149L1317.67 260.14C1318.63 260.135 1319.57 259.919 1320.43 259.508C1321.3 259.096 1322.06 258.5 1322.67 257.76L1345.8 229.005C1346.39 228.26 1346.81 227.392 1347.02 226.464C1347.24 225.536 1347.24 224.572 1347.03 223.643V223.642ZM1343.04 225.321C1342.98 225.575 1342.91 225.825 1342.82 226.069C1342.61 226.664 1342.3 227.22 1341.9 227.713L1321.35 253.266L1320.7 254.071C1320.3 254.559 1319.83 254.98 1319.29 255.315C1319.09 255.447 1318.87 255.566 1318.65 255.672C1318.51 255.741 1318.35 255.803 1318.2 255.859C1318 255.934 1317.8 255.998 1317.6 256.052C1317.31 256.128 1317.03 256.183 1316.73 256.217C1316.53 256.24 1316.33 256.251 1316.12 256.252L1282.44 256.26H1282.11C1281.6 256.257 1281.1 256.188 1280.62 256.055C1280.03 255.898 1279.46 255.652 1278.94 255.326C1278.53 255.065 1278.16 254.754 1277.82 254.4C1277.72 254.293 1277.62 254.188 1277.53 254.074L1256.32 227.722C1256.2 227.573 1256.09 227.418 1255.98 227.259C1255.74 226.888 1255.55 226.491 1255.4 226.075C1255.31 225.831 1255.24 225.581 1255.19 225.328C1255 224.497 1255 223.636 1255.19 222.805L1262.75 189.94C1262.95 189.09 1263.34 188.296 1263.89 187.614C1264.44 186.933 1265.13 186.382 1265.92 186.001L1296.56 171.372C1297.36 170.993 1298.22 170.796 1299.1 170.796C1299.99 170.796 1300.85 170.993 1301.65 171.372L1332.3 185.994C1333.08 186.376 1333.78 186.927 1334.32 187.609C1334.87 188.29 1335.26 189.085 1335.47 189.935L1343.04 222.8C1343.22 223.63 1343.22 224.491 1343.04 225.322V225.321Z" fill="white"/>
<path d="M1329.83 220.167C1329.67 220.131 1329.45 220.069 1329.29 220.041C1328.71 219.96 1328.12 219.913 1327.54 219.899C1326.42 219.827 1325.32 219.646 1324.25 219.36C1323.91 219.173 1323.64 218.898 1323.45 218.564L1322.71 218.349C1323.51 212.568 1322.15 206.698 1318.89 201.853C1319.08 201.681 1319.44 201.364 1319.54 201.27C1319.52 200.893 1319.64 200.52 1319.89 200.232C1320.73 199.507 1321.65 198.866 1322.62 198.317C1323.14 198.051 1323.65 197.754 1324.14 197.428C1324.26 197.341 1324.42 197.202 1324.54 197.103C1324.76 196.964 1324.95 196.781 1325.09 196.566C1325.23 196.35 1325.33 196.107 1325.37 195.853C1325.41 195.598 1325.4 195.337 1325.34 195.087C1325.27 194.837 1325.16 194.603 1325 194.401C1324.83 194.199 1324.63 194.034 1324.4 193.914C1324.17 193.795 1323.92 193.726 1323.66 193.71C1323.41 193.695 1323.15 193.733 1322.91 193.824C1322.66 193.915 1322.44 194.055 1322.26 194.236C1322.13 194.335 1321.96 194.464 1321.85 194.561C1321.42 194.964 1321.02 195.392 1320.64 195.842C1319.89 196.666 1319.06 197.414 1318.17 198.078C1317.82 198.221 1317.43 198.263 1317.06 198.199L1316.36 198.697C1312.34 194.484 1306.93 191.872 1301.13 191.345C1301.12 191.102 1301.1 190.66 1301.09 190.527C1300.78 190.311 1300.56 189.982 1300.49 189.611C1300.45 188.498 1300.52 187.385 1300.7 186.286C1300.81 185.71 1300.9 185.128 1300.95 184.543C1300.95 184.396 1300.94 184.181 1300.94 184.022C1300.97 183.766 1300.94 183.507 1300.86 183.262C1300.78 183.017 1300.65 182.792 1300.48 182.601C1300.3 182.41 1300.09 182.258 1299.86 182.153C1299.62 182.049 1299.37 181.995 1299.11 181.995C1298.85 181.995 1298.6 182.049 1298.36 182.154C1298.13 182.259 1297.92 182.411 1297.74 182.603C1297.57 182.794 1297.44 183.019 1297.36 183.264C1297.28 183.508 1297.25 183.767 1297.28 184.024C1297.28 184.041 1297.28 184.057 1297.28 184.075C1297.28 184.227 1297.27 184.411 1297.28 184.544C1297.33 185.129 1297.41 185.712 1297.53 186.288C1297.7 187.386 1297.77 188.5 1297.73 189.612C1297.63 189.978 1297.42 190.306 1297.14 190.559L1297.09 191.335C1295.98 191.427 1294.87 191.597 1293.78 191.844C1289.19 192.88 1285.02 195.263 1281.79 198.686C1281.57 198.532 1281.35 198.376 1281.13 198.216C1280.77 198.325 1280.38 198.287 1280.04 198.111C1279.15 197.449 1278.32 196.701 1277.57 195.878C1277.19 195.428 1276.79 195 1276.36 194.597C1276.25 194.501 1276.08 194.371 1275.95 194.271C1275.59 193.978 1275.14 193.809 1274.67 193.789C1274.4 193.775 1274.12 193.826 1273.87 193.938C1273.61 194.05 1273.39 194.221 1273.21 194.436C1272.92 194.855 1272.8 195.374 1272.88 195.88C1272.97 196.387 1273.25 196.839 1273.66 197.138L1273.69 197.158C1273.81 197.257 1273.96 197.382 1274.07 197.463C1274.56 197.789 1275.07 198.086 1275.59 198.353C1276.56 198.901 1277.47 199.543 1278.32 200.269C1278.54 200.58 1278.67 200.946 1278.69 201.326L1279.28 201.85C1276.03 206.713 1274.7 212.601 1275.53 218.385L1274.77 218.609C1274.56 218.929 1274.3 219.2 1273.98 219.402C1272.9 219.689 1271.8 219.87 1270.69 219.944C1270.1 219.957 1269.51 220.004 1268.93 220.085C1268.79 220.111 1268.59 220.161 1268.44 220.199L1268.42 220.203L1268.4 220.21C1268.14 220.244 1267.9 220.33 1267.68 220.463C1267.46 220.596 1267.27 220.773 1267.13 220.984C1266.98 221.194 1266.88 221.432 1266.83 221.683C1266.78 221.935 1266.79 222.194 1266.84 222.443C1266.9 222.693 1267.01 222.928 1267.16 223.133C1267.31 223.339 1267.51 223.51 1267.73 223.636C1267.95 223.762 1268.2 223.84 1268.46 223.865C1268.71 223.89 1268.97 223.862 1269.21 223.782L1269.24 223.778C1269.25 223.775 1269.26 223.769 1269.27 223.767C1269.43 223.732 1269.62 223.696 1269.75 223.66C1270.31 223.481 1270.86 223.271 1271.39 223.03C1272.43 222.614 1273.5 222.299 1274.59 222.09C1274.97 222.113 1275.34 222.242 1275.65 222.462L1276.45 222.325C1278.24 227.867 1282 232.561 1287.02 235.522L1286.69 236.321C1286.85 236.643 1286.9 237.004 1286.85 237.358C1286.4 238.402 1285.84 239.4 1285.19 240.339C1284.84 240.807 1284.51 241.296 1284.21 241.803C1284.14 241.941 1284.04 242.153 1283.97 242.297C1283.84 242.518 1283.76 242.763 1283.73 243.018C1283.69 243.273 1283.72 243.532 1283.79 243.777C1283.86 244.023 1283.99 244.251 1284.16 244.446C1284.33 244.64 1284.53 244.798 1284.76 244.908C1285 245.018 1285.25 245.079 1285.51 245.085C1285.76 245.092 1286.02 245.045 1286.26 244.947C1286.49 244.849 1286.71 244.702 1286.89 244.516C1287.06 244.33 1287.2 244.11 1287.29 243.868L1287.29 243.864V243.86C1287.36 243.717 1287.46 243.529 1287.52 243.394C1287.73 242.845 1287.9 242.284 1288.05 241.715C1288.36 240.556 1288.84 239.447 1289.47 238.422C1289.68 238.217 1289.96 238.082 1290.26 238.036L1290.67 237.285C1296.12 239.377 1302.14 239.392 1307.6 237.328C1307.71 237.535 1307.93 237.932 1307.99 238.033C1308.36 238.092 1308.7 238.297 1308.93 238.601C1309.45 239.585 1309.87 240.617 1310.19 241.683C1310.33 242.253 1310.51 242.814 1310.72 243.363C1310.78 243.499 1310.87 243.689 1310.94 243.833C1311.03 244.075 1311.17 244.296 1311.35 244.482C1311.52 244.668 1311.74 244.815 1311.97 244.913C1312.21 245.012 1312.47 245.059 1312.72 245.053C1312.98 245.047 1313.23 244.987 1313.47 244.877C1313.7 244.767 1313.91 244.61 1314.07 244.415C1314.24 244.221 1314.37 243.993 1314.44 243.747C1314.52 243.502 1314.54 243.243 1314.51 242.988C1314.48 242.733 1314.39 242.487 1314.26 242.267C1314.19 242.122 1314.09 241.91 1314.02 241.773C1313.72 241.268 1313.39 240.78 1313.04 240.312C1312.4 239.397 1311.86 238.423 1311.41 237.402C1311.32 237.037 1311.37 236.649 1311.55 236.321C1311.44 236.081 1311.33 235.834 1311.25 235.581C1316.28 232.597 1320.05 227.866 1321.82 222.29C1322.06 222.328 1322.47 222.4 1322.6 222.427C1322.88 222.171 1323.25 222.034 1323.63 222.046C1324.72 222.255 1325.8 222.57 1326.83 222.986C1327.37 223.23 1327.91 223.442 1328.48 223.621C1328.61 223.656 1328.8 223.689 1328.95 223.723C1328.96 223.726 1328.97 223.731 1328.99 223.735L1329.01 223.739C1329.25 223.818 1329.51 223.847 1329.77 223.821C1330.02 223.796 1330.27 223.718 1330.49 223.592C1330.71 223.466 1330.91 223.295 1331.06 223.09C1331.21 222.885 1331.32 222.65 1331.38 222.4C1331.44 222.151 1331.44 221.892 1331.39 221.641C1331.34 221.389 1331.24 221.151 1331.1 220.941C1330.95 220.731 1330.76 220.553 1330.54 220.42C1330.33 220.287 1330.08 220.201 1329.83 220.167ZM1312.4 201.498L1304.56 207.051L1304.53 207.038C1304.3 207.21 1304.02 207.315 1303.73 207.342C1303.44 207.369 1303.14 207.316 1302.88 207.19C1302.62 207.063 1302.39 206.868 1302.23 206.624C1302.07 206.38 1301.98 206.097 1301.96 205.806L1301.96 205.801L1301.41 196.202C1305.56 196.716 1309.42 198.577 1312.4 201.498H1312.4ZM1297.63 212.02H1300.58L1302.42 214.311L1301.76 217.169L1299.11 218.443L1296.45 217.166L1295.79 214.307L1297.63 212.02ZM1294.86 196.538C1295.5 196.393 1296.16 196.281 1296.82 196.202L1296.27 205.816L1296.23 205.835C1296.22 206.127 1296.13 206.41 1295.97 206.654C1295.8 206.899 1295.58 207.095 1295.32 207.222C1295.05 207.349 1294.76 207.402 1294.47 207.376C1294.18 207.35 1293.9 207.246 1293.66 207.074L1293.65 207.082L1285.76 201.492C1288.27 199.026 1291.42 197.31 1294.86 196.538ZM1282.9 205.085L1290.1 211.523L1290.09 211.562C1290.31 211.754 1290.48 212.002 1290.57 212.28C1290.66 212.559 1290.67 212.856 1290.61 213.141C1290.54 213.426 1290.4 213.688 1290.2 213.899C1290 214.11 1289.74 214.263 1289.46 214.34L1289.45 214.371L1280.22 217.033C1279.76 212.864 1280.7 208.659 1282.9 205.085ZM1292.54 222.188L1288.87 231.046C1285.35 228.794 1282.67 225.443 1281.25 221.514L1290.72 219.907L1290.74 219.928C1290.84 219.908 1290.95 219.899 1291.05 219.9C1291.32 219.904 1291.58 219.973 1291.81 220.102C1292.04 220.23 1292.24 220.414 1292.39 220.636C1292.53 220.859 1292.62 221.114 1292.64 221.378C1292.66 221.642 1292.62 221.908 1292.51 222.152L1292.54 222.188ZM1303.37 233.579C1299.94 234.366 1296.35 234.182 1293.02 233.048L1297.68 224.635H1297.68C1297.82 224.378 1298.03 224.163 1298.28 224.013C1298.53 223.863 1298.82 223.784 1299.11 223.784C1299.4 223.784 1299.69 223.862 1299.94 224.012C1300.19 224.161 1300.4 224.376 1300.53 224.632H1300.57L1305.24 233.059C1304.63 233.262 1304.01 233.435 1303.37 233.58V233.579ZM1309.39 231.082L1305.68 222.133L1305.69 222.117C1305.53 221.734 1305.52 221.303 1305.66 220.913C1305.81 220.522 1306.1 220.203 1306.47 220.022C1306.67 219.928 1306.88 219.873 1307.09 219.862C1307.22 219.856 1307.34 219.865 1307.47 219.889L1307.48 219.869L1317.03 221.482C1315.62 225.443 1312.93 228.82 1309.39 231.082ZM1318.04 217.002L1308.76 214.331L1308.75 214.292C1308.47 214.214 1308.21 214.061 1308.01 213.85C1307.81 213.639 1307.67 213.377 1307.6 213.092C1307.54 212.808 1307.55 212.511 1307.64 212.233C1307.73 211.955 1307.89 211.707 1308.11 211.514L1308.11 211.496L1315.27 205.089C1317.47 208.654 1318.44 212.837 1318.04 217.002L1318.04 217.002Z" fill="white"/>
<path d="M391.18 318.645V322.407H381.053V318.645H391.18ZM383.175 314.799H388.286V329.65C388.286 329.963 388.334 330.218 388.432 330.413C388.537 330.601 388.686 330.737 388.881 330.82C389.076 330.897 389.31 330.935 389.581 330.935C389.776 330.935 389.982 330.918 390.198 330.883C390.421 330.842 390.588 330.806 390.7 330.778L391.473 334.468C391.229 334.537 390.884 334.625 390.438 334.729C389.999 334.834 389.473 334.9 388.86 334.928C387.662 334.983 386.634 334.844 385.777 334.509C384.927 334.168 384.276 333.639 383.822 332.921C383.377 332.203 383.161 331.301 383.175 330.214V314.799Z" fill="black"/>
<path d="M379.206 323.545L374.514 323.671C374.465 323.336 374.333 323.04 374.116 322.783C373.901 322.518 373.618 322.312 373.27 322.166C372.929 322.013 372.531 321.936 372.078 321.936C371.486 321.936 370.981 322.055 370.563 322.291C370.152 322.528 369.95 322.849 369.957 323.253C369.95 323.567 370.075 323.838 370.333 324.068C370.598 324.298 371.068 324.483 371.744 324.622L374.837 325.207C376.44 325.514 377.632 326.023 378.412 326.733C379.199 327.444 379.596 328.384 379.604 329.555C379.596 330.656 379.269 331.614 378.621 332.429C377.98 333.244 377.102 333.878 375.987 334.332C374.873 334.777 373.597 335 372.162 335C369.87 335 368.062 334.529 366.738 333.589C365.421 332.642 364.668 331.374 364.481 329.785L369.528 329.659C369.64 330.245 369.929 330.691 370.395 330.997C370.863 331.304 371.459 331.457 372.183 331.457C372.838 331.457 373.371 331.336 373.782 331.091C374.193 330.848 374.402 330.523 374.409 330.119C374.402 329.757 374.242 329.468 373.929 329.252C373.614 329.029 373.124 328.855 372.455 328.729L369.654 328.197C368.044 327.904 366.846 327.364 366.059 326.577C365.272 325.782 364.881 324.772 364.888 323.545C364.881 322.472 365.166 321.556 365.745 320.797C366.323 320.03 367.146 319.446 368.212 319.041C369.278 318.637 370.535 318.435 371.985 318.435C374.158 318.435 375.872 318.891 377.126 319.804C378.381 320.71 379.074 321.957 379.206 323.545Z" fill="black"/>
<path d="M352.472 334.969C351.448 334.969 350.538 334.798 349.744 334.457C348.957 334.109 348.333 333.585 347.874 332.889C347.42 332.185 347.194 331.304 347.194 330.245C347.194 329.353 347.351 328.601 347.665 327.987C347.978 327.374 348.41 326.876 348.96 326.493C349.511 326.109 350.145 325.82 350.862 325.625C351.58 325.424 352.346 325.288 353.161 325.218C354.075 325.134 354.81 325.047 355.367 324.956C355.924 324.859 356.328 324.723 356.579 324.549C356.837 324.368 356.966 324.113 356.966 323.786V323.734C356.966 323.197 356.781 322.783 356.412 322.49C356.043 322.197 355.545 322.051 354.918 322.051C354.242 322.051 353.699 322.197 353.287 322.49C352.876 322.783 352.615 323.187 352.503 323.703L347.79 323.535C347.929 322.56 348.288 321.689 348.866 320.922C349.452 320.149 350.253 319.543 351.27 319.104C352.294 318.658 353.524 318.435 354.96 318.435C355.984 318.435 356.928 318.557 357.792 318.801C358.655 319.038 359.408 319.386 360.049 319.846C360.69 320.299 361.185 320.856 361.533 321.518C361.888 322.18 362.066 322.936 362.066 323.786V334.697H357.259V332.461H357.133C356.848 333.004 356.482 333.464 356.036 333.84C355.597 334.216 355.078 334.499 354.479 334.687C353.886 334.875 353.217 334.969 352.472 334.969ZM354.05 331.625C354.601 331.625 355.095 331.513 355.534 331.29C355.98 331.067 356.336 330.76 356.6 330.37C356.865 329.973 356.997 329.513 356.997 328.991V327.465C356.851 327.541 356.673 327.611 356.464 327.674C356.262 327.737 356.039 327.796 355.796 327.852C355.551 327.908 355.301 327.956 355.043 327.998C354.785 328.039 354.538 328.078 354.301 328.113C353.82 328.189 353.409 328.308 353.068 328.468C352.733 328.629 352.476 328.838 352.294 329.095C352.12 329.346 352.033 329.645 352.033 329.994C352.033 330.523 352.221 330.928 352.597 331.206C352.981 331.485 353.465 331.625 354.05 331.625Z" fill="black"/>
<path d="M336.162 334.697V318.644H341.127V321.57H341.294C341.587 320.511 342.064 319.724 342.726 319.209C343.388 318.686 344.158 318.424 345.036 318.424C345.273 318.424 345.516 318.442 345.767 318.477C346.018 318.505 346.252 318.55 346.468 318.613V323.055C346.224 322.971 345.903 322.904 345.506 322.856C345.116 322.807 344.767 322.783 344.461 322.783C343.855 322.783 343.308 322.918 342.82 323.191C342.339 323.455 341.959 323.828 341.681 324.308C341.409 324.782 341.273 325.34 341.273 325.981V334.697H336.162Z" fill="black"/>
<path d="M333.555 318.645V322.407H323.428V318.645H333.555ZM325.549 314.799H330.66V329.65C330.66 329.963 330.709 330.218 330.806 330.413C330.91 330.601 331.06 330.737 331.255 330.82C331.45 330.897 331.684 330.935 331.956 330.935C332.151 330.935 332.356 330.918 332.573 330.883C332.795 330.842 332.962 330.806 333.074 330.778L333.848 334.468C333.603 334.537 333.259 334.625 332.812 334.729C332.374 334.834 331.848 334.9 331.235 334.928C330.036 334.983 329.008 334.844 328.151 334.509C327.301 334.168 326.65 333.639 326.197 332.921C325.751 332.203 325.535 331.301 325.549 330.214V314.799Z" fill="black"/>
<path d="M310.951 325.542V334.697H305.841V318.644H310.701V321.591H310.878C311.234 320.609 311.84 319.839 312.697 319.281C313.554 318.717 314.575 318.435 315.759 318.435C316.888 318.435 317.867 318.689 318.696 319.198C319.532 319.699 320.18 320.403 320.64 321.309C321.107 322.208 321.337 323.26 321.33 324.465V334.697H316.219V325.469C316.226 324.577 315.999 323.88 315.539 323.378C315.087 322.876 314.456 322.625 313.648 322.625C313.111 322.625 312.638 322.744 312.226 322.981C311.822 323.211 311.509 323.542 311.286 323.974C311.07 324.406 310.959 324.928 310.951 325.542Z" fill="black"/>
<path d="M295.113 335C293.427 335 291.977 334.655 290.765 333.965C289.56 333.268 288.63 332.3 287.975 331.06C287.327 329.812 287.003 328.367 287.003 326.723C287.003 325.071 287.327 323.625 287.975 322.386C288.63 321.139 289.56 320.17 290.765 319.48C291.977 318.783 293.427 318.435 295.113 318.435C296.799 318.435 298.245 318.783 299.45 319.48C300.662 320.17 301.592 321.139 302.24 322.386C302.895 323.625 303.223 325.071 303.223 326.723C303.223 328.367 302.895 329.812 302.24 331.06C301.592 332.3 300.662 333.268 299.45 333.965C298.245 334.655 296.799 335 295.113 335ZM295.144 331.144C295.757 331.144 296.276 330.956 296.701 330.579C297.126 330.203 297.45 329.681 297.673 329.011C297.903 328.342 298.018 327.569 298.018 326.691C298.018 325.8 297.903 325.019 297.673 324.35C297.45 323.681 297.126 323.159 296.701 322.783C296.276 322.406 295.757 322.219 295.144 322.219C294.51 322.219 293.974 322.406 293.535 322.783C293.103 323.159 292.772 323.681 292.542 324.35C292.319 325.019 292.207 325.8 292.207 326.691C292.207 327.569 292.319 328.342 292.542 329.011C292.772 329.681 293.103 330.203 293.535 330.579C293.974 330.956 294.51 331.144 295.144 331.144Z" fill="black"/>
<path d="M284.659 321.048H279.433C279.364 320.511 279.221 320.027 279.005 319.595C278.789 319.163 278.503 318.793 278.148 318.487C277.792 318.181 277.371 317.947 276.883 317.787C276.402 317.62 275.869 317.536 275.284 317.536C274.246 317.536 273.351 317.791 272.598 318.299C271.853 318.807 271.278 319.542 270.874 320.504C270.476 321.466 270.278 322.629 270.278 323.995C270.278 325.416 270.48 326.608 270.884 327.569C271.295 328.524 271.87 329.245 272.609 329.733C273.354 330.213 274.235 330.454 275.253 330.454C275.824 330.454 276.343 330.38 276.81 330.235C277.284 330.088 277.698 329.876 278.054 329.597C278.416 329.311 278.712 328.966 278.942 328.562C279.179 328.151 279.343 327.687 279.433 327.172L284.659 327.203C284.568 328.151 284.293 329.085 283.833 330.004C283.38 330.924 282.757 331.764 281.962 332.523C281.168 333.276 280.2 333.874 279.057 334.321C277.921 334.767 276.618 334.99 275.148 334.99C273.211 334.99 271.476 334.565 269.943 333.715C268.418 332.858 267.212 331.611 266.327 329.973C265.442 328.336 265 326.343 265 323.995C265 321.64 265.449 319.644 266.348 318.006C267.247 316.369 268.463 315.125 269.996 314.275C271.529 313.425 273.246 313 275.148 313C276.444 313 277.643 313.181 278.743 313.544C279.844 313.899 280.813 314.422 281.649 315.112C282.485 315.794 283.164 316.634 283.687 317.63C284.209 318.626 284.533 319.765 284.659 321.048Z" fill="black"/>
</g>
<defs>
<linearGradient id="paint0_linear_543_1292" x1="659" y1="143" x2="659" y2="283" gradientUnits="userSpaceOnUse">
<stop stop-color="#75FB7A"/>
<stop offset="1" stop-color="#D9D9D9"/>
</linearGradient>
<linearGradient id="paint1_linear_543_1292" x1="819" y1="143" x2="819" y2="283" gradientUnits="userSpaceOnUse">
<stop stop-color="#75FB7A"/>
<stop offset="1" stop-color="#D9D9D9"/>
</linearGradient>
<linearGradient id="paint2_linear_543_1292" x1="979" y1="143" x2="979" y2="283" gradientUnits="userSpaceOnUse">
<stop stop-color="#75FB7A"/>
<stop offset="1" stop-color="#D9D9D9"/>
</linearGradient>
<linearGradient id="paint3_linear_543_1292" x1="979" y1="303" x2="979" y2="443" gradientUnits="userSpaceOnUse">
<stop stop-color="#75FB7A"/>
<stop offset="1" stop-color="#D9D9D9"/>
</linearGradient>
<linearGradient id="paint4_linear_543_1292" x1="979" y1="463" x2="979" y2="603" gradientUnits="userSpaceOnUse">
<stop stop-color="#75FB7A"/>
<stop offset="1" stop-color="#D9D9D9"/>
</linearGradient>
<linearGradient id="paint5_linear_543_1292" x1="1139" y1="463" x2="1139" y2="603" gradientUnits="userSpaceOnUse">
<stop stop-color="#75FB7A"/>
<stop offset="1" stop-color="#D9D9D9"/>
</linearGradient>
<linearGradient id="paint6_linear_543_1292" x1="1299" y1="463" x2="1299" y2="603" gradientUnits="userSpaceOnUse">
<stop stop-color="#75FB7A"/>
<stop offset="1" stop-color="#D9D9D9"/>
</linearGradient>
<linearGradient id="paint7_linear_543_1292" x1="1139" y1="303" x2="1139" y2="443" gradientUnits="userSpaceOnUse">
<stop stop-color="#75FB7A"/>
<stop offset="1" stop-color="#D9D9D9"/>
</linearGradient>
<clipPath id="clip0_543_1292">
<rect width="1776" height="746" fill="white"/>
</clipPath>
</defs>
</svg>
