<svg width="3983" height="1380" xmlns="http://www.w3.org/2000/svg" xmlns:xlink="http://www.w3.org/1999/xlink" xml:space="preserve" overflow="hidden"><defs><filter id="fx0" x="-10%" y="-10%" width="120%" height="120%" filterUnits="userSpaceOnUse" primitiveUnits="userSpaceOnUse"><feComponentTransfer color-interpolation-filters="sRGB"><feFuncR type="discrete" tableValues="0.000000 0.000000"/><feFuncG type="discrete" tableValues="0.000000 0.000000"/><feFuncB type="discrete" tableValues="0.000000 0.000000"/><feFuncA type="linear" slope="0.400000" intercept="0.000000"/></feComponentTransfer><feGaussianBlur stdDeviation="6.111111 6.111111"/></filter><filter id="fx1" x="-10%" y="-10%" width="120%" height="120%" filterUnits="userSpaceOnUse" primitiveUnits="userSpaceOnUse"><feComponentTransfer color-interpolation-filters="sRGB"><feFuncR type="discrete" tableValues="0.000000 0.000000"/><feFuncG type="discrete" tableValues="0.000000 0.000000"/><feFuncB type="discrete" tableValues="0.000000 0.000000"/><feFuncA type="linear" slope="0.400000" intercept="0.000000"/></feComponentTransfer><feGaussianBlur stdDeviation="6.111111 6.111111"/></filter><clipPath id="clip2"><rect x="1.38947" y="1.38928" width="3035.67" height="390.667"/></clipPath><clipPath id="clip3"><rect x="1.3894" y="1.38928" width="589.666" height="390.667"/></clipPath></defs><g transform="translate(-210 -444)"><g><g clip-path="url(#clip2)" filter="url(#fx0)" transform="translate(631 537)"><g><g><rect x="19.7228" y="19.7226" width="2999" height="354" fill="#FF8181" fill-opacity="1"/></g></g></g><rect x="641" y="547" width="2999" height="354" fill="#FF8181" fill-opacity="1"/><text fill="#000000" fill-opacity="1" font-family="Inter,Inter_MSFontService,sans-serif" font-style="normal" font-variant="normal" font-weight="700" font-stretch="normal" font-size="50" text-anchor="start" direction="ltr" writing-mode="lr-tb" unicode-bidi="normal" text-decoration="none" transform="matrix(1 0 0 1 317.094 721)">Normal </text><text fill="#000000" fill-opacity="1" font-family="Inter,Inter_MSFontService,sans-serif" font-style="normal" font-variant="normal" font-weight="700" font-stretch="normal" font-size="50" text-anchor="start" direction="ltr" writing-mode="lr-tb" unicode-bidi="normal" text-decoration="none" transform="matrix(1 0 0 1 261.246 782)">Kubernetes</text><g><g><g><g><path d="M84.0002 0 42.0002 0 42.0002 12.9025C45.2273 12.8809 48.5129 13.3964 51.7373 14.5075 61.4783 17.8638 68.8577 25.4793 70.7291 36.2117L58.8698 36.2171C56.7266 30.6183 53.1413 26.8863 48.0737 25.1401 38.6537 21.8943 28.386 26.8994 25.1402 36.3194 21.8944 45.7394 26.8995 56.0069 36.3194 59.2529 45.4013 62.3822 56.2721 57.2183 58.8749 47.4173L70.7345 47.4119C70.7348 48.3452 70.202 50.819 69.8858 51.7373 65.6864 63.9242 54.227 71.5694 42.0002 71.489L42.0002 83.9999 84.0002 83.9999 84.0002 0Z" fill="#7A49F6" fill-rule="evenodd" fill-opacity="1" transform="matrix(1 0 0 1 284 1452)"/><path d="M58.8749 47.4173C56.2721 57.2183 45.401 62.3822 36.3194 59.2529 26.8993 56.0069 21.8942 45.7394 25.14 36.3194 28.3859 26.8993 38.6534 21.8942 48.0734 25.14 53.141 26.8861 56.7263 30.6183 58.8695 36.2171L70.7291 36.2117C68.8574 25.4792 61.478 17.8637 51.737 14.5073 36.4448 9.23813 19.7765 17.3634 14.5073 32.6558 9.23813 47.948 17.3635 64.6163 32.6555 69.8855 47.948 75.1547 64.6214 67.0145 69.8855 51.7373 70.202 50.819 70.7345 48.3452 70.7342 47.4119L58.8749 47.4173Z" fill="#FFFFFF" fill-rule="nonzero" fill-opacity="1" transform="matrix(1 0 0 1 284 1452)"/><path d="M0 0 41.9999 0 41.9999 12.9025C29.9224 12.9834 18.6654 20.588 14.5073 32.6558 9.2381 47.948 17.3635 64.6163 32.6555 69.8855 35.7491 70.9514 38.8991 71.4686 41.9999 71.489L41.9999 83.9999 0 83.9999 0 0ZM11.7 20.1C16.3392 20.1 20.1 16.3392 20.1 11.7 20.1 7.06079 16.3392 3.29999 11.7 3.29999 7.06079 3.29999 3.29999 7.06079 3.29999 11.7 3.29999 16.3392 7.06079 20.1 11.7 20.1Z" fill="#000000" fill-rule="evenodd" fill-opacity="1" transform="matrix(1 0 0 1 284 1452)"/><path d="M20.1 11.7C20.1 16.3392 16.3392 20.1 11.7 20.1 7.06079 20.1 3.29999 16.3392 3.29999 11.7 3.29999 7.06079 7.06079 3.29999 11.7 3.29999 16.3392 3.29999 20.1 7.06079 20.1 11.7Z" fill="#FFFFFF" fill-rule="nonzero" fill-opacity="1" transform="matrix(1 0 0 1 284 1452)"/></g></g></g></g><rect x="2694.5" y="962.5" width="889" height="70.0001" stroke="#7F7F7F" stroke-width="4.58333" stroke-linecap="butt" stroke-linejoin="miter" stroke-miterlimit="8" stroke-opacity="1" fill="none"/><text fill="#000000" fill-opacity="1" font-family="Inter,Inter_MSFontService,sans-serif" font-style="normal" font-variant="normal" font-weight="700" font-stretch="normal" font-size="46" text-anchor="start" direction="ltr" writing-mode="lr-tb" unicode-bidi="normal" text-decoration="none" transform="matrix(1 0 0 1 3007.05 1013)">Kubernetes</text><rect x="699.5" y="962.5" width="888" height="70.0001" stroke="#7F7F7F" stroke-width="4.58333" stroke-linecap="butt" stroke-linejoin="miter" stroke-miterlimit="8" stroke-opacity="1" fill="none"/><text fill="#000000" fill-opacity="1" font-family="Inter,Inter_MSFontService,sans-serif" font-style="normal" font-variant="normal" font-weight="700" font-stretch="normal" font-size="46" text-anchor="start" direction="ltr" writing-mode="lr-tb" unicode-bidi="normal" text-decoration="none" transform="matrix(1 0 0 1 764.1 1013)">Cloud &amp; </text><text fill="#000000" fill-opacity="1" font-family="Inter,Inter_MSFontService,sans-serif" font-style="normal" font-variant="normal" font-weight="700" font-stretch="normal" font-size="46" text-anchor="start" direction="ltr" writing-mode="lr-tb" unicode-bidi="normal" text-decoration="none" transform="matrix(1 0 0 1 949.725 1013)">datacenter</text><text fill="#000000" fill-opacity="1" font-family="Inter,Inter_MSFontService,sans-serif" font-style="normal" font-variant="normal" font-weight="700" font-stretch="normal" font-size="46" text-anchor="start" direction="ltr" writing-mode="lr-tb" unicode-bidi="normal" text-decoration="none" transform="matrix(1 0 0 1 1207.54 1013)">i</text><text fill="#000000" fill-opacity="1" font-family="Inter,Inter_MSFontService,sans-serif" font-style="normal" font-variant="normal" font-weight="700" font-stretch="normal" font-size="46" text-anchor="start" direction="ltr" writing-mode="lr-tb" unicode-bidi="normal" text-decoration="none" transform="matrix(1 0 0 1 1220.14 1013)">nfrastructure</text><rect x="1697.5" y="966.5" width="888" height="66" stroke="#7F7F7F" stroke-width="4.58333" stroke-linecap="butt" stroke-linejoin="miter" stroke-miterlimit="8" stroke-opacity="1" fill="none"/><text fill="#000000" fill-opacity="1" font-family="Inter,Inter_MSFontService,sans-serif" font-style="normal" font-variant="normal" font-weight="700" font-stretch="normal" font-size="46" text-anchor="start" direction="ltr" writing-mode="lr-tb" unicode-bidi="normal" text-decoration="none" transform="matrix(1 0 0 1 1977.56 1015)">Physical hosts</text><g clip-path="url(#clip3)" filter="url(#fx1)" transform="translate(3601 1307)"><g><g><rect x="19.7229" y="19.7227" width="553" height="354" fill="#90FF99" fill-opacity="1"/></g></g></g><rect x="3611" y="1317" width="553" height="354" fill="#90FF99" fill-opacity="1"/><rect x="699" y="1385" width="390" height="228" fill="#7F7F7F" fill-opacity="1"/><text fill="#FFFFFF" fill-opacity="1" font-family="Inter,Inter_MSFontService,sans-serif" font-style="normal" font-variant="normal" font-weight="400" font-stretch="normal" font-size="50" text-anchor="start" direction="ltr" writing-mode="lr-tb" unicode-bidi="normal" text-decoration="none" transform="matrix(1 0 0 1 761.099 1486)">Datacenter </text><text fill="#FFFFFF" fill-opacity="1" font-family="Inter,Inter_MSFontService,sans-serif" font-style="normal" font-variant="normal" font-weight="400" font-stretch="normal" font-size="50" text-anchor="start" direction="ltr" writing-mode="lr-tb" unicode-bidi="normal" text-decoration="none" transform="matrix(1 0 0 1 763.964 1547)">employees</text><rect x="1697" y="1385" width="389" height="228" fill="#7F7F7F" fill-opacity="1"/><text fill="#FFFFFF" fill-opacity="1" font-family="Inter,Inter_MSFontService,sans-serif" font-style="normal" font-variant="normal" font-weight="400" font-stretch="normal" font-size="50" text-anchor="start" direction="ltr" writing-mode="lr-tb" unicode-bidi="normal" text-decoration="none" transform="matrix(1 0 0 1 1849.03 1456)">OS</text><text fill="#FFFFFF" fill-opacity="1" font-family="Inter,Inter_MSFontService,sans-serif" font-style="normal" font-variant="normal" font-weight="400" font-stretch="normal" font-size="50" text-anchor="start" direction="ltr" writing-mode="lr-tb" unicode-bidi="normal" text-decoration="none" transform="matrix(1 0 0 1 1919.5 1456)">, </text><text fill="#FFFFFF" fill-opacity="1" font-family="Inter,Inter_MSFontService,sans-serif" font-style="normal" font-variant="normal" font-weight="400" font-stretch="normal" font-size="50" text-anchor="start" direction="ltr" writing-mode="lr-tb" unicode-bidi="normal" text-decoration="none" transform="matrix(1 0 0 1 1761.37 1517)">Hypervisor </text><text fill="#FFFFFF" fill-opacity="1" font-family="Inter,Inter_MSFontService,sans-serif" font-style="normal" font-variant="normal" font-weight="400" font-stretch="normal" font-size="50" text-anchor="start" direction="ltr" writing-mode="lr-tb" unicode-bidi="normal" text-decoration="none" transform="matrix(1 0 0 1 1846.74 1577)">etc.</text><rect x="2195" y="1385" width="390" height="228" fill="#7F7F7F" fill-opacity="1"/><text fill="#FFFFFF" fill-opacity="1" font-family="Inter,Inter_MSFontService,sans-serif" font-style="normal" font-variant="normal" font-weight="400" font-stretch="normal" font-size="50" text-anchor="start" direction="ltr" writing-mode="lr-tb" unicode-bidi="normal" text-decoration="none" transform="matrix(1 0 0 1 2301.18 1517)">A</text><text fill="#FFFFFF" fill-opacity="1" font-family="Inter,Inter_MSFontService,sans-serif" font-style="normal" font-variant="normal" font-weight="400" font-stretch="normal" font-size="50" text-anchor="start" direction="ltr" writing-mode="lr-tb" unicode-bidi="normal" text-decoration="none" transform="matrix(1 0 0 1 2335.56 1517)">dmin</text><text fill="#FFFFFF" fill-opacity="1" font-family="Inter,Inter_MSFontService,sans-serif" font-style="normal" font-variant="normal" font-weight="400" font-stretch="normal" font-size="50" text-anchor="start" direction="ltr" writing-mode="lr-tb" unicode-bidi="normal" text-decoration="none" transform="matrix(1 0 0 1 2453 1517)">s</text><rect x="2694.5" y="1728.5" width="889" height="70.0001" stroke="#7F7F7F" stroke-width="4.58333" stroke-linecap="butt" stroke-linejoin="miter" stroke-miterlimit="8" stroke-opacity="1" fill="none"/><text fill="#000000" fill-opacity="1" font-family="Inter,Inter_MSFontService,sans-serif" font-style="normal" font-variant="normal" font-weight="700" font-stretch="normal" font-size="46" text-anchor="start" direction="ltr" writing-mode="lr-tb" unicode-bidi="normal" text-decoration="none" transform="matrix(1 0 0 1 3007.05 1780)">Kubernetes</text><rect x="699.5" y="1728.5" width="888" height="70.0001" stroke="#7F7F7F" stroke-width="4.58333" stroke-linecap="butt" stroke-linejoin="miter" stroke-miterlimit="8" stroke-opacity="1" fill="none"/><text fill="#000000" fill-opacity="1" font-family="Inter,Inter_MSFontService,sans-serif" font-style="normal" font-variant="normal" font-weight="700" font-stretch="normal" font-size="46" text-anchor="start" direction="ltr" writing-mode="lr-tb" unicode-bidi="normal" text-decoration="none" transform="matrix(1 0 0 1 764.1 1780)">Cloud &amp; </text><text fill="#000000" fill-opacity="1" font-family="Inter,Inter_MSFontService,sans-serif" font-style="normal" font-variant="normal" font-weight="700" font-stretch="normal" font-size="46" text-anchor="start" direction="ltr" writing-mode="lr-tb" unicode-bidi="normal" text-decoration="none" transform="matrix(1 0 0 1 949.725 1780)">datacenter</text><text fill="#000000" fill-opacity="1" font-family="Inter,Inter_MSFontService,sans-serif" font-style="normal" font-variant="normal" font-weight="700" font-stretch="normal" font-size="46" text-anchor="start" direction="ltr" writing-mode="lr-tb" unicode-bidi="normal" text-decoration="none" transform="matrix(1 0 0 1 1207.54 1780)">i</text><text fill="#000000" fill-opacity="1" font-family="Inter,Inter_MSFontService,sans-serif" font-style="normal" font-variant="normal" font-weight="700" font-stretch="normal" font-size="46" text-anchor="start" direction="ltr" writing-mode="lr-tb" unicode-bidi="normal" text-decoration="none" transform="matrix(1 0 0 1 1220.14 1780)">nfrastructure</text><rect x="1697.5" y="1732.5" width="888" height="66" stroke="#7F7F7F" stroke-width="4.58333" stroke-linecap="butt" stroke-linejoin="miter" stroke-miterlimit="8" stroke-opacity="1" fill="none"/><text fill="#000000" fill-opacity="1" font-family="Inter,Inter_MSFontService,sans-serif" font-style="normal" font-variant="normal" font-weight="700" font-stretch="normal" font-size="46" text-anchor="start" direction="ltr" writing-mode="lr-tb" unicode-bidi="normal" text-decoration="none" transform="matrix(1 0 0 1 1977.56 1782)">Physical hosts</text><rect x="2694" y="1385" width="390" height="228" fill="#7F7F7F" fill-opacity="1"/><text fill="#FFFFFF" fill-opacity="1" font-family="Inter,Inter_MSFontService,sans-serif" font-style="normal" font-variant="normal" font-weight="400" font-stretch="normal" font-size="50" text-anchor="start" direction="ltr" writing-mode="lr-tb" unicode-bidi="normal" text-decoration="none" transform="matrix(1 0 0 1 2728.41 1517)">Control plane</text><rect x="3193" y="1385" width="390" height="228" fill="#7F7F7F" fill-opacity="1"/><text fill="#FFFFFF" fill-opacity="1" font-family="Inter,Inter_MSFontService,sans-serif" font-style="normal" font-variant="normal" font-weight="400" font-stretch="normal" font-size="50" text-anchor="start" direction="ltr" writing-mode="lr-tb" unicode-bidi="normal" text-decoration="none" transform="matrix(1 0 0 1 3301.45 1486)">Worker </text><text fill="#FFFFFF" fill-opacity="1" font-family="Inter,Inter_MSFontService,sans-serif" font-style="normal" font-variant="normal" font-weight="400" font-stretch="normal" font-size="50" text-anchor="start" direction="ltr" writing-mode="lr-tb" unicode-bidi="normal" text-decoration="none" transform="matrix(1 0 0 1 3314.35 1547)">nodes</text><rect x="3692" y="1385" width="390" height="228" fill="#000000" fill-opacity="1"/><text fill="#FFFFFF" fill-opacity="1" font-family="Inter,Inter_MSFontService,sans-serif" font-style="normal" font-variant="normal" font-weight="400" font-stretch="normal" font-size="50" text-anchor="start" direction="ltr" writing-mode="lr-tb" unicode-bidi="normal" text-decoration="none" transform="matrix(1 0 0 1 3773.08 1517)">Workload</text><rect x="1198" y="1385" width="389" height="228" fill="#7F7F7F" fill-opacity="1"/><text fill="#FFFFFF" fill-opacity="1" font-family="Inter,Inter_MSFontService,sans-serif" font-style="normal" font-variant="normal" font-weight="400" font-stretch="normal" font-size="50" text-anchor="start" direction="ltr" writing-mode="lr-tb" unicode-bidi="normal" text-decoration="none" transform="matrix(1 0 0 1 1244.48 1486)">Infrastructur</text><text fill="#FFFFFF" fill-opacity="1" font-family="Inter,Inter_MSFontService,sans-serif" font-style="normal" font-variant="normal" font-weight="400" font-stretch="normal" font-size="50" text-anchor="start" direction="ltr" writing-mode="lr-tb" unicode-bidi="normal" text-decoration="none" transform="matrix(1 0 0 1 1265.1 1547)">e software</text><text fill="#000000" fill-opacity="1" font-family="Inter,Inter_MSFontService,sans-serif" font-style="normal" font-variant="normal" font-weight="700" font-stretch="normal" font-size="55" text-anchor="start" direction="ltr" writing-mode="lr-tb" unicode-bidi="normal" text-decoration="none" transform="matrix(1 0 0 1 1503.64 517)">Entities that could maliciously access workload</text><text fill="#000000" fill-opacity="1" font-family="Inter,Inter_MSFontService,sans-serif" font-style="normal" font-variant="normal" font-weight="700" font-stretch="normal" font-size="55" text-anchor="start" direction="ltr" writing-mode="lr-tb" unicode-bidi="normal" text-decoration="none" transform="matrix(1 0 0 1 3059.44 1286)">Entities that are shielded</text><rect x="699" y="609" width="390" height="228" fill="#7F7F7F" fill-opacity="1"/><text fill="#FFFFFF" fill-opacity="1" font-family="Inter,Inter_MSFontService,sans-serif" font-style="normal" font-variant="normal" font-weight="400" font-stretch="normal" font-size="50" text-anchor="start" direction="ltr" writing-mode="lr-tb" unicode-bidi="normal" text-decoration="none" transform="matrix(1 0 0 1 761.099 711)">Datacenter </text><text fill="#FFFFFF" fill-opacity="1" font-family="Inter,Inter_MSFontService,sans-serif" font-style="normal" font-variant="normal" font-weight="400" font-stretch="normal" font-size="50" text-anchor="start" direction="ltr" writing-mode="lr-tb" unicode-bidi="normal" text-decoration="none" transform="matrix(1 0 0 1 763.964 772)">employees</text><rect x="1697" y="609" width="389" height="228" fill="#7F7F7F" fill-opacity="1"/><text fill="#FFFFFF" fill-opacity="1" font-family="Inter,Inter_MSFontService,sans-serif" font-style="normal" font-variant="normal" font-weight="400" font-stretch="normal" font-size="50" text-anchor="start" direction="ltr" writing-mode="lr-tb" unicode-bidi="normal" text-decoration="none" transform="matrix(1 0 0 1 1849.03 681)">OS</text><text fill="#FFFFFF" fill-opacity="1" font-family="Inter,Inter_MSFontService,sans-serif" font-style="normal" font-variant="normal" font-weight="400" font-stretch="normal" font-size="50" text-anchor="start" direction="ltr" writing-mode="lr-tb" unicode-bidi="normal" text-decoration="none" transform="matrix(1 0 0 1 1919.5 681)">, </text><text fill="#FFFFFF" fill-opacity="1" font-family="Inter,Inter_MSFontService,sans-serif" font-style="normal" font-variant="normal" font-weight="400" font-stretch="normal" font-size="50" text-anchor="start" direction="ltr" writing-mode="lr-tb" unicode-bidi="normal" text-decoration="none" transform="matrix(1 0 0 1 1761.37 742)">Hypervisor </text><text fill="#FFFFFF" fill-opacity="1" font-family="Inter,Inter_MSFontService,sans-serif" font-style="normal" font-variant="normal" font-weight="400" font-stretch="normal" font-size="50" text-anchor="start" direction="ltr" writing-mode="lr-tb" unicode-bidi="normal" text-decoration="none" transform="matrix(1 0 0 1 1846.74 802)">etc.</text><rect x="2195" y="609" width="390" height="228" fill="#7F7F7F" fill-opacity="1"/><text fill="#FFFFFF" fill-opacity="1" font-family="Inter,Inter_MSFontService,sans-serif" font-style="normal" font-variant="normal" font-weight="400" font-stretch="normal" font-size="50" text-anchor="start" direction="ltr" writing-mode="lr-tb" unicode-bidi="normal" text-decoration="none" transform="matrix(1 0 0 1 2301.18 741)">A</text><text fill="#FFFFFF" fill-opacity="1" font-family="Inter,Inter_MSFontService,sans-serif" font-style="normal" font-variant="normal" font-weight="400" font-stretch="normal" font-size="50" text-anchor="start" direction="ltr" writing-mode="lr-tb" unicode-bidi="normal" text-decoration="none" transform="matrix(1 0 0 1 2335.56 741)">dmin</text><text fill="#FFFFFF" fill-opacity="1" font-family="Inter,Inter_MSFontService,sans-serif" font-style="normal" font-variant="normal" font-weight="400" font-stretch="normal" font-size="50" text-anchor="start" direction="ltr" writing-mode="lr-tb" unicode-bidi="normal" text-decoration="none" transform="matrix(1 0 0 1 2453 741)">s</text><rect x="2694" y="609" width="390" height="228" fill="#7F7F7F" fill-opacity="1"/><text fill="#FFFFFF" fill-opacity="1" font-family="Inter,Inter_MSFontService,sans-serif" font-style="normal" font-variant="normal" font-weight="400" font-stretch="normal" font-size="50" text-anchor="start" direction="ltr" writing-mode="lr-tb" unicode-bidi="normal" text-decoration="none" transform="matrix(1 0 0 1 2728.41 741)">Control plane</text><rect x="3193" y="609" width="390" height="228" fill="#7F7F7F" fill-opacity="1"/><text fill="#FFFFFF" fill-opacity="1" font-family="Inter,Inter_MSFontService,sans-serif" font-style="normal" font-variant="normal" font-weight="400" font-stretch="normal" font-size="50" text-anchor="start" direction="ltr" writing-mode="lr-tb" unicode-bidi="normal" text-decoration="none" transform="matrix(1 0 0 1 3301.45 711)">Worker </text><text fill="#FFFFFF" fill-opacity="1" font-family="Inter,Inter_MSFontService,sans-serif" font-style="normal" font-variant="normal" font-weight="400" font-stretch="normal" font-size="50" text-anchor="start" direction="ltr" writing-mode="lr-tb" unicode-bidi="normal" text-decoration="none" transform="matrix(1 0 0 1 3314.35 772)">nodes</text><rect x="3692" y="609" width="390" height="228" fill="#000000" fill-opacity="1"/><text fill="#FFFFFF" fill-opacity="1" font-family="Inter,Inter_MSFontService,sans-serif" font-style="normal" font-variant="normal" font-weight="400" font-stretch="normal" font-size="50" text-anchor="start" direction="ltr" writing-mode="lr-tb" unicode-bidi="normal" text-decoration="none" transform="matrix(1 0 0 1 3773.08 741)">Workload</text><rect x="1198" y="609" width="389" height="228" fill="#7F7F7F" fill-opacity="1"/><text fill="#FFFFFF" fill-opacity="1" font-family="Inter,Inter_MSFontService,sans-serif" font-style="normal" font-variant="normal" font-weight="400" font-stretch="normal" font-size="50" text-anchor="start" direction="ltr" writing-mode="lr-tb" unicode-bidi="normal" text-decoration="none" transform="matrix(1 0 0 1 1244.48 711)">Infrastructur</text><text fill="#FFFFFF" fill-opacity="1" font-family="Inter,Inter_MSFontService,sans-serif" font-style="normal" font-variant="normal" font-weight="400" font-stretch="normal" font-size="50" text-anchor="start" direction="ltr" writing-mode="lr-tb" unicode-bidi="normal" text-decoration="none" transform="matrix(1 0 0 1 1265.1 772)">e software</text><text fill="#000000" fill-opacity="1" font-family="Inter,Inter_MSFontService,sans-serif" font-style="normal" font-variant="normal" font-weight="700" font-stretch="normal" font-size="55" text-anchor="start" direction="ltr" writing-mode="lr-tb" unicode-bidi="normal" text-decoration="none" transform="matrix(1 0 0 1 389.239 1514)">Contrast</text></g></g></svg>