<svg width="360" height="360" viewBox="0 0 360 360" fill="none" xmlns="http://www.w3.org/2000/svg">
<g clip-path="url(#clip0_2392_12382)">
<mask id="mask0_2392_12382" style="mask-type:alpha" maskUnits="userSpaceOnUse" x="0" y="0" width="360" height="360">
<rect width="360" height="360" fill="black"/>
</mask>
<g mask="url(#mask0_2392_12382)">
<path fill-rule="evenodd" clip-rule="evenodd" d="M360.001 0H180.001V55.2965C193.832 55.2039 207.913 57.4133 221.732 62.175C263.479 76.5594 295.105 109.197 303.125 155.193L252.299 155.217C243.114 131.221 227.749 115.227 206.03 107.744C165.659 93.8328 121.654 115.283 107.744 155.655C93.833 196.026 115.284 240.03 155.655 253.941C194.577 267.353 241.166 245.222 252.321 203.217L303.148 203.194C303.149 207.194 300.866 217.796 299.511 221.732C281.513 273.961 232.402 306.726 180.001 306.382V360H360.001V0Z" fill="#7A49F6"/>
<path d="M252.322 203.217C241.167 245.221 194.576 267.352 155.655 253.941C115.283 240.029 93.8327 196.026 107.743 155.654C121.654 115.282 165.658 93.832 206.03 107.743C227.748 115.226 243.113 131.22 252.299 155.216L303.125 155.193C295.104 109.197 263.478 76.5586 221.731 62.1741C156.193 39.5917 84.7567 74.4145 62.1745 139.953C39.5923 205.491 74.4153 276.927 139.953 299.509C205.492 322.091 276.95 287.205 299.51 221.731C300.866 217.795 303.149 207.193 303.147 203.193L252.322 203.217Z" fill="white"/>
<path fill-rule="evenodd" clip-rule="evenodd" d="M0 0H180V55.2965C128.239 55.6434 79.9948 88.2345 62.1742 139.954C39.5919 205.492 74.4149 276.927 139.953 299.51C153.211 304.078 166.711 306.294 180 306.382V360H0V0ZM50.1429 86.1429C70.0251 86.1429 86.1429 70.0251 86.1429 50.1429C86.1429 30.2606 70.0251 14.1429 50.1429 14.1429C30.2606 14.1429 14.1429 30.2606 14.1429 50.1429C14.1429 70.0251 30.2606 86.1429 50.1429 86.1429Z" fill="black"/>
<path d="M86.1431 50.1445C86.1431 70.0268 70.0254 86.1445 50.1431 86.1445C30.2608 86.1445 14.1431 70.0268 14.1431 50.1445C14.1431 30.2622 30.2608 14.1445 50.1431 14.1445C70.0254 14.1445 86.1431 30.2622 86.1431 50.1445Z" fill="white"/>
</g>
</g>
<defs>
<clipPath id="clip0_2392_12382">
<rect width="360" height="360" fill="white"/>
</clipPath>
</defs>
</svg>
