<svg width="1050" height="222" viewBox="0 0 1050 222" fill="none" xmlns="http://www.w3.org/2000/svg">
<g clip-path="url(#clip0_2611_108)">
<rect width="1050" height="222" fill="white"/>
<rect width="1050" height="222" fill="#7A49F6"/>
<rect width="1050" height="222" fill="url(#paint0_linear_2611_108)"/>
<rect width="1050" height="222" transform="matrix(1 0 0 -1 0 222)" fill="url(#paint1_linear_2611_108)"/>
<rect width="1050" height="222" fill="url(#paint2_linear_2611_108)"/>
<g clip-path="url(#clip1_2611_108)">
<path fill-rule="evenodd" clip-rule="evenodd" d="M186.001 26H116.001V47.5042C121.379 47.4682 126.855 48.3274 132.229 50.1791C148.464 55.7731 160.763 68.4657 163.882 86.353L144.117 86.362C140.545 77.0305 134.569 70.8105 126.123 67.9003C110.423 62.4905 93.3101 70.8324 87.9004 86.5325C82.4907 102.233 90.8326 119.345 106.533 124.755C121.669 129.97 139.787 121.364 144.125 105.029L163.891 105.02C163.892 106.575 163.004 110.698 162.477 112.229C155.478 132.54 136.379 145.282 116.001 145.148V166H186.001V26Z" fill="#7A49F6"/>
<path d="M144.125 105.029C139.787 121.364 121.669 129.97 106.533 124.755C90.8323 119.345 82.4904 102.232 87.9001 86.5325C93.3099 70.8322 110.423 62.4903 126.123 67.9001C134.569 70.8103 140.544 77.0305 144.116 86.362L163.882 86.353C160.763 68.4654 148.464 55.7729 132.229 50.1789C106.742 41.3969 78.9609 54.9391 70.1789 80.4265C61.3969 105.913 74.9392 133.694 100.426 142.476C125.914 151.258 153.703 137.691 162.476 112.229C163.004 110.698 163.891 106.575 163.891 105.02L144.125 105.029Z" fill="white"/>
<path fill-rule="evenodd" clip-rule="evenodd" d="M46 26H116V47.5042C95.8708 47.6391 77.1091 60.3134 70.1789 80.4265C61.3969 105.913 74.9391 133.694 100.426 142.476C105.582 144.252 110.832 145.114 116 145.148V166H46V26ZM65.5 59.5C73.232 59.5 79.5 53.232 79.5 45.5C79.5 37.768 73.232 31.5 65.5 31.5C57.768 31.5 51.5 37.768 51.5 45.5C51.5 53.232 57.768 59.5 65.5 59.5Z" fill="black"/>
<path d="M79.5 45.5C79.5 53.232 73.232 59.5 65.5 59.5C57.768 59.5 51.5 53.232 51.5 45.5C51.5 37.768 57.768 31.5 65.5 31.5C73.232 31.5 79.5 37.768 79.5 45.5Z" fill="white"/>
<path d="M158.692 184.591V187.148H151.81V184.591H158.692ZM153.252 181.978H156.725V192.07C156.725 192.283 156.758 192.456 156.825 192.588C156.896 192.716 156.997 192.809 157.13 192.865C157.262 192.917 157.421 192.943 157.606 192.943C157.738 192.943 157.878 192.932 158.025 192.908C158.176 192.88 158.29 192.856 158.366 192.837L158.891 195.344C158.726 195.391 158.491 195.451 158.188 195.522C157.89 195.593 157.532 195.638 157.116 195.657C156.301 195.694 155.603 195.6 155.021 195.372C154.443 195.14 154 194.781 153.692 194.293C153.389 193.805 153.243 193.192 153.252 192.453V181.978Z" fill="white"/>
<path d="M150.555 187.921L147.366 188.007C147.333 187.779 147.243 187.578 147.096 187.403C146.95 187.223 146.758 187.083 146.521 186.984C146.289 186.88 146.019 186.828 145.711 186.828C145.309 186.828 144.966 186.908 144.682 187.069C144.402 187.23 144.265 187.448 144.27 187.723C144.265 187.936 144.35 188.12 144.525 188.277C144.705 188.433 145.025 188.558 145.484 188.653L147.586 189.051C148.675 189.259 149.485 189.605 150.015 190.088C150.55 190.571 150.82 191.21 150.825 192.005C150.82 192.753 150.598 193.404 150.157 193.958C149.722 194.512 149.125 194.943 148.368 195.251C147.61 195.554 146.744 195.706 145.768 195.706C144.211 195.706 142.982 195.386 142.082 194.747C141.187 194.103 140.676 193.241 140.548 192.162L143.978 192.076C144.054 192.474 144.251 192.777 144.568 192.985C144.885 193.194 145.29 193.298 145.782 193.298C146.228 193.298 146.59 193.215 146.869 193.049C147.148 192.884 147.291 192.663 147.295 192.389C147.291 192.143 147.182 191.946 146.969 191.799C146.755 191.648 146.422 191.529 145.967 191.444L144.064 191.082C142.97 190.883 142.156 190.516 141.621 189.981C141.086 189.441 140.82 188.755 140.825 187.921C140.82 187.192 141.014 186.57 141.407 186.054C141.8 185.533 142.359 185.135 143.084 184.86C143.808 184.586 144.663 184.448 145.648 184.448C147.125 184.448 148.29 184.759 149.142 185.379C149.994 185.994 150.465 186.842 150.555 187.921Z" fill="white"/>
<path d="M132.388 195.684C131.692 195.684 131.074 195.568 130.534 195.336C129.999 195.1 129.575 194.744 129.263 194.271C128.955 193.793 128.801 193.194 128.801 192.474C128.801 191.868 128.908 191.357 129.121 190.94C129.334 190.523 129.627 190.185 130.001 189.924C130.375 189.664 130.806 189.467 131.294 189.335C131.782 189.198 132.302 189.105 132.856 189.058C133.477 189.001 133.976 188.942 134.355 188.88C134.734 188.814 135.008 188.722 135.179 188.603C135.354 188.48 135.442 188.307 135.442 188.085V188.049C135.442 187.685 135.316 187.403 135.065 187.204C134.814 187.005 134.476 186.906 134.05 186.906C133.59 186.906 133.221 187.005 132.942 187.204C132.662 187.403 132.485 187.678 132.409 188.028L129.206 187.914C129.301 187.252 129.544 186.66 129.937 186.139C130.335 185.613 130.88 185.201 131.571 184.903C132.267 184.6 133.103 184.448 134.078 184.448C134.774 184.448 135.416 184.531 136.003 184.697C136.59 184.858 137.101 185.095 137.537 185.407C137.972 185.715 138.309 186.094 138.545 186.544C138.787 186.993 138.908 187.507 138.908 188.085V195.5H135.641V193.98H135.555C135.361 194.349 135.113 194.662 134.81 194.917C134.511 195.173 134.159 195.365 133.751 195.493C133.349 195.62 132.894 195.684 132.388 195.684ZM133.46 193.412C133.834 193.412 134.17 193.336 134.469 193.184C134.772 193.033 135.013 192.824 135.193 192.559C135.373 192.289 135.463 191.977 135.463 191.622V190.585C135.364 190.637 135.243 190.684 135.101 190.727C134.963 190.77 134.812 190.81 134.646 190.848C134.48 190.886 134.31 190.919 134.135 190.947C133.96 190.975 133.792 191.002 133.631 191.025C133.304 191.077 133.025 191.158 132.793 191.267C132.565 191.376 132.39 191.518 132.267 191.693C132.149 191.863 132.089 192.067 132.089 192.304C132.089 192.663 132.217 192.938 132.473 193.127C132.733 193.317 133.062 193.412 133.46 193.412Z" fill="white"/>
<path d="M121.304 195.5V184.591H124.678V186.579H124.791C124.99 185.859 125.314 185.324 125.764 184.974C126.214 184.619 126.737 184.441 127.334 184.441C127.495 184.441 127.66 184.453 127.831 184.477C128.001 184.496 128.16 184.527 128.307 184.569V187.588C128.141 187.531 127.923 187.486 127.653 187.453C127.388 187.42 127.151 187.403 126.943 187.403C126.531 187.403 126.16 187.495 125.828 187.68C125.501 187.86 125.243 188.113 125.054 188.44C124.869 188.762 124.777 189.141 124.777 189.576V195.5H121.304Z" fill="white"/>
<path d="M119.532 184.591V187.148H112.65V184.591H119.532ZM114.091 181.978H117.564V192.07C117.564 192.283 117.598 192.456 117.664 192.588C117.735 192.716 117.837 192.809 117.969 192.865C118.102 192.917 118.26 192.943 118.445 192.943C118.578 192.943 118.717 192.932 118.864 192.908C119.016 192.88 119.129 192.856 119.205 192.837L119.731 195.344C119.565 195.391 119.331 195.451 119.027 195.522C118.729 195.593 118.372 195.638 117.955 195.657C117.141 195.694 116.442 195.6 115.86 195.372C115.282 195.14 114.84 194.781 114.532 194.293C114.229 193.805 114.082 193.192 114.091 192.453V181.978Z" fill="white"/>
<path d="M104.171 189.278V195.5H100.698V184.591H104.001V186.593H104.122C104.363 185.926 104.775 185.403 105.358 185.024C105.94 184.64 106.634 184.448 107.439 184.448C108.206 184.448 108.871 184.621 109.434 184.967C110.002 185.308 110.443 185.786 110.755 186.402C111.073 187.012 111.229 187.727 111.224 188.546V195.5H107.751V189.228C107.756 188.622 107.602 188.149 107.289 187.808C106.982 187.467 106.553 187.296 106.004 187.296C105.639 187.296 105.317 187.377 105.038 187.538C104.763 187.694 104.55 187.919 104.399 188.213C104.252 188.506 104.176 188.861 104.171 189.278Z" fill="white"/>
<path d="M93.4084 195.706C92.2625 195.706 91.2777 195.471 90.4538 195.002C89.6347 194.529 89.0026 193.871 88.5575 193.028C88.1172 192.18 87.897 191.198 87.897 190.081C87.897 188.958 88.1172 187.976 88.5575 187.133C89.0026 186.286 89.6347 185.627 90.4538 185.159C91.2777 184.685 92.2625 184.448 93.4084 184.448C94.5542 184.448 95.5367 184.685 96.356 185.159C97.1795 185.627 97.8115 186.286 98.252 187.133C98.697 187.976 98.9195 188.958 98.9195 190.081C98.9195 191.198 98.697 192.18 98.252 193.028C97.8115 193.871 97.1795 194.529 96.356 195.002C95.5367 195.471 94.5542 195.706 93.4084 195.706ZM93.4297 193.085C93.8463 193.085 94.1991 192.957 94.4879 192.701C94.7767 192.446 94.9969 192.091 95.1484 191.636C95.3047 191.181 95.3828 190.656 95.3828 190.059C95.3828 189.453 95.3047 188.923 95.1484 188.468C94.9969 188.014 94.7767 187.659 94.4879 187.403C94.1991 187.147 93.8463 187.02 93.4297 187.02C92.9988 187.02 92.6342 187.147 92.3359 187.403C92.0424 187.659 91.8175 188.014 91.6612 188.468C91.5097 188.923 91.4339 189.453 91.4339 190.059C91.4339 190.656 91.5097 191.181 91.6612 191.636C91.8175 192.091 92.0424 192.446 92.3359 192.701C92.6342 192.957 92.9988 193.085 93.4297 193.085Z" fill="white"/>
<path d="M86.3042 186.224H82.7531C82.7057 185.86 82.6087 185.53 82.4619 185.237C82.3151 184.943 82.121 184.692 81.8795 184.484C81.638 184.276 81.3516 184.117 81.0201 184.008C80.6934 183.895 80.3312 183.838 79.9335 183.838C79.228 183.838 78.6196 184.011 78.1082 184.356C77.6016 184.702 77.2109 185.201 76.9363 185.855C76.6664 186.508 76.5315 187.299 76.5315 188.227C76.5315 189.193 76.6688 190.003 76.9434 190.656C77.2228 191.305 77.6134 191.795 78.1153 192.126C78.6219 192.453 79.2209 192.616 79.9122 192.616C80.3004 192.616 80.6532 192.566 80.9704 192.467C81.2924 192.368 81.5741 192.223 81.8156 192.034C82.0618 191.84 82.263 191.605 82.4193 191.331C82.5803 191.051 82.6915 190.736 82.7531 190.386L86.3042 190.407C86.2427 191.051 86.0556 191.686 85.7431 192.311C85.4354 192.936 85.0116 193.506 84.4718 194.022C83.9321 194.534 83.2739 194.941 82.4974 195.244C81.7256 195.547 80.8402 195.699 79.8412 195.699C78.5249 195.699 77.3459 195.41 76.3042 194.832C75.2673 194.25 74.4482 193.402 73.8468 192.289C73.2455 191.177 72.9448 189.823 72.9448 188.227C72.9448 186.627 73.2502 185.27 73.861 184.157C74.4718 183.045 75.2981 182.199 76.3397 181.622C77.3814 181.044 78.5485 180.755 79.8412 180.755C80.7218 180.755 81.5362 180.878 82.2843 181.125C83.0324 181.366 83.6906 181.721 84.2588 182.19C84.827 182.654 85.2886 183.225 85.6437 183.902C85.9988 184.579 86.219 185.353 86.3042 186.224Z" fill="white"/>
</g>
<g clip-path="url(#clip2_2611_108)">
<path fill-rule="evenodd" clip-rule="evenodd" d="M1051 -38H854.001V22.519C869.138 22.4176 884.549 24.8357 899.673 30.047C945.363 45.79 979.976 81.5105 988.753 131.851L933.128 131.876C923.075 105.614 906.258 88.1095 882.489 79.9194C838.305 64.6948 790.144 88.1712 774.919 132.356C759.695 176.54 783.171 224.699 827.356 239.925C869.954 254.603 920.943 230.382 933.152 184.41L988.779 184.385C988.78 188.762 986.281 200.366 984.798 204.673C965.101 261.835 911.351 297.695 854.001 297.318V356H1051V-38Z" fill="url(#paint3_linear_2611_108)"/>
<path d="M933.152 184.41C920.943 230.382 869.953 254.603 827.356 239.925C783.171 224.7 759.694 176.54 774.919 132.356C790.143 88.1713 838.303 64.695 882.488 79.9195C906.257 88.1097 923.074 105.615 933.126 131.876L988.754 131.851C979.974 81.5106 945.361 45.7901 899.672 30.0472C827.944 5.33197 749.761 43.4436 725.046 115.172C700.331 186.9 738.443 265.082 810.17 289.797C881.899 314.512 960.106 276.331 984.797 204.673C986.281 200.366 988.779 188.763 988.777 184.385L933.152 184.41Z" fill="white"/>
<path d="M751.279 16.8785C751.279 38.6386 733.639 56.2785 711.879 56.2785C690.118 56.2785 672.479 38.6386 672.479 16.8785C672.479 -4.88154 690.118 -22.5215 711.879 -22.5215C733.639 -22.5215 751.279 -4.88154 751.279 16.8785Z" fill="white"/>
</g>
</g>
<defs>
<linearGradient id="paint0_linear_2611_108" x1="525" y1="140.079" x2="525" y2="39.0845" gradientUnits="userSpaceOnUse">
<stop stop-color="#75FB7A" stop-opacity="0.05"/>
<stop offset="1" stop-color="#75FB7A" stop-opacity="0.2"/>
</linearGradient>
<linearGradient id="paint1_linear_2611_108" x1="525" y1="0" x2="525" y2="111" gradientUnits="userSpaceOnUse">
<stop stop-opacity="0.5"/>
<stop offset="1" stop-opacity="0"/>
</linearGradient>
<linearGradient id="paint2_linear_2611_108" x1="525" y1="0" x2="525" y2="111" gradientUnits="userSpaceOnUse">
<stop stop-color="white" stop-opacity="0.55"/>
<stop offset="1" stop-color="white" stop-opacity="0"/>
</linearGradient>
<linearGradient id="paint3_linear_2611_108" x1="770" y1="159" x2="1051" y2="159" gradientUnits="userSpaceOnUse">
<stop stop-color="#432D83"/>
<stop offset="0.305231" stop-color="#7A49F6"/>
<stop offset="1" stop-color="white" stop-opacity="0.65"/>
</linearGradient>
<clipPath id="clip0_2611_108">
<rect width="1050" height="222" fill="white"/>
</clipPath>
<clipPath id="clip1_2611_108">
<rect width="140" height="170" fill="white" transform="translate(46 26)"/>
</clipPath>
<clipPath id="clip2_2611_108">
<rect width="394" height="394" fill="white" transform="translate(657 -38)"/>
</clipPath>
</defs>
</svg>
