<?xml version="1.0" encoding="UTF-8" standalone="no"?>
<svg
   version="1.1"
   height="393"
   width="576"
   font-family="Menlo,Lucida Console,monospace"
   id="svg215"
   xmlns="http://www.w3.org/2000/svg"
   xmlns:svg="http://www.w3.org/2000/svg">
  <defs
     id="defs215" />
  <style
     type="text/css"
     id="style1">
svg {
   color: #000000;
}
@media (prefers-color-scheme: dark) {
   svg {
      color: #FFFFFF;
   }
}
</style>
  <g
     transform="translate(8,16)"
     id="g215">
    <path
       d="M 176,0 L 416,0"
       fill="none"
       stroke="currentColor"
       id="path1" />
    <path
       d="M 176,32 L 416,32"
       fill="none"
       stroke="currentColor"
       id="path2" />
    <path
       d="M 24,128 L 296,128"
       fill="none"
       stroke="currentColor"
       id="path3" />
    <path
       d="M 312,128 L 560,128"
       fill="none"
       stroke="currentColor"
       id="path4" />
    <path
       d="M 40,144 L 296,144"
       fill="none"
       stroke="currentColor"
       id="path5" />
    <path
       d="M 312,144 L 352,144"
       fill="none"
       stroke="currentColor"
       id="path6" />
    <path
       d="M 408,144 L 512,144"
       fill="none"
       stroke="currentColor"
       id="path7" />
    <path
       d="M 224,160 L 304,160"
       fill="none"
       stroke="currentColor"
       id="path8" />
    <path
       d="M 304,160 L 328,160"
       fill="none"
       stroke="currentColor"
       id="path9" />
    <path
       d="M 136,176 L 216,176"
       fill="none"
       stroke="currentColor"
       id="path10" />
    <path
       d="M 336,176 L 408,176"
       fill="none"
       stroke="currentColor"
       id="path11" />
    <path
       d="M 512,176 L 528,176"
       fill="none"
       stroke="currentColor"
       id="path12" />
    <path
       d="M 408,192 L 424,192"
       fill="none"
       stroke="currentColor"
       id="path13" />
    <path
       d="M 424,192 L 512,192"
       fill="none"
       stroke="currentColor"
       id="path14" />
    <path
       d="M 64,208 L 136,208"
       fill="none"
       stroke="currentColor"
       id="path15" />
    <path
       d="M 136,208 L 200,208"
       fill="none"
       stroke="currentColor"
       id="path16" />
    <path
       d="M 336,208 L 424,208"
       fill="none"
       stroke="currentColor"
       id="path17" />
    <path
       d="M 528,208 L 544,208"
       fill="none"
       stroke="currentColor"
       id="path18" />
    <path
       d="M 424,224 L 440,224"
       fill="none"
       stroke="currentColor"
       id="path19" />
    <path
       d="M 440,224 L 528,224"
       fill="none"
       stroke="currentColor"
       id="path20" />
    <path
       d="M 336,240 L 440,240"
       fill="none"
       stroke="currentColor"
       id="path21" />
    <path
       d="M 224,256 L 328,256"
       fill="none"
       stroke="currentColor"
       id="path22" />
    <path
       d="M 440,256 L 544,256"
       fill="none"
       stroke="currentColor"
       id="path23" />
    <path
       d="M 64,272 L 200,272"
       fill="none"
       stroke="currentColor"
       id="path24" />
    <path
       d="M 40,320 L 352,320"
       fill="none"
       stroke="currentColor"
       id="path25" />
    <path
       d="M 24,368 L 560,368"
       fill="none"
       stroke="currentColor"
       id="path26" />
    <path
       d="M 24,128 L 24,368"
       fill="none"
       stroke="currentColor"
       id="path27" />
    <path
       d="M 40,144 L 40,320"
       fill="none"
       stroke="currentColor"
       id="path28" />
    <path
       d="M 64,208 L 64,272"
       fill="none"
       stroke="currentColor"
       id="path29" />
    <path
       d="M 136,176 L 136,208"
       fill="none"
       stroke="currentColor"
       id="path30" />
    <path
       d="M 176,0 L 176,32"
       fill="none"
       stroke="currentColor"
       id="path31" />
    <path
       d="M 200,208 L 200,272"
       fill="none"
       stroke="currentColor"
       id="path32" />
    <path
       d="M 224,160 L 224,256"
       fill="none"
       stroke="currentColor"
       id="path33" />
    <path
       d="M 304,48 L 304,160"
       fill="none"
       stroke="currentColor"
       id="path34" />
    <path
       d="M 328,160 L 328,256"
       fill="none"
       stroke="currentColor"
       id="path35" />
    <path
       d="M 352,144 L 352,160"
       fill="none"
       stroke="currentColor"
       id="path36" />
    <path
       d="M 352,184 L 352,200"
       fill="none"
       stroke="currentColor"
       id="path37" />
    <path
       d="M 352,216 L 352,232"
       fill="none"
       stroke="currentColor"
       id="path38" />
    <path
       d="M 352,256 L 352,320"
       fill="none"
       stroke="currentColor"
       id="path39" />
    <path
       d="M 408,144 L 408,176"
       fill="none"
       stroke="currentColor"
       id="path40" />
    <path
       d="M 408,176 L 408,192"
       fill="none"
       stroke="currentColor"
       id="path41" />
    <path
       d="M 416,0 L 416,32"
       fill="none"
       stroke="currentColor"
       id="path42" />
    <path
       d="M 424,192 L 424,208"
       fill="none"
       stroke="currentColor"
       id="path43" />
    <path
       d="M 424,208 L 424,224"
       fill="none"
       stroke="currentColor"
       id="path44" />
    <path
       d="M 440,224 L 440,240"
       fill="none"
       stroke="currentColor"
       id="path45" />
    <path
       d="M 440,240 L 440,256"
       fill="none"
       stroke="currentColor"
       id="path46" />
    <path
       d="M 512,144 L 512,176"
       fill="none"
       stroke="currentColor"
       id="path47" />
    <path
       d="M 512,176 L 512,192"
       fill="none"
       stroke="currentColor"
       id="path48" />
    <path
       d="M 528,176 L 528,208"
       fill="none"
       stroke="currentColor"
       id="path49" />
    <path
       d="M 528,208 L 528,224"
       fill="none"
       stroke="currentColor"
       id="path50" />
    <path
       d="M 544,208 L 544,256"
       fill="none"
       stroke="currentColor"
       id="path51" />
    <path
       d="M 560,128 L 560,368"
       fill="none"
       stroke="currentColor"
       id="path52" />
    <path
       d="M 352,160 L 352,168"
       fill="none"
       stroke="currentColor"
       id="path53" />
    <path
       d="M 352,184 L 352,192"
       fill="none"
       stroke="currentColor"
       id="path54" />
    <path
       d="M 352,216 L 352,224"
       fill="none"
       stroke="currentColor"
       id="path55" />
    <path
       d="M 352,248 L 352,256"
       fill="none"
       stroke="currentColor"
       id="path56" />
    <polygon
       points="224.000000,176.000000 212.000000,170.399994 212.000000,181.600006"
       fill="currentColor"
       transform="rotate(0.000000, 216.000000, 176.000000)"
       id="polygon56" />
    <path
       d="M 304,40 L 304,48"
       fill="none"
       stroke="currentColor"
       id="path57" />
    <polygon
       points="320.000000,48.000000 308.000000,42.400002 308.000000,53.599998"
       fill="currentColor"
       transform="rotate(270.000000, 304.000000, 48.000000)"
       id="polygon57" />
    <polygon
       points="344.000000,176.000000 332.000000,170.399994 332.000000,181.600006"
       fill="currentColor"
       transform="rotate(180.000000, 336.000000, 176.000000)"
       id="polygon58" />
    <polygon
       points="344.000000,208.000000 332.000000,202.399994 332.000000,213.600006"
       fill="currentColor"
       transform="rotate(180.000000, 336.000000, 208.000000)"
       id="polygon59" />
    <polygon
       points="344.000000,240.000000 332.000000,234.399994 332.000000,245.600006"
       fill="currentColor"
       transform="rotate(180.000000, 336.000000, 240.000000)"
       id="polygon60" />
    <style
       id="style60">
  text {
       text-anchor: middle;
       font-family: &quot;Menlo&quot;,&quot;Lucida Console&quot;,&quot;monospace&quot;;
       fill: currentColor;
       font-size: 1em;
  }
</style>
    <path
       d="m 271.99707,19.003906 2.05664,-7.751953 h 1.22461 L 272.71777,20 h -1.43554 l -2.56055,-8.748047 h 1.22461 z"
       id="text60"
       style="font-size:12px;text-anchor:middle"
       aria-label="V" />
    <path
       d="m 282.9502,16.179687 v 0.527344 h -4.66993 v 0.03516 q -0.0469,1.341797 0.50977,1.927735 0.5625,0.585937 1.58203,0.585937 0.51563,0 1.07813,-0.164062 0.5625,-0.164063 1.20117,-0.498047 v 1.072266 q -0.61524,0.251953 -1.18946,0.375 -0.56836,0.128906 -1.10156,0.128906 -1.5293,0 -2.39062,-0.914063 -0.86133,-0.919922 -0.86133,-2.53125 0,-1.570312 0.84375,-2.507812 0.84375,-0.9375 2.25,-0.9375 1.2539,0 1.97461,0.849609 0.72656,0.84961 0.77344,2.050781 z m -1.07813,-0.316406 q -0.0703,-0.679687 -0.49805,-1.171875 -0.42187,-0.498047 -1.21875,-0.498047 -0.77929,0 -1.2832,0.515625 -0.50391,0.515625 -0.55078,1.160157 z"
       id="text61"
       style="font-size:12px;text-anchor:middle"
       aria-label="e" />
    <path
       d="m 291.15527,14.791016 q -0.3457,-0.269532 -0.70312,-0.392578 -0.35742,-0.123047 -0.78516,-0.123047 -1.00781,0 -1.54101,0.632812 -0.53321,0.632813 -0.53321,1.828125 V 20 h -1.08398 v -6.5625 h 1.08398 v 1.283203 q 0.26953,-0.697265 0.82618,-1.066406 0.5625,-0.375 1.33007,-0.375 0.39844,0 0.74414,0.09961 0.34571,0.09961 0.66211,0.310547 z"
       id="text62"
       style="font-size:12px;text-anchor:middle"
       aria-label="r" />
    <path
       d="m 294.23926,13.460938 h 2.75976 v 5.701171 h 2.13868 V 20 h -5.35547 v -0.837891 h 2.13867 v -4.863281 h -1.68164 z m 1.68164,-2.548829 h 1.07812 v 1.359375 h -1.07812 z"
       id="text63"
       style="font-size:12px;text-anchor:middle"
       aria-label="i" />
    <path
       d="m 306.61621,10.882813 v 0.896484 h -1.22461 q -0.58008,0 -0.80859,0.240234 -0.22266,0.234375 -0.22266,0.837891 V 13.4375 h 2.25586 v 0.837891 h -2.25586 V 20 h -1.07812 v -5.724609 h -1.75196 V 13.4375 h 1.75196 v -0.457031 q 0,-1.078125 0.49218,-1.587891 0.49805,-0.509765 1.54688,-0.509765 z"
       id="text64"
       style="font-size:12px;text-anchor:middle"
       aria-label="f" />
    <path
       d="m 310.23926,13.460938 h 2.75976 v 5.701171 h 2.13868 V 20 h -5.35547 v -0.837891 h 2.13867 v -4.863281 h -1.68164 z m 1.68164,-2.548829 h 1.07812 v 1.359375 h -1.07812 z"
       id="text65"
       style="font-size:12px;text-anchor:middle"
       aria-label="i" />
    <path
       d="m 322.9502,16.179687 v 0.527344 h -4.66993 v 0.03516 q -0.0469,1.341797 0.50977,1.927735 0.5625,0.585937 1.58203,0.585937 0.51563,0 1.07813,-0.164062 0.5625,-0.164063 1.20117,-0.498047 v 1.072266 q -0.61524,0.251953 -1.18946,0.375 -0.56836,0.128906 -1.10156,0.128906 -1.5293,0 -2.39062,-0.914063 -0.86133,-0.919922 -0.86133,-2.53125 0,-1.570312 0.84375,-2.507812 0.84375,-0.9375 2.25,-0.9375 1.2539,0 1.97461,0.849609 0.72656,0.84961 0.77344,2.050781 z m -1.07813,-0.316406 q -0.0703,-0.679687 -0.49805,-1.171875 -0.42187,-0.498047 -1.21875,-0.498047 -0.77929,0 -1.2832,0.515625 -0.50391,0.515625 -0.55078,1.160157 z"
       id="text66"
       style="font-size:12px;text-anchor:middle"
       aria-label="e" />
    <path
       d="m 331.15527,14.791016 q -0.3457,-0.269532 -0.70312,-0.392578 -0.35742,-0.123047 -0.78516,-0.123047 -1.00781,0 -1.54101,0.632812 -0.53321,0.632813 -0.53321,1.828125 V 20 h -1.08398 v -6.5625 h 1.08398 v 1.283203 q 0.26953,-0.697265 0.82618,-1.066406 0.5625,-0.375 1.33007,-0.375 0.39844,0 0.74414,0.09961 0.34571,0.09961 0.66211,0.310547 z"
       id="text67"
       style="font-size:12px;text-anchor:middle"
       aria-label="r" />
    <path
       d="m 317.54199,75.251953 h 5.19141 v 0.996094 h -4.00781 v 2.355469 h 3.83203 v 0.996093 h -3.83203 v 3.404297 h 4.11914 V 84 h -5.30274 z"
       id="text68"
       style="font-size:12px;text-anchor:middle"
       aria-label="E" />
    <path
       d="m 324.97363,77.4375 h 1.11914 l 1.9043,5.507812 1.91016,-5.507812 h 1.11914 L 328.69434,84 h -1.38868 z"
       id="text69"
       style="font-size:12px;text-anchor:middle"
       aria-label="v" />
    <path
       d="m 334.23926,77.460937 h 2.75976 v 5.701172 h 2.13868 V 84 h -5.35547 v -0.837891 h 2.13867 v -4.863281 h -1.68164 z m 1.68164,-2.548828 h 1.07812 v 1.359375 h -1.07812 z"
       id="text70"
       style="font-size:12px;text-anchor:middle"
       aria-label="i" />
    <path
       d="m 345.41504,78.275391 v -3.392579 h 1.07812 V 84 h -1.07812 v -0.826172 q -0.26953,0.486328 -0.7207,0.744141 -0.44532,0.251953 -1.03125,0.251953 -1.18946,0 -1.875,-0.919922 -0.67969,-0.925781 -0.67969,-2.548828 0,-1.59961 0.68555,-2.507813 0.68554,-0.914062 1.86914,-0.914062 0.59179,0 1.04296,0.257812 0.45118,0.251953 0.70899,0.738282 z m -3.16992,2.449218 q 0,1.253907 0.39843,1.892578 0.39844,0.638672 1.17774,0.638672 0.7793,0 1.18359,-0.644531 0.41016,-0.644531 0.41016,-1.886719 0,-1.248047 -0.41016,-1.886718 -0.40429,-0.644532 -1.18359,-0.644532 -0.7793,0 -1.17774,0.638672 -0.39843,0.638672 -0.39843,1.892578 z"
       id="text71"
       style="font-size:12px;text-anchor:middle"
       aria-label="d" />
    <path
       d="m 354.9502,80.179687 v 0.527344 h -4.66993 v 0.03516 q -0.0469,1.341797 0.50977,1.927735 0.5625,0.585937 1.58203,0.585937 0.51563,0 1.07813,-0.164062 0.5625,-0.164063 1.20117,-0.498047 v 1.072266 q -0.61524,0.251953 -1.18946,0.375 -0.56836,0.128906 -1.10156,0.128906 -1.5293,0 -2.39062,-0.914063 -0.86133,-0.919922 -0.86133,-2.53125 0,-1.570312 0.84375,-2.507812 0.84375,-0.9375 2.25,-0.9375 1.2539,0 1.97461,0.849609 0.72656,0.84961 0.77344,2.050781 z m -1.07813,-0.316406 q -0.0703,-0.679687 -0.49805,-1.171875 -0.42187,-0.498047 -1.21875,-0.498047 -0.77929,0 -1.2832,0.515625 -0.50391,0.515625 -0.55078,1.160157 z"
       id="text72"
       style="font-size:12px;text-anchor:middle"
       aria-label="e" />
    <path
       d="M 362.5459,79.933594 V 84 h -1.08399 v -4.066406 q 0,-0.884766 -0.31054,-1.300782 -0.31055,-0.416015 -0.97266,-0.416015 -0.75586,0 -1.16601,0.539062 -0.4043,0.533203 -0.4043,1.535157 V 84 h -1.07813 v -6.5625 h 1.07813 v 0.984375 q 0.28711,-0.5625 0.7793,-0.849609 0.49218,-0.292969 1.16601,-0.292969 1.00195,0 1.49414,0.662109 0.49805,0.65625 0.49805,1.992188 z"
       id="text73"
       style="font-size:12px;text-anchor:middle"
       aria-label="n" />
    <path
       d="m 370.60449,83.666016 q -0.43359,0.251953 -0.89648,0.375 -0.45703,0.128906 -0.9375,0.128906 -1.52344,0 -2.38477,-0.914063 -0.85547,-0.914062 -0.85547,-2.53125 0,-1.617187 0.85547,-2.53125 0.86133,-0.914062 2.38477,-0.914062 0.47461,0 0.92578,0.123047 0.45117,0.123047 0.9082,0.380859 v 1.130859 q -0.42773,-0.380859 -0.86133,-0.550781 -0.42773,-0.169922 -0.97265,-0.169922 -1.01367,0 -1.5586,0.65625 -0.54492,0.65625 -0.54492,1.875 0,1.212891 0.54492,1.875 0.55079,0.65625 1.5586,0.65625 0.5625,0 1.00781,-0.169922 0.44531,-0.175781 0.82617,-0.539062 z"
       id="text74"
       style="font-size:12px;text-anchor:middle"
       aria-label="c" />
    <path
       d="m 378.9502,80.179687 v 0.527344 h -4.66993 v 0.03516 q -0.0469,1.341797 0.50977,1.927735 0.5625,0.585937 1.58203,0.585937 0.51563,0 1.07813,-0.164062 0.5625,-0.164063 1.20117,-0.498047 v 1.072266 q -0.61524,0.251953 -1.18946,0.375 -0.56836,0.128906 -1.10156,0.128906 -1.5293,0 -2.39062,-0.914063 -0.86133,-0.919922 -0.86133,-2.53125 0,-1.570312 0.84375,-2.507812 0.84375,-0.9375 2.25,-0.9375 1.2539,0 1.97461,0.849609 0.72656,0.84961 0.77344,2.050781 z m -1.07813,-0.316406 q -0.0703,-0.679687 -0.49805,-1.171875 -0.42187,-0.498047 -1.21875,-0.498047 -0.77929,0 -1.2832,0.515625 -0.50391,0.515625 -0.55078,1.160157 z"
       id="text75"
       style="font-size:12px;text-anchor:middle"
       aria-label="e" />
    <path
       d="m 391.99707,78.193359 q -0.82031,0 -1.24219,0.638672 -0.42187,0.638672 -0.42187,1.892578 0,1.248047 0.42187,1.892578 0.42188,0.638672 1.24219,0.638672 0.82617,0 1.24805,-0.638672 0.42187,-0.644531 0.42187,-1.892578 0,-1.253906 -0.42187,-1.892578 -0.42188,-0.638672 -1.24805,-0.638672 z m 0,-0.914062 q 1.36523,0 2.08594,0.884765 0.72656,0.884766 0.72656,2.560547 0,1.681641 -0.7207,2.566407 -0.72071,0.878906 -2.0918,0.878906 -1.36523,0 -2.08594,-0.878906 -0.7207,-0.884766 -0.7207,-2.566407 0,-1.675781 0.7207,-2.560547 0.72071,-0.884765 2.08594,-0.884765 z"
       id="text76"
       style="font-size:12px;text-anchor:middle"
       aria-label="o" />
    <path
       d="m 402.61621,74.882812 v 0.896485 h -1.22461 q -0.58008,0 -0.80859,0.240234 -0.22266,0.234375 -0.22266,0.837891 V 77.4375 h 2.25586 v 0.837891 h -2.25586 V 84 h -1.07812 v -5.724609 h -1.75196 V 77.4375 h 1.75196 v -0.457031 q 0,-1.078125 0.49218,-1.587891 0.49805,-0.509766 1.54688,-0.509766 z"
       id="text77"
       style="font-size:12px;text-anchor:middle"
       aria-label="f" />
    <path
       d="m 322.6748,99.689453 q -0.45117,0.240234 -0.92578,0.357427 -0.47461,0.12304 -1.00781,0.12304 -1.68164,0 -2.61328,-1.189451 -0.92578,-1.189453 -0.92578,-3.345703 0,-2.144532 0.93164,-3.339844 0.9375,-1.201172 2.60742,-1.201172 0.5332,0 1.00781,0.123047 0.47461,0.117187 0.92578,0.357422 v 1.21289 q -0.43359,-0.357422 -0.93164,-0.544922 -0.49804,-0.1875 -1.00195,-0.1875 -1.1543,0 -1.72851,0.890625 -0.57422,0.890625 -0.57422,2.689454 0,1.792968 0.57422,2.683593 0.57421,0.890625 1.72851,0.890625 0.51563,0 1.00781,-0.1875 0.49805,-0.1875 0.92578,-0.544922 z"
       id="text78"
       style="font-size:12px;text-anchor:middle"
       aria-label="C" />
    <path
       d="m 327.99707,94.193359 q -0.82031,0 -1.24219,0.638672 -0.42187,0.638672 -0.42187,1.892578 0,1.248047 0.42187,1.892578 0.42188,0.638672 1.24219,0.638672 0.82617,0 1.24805,-0.638672 0.42187,-0.644531 0.42187,-1.892578 0,-1.253906 -0.42187,-1.892578 -0.42188,-0.638672 -1.24805,-0.638672 z m 0,-0.914062 q 1.36523,0 2.08594,0.884765 0.72656,0.884766 0.72656,2.560547 0,1.681641 -0.7207,2.566407 -0.72071,0.878904 -2.0918,0.878904 -1.36523,0 -2.08594,-0.878904 -0.7207,-0.884766 -0.7207,-2.566407 0,-1.675781 0.7207,-2.560547 0.72071,-0.884765 2.08594,-0.884765 z"
       id="text79"
       style="font-size:12px;text-anchor:middle"
       aria-label="o" />
    <path
       d="m 336.34863,94.105469 q 0.19922,-0.421875 0.50391,-0.621094 0.31055,-0.205078 0.74414,-0.205078 0.79102,0 1.11328,0.615234 0.32813,0.609375 0.32813,2.302735 V 100 h -0.98438 v -3.755859 q 0,-1.388672 -0.1582,-1.722657 -0.15235,-0.339843 -0.5625,-0.339843 -0.46875,0 -0.64453,0.363281 -0.16993,0.357422 -0.16993,1.699219 V 100 h -0.98437 v -3.755859 q 0,-1.40625 -0.16992,-1.734375 -0.16406,-0.328125 -0.59766,-0.328125 -0.42773,0 -0.59765,0.363281 -0.16407,0.357422 -0.16407,1.699219 V 100 h -0.97851 v -6.5625 h 0.97851 V 94 q 0.19336,-0.351563 0.48047,-0.533203 0.29297,-0.1875 0.66211,-0.1875 0.44531,0 0.73828,0.205078 0.29883,0.205078 0.46289,0.621094 z"
       id="text80"
       style="font-size:12px;text-anchor:middle"
       aria-label="m" />
    <path
       d="m 342.58496,99.173828 v 3.322262 h -1.08398 V 93.4375 h 1.08398 v 0.837891 q 0.26953,-0.486329 0.71484,-0.738282 0.45118,-0.257812 1.03711,-0.257812 1.18946,0 1.86329,0.919922 0.67968,0.919922 0.67968,2.548828 0,1.599609 -0.67968,2.513672 -0.67969,0.908201 -1.86329,0.908201 -0.59765,0 -1.04882,-0.251951 -0.44532,-0.257813 -0.70313,-0.744141 z m 3.16406,-2.449219 q 0,-1.253906 -0.39843,-1.892578 -0.39258,-0.638672 -1.17188,-0.638672 -0.78516,0 -1.18945,0.644532 -0.4043,0.638671 -0.4043,1.886718 0,1.242188 0.4043,1.886719 0.40429,0.644531 1.18945,0.644531 0.7793,0 1.17188,-0.638672 0.39843,-0.638671 0.39843,-1.892578 z"
       id="text81"
       style="font-size:12px;text-anchor:middle"
       aria-label="p" />
    <path
       d="m 351.99707,94.193359 q -0.82031,0 -1.24219,0.638672 -0.42187,0.638672 -0.42187,1.892578 0,1.248047 0.42187,1.892578 0.42188,0.638672 1.24219,0.638672 0.82617,0 1.24805,-0.638672 0.42187,-0.644531 0.42187,-1.892578 0,-1.253906 -0.42187,-1.892578 -0.42188,-0.638672 -1.24805,-0.638672 z m 0,-0.914062 q 1.36523,0 2.08594,0.884765 0.72656,0.884766 0.72656,2.560547 0,1.681641 -0.7207,2.566407 -0.72071,0.878904 -2.0918,0.878904 -1.36523,0 -2.08594,-0.878904 -0.7207,-0.884766 -0.7207,-2.566407 0,-1.675781 0.7207,-2.560547 0.72071,-0.884765 2.08594,-0.884765 z"
       id="text82"
       style="font-size:12px;text-anchor:middle"
       aria-label="o" />
    <path
       d="m 362.08887,93.666016 v 1.054687 q -0.46289,-0.269531 -0.93164,-0.404297 -0.46875,-0.134765 -0.95508,-0.134765 -0.73242,0 -1.0957,0.240234 -0.35743,0.234375 -0.35743,0.720703 0,0.439453 0.26953,0.65625 0.26954,0.216797 1.3418,0.421875 l 0.4336,0.08203 q 0.80273,0.152344 1.21289,0.609375 0.41601,0.457032 0.41601,1.189453 0,0.972657 -0.6914,1.523438 -0.69141,0.54492 -1.92188,0.54492 -0.48633,0 -1.01953,-0.10547 -0.5332,-0.09961 -1.1543,-0.304684 v -1.113282 q 0.60352,0.310547 1.1543,0.46875 0.55078,0.152344 1.04297,0.152344 0.71484,0 1.10742,-0.287109 0.39258,-0.292969 0.39258,-0.814453 0,-0.75 -1.43555,-1.03711 l -0.0469,-0.01172 -0.4043,-0.08203 q -0.93164,-0.18164 -1.35938,-0.609375 -0.42773,-0.433594 -0.42773,-1.177734 0,-0.94336 0.63867,-1.453125 0.63867,-0.515625 1.82227,-0.515625 0.52734,0 1.01367,0.09961 0.48633,0.09375 0.95508,0.28711 z"
       id="text83"
       style="font-size:12px;text-anchor:middle"
       aria-label="s" />
    <path
       d="m 366.23926,93.460937 h 2.75976 v 5.701172 h 2.13868 V 100 h -5.35547 v -0.837891 h 2.13867 v -4.863281 h -1.68164 z m 1.68164,-2.548828 h 1.07812 v 1.359375 h -1.07812 z"
       id="text84"
       style="font-size:12px;text-anchor:middle"
       aria-label="i" />
    <path
       d="M 375.98535,91.574219 V 93.4375 h 2.44922 v 0.837891 h -2.44922 v 3.5625 q 0,0.726562 0.27539,1.013671 0.27539,0.28711 0.96094,0.28711 h 1.21289 V 100 h -1.31836 q -1.21289,0 -1.71094,-0.486328 -0.49804,-0.486328 -0.49804,-1.675781 v -3.5625 h -1.75196 V 93.4375 h 1.75196 v -1.863281 z"
       id="text85"
       style="font-size:12px;text-anchor:middle"
       aria-label="t" />
    <path
       d="m 386.9502,96.179687 v 0.527344 h -4.66993 v 0.03516 q -0.0469,1.341797 0.50977,1.927735 0.5625,0.585937 1.58203,0.585937 0.51563,0 1.07813,-0.164062 0.5625,-0.164063 1.20117,-0.498047 v 1.072266 q -0.61524,0.251953 -1.18946,0.375004 -0.56836,0.1289 -1.10156,0.1289 -1.5293,0 -2.39062,-0.914061 -0.86133,-0.919922 -0.86133,-2.53125 0,-1.570312 0.84375,-2.507812 0.84375,-0.9375 2.25,-0.9375 1.2539,0 1.97461,0.849609 0.72656,0.84961 0.77344,2.050781 z m -1.07813,-0.316406 q -0.0703,-0.679687 -0.49805,-1.171875 -0.42187,-0.498047 -1.21875,-0.498047 -0.77929,0 -1.2832,0.515625 -0.50391,0.515625 -0.55078,1.160157 z"
       id="text86"
       style="font-size:12px;text-anchor:middle"
       aria-label="e" />
    <path
       d="m 398.94238,99.027344 q 1.49414,0 2.08594,-0.732422 0.5918,-0.738281 0.5918,-2.660156 0,-1.939454 -0.5918,-2.671875 -0.58594,-0.738282 -2.08594,-0.738282 h -0.5625 v 6.802735 z m 0.0234,-7.775391 q 2.00391,0 2.95313,1.066406 0.94921,1.066407 0.94921,3.316407 0,2.238281 -0.94921,3.304687 Q 400.96973,100 398.96582,100 h -1.77539 v -8.748047 z"
       id="text87"
       style="font-size:12px;text-anchor:middle"
       aria-label="D" />
    <path
       d="m 410.9502,96.179687 v 0.527344 h -4.66993 v 0.03516 q -0.0469,1.341797 0.50977,1.927735 0.5625,0.585937 1.58203,0.585937 0.51563,0 1.07813,-0.164062 0.5625,-0.164063 1.20117,-0.498047 v 1.072266 q -0.61524,0.251953 -1.18946,0.375004 -0.56836,0.1289 -1.10156,0.1289 -1.5293,0 -2.39062,-0.914061 -0.86133,-0.919922 -0.86133,-2.53125 0,-1.570312 0.84375,-2.507812 0.84375,-0.9375 2.25,-0.9375 1.2539,0 1.97461,0.849609 0.72656,0.84961 0.77344,2.050781 z m -1.07813,-0.316406 q -0.0703,-0.679687 -0.49805,-1.171875 -0.42187,-0.498047 -1.21875,-0.498047 -0.77929,0 -1.2832,0.515625 -0.50391,0.515625 -0.55078,1.160157 z"
       id="text88"
       style="font-size:12px;text-anchor:middle"
       aria-label="e" />
    <path
       d="m 412.97363,93.4375 h 1.11914 l 1.9043,5.507812 1.91016,-5.507812 h 1.11914 L 416.69434,100 h -1.38868 z"
       id="text89"
       style="font-size:12px;text-anchor:middle"
       aria-label="v" />
    <path
       d="m 422.23926,93.460937 h 2.75976 v 5.701172 h 2.13868 V 100 h -5.35547 v -0.837891 h 2.13867 v -4.863281 h -1.68164 z m 1.68164,-2.548828 h 1.07812 v 1.359375 h -1.07812 z"
       id="text90"
       style="font-size:12px;text-anchor:middle"
       aria-label="i" />
    <path
       d="m 434.60449,99.666016 q -0.43359,0.251953 -0.89648,0.375004 -0.45703,0.1289 -0.9375,0.1289 -1.52344,0 -2.38477,-0.914061 -0.85547,-0.914062 -0.85547,-2.53125 0,-1.617187 0.85547,-2.53125 0.86133,-0.914062 2.38477,-0.914062 0.47461,0 0.92578,0.123047 0.45117,0.123047 0.9082,0.380859 v 1.130859 q -0.42773,-0.380859 -0.86133,-0.550781 -0.42773,-0.169922 -0.97265,-0.169922 -1.01367,0 -1.5586,0.65625 -0.54492,0.65625 -0.54492,1.875 0,1.212891 0.54492,1.875 0.55079,0.65625 1.5586,0.65625 0.5625,0 1.00781,-0.169922 0.44531,-0.175781 0.82617,-0.539062 z"
       id="text91"
       style="font-size:12px;text-anchor:middle"
       aria-label="c" />
    <path
       d="m 442.9502,96.179687 v 0.527344 h -4.66993 v 0.03516 q -0.0469,1.341797 0.50977,1.927735 0.5625,0.585937 1.58203,0.585937 0.51563,0 1.07813,-0.164062 0.5625,-0.164063 1.20117,-0.498047 v 1.072266 q -0.61524,0.251953 -1.18946,0.375004 -0.56836,0.1289 -1.10156,0.1289 -1.5293,0 -2.39062,-0.914061 -0.86133,-0.919922 -0.86133,-2.53125 0,-1.570312 0.84375,-2.507812 0.84375,-0.9375 2.25,-0.9375 1.2539,0 1.97461,0.849609 0.72656,0.84961 0.77344,2.050781 z m -1.07813,-0.316406 q -0.0703,-0.679687 -0.49805,-1.171875 -0.42187,-0.498047 -1.21875,-0.498047 -0.77929,0 -1.2832,0.515625 -0.50391,0.515625 -0.55078,1.160157 z"
       id="text92"
       style="font-size:12px;text-anchor:middle"
       aria-label="e" />
    <path
       d="m 66.674805,163.68945 q -0.451172,0.24024 -0.925782,0.35742 -0.474609,0.12305 -1.007812,0.12305 -1.681641,0 -2.613281,-1.18945 -0.925782,-1.18945 -0.925782,-3.3457 0,-2.14454 0.931641,-3.33985 0.9375,-1.20117 2.607422,-1.20117 0.533203,0 1.007812,0.12305 0.47461,0.11718 0.925782,0.35742 v 1.21289 q -0.433594,-0.35742 -0.931641,-0.54492 -0.498047,-0.1875 -1.001953,-0.1875 -1.154297,0 -1.728516,0.89062 -0.574218,0.89063 -0.574218,2.68946 0,1.79296 0.574218,2.68359 0.574219,0.89062 1.728516,0.89062 0.515625,0 1.007812,-0.1875 0.498047,-0.1875 0.925782,-0.54492 z"
       id="text93"
       style="font-size:12px;text-anchor:middle"
       aria-label="C" />
    <path
       d="m 71.99707,158.19336 q -0.820312,0 -1.242187,0.63867 -0.421875,0.63867 -0.421875,1.89258 0,1.24805 0.421875,1.89258 0.421875,0.63867 1.242187,0.63867 0.826172,0 1.248047,-0.63867 0.421875,-0.64453 0.421875,-1.89258 0,-1.25391 -0.421875,-1.89258 -0.421875,-0.63867 -1.248047,-0.63867 z m 0,-0.91406 q 1.365235,0 2.085938,0.88476 0.726562,0.88477 0.726562,2.56055 0,1.68164 -0.720703,2.56641 -0.720703,0.8789 -2.091797,0.8789 -1.365234,0 -2.085937,-0.8789 -0.720703,-0.88477 -0.720703,-2.56641 0,-1.67578 0.720703,-2.56055 0.720703,-0.88476 2.085937,-0.88476 z"
       id="text94"
       style="font-size:12px;text-anchor:middle"
       aria-label="o" />
    <path
       d="m 80.600586,161.62695 q 0,0.72657 0.263672,1.09571 0.269531,0.36914 0.791015,0.36914 h 1.259766 V 164 h -1.365234 q -0.966797,0 -1.5,-0.61523 -0.527344,-0.6211 -0.527344,-1.75782 v -5.93554 h -1.728516 v -0.84375 h 2.806641 z"
       id="text95"
       style="font-size:12px;text-anchor:middle"
       aria-label="l" />
    <path
       d="m 88.600586,161.62695 q 0,0.72657 0.263672,1.09571 0.269531,0.36914 0.791015,0.36914 h 1.259766 V 164 h -1.365234 q -0.966797,0 -1.5,-0.61523 -0.527344,-0.6211 -0.527344,-1.75782 v -5.93554 h -1.728516 v -0.84375 h 2.806641 z"
       id="text96"
       style="font-size:12px;text-anchor:middle"
       aria-label="l" />
    <path
       d="m 98.950195,160.17969 v 0.52734 h -4.669922 v 0.0352 q -0.04687,1.34179 0.509766,1.92773 0.5625,0.58594 1.582031,0.58594 0.515625,0 1.078125,-0.16406 0.5625,-0.16407 1.201172,-0.49805 v 1.07227 q -0.615234,0.25195 -1.189453,0.375 -0.568359,0.1289 -1.101562,0.1289 -1.529297,0 -2.390625,-0.91406 -0.861329,-0.91992 -0.861329,-2.53125 0,-1.57031 0.84375,-2.50781 0.84375,-0.9375 2.25,-0.9375 1.253907,0 1.97461,0.84961 0.726562,0.84961 0.773437,2.05078 z m -1.078125,-0.31641 q -0.07031,-0.67969 -0.498047,-1.17187 -0.421875,-0.49805 -1.21875,-0.49805 -0.779296,0 -1.283203,0.51562 -0.503906,0.51563 -0.550781,1.16016 z"
       id="text97"
       style="font-size:12px;text-anchor:middle"
       aria-label="e" />
    <path
       d="m 106.60449,163.66602 q -0.43359,0.25195 -0.89648,0.375 -0.45703,0.1289 -0.9375,0.1289 -1.52344,0 -2.38477,-0.91406 -0.85547,-0.91406 -0.85547,-2.53125 0,-1.61719 0.85547,-2.53125 0.86133,-0.91406 2.38477,-0.91406 0.47461,0 0.92578,0.12304 0.45117,0.12305 0.9082,0.38086 v 1.13086 q -0.42773,-0.38086 -0.86133,-0.55078 -0.42773,-0.16992 -0.97265,-0.16992 -1.01367,0 -1.5586,0.65625 -0.54492,0.65625 -0.54492,1.875 0,1.21289 0.54492,1.875 0.55079,0.65625 1.5586,0.65625 0.5625,0 1.00781,-0.16992 0.44531,-0.17578 0.82617,-0.53907 z"
       id="text98"
       style="font-size:12px;text-anchor:middle"
       aria-label="c" />
    <path
       d="m 111.98535,155.57422 v 1.86328 h 2.44922 v 0.83789 h -2.44922 v 3.5625 q 0,0.72656 0.27539,1.01367 0.27539,0.28711 0.96094,0.28711 h 1.21289 V 164 h -1.31836 q -1.21289,0 -1.71094,-0.48633 -0.49804,-0.48633 -0.49804,-1.67578 v -3.5625 h -1.75196 v -0.83789 h 1.75196 v -1.86328 z"
       id="text99"
       style="font-size:12px;text-anchor:middle"
       aria-label="t" />
    <path
       d="m 66.674805,179.68945 q -0.451172,0.24024 -0.925782,0.35742 -0.474609,0.12305 -1.007812,0.12305 -1.681641,0 -2.613281,-1.18945 -0.925782,-1.18945 -0.925782,-3.3457 0,-2.14454 0.931641,-3.33985 0.9375,-1.20117 2.607422,-1.20117 0.533203,0 1.007812,0.12305 0.47461,0.11718 0.925782,0.35742 v 1.21289 q -0.433594,-0.35742 -0.931641,-0.54492 -0.498047,-0.1875 -1.001953,-0.1875 -1.154297,0 -1.728516,0.89062 -0.574218,0.89063 -0.574218,2.68946 0,1.79296 0.574218,2.68359 0.574219,0.89062 1.728516,0.89062 0.515625,0 1.007812,-0.1875 0.498047,-0.1875 0.925782,-0.54492 z"
       id="text100"
       style="font-size:12px;text-anchor:middle"
       aria-label="C" />
    <path
       d="m 72.600586,177.62695 q 0,0.72657 0.263672,1.09571 0.269531,0.36914 0.791015,0.36914 h 1.259766 V 180 h -1.365234 q -0.966797,0 -1.5,-0.61523 -0.527344,-0.6211 -0.527344,-1.75782 v -5.93554 h -1.728516 v -0.84375 h 2.806641 z"
       id="text101"
       style="font-size:12px;text-anchor:middle"
       aria-label="l" />
    <path
       d="m 80.500977,176.70117 h -0.357422 q -0.94336,0 -1.423828,0.33399 -0.47461,0.32812 -0.47461,0.98437 0,0.5918 0.357422,0.91992 0.357422,0.32813 0.990234,0.32813 0.890625,0 1.400391,-0.61524 0.509766,-0.62109 0.515625,-1.71093 v -0.24024 z m 2.091796,-0.44531 V 180 h -1.083984 v -0.97266 q -0.345703,0.58594 -0.873047,0.86719 -0.521484,0.27539 -1.271484,0.27539 -1.001953,0 -1.59961,-0.5625 -0.597656,-0.56836 -0.597656,-1.51758 0,-1.0957 0.732422,-1.66406 0.738281,-0.56836 2.162109,-0.56836 h 1.447266 v -0.16992 q -0.0059,-0.78516 -0.398437,-1.13672 -0.392579,-0.35742 -1.253907,-0.35742 -0.550781,0 -1.113281,0.1582 -0.5625,0.15821 -1.095703,0.46289 v -1.07812 q 0.597656,-0.22852 1.142578,-0.33985 0.550781,-0.11718 1.066406,-0.11718 0.814453,0 1.388672,0.24023 0.580078,0.24024 0.9375,0.7207 0.222656,0.29297 0.316406,0.72657 0.09375,0.42773 0.09375,1.28906 z"
       id="text102"
       style="font-size:12px;text-anchor:middle"
       aria-label="a" />
    <path
       d="m 86.239258,173.46094 h 2.759765 v 5.70117 h 2.138672 V 180 h -5.355468 v -0.83789 h 2.138671 v -4.86328 h -1.68164 z m 1.68164,-2.54883 h 1.078125 v 1.35937 h -1.078125 z"
       id="text103"
       style="font-size:12px;text-anchor:middle"
       aria-label="i" />
    <path
       d="m 96.348633,174.10547 q 0.199219,-0.42188 0.503906,-0.6211 0.310547,-0.20507 0.744141,-0.20507 0.791015,0 1.113281,0.61523 0.328125,0.60938 0.328125,2.30274 V 180 h -0.984375 v -3.75586 q 0,-1.38867 -0.158203,-1.72266 -0.152344,-0.33984 -0.5625,-0.33984 -0.46875,0 -0.644531,0.36328 -0.169922,0.35742 -0.169922,1.69922 V 180 H 95.53418 v -3.75586 q 0,-1.40625 -0.169922,-1.73437 -0.164063,-0.32813 -0.597656,-0.32813 -0.427735,0 -0.597657,0.36328 -0.164062,0.35742 -0.164062,1.69922 V 180 h -0.978516 v -6.5625 h 0.978516 V 174 q 0.193359,-0.35156 0.480469,-0.5332 0.292968,-0.1875 0.662109,-0.1875 0.445312,0 0.738281,0.20507 0.298828,0.20508 0.462891,0.6211 z"
       id="text104"
       style="font-size:12px;text-anchor:middle"
       aria-label="m" />
    <path
       d="m 106.08887,173.66602 v 1.05468 q -0.46289,-0.26953 -0.93164,-0.40429 -0.46875,-0.13477 -0.95508,-0.13477 -0.73242,0 -1.0957,0.24023 -0.35743,0.23438 -0.35743,0.72071 0,0.43945 0.26953,0.65625 0.26954,0.21679 1.3418,0.42187 l 0.4336,0.082 q 0.80273,0.15235 1.21289,0.60938 0.41601,0.45703 0.41601,1.18945 0,0.97266 -0.6914,1.52344 -0.69141,0.54492 -1.92188,0.54492 -0.48633,0 -1.01953,-0.10547 -0.5332,-0.0996 -1.1543,-0.30468 v -1.11329 q 0.60352,0.31055 1.1543,0.46875 0.55078,0.15235 1.04297,0.15235 0.71484,0 1.10742,-0.28711 0.39258,-0.29297 0.39258,-0.81445 0,-0.75 -1.43555,-1.03711 l -0.0469,-0.0117 -0.4043,-0.082 q -0.93164,-0.18164 -1.35938,-0.60938 -0.42773,-0.43359 -0.42773,-1.17773 0,-0.94336 0.63867,-1.45313 0.63867,-0.51562 1.82227,-0.51562 0.52734,0 1.01367,0.0996 0.48633,0.0937 0.95508,0.28711 z"
       id="text105"
       style="font-size:12px;text-anchor:middle"
       aria-label="s" />
    <path
       d="m 247.99707,172.29492 -1.24805,4.47656 h 2.4961 z m -0.71484,-1.04297 h 1.43554 L 251.39551,180 h -1.22461 l -0.64453,-2.2793 h -3.06446 L 245.8291,180 h -1.22461 z"
       id="text106"
       style="font-size:12px;text-anchor:middle"
       aria-label="A" />
    <path
       d="m 255.98535,171.57422 v 1.86328 h 2.44922 v 0.83789 h -2.44922 v 3.5625 q 0,0.72656 0.27539,1.01367 0.27539,0.28711 0.96094,0.28711 h 1.21289 V 180 h -1.31836 q -1.21289,0 -1.71094,-0.48633 -0.49804,-0.48633 -0.49804,-1.67578 v -3.5625 h -1.75196 v -0.83789 h 1.75196 v -1.86328 z"
       id="text107"
       style="font-size:12px;text-anchor:middle"
       aria-label="t" />
    <path
       d="m 263.98535,171.57422 v 1.86328 h 2.44922 v 0.83789 h -2.44922 v 3.5625 q 0,0.72656 0.27539,1.01367 0.27539,0.28711 0.96094,0.28711 h 1.21289 V 180 h -1.31836 q -1.21289,0 -1.71094,-0.48633 -0.49804,-0.48633 -0.49804,-1.67578 v -3.5625 h -1.75196 v -0.83789 h 1.75196 v -1.86328 z"
       id="text108"
       style="font-size:12px;text-anchor:middle"
       aria-label="t" />
    <path
       d="m 274.9502,176.17969 v 0.52734 h -4.66993 v 0.0352 q -0.0469,1.34179 0.50977,1.92773 0.5625,0.58594 1.58203,0.58594 0.51563,0 1.07813,-0.16406 0.5625,-0.16407 1.20117,-0.49805 v 1.07227 q -0.61524,0.25195 -1.18946,0.375 -0.56836,0.1289 -1.10156,0.1289 -1.5293,0 -2.39062,-0.91406 -0.86133,-0.91992 -0.86133,-2.53125 0,-1.57031 0.84375,-2.50781 0.84375,-0.9375 2.25,-0.9375 1.2539,0 1.97461,0.84961 0.72656,0.84961 0.77344,2.05078 z m -1.07813,-0.31641 q -0.0703,-0.67969 -0.49805,-1.17187 -0.42187,-0.49805 -1.21875,-0.49805 -0.77929,0 -1.2832,0.51562 -0.50391,0.51563 -0.55078,1.16016 z"
       id="text109"
       style="font-size:12px;text-anchor:middle"
       aria-label="e" />
    <path
       d="m 282.08887,173.66602 v 1.05468 q -0.46289,-0.26953 -0.93164,-0.40429 -0.46875,-0.13477 -0.95508,-0.13477 -0.73242,0 -1.0957,0.24023 -0.35743,0.23438 -0.35743,0.72071 0,0.43945 0.26953,0.65625 0.26954,0.21679 1.3418,0.42187 l 0.4336,0.082 q 0.80273,0.15235 1.21289,0.60938 0.41601,0.45703 0.41601,1.18945 0,0.97266 -0.6914,1.52344 -0.69141,0.54492 -1.92188,0.54492 -0.48633,0 -1.01953,-0.10547 -0.5332,-0.0996 -1.1543,-0.30468 v -1.11329 q 0.60352,0.31055 1.1543,0.46875 0.55078,0.15235 1.04297,0.15235 0.71484,0 1.10742,-0.28711 0.39258,-0.29297 0.39258,-0.81445 0,-0.75 -1.43555,-1.03711 l -0.0469,-0.0117 -0.4043,-0.082 q -0.93164,-0.18164 -1.35938,-0.60938 -0.42773,-0.43359 -0.42773,-1.17773 0,-0.94336 0.63867,-1.45313 0.63867,-0.51562 1.82227,-0.51562 0.52734,0 1.01367,0.0996 0.48633,0.0937 0.95508,0.28711 z"
       id="text110"
       style="font-size:12px;text-anchor:middle"
       aria-label="s" />
    <path
       d="m 287.98535,171.57422 v 1.86328 h 2.44922 v 0.83789 h -2.44922 v 3.5625 q 0,0.72656 0.27539,1.01367 0.27539,0.28711 0.96094,0.28711 h 1.21289 V 180 h -1.31836 q -1.21289,0 -1.71094,-0.48633 -0.49804,-0.48633 -0.49804,-1.67578 v -3.5625 h -1.75196 v -0.83789 h 1.75196 v -1.86328 z"
       id="text111"
       style="font-size:12px;text-anchor:middle"
       aria-label="t" />
    <path
       d="m 294.23926,173.46094 h 2.75976 v 5.70117 h 2.13868 V 180 h -5.35547 v -0.83789 h 2.13867 v -4.86328 h -1.68164 z m 1.68164,-2.54883 h 1.07812 v 1.35937 h -1.07812 z"
       id="text112"
       style="font-size:12px;text-anchor:middle"
       aria-label="i" />
    <path
       d="M 306.5459,175.93359 V 180 h -1.08399 v -4.06641 q 0,-0.88476 -0.31054,-1.30078 -0.31055,-0.41601 -0.97266,-0.41601 -0.75586,0 -1.16601,0.53906 -0.4043,0.5332 -0.4043,1.53516 V 180 h -1.07813 v -6.5625 h 1.07813 v 0.98437 q 0.28711,-0.5625 0.7793,-0.8496 0.49218,-0.29297 1.16601,-0.29297 1.00195,0 1.49414,0.66211 0.49805,0.65625 0.49805,1.99218 z"
       id="text113"
       style="font-size:12px;text-anchor:middle"
       aria-label="n" />
    <path
       d="m 313.41504,176.66602 q 0,-1.2129 -0.39844,-1.83985 -0.39258,-0.63281 -1.14844,-0.63281 -0.79101,0 -1.20703,0.63281 -0.41601,0.62695 -0.41601,1.83985 0,1.21289 0.41601,1.85156 0.42188,0.63281 1.21875,0.63281 0.74414,0 1.13672,-0.63867 0.39844,-0.63867 0.39844,-1.8457 z m 1.07812,2.9121 q 0,1.47657 -0.69726,2.23829 -0.69727,0.76171 -2.05078,0.76171 -0.44532,0 -0.93164,-0.082 -0.48633,-0.082 -0.97266,-0.24023 v -1.06641 q 0.57422,0.26953 1.04297,0.39844 0.46875,0.12891 0.86133,0.12891 0.87304,0 1.27148,-0.47461 0.39844,-0.47461 0.39844,-1.50586 v -0.0469 -0.73242 q -0.25781,0.55078 -0.70313,0.82031 -0.44531,0.26953 -1.08398,0.26953 -1.14844,0 -1.83398,-0.91992 -0.68555,-0.91992 -0.68555,-2.46093 0,-1.54688 0.68555,-2.4668 0.68554,-0.91992 1.83398,-0.91992 0.63281,0 1.07227,0.25195 0.43945,0.25195 0.71484,0.7793 v -0.84961 h 1.07812 z"
       id="text114"
       style="font-size:12px;text-anchor:middle"
       aria-label="g" />
    <path
       d="m 422.72559,172.22461 v 3.28711 h 1.37109 q 0.82031,0 1.27734,-0.4336 0.46289,-0.43359 0.46289,-1.21289 0,-0.77929 -0.45703,-1.20703 -0.45703,-0.43359 -1.2832,-0.43359 z m -1.1836,-0.97266 h 2.55469 q 1.46484,0 2.2207,0.66797 0.75586,0.66211 0.75586,1.94531 0,1.29493 -0.75586,1.95704 -0.75,0.6621 -2.2207,0.6621 h -1.37109 V 180 h -1.1836 z"
       id="text115"
       style="font-size:12px;text-anchor:middle"
       aria-label="P" />
    <path
       d="m 431.99707,174.19336 q -0.82031,0 -1.24219,0.63867 -0.42187,0.63867 -0.42187,1.89258 0,1.24805 0.42187,1.89258 0.42188,0.63867 1.24219,0.63867 0.82617,0 1.24805,-0.63867 0.42187,-0.64453 0.42187,-1.89258 0,-1.25391 -0.42187,-1.89258 -0.42188,-0.63867 -1.24805,-0.63867 z m 0,-0.91406 q 1.36523,0 2.08594,0.88476 0.72656,0.88477 0.72656,2.56055 0,1.68164 -0.7207,2.56641 -0.72071,0.8789 -2.0918,0.8789 -1.36523,0 -2.08594,-0.8789 -0.7207,-0.88477 -0.7207,-2.56641 0,-1.67578 0.7207,-2.56055 0.72071,-0.88476 2.08594,-0.88476 z"
       id="text116"
       style="font-size:12px;text-anchor:middle"
       aria-label="o" />
    <path
       d="m 441.41504,174.27539 v -3.39258 h 1.07812 V 180 h -1.07812 v -0.82617 q -0.26953,0.48633 -0.7207,0.74414 -0.44532,0.25195 -1.03125,0.25195 -1.18946,0 -1.875,-0.91992 -0.67969,-0.92578 -0.67969,-2.54883 0,-1.59961 0.68555,-2.50781 0.68554,-0.91406 1.86914,-0.91406 0.59179,0 1.04296,0.25781 0.45118,0.25195 0.70899,0.73828 z m -3.16992,2.44922 q 0,1.25391 0.39843,1.89258 0.39844,0.63867 1.17774,0.63867 0.7793,0 1.18359,-0.64453 0.41016,-0.64453 0.41016,-1.88672 0,-1.24805 -0.41016,-1.88672 -0.40429,-0.64453 -1.18359,-0.64453 -0.7793,0 -1.17774,0.63867 -0.39843,0.63867 -0.39843,1.89258 z"
       id="text117"
       style="font-size:12px;text-anchor:middle"
       aria-label="d" />
    <path
       d="m 455.99707,172.29492 -1.24805,4.47656 h 2.4961 z m -0.71484,-1.04297 h 1.43554 L 459.39551,180 h -1.22461 l -0.64453,-2.2793 h -3.06446 L 453.8291,180 h -1.22461 z"
       id="text118"
       style="font-size:12px;text-anchor:middle"
       aria-label="A" />
    <path
       d="m 229.54199,187.25195 h 5.19141 v 0.9961 h -4.00781 v 2.35547 h 3.83203 v 0.99609 h -3.83203 v 3.4043 h 4.11914 V 196 h -5.30274 z"
       id="text119"
       style="font-size:12px;text-anchor:middle"
       aria-label="E" />
    <path
       d="M 242.5459,191.93359 V 196 h -1.08399 v -4.06641 q 0,-0.88476 -0.31054,-1.30078 -0.31055,-0.41601 -0.97266,-0.41601 -0.75586,0 -1.16601,0.53906 -0.4043,0.5332 -0.4043,1.53516 V 196 h -1.07813 v -6.5625 h 1.07813 v 0.98437 q 0.28711,-0.5625 0.7793,-0.8496 0.49218,-0.29297 1.16601,-0.29297 1.00195,0 1.49414,0.66211 0.49805,0.65625 0.49805,1.99218 z"
       id="text120"
       style="font-size:12px;text-anchor:middle"
       aria-label="n" />
    <path
       d="m 244.97363,189.4375 h 1.11914 l 1.9043,5.50781 1.91016,-5.50781 h 1.11914 L 248.69434,196 h -1.38868 z"
       id="text121"
       style="font-size:12px;text-anchor:middle"
       aria-label="v" />
    <path
       d="m 254.23926,189.46094 h 2.75976 v 5.70117 h 2.13868 V 196 h -5.35547 v -0.83789 h 2.13867 v -4.86328 h -1.68164 z m 1.68164,-2.54883 h 1.07812 v 1.35937 h -1.07812 z"
       id="text122"
       style="font-size:12px;text-anchor:middle"
       aria-label="i" />
    <path
       d="m 267.15527,190.79102 q -0.3457,-0.26954 -0.70312,-0.39258 -0.35742,-0.12305 -0.78516,-0.12305 -1.00781,0 -1.54101,0.63281 -0.53321,0.63282 -0.53321,1.82813 V 196 h -1.08398 v -6.5625 h 1.08398 v 1.2832 q 0.26953,-0.69726 0.82618,-1.0664 0.5625,-0.375 1.33007,-0.375 0.39844,0 0.74414,0.0996 0.34571,0.0996 0.66211,0.31054 z"
       id="text123"
       style="font-size:12px;text-anchor:middle"
       aria-label="r" />
    <path
       d="m 271.99707,190.19336 q -0.82031,0 -1.24219,0.63867 -0.42187,0.63867 -0.42187,1.89258 0,1.24805 0.42187,1.89258 0.42188,0.63867 1.24219,0.63867 0.82617,0 1.24805,-0.63867 0.42187,-0.64453 0.42187,-1.89258 0,-1.25391 -0.42187,-1.89258 -0.42188,-0.63867 -1.24805,-0.63867 z m 0,-0.91406 q 1.36523,0 2.08594,0.88476 0.72656,0.88477 0.72656,2.56055 0,1.68164 -0.7207,2.56641 -0.72071,0.8789 -2.0918,0.8789 -1.36523,0 -2.08594,-0.8789 -0.7207,-0.88477 -0.7207,-2.56641 0,-1.67578 0.7207,-2.56055 0.72071,-0.88476 2.08594,-0.88476 z"
       id="text124"
       style="font-size:12px;text-anchor:middle"
       aria-label="o" />
    <path
       d="M 282.5459,191.93359 V 196 h -1.08399 v -4.06641 q 0,-0.88476 -0.31054,-1.30078 -0.31055,-0.41601 -0.97266,-0.41601 -0.75586,0 -1.16601,0.53906 -0.4043,0.5332 -0.4043,1.53516 V 196 h -1.07813 v -6.5625 h 1.07813 v 0.98437 q 0.28711,-0.5625 0.7793,-0.8496 0.49218,-0.29297 1.16601,-0.29297 1.00195,0 1.49414,0.66211 0.49805,0.65625 0.49805,1.99218 z"
       id="text125"
       style="font-size:12px;text-anchor:middle"
       aria-label="n" />
    <path
       d="m 288.34863,190.10547 q 0.19922,-0.42188 0.50391,-0.6211 0.31055,-0.20507 0.74414,-0.20507 0.79102,0 1.11328,0.61523 0.32813,0.60938 0.32813,2.30274 V 196 h -0.98438 v -3.75586 q 0,-1.38867 -0.1582,-1.72266 -0.15235,-0.33984 -0.5625,-0.33984 -0.46875,0 -0.64453,0.36328 -0.16993,0.35742 -0.16993,1.69922 V 196 h -0.98437 v -3.75586 q 0,-1.40625 -0.16992,-1.73437 -0.16406,-0.32813 -0.59766,-0.32813 -0.42773,0 -0.59765,0.36328 -0.16407,0.35742 -0.16407,1.69922 V 196 h -0.97851 v -6.5625 h 0.97851 V 190 q 0.19336,-0.35156 0.48047,-0.5332 0.29297,-0.1875 0.66211,-0.1875 0.44531,0 0.73828,0.20507 0.29883,0.20508 0.46289,0.6211 z"
       id="text126"
       style="font-size:12px;text-anchor:middle"
       aria-label="m" />
    <path
       d="m 298.9502,192.17969 v 0.52734 h -4.66993 v 0.0352 q -0.0469,1.34179 0.50977,1.92773 0.5625,0.58594 1.58203,0.58594 0.51563,0 1.07813,-0.16406 0.5625,-0.16407 1.20117,-0.49805 v 1.07227 q -0.61524,0.25195 -1.18946,0.375 -0.56836,0.1289 -1.10156,0.1289 -1.5293,0 -2.39062,-0.91406 -0.86133,-0.91992 -0.86133,-2.53125 0,-1.57031 0.84375,-2.50781 0.84375,-0.9375 2.25,-0.9375 1.2539,0 1.97461,0.84961 0.72656,0.84961 0.77344,2.05078 z m -1.07813,-0.31641 q -0.0703,-0.67969 -0.49805,-1.17187 -0.42187,-0.49805 -1.21875,-0.49805 -0.77929,0 -1.2832,0.51562 -0.50391,0.51563 -0.55078,1.16016 z"
       id="text127"
       style="font-size:12px;text-anchor:middle"
       aria-label="e" />
    <path
       d="M 306.5459,191.93359 V 196 h -1.08399 v -4.06641 q 0,-0.88476 -0.31054,-1.30078 -0.31055,-0.41601 -0.97266,-0.41601 -0.75586,0 -1.16601,0.53906 -0.4043,0.5332 -0.4043,1.53516 V 196 h -1.07813 v -6.5625 h 1.07813 v 0.98437 q 0.28711,-0.5625 0.7793,-0.8496 0.49218,-0.29297 1.16601,-0.29297 1.00195,0 1.49414,0.66211 0.49805,0.65625 0.49805,1.99218 z"
       id="text128"
       style="font-size:12px;text-anchor:middle"
       aria-label="n" />
    <path
       d="m 311.98535,187.57422 v 1.86328 h 2.44922 v 0.83789 h -2.44922 v 3.5625 q 0,0.72656 0.27539,1.01367 0.27539,0.28711 0.96094,0.28711 h 1.21289 V 196 h -1.31836 q -1.21289,0 -1.71094,-0.48633 -0.49804,-0.48633 -0.49804,-1.67578 v -3.5625 h -1.75196 v -0.83789 h 1.75196 v -1.86328 z"
       id="text129"
       style="font-size:12px;text-anchor:middle"
       aria-label="t" />
    <path
       d="m 438.72559,204.22461 v 3.28711 h 1.37109 q 0.82031,0 1.27734,-0.4336 0.46289,-0.43359 0.46289,-1.21289 0,-0.77929 -0.45703,-1.20703 -0.45703,-0.43359 -1.2832,-0.43359 z m -1.1836,-0.97266 h 2.55469 q 1.46484,0 2.2207,0.66797 0.75586,0.66211 0.75586,1.94531 0,1.29493 -0.75586,1.95704 -0.75,0.6621 -2.2207,0.6621 h -1.37109 V 212 h -1.1836 z"
       id="text130"
       style="font-size:12px;text-anchor:middle"
       aria-label="P" />
    <path
       d="m 447.99707,206.19336 q -0.82031,0 -1.24219,0.63867 -0.42187,0.63867 -0.42187,1.89258 0,1.24805 0.42187,1.89258 0.42188,0.63867 1.24219,0.63867 0.82617,0 1.24805,-0.63867 0.42187,-0.64453 0.42187,-1.89258 0,-1.25391 -0.42187,-1.89258 -0.42188,-0.63867 -1.24805,-0.63867 z m 0,-0.91406 q 1.36523,0 2.08594,0.88476 0.72656,0.88477 0.72656,2.56055 0,1.68164 -0.7207,2.56641 -0.72071,0.8789 -2.0918,0.8789 -1.36523,0 -2.08594,-0.8789 -0.7207,-0.88477 -0.7207,-2.56641 0,-1.67578 0.7207,-2.56055 0.72071,-0.88476 2.08594,-0.88476 z"
       id="text131"
       style="font-size:12px;text-anchor:middle"
       aria-label="o" />
    <path
       d="m 457.41504,206.27539 v -3.39258 h 1.07812 V 212 h -1.07812 v -0.82617 q -0.26953,0.48633 -0.7207,0.74414 -0.44532,0.25195 -1.03125,0.25195 -1.18946,0 -1.875,-0.91992 -0.67969,-0.92578 -0.67969,-2.54883 0,-1.59961 0.68555,-2.50781 0.68554,-0.91406 1.86914,-0.91406 0.59179,0 1.04296,0.25781 0.45118,0.25195 0.70899,0.73828 z m -3.16992,2.44922 q 0,1.25391 0.39843,1.89258 0.39844,0.63867 1.17774,0.63867 0.7793,0 1.18359,-0.64453 0.41016,-0.64453 0.41016,-1.88672 0,-1.24805 -0.41016,-1.88672 -0.40429,-0.64453 -1.18359,-0.64453 -0.7793,0 -1.17774,0.63867 -0.39843,0.63867 -0.39843,1.89258 z"
       id="text132"
       style="font-size:12px;text-anchor:middle"
       aria-label="d" />
    <path
       d="m 470.5498,207.58789 v 3.43945 h 1.4004 q 1.03125,0 1.4707,-0.35742 0.43945,-0.36328 0.43945,-1.18945 0,-1.08985 -0.46289,-1.48828 -0.46289,-0.4043 -1.44726,-0.4043 z m 0,-3.36328 v 2.40234 h 1.37696 q 0.85547,0 1.23633,-0.32812 0.38671,-0.32813 0.38671,-0.82617 0,-0.66211 -0.38085,-0.95508 -0.375,-0.29297 -1.24219,-0.29297 z m -1.18945,-0.97266 h 2.58985 q 1.34179,0 2.06835,0.58008 0.72657,0.58008 0.72657,1.64063 0,0.56836 -0.38672,1.03125 -0.38086,0.46289 -1.14844,0.58007 0.86133,0.12891 1.34766,0.73829 0.49218,0.60351 0.49218,1.77539 0,1.18945 -0.77929,1.79882 Q 473.49121,212 471.9502,212 h -2.58985 z"
       id="text133"
       style="font-size:12px;text-anchor:middle"
       aria-label="B" />
    <path
       d="m 80.84082,223.86914 q 0.457032,0.11719 0.779297,0.44531 0.322266,0.32227 0.802735,1.29492 L 83.612305,228 H 82.34082 l -1.042968,-2.20898 q -0.451172,-0.94336 -0.814454,-1.2129 -0.357421,-0.27539 -0.9375,-0.27539 H 78.415039 V 228 h -1.189453 v -8.74805 h 2.4375 q 1.441406,0 2.208984,0.65039 0.767578,0.65039 0.767578,1.88086 0,0.86719 -0.474609,1.41797 -0.46875,0.54492 -1.324219,0.66797 z m -2.425781,-3.64453 v 3.10547 h 1.294922 q 0.849609,0 1.265625,-0.38086 0.416016,-0.38086 0.416016,-1.16602 0,-0.75586 -0.445313,-1.15429 -0.439453,-0.4043 -1.283203,-0.4043 z"
       id="text134"
       style="font-size:12px;text-anchor:middle"
       aria-label="R" />
    <path
       d="m 85.530273,225.51562 v -4.0664 h 1.078125 v 4.0664 q 0,0.88477 0.310547,1.30079 0.316407,0.41601 0.972657,0.41601 0.761718,0 1.166015,-0.5332 0.404297,-0.53906 0.404297,-1.54102 v -3.70898 h 1.083984 V 228 h -1.083984 v -0.98438 q -0.287109,0.56836 -0.785156,0.86133 -0.492188,0.29297 -1.154297,0.29297 -1.007813,0 -1.5,-0.65625 -0.492188,-0.66211 -0.492188,-1.99805 z"
       id="text135"
       style="font-size:12px;text-anchor:middle"
       aria-label="u" />
    <path
       d="M 98.545898,223.93359 V 228 h -1.083984 v -4.06641 q 0,-0.88476 -0.310547,-1.30078 -0.310547,-0.41601 -0.972656,-0.41601 -0.755859,0 -1.166016,0.53906 -0.404297,0.5332 -0.404297,1.53516 V 228 h -1.078125 v -6.5625 h 1.078125 v 0.98437 q 0.28711,-0.5625 0.779297,-0.8496 0.492188,-0.29297 1.166016,-0.29297 1.001953,0 1.494141,0.66211 0.498046,0.65625 0.498046,1.99218 z"
       id="text136"
       style="font-size:12px;text-anchor:middle"
       aria-label="n" />
    <path
       d="m 103.98535,219.57422 v 1.86328 h 2.44922 v 0.83789 h -2.44922 v 3.5625 q 0,0.72656 0.27539,1.01367 0.27539,0.28711 0.96094,0.28711 h 1.21289 V 228 h -1.31836 q -1.21289,0 -1.71094,-0.48633 -0.49804,-0.48633 -0.49804,-1.67578 v -3.5625 h -1.75196 v -0.83789 h 1.75196 v -1.86328 z"
       id="text137"
       style="font-size:12px;text-anchor:middle"
       aria-label="t" />
    <path
       d="m 110.23926,221.46094 h 2.75976 v 5.70117 h 2.13868 V 228 h -5.35547 v -0.83789 h 2.13867 v -4.86328 h -1.68164 z m 1.68164,-2.54883 h 1.07812 v 1.35937 h -1.07812 z"
       id="text138"
       style="font-size:12px;text-anchor:middle"
       aria-label="i" />
    <path
       d="m 120.34863,222.10547 q 0.19922,-0.42188 0.50391,-0.6211 0.31055,-0.20507 0.74414,-0.20507 0.79102,0 1.11328,0.61523 0.32813,0.60938 0.32813,2.30274 V 228 h -0.98438 v -3.75586 q 0,-1.38867 -0.1582,-1.72266 -0.15235,-0.33984 -0.5625,-0.33984 -0.46875,0 -0.64453,0.36328 -0.16993,0.35742 -0.16993,1.69922 V 228 h -0.98437 v -3.75586 q 0,-1.40625 -0.16992,-1.73437 -0.16406,-0.32813 -0.59766,-0.32813 -0.42773,0 -0.59765,0.36328 -0.16407,0.35742 -0.16407,1.69922 V 228 h -0.97851 v -6.5625 h 0.97851 V 222 q 0.19336,-0.35156 0.48047,-0.5332 0.29297,-0.1875 0.66211,-0.1875 0.44531,0 0.73828,0.20507 0.29883,0.20508 0.46289,0.6211 z"
       id="text139"
       style="font-size:12px;text-anchor:middle"
       aria-label="m" />
    <path
       d="m 130.9502,224.17969 v 0.52734 h -4.66993 v 0.0352 q -0.0469,1.34179 0.50977,1.92773 0.5625,0.58594 1.58203,0.58594 0.51563,0 1.07813,-0.16406 0.5625,-0.16407 1.20117,-0.49805 v 1.07227 q -0.61524,0.25195 -1.18946,0.375 -0.56836,0.1289 -1.10156,0.1289 -1.5293,0 -2.39062,-0.91406 -0.86133,-0.91992 -0.86133,-2.53125 0,-1.57031 0.84375,-2.50781 0.84375,-0.9375 2.25,-0.9375 1.2539,0 1.97461,0.84961 0.72656,0.84961 0.77344,2.05078 z m -1.07813,-0.31641 q -0.0703,-0.67969 -0.49805,-1.17187 -0.42187,-0.49805 -1.21875,-0.49805 -0.77929,0 -1.2832,0.51562 -0.50391,0.51563 -0.55078,1.16016 z"
       id="text140"
       style="font-size:12px;text-anchor:middle"
       aria-label="e" />
    <path
       d="m 140.66309,219.25195 h 6.67382 v 0.9961 h -2.73632 V 228 h -1.18946 v -7.75195 h -2.74804 z"
       id="text141"
       style="font-size:12px;text-anchor:middle"
       aria-label="T" />
    <path
       d="m 152.50098,224.70117 h -0.35743 q -0.94335,0 -1.42382,0.33399 -0.47461,0.32812 -0.47461,0.98437 0,0.5918 0.35742,0.91992 0.35742,0.32813 0.99023,0.32813 0.89063,0 1.40039,-0.61524 0.50977,-0.62109 0.51563,-1.71093 v -0.24024 z m 2.09179,-0.44531 V 228 h -1.08398 v -0.97266 q -0.3457,0.58594 -0.87305,0.86719 -0.52148,0.27539 -1.27148,0.27539 -1.00196,0 -1.59961,-0.5625 -0.59766,-0.56836 -0.59766,-1.51758 0,-1.0957 0.73242,-1.66406 0.73829,-0.56836 2.16211,-0.56836 h 1.44727 v -0.16992 q -0.006,-0.78516 -0.39844,-1.13672 -0.39258,-0.35742 -1.2539,-0.35742 -0.55079,0 -1.11329,0.1582 -0.5625,0.15821 -1.0957,0.46289 v -1.07812 q 0.59766,-0.22852 1.14258,-0.33985 0.55078,-0.11718 1.06641,-0.11718 0.81445,0 1.38867,0.24023 0.58008,0.24024 0.9375,0.7207 0.22265,0.29297 0.3164,0.72657 0.0937,0.42773 0.0937,1.28906 z"
       id="text142"
       style="font-size:12px;text-anchor:middle"
       aria-label="a" />
    <path
       d="m 163.15527,222.79102 q -0.3457,-0.26954 -0.70312,-0.39258 -0.35742,-0.12305 -0.78516,-0.12305 -1.00781,0 -1.54101,0.63281 -0.53321,0.63282 -0.53321,1.82813 V 228 h -1.08398 v -6.5625 h 1.08398 v 1.2832 q 0.26953,-0.69726 0.82618,-1.0664 0.5625,-0.375 1.33007,-0.375 0.39844,0 0.74414,0.0996 0.34571,0.0996 0.66211,0.31054 z"
       id="text143"
       style="font-size:12px;text-anchor:middle"
       aria-label="r" />
    <path
       d="m 169.41504,224.66602 q 0,-1.2129 -0.39844,-1.83985 -0.39258,-0.63281 -1.14844,-0.63281 -0.79101,0 -1.20703,0.63281 -0.41601,0.62695 -0.41601,1.83985 0,1.21289 0.41601,1.85156 0.42188,0.63281 1.21875,0.63281 0.74414,0 1.13672,-0.63867 0.39844,-0.63867 0.39844,-1.8457 z m 1.07812,2.9121 q 0,1.47657 -0.69726,2.23829 -0.69727,0.76171 -2.05078,0.76171 -0.44532,0 -0.93164,-0.082 -0.48633,-0.082 -0.97266,-0.24023 v -1.06641 q 0.57422,0.26953 1.04297,0.39844 0.46875,0.12891 0.86133,0.12891 0.87304,0 1.27148,-0.47461 0.39844,-0.47461 0.39844,-1.50586 v -0.0469 -0.73242 q -0.25781,0.55078 -0.70313,0.82031 -0.44531,0.26953 -1.08398,0.26953 -1.14844,0 -1.83398,-0.91992 -0.68555,-0.91992 -0.68555,-2.46093 0,-1.54688 0.68555,-2.4668 0.68554,-0.91992 1.83398,-0.91992 0.63281,0 1.07227,0.25195 0.43945,0.25195 0.71484,0.7793 v -0.84961 h 1.07812 z"
       id="text144"
       style="font-size:12px;text-anchor:middle"
       aria-label="g" />
    <path
       d="m 178.9502,224.17969 v 0.52734 h -4.66993 v 0.0352 q -0.0469,1.34179 0.50977,1.92773 0.5625,0.58594 1.58203,0.58594 0.51563,0 1.07813,-0.16406 0.5625,-0.16407 1.20117,-0.49805 v 1.07227 q -0.61524,0.25195 -1.18946,0.375 -0.56836,0.1289 -1.10156,0.1289 -1.5293,0 -2.39062,-0.91406 -0.86133,-0.91992 -0.86133,-2.53125 0,-1.57031 0.84375,-2.50781 0.84375,-0.9375 2.25,-0.9375 1.2539,0 1.97461,0.84961 0.72656,0.84961 0.77344,2.05078 z m -1.07813,-0.31641 q -0.0703,-0.67969 -0.49805,-1.17187 -0.42187,-0.49805 -1.21875,-0.49805 -0.77929,0 -1.2832,0.51562 -0.50391,0.51563 -0.55078,1.16016 z"
       id="text145"
       style="font-size:12px;text-anchor:middle"
       aria-label="e" />
    <path
       d="m 183.98535,219.57422 v 1.86328 h 2.44922 v 0.83789 h -2.44922 v 3.5625 q 0,0.72656 0.27539,1.01367 0.27539,0.28711 0.96094,0.28711 h 1.21289 V 228 h -1.31836 q -1.21289,0 -1.71094,-0.48633 -0.49804,-0.48633 -0.49804,-1.67578 v -3.5625 h -1.75196 v -0.83789 h 1.75196 v -1.86328 z"
       id="text146"
       style="font-size:12px;text-anchor:middle"
       aria-label="t" />
    <path
       d="m 77.541992,235.25195 h 5.191406 v 0.9961 h -4.007812 v 2.35547 h 3.832031 v 0.99609 h -3.832031 v 3.4043 h 4.119141 V 244 h -5.302735 z"
       id="text147"
       style="font-size:12px;text-anchor:middle"
       aria-label="E" />
    <path
       d="M 90.545898,239.93359 V 244 h -1.083984 v -4.06641 q 0,-0.88476 -0.310547,-1.30078 -0.310547,-0.41601 -0.972656,-0.41601 -0.755859,0 -1.166016,0.53906 -0.404297,0.5332 -0.404297,1.53516 V 244 h -1.078125 v -6.5625 h 1.078125 v 0.98437 q 0.28711,-0.5625 0.779297,-0.8496 0.492188,-0.29297 1.166016,-0.29297 1.001953,0 1.494141,0.66211 0.498046,0.65625 0.498046,1.99218 z"
       id="text148"
       style="font-size:12px;text-anchor:middle"
       aria-label="n" />
    <path
       d="m 92.973633,237.4375 h 1.11914 l 1.904297,5.50781 1.910157,-5.50781 h 1.11914 L 96.694336,244 h -1.388672 z"
       id="text149"
       style="font-size:12px;text-anchor:middle"
       aria-label="v" />
    <path
       d="m 102.23926,237.46094 h 2.75976 v 5.70117 h 2.13868 V 244 h -5.35547 v -0.83789 h 2.13867 v -4.86328 h -1.68164 z m 1.68164,-2.54883 h 1.07812 v 1.35937 h -1.07812 z"
       id="text150"
       style="font-size:12px;text-anchor:middle"
       aria-label="i" />
    <path
       d="m 115.15527,238.79102 q -0.3457,-0.26954 -0.70312,-0.39258 -0.35742,-0.12305 -0.78516,-0.12305 -1.00781,0 -1.54101,0.63281 -0.53321,0.63282 -0.53321,1.82813 V 244 h -1.08398 v -6.5625 h 1.08398 v 1.2832 q 0.26953,-0.69726 0.82618,-1.0664 0.5625,-0.375 1.33007,-0.375 0.39844,0 0.74414,0.0996 0.34571,0.0996 0.66211,0.31054 z"
       id="text151"
       style="font-size:12px;text-anchor:middle"
       aria-label="r" />
    <path
       d="m 119.99707,238.19336 q -0.82031,0 -1.24219,0.63867 -0.42187,0.63867 -0.42187,1.89258 0,1.24805 0.42187,1.89258 0.42188,0.63867 1.24219,0.63867 0.82617,0 1.24805,-0.63867 0.42187,-0.64453 0.42187,-1.89258 0,-1.25391 -0.42187,-1.89258 -0.42188,-0.63867 -1.24805,-0.63867 z m 0,-0.91406 q 1.36523,0 2.08594,0.88476 0.72656,0.88477 0.72656,2.56055 0,1.68164 -0.7207,2.56641 -0.72071,0.8789 -2.0918,0.8789 -1.36523,0 -2.08594,-0.8789 -0.7207,-0.88477 -0.7207,-2.56641 0,-1.67578 0.7207,-2.56055 0.72071,-0.88476 2.08594,-0.88476 z"
       id="text152"
       style="font-size:12px;text-anchor:middle"
       aria-label="o" />
    <path
       d="M 130.5459,239.93359 V 244 h -1.08399 v -4.06641 q 0,-0.88476 -0.31054,-1.30078 -0.31055,-0.41601 -0.97266,-0.41601 -0.75586,0 -1.16601,0.53906 -0.4043,0.5332 -0.4043,1.53516 V 244 h -1.07813 v -6.5625 h 1.07813 v 0.98437 q 0.28711,-0.5625 0.7793,-0.8496 0.49218,-0.29297 1.16601,-0.29297 1.00195,0 1.49414,0.66211 0.49805,0.65625 0.49805,1.99218 z"
       id="text153"
       style="font-size:12px;text-anchor:middle"
       aria-label="n" />
    <path
       d="m 136.34863,238.10547 q 0.19922,-0.42188 0.50391,-0.6211 0.31055,-0.20507 0.74414,-0.20507 0.79102,0 1.11328,0.61523 0.32813,0.60938 0.32813,2.30274 V 244 h -0.98438 v -3.75586 q 0,-1.38867 -0.1582,-1.72266 -0.15235,-0.33984 -0.5625,-0.33984 -0.46875,0 -0.64453,0.36328 -0.16993,0.35742 -0.16993,1.69922 V 244 h -0.98437 v -3.75586 q 0,-1.40625 -0.16992,-1.73437 -0.16406,-0.32813 -0.59766,-0.32813 -0.42773,0 -0.59765,0.36328 -0.16407,0.35742 -0.16407,1.69922 V 244 h -0.97851 v -6.5625 h 0.97851 V 238 q 0.19336,-0.35156 0.48047,-0.5332 0.29297,-0.1875 0.66211,-0.1875 0.44531,0 0.73828,0.20507 0.29883,0.20508 0.46289,0.6211 z"
       id="text154"
       style="font-size:12px;text-anchor:middle"
       aria-label="m" />
    <path
       d="m 146.9502,240.17969 v 0.52734 h -4.66993 v 0.0352 q -0.0469,1.34179 0.50977,1.92773 0.5625,0.58594 1.58203,0.58594 0.51563,0 1.07813,-0.16406 0.5625,-0.16407 1.20117,-0.49805 v 1.07227 q -0.61524,0.25195 -1.18946,0.375 -0.56836,0.1289 -1.10156,0.1289 -1.5293,0 -2.39062,-0.91406 -0.86133,-0.91992 -0.86133,-2.53125 0,-1.57031 0.84375,-2.50781 0.84375,-0.9375 2.25,-0.9375 1.2539,0 1.97461,0.84961 0.72656,0.84961 0.77344,2.05078 z m -1.07813,-0.31641 q -0.0703,-0.67969 -0.49805,-1.17187 -0.42187,-0.49805 -1.21875,-0.49805 -0.77929,0 -1.2832,0.51562 -0.50391,0.51563 -0.55078,1.16016 z"
       id="text155"
       style="font-size:12px;text-anchor:middle"
       aria-label="e" />
    <path
       d="M 154.5459,239.93359 V 244 h -1.08399 v -4.06641 q 0,-0.88476 -0.31054,-1.30078 -0.31055,-0.41601 -0.97266,-0.41601 -0.75586,0 -1.16601,0.53906 -0.4043,0.5332 -0.4043,1.53516 V 244 h -1.07813 v -6.5625 h 1.07813 v 0.98437 q 0.28711,-0.5625 0.7793,-0.8496 0.49218,-0.29297 1.16601,-0.29297 1.00195,0 1.49414,0.66211 0.49805,0.65625 0.49805,1.99218 z"
       id="text156"
       style="font-size:12px;text-anchor:middle"
       aria-label="n" />
    <path
       d="m 159.98535,235.57422 v 1.86328 h 2.44922 v 0.83789 h -2.44922 v 3.5625 q 0,0.72656 0.27539,1.01367 0.27539,0.28711 0.96094,0.28711 h 1.21289 V 244 h -1.31836 q -1.21289,0 -1.71094,-0.48633 -0.49804,-0.48633 -0.49804,-1.67578 v -3.5625 h -1.75196 v -0.83789 h 1.75196 v -1.86328 z"
       id="text157"
       style="font-size:12px;text-anchor:middle"
       aria-label="t" />
    <path
       d="m 454.66699,241.63281 h 2.0625 V 244 h -2.0625 z"
       id="text158"
       style="font-size:12px;text-anchor:middle"
       aria-label="." />
    <path
       d="m 462.66699,241.63281 h 2.0625 V 244 h -2.0625 z"
       id="text159"
       style="font-size:12px;text-anchor:middle"
       aria-label="." />
    <path
       d="m 470.66699,241.63281 h 2.0625 V 244 h -2.0625 z"
       id="text160"
       style="font-size:12px;text-anchor:middle"
       aria-label="." />
    <path
       d="m 365.54199,251.25195 h 5.19141 v 0.9961 h -4.00781 v 2.35547 h 3.83203 v 0.99609 h -3.83203 v 3.4043 h 4.11914 V 260 h -5.30274 z"
       id="text161"
       style="font-size:12px;text-anchor:middle"
       aria-label="E" />
    <path
       d="m 372.97363,253.4375 h 1.11914 l 1.9043,5.50781 1.91016,-5.50781 h 1.11914 L 376.69434,260 h -1.38868 z"
       id="text162"
       style="font-size:12px;text-anchor:middle"
       aria-label="v" />
    <path
       d="m 382.23926,253.46094 h 2.75976 v 5.70117 h 2.13868 V 260 h -5.35547 v -0.83789 h 2.13867 v -4.86328 h -1.68164 z m 1.68164,-2.54883 h 1.07812 v 1.35937 h -1.07812 z"
       id="text163"
       style="font-size:12px;text-anchor:middle"
       aria-label="i" />
    <path
       d="m 393.41504,254.27539 v -3.39258 h 1.07812 V 260 h -1.07812 v -0.82617 q -0.26953,0.48633 -0.7207,0.74414 -0.44532,0.25195 -1.03125,0.25195 -1.18946,0 -1.875,-0.91992 -0.67969,-0.92578 -0.67969,-2.54883 0,-1.59961 0.68555,-2.50781 0.68554,-0.91406 1.86914,-0.91406 0.59179,0 1.04296,0.25781 0.45118,0.25195 0.70899,0.73828 z m -3.16992,2.44922 q 0,1.25391 0.39843,1.89258 0.39844,0.63867 1.17774,0.63867 0.7793,0 1.18359,-0.64453 0.41016,-0.64453 0.41016,-1.88672 0,-1.24805 -0.41016,-1.88672 -0.40429,-0.64453 -1.18359,-0.64453 -0.7793,0 -1.17774,0.63867 -0.39843,0.63867 -0.39843,1.89258 z"
       id="text164"
       style="font-size:12px;text-anchor:middle"
       aria-label="d" />
    <path
       d="m 402.9502,256.17969 v 0.52734 h -4.66993 v 0.0352 q -0.0469,1.34179 0.50977,1.92773 0.5625,0.58594 1.58203,0.58594 0.51563,0 1.07813,-0.16406 0.5625,-0.16407 1.20117,-0.49805 v 1.07227 q -0.61524,0.25195 -1.18946,0.375 -0.56836,0.1289 -1.10156,0.1289 -1.5293,0 -2.39062,-0.91406 -0.86133,-0.91992 -0.86133,-2.53125 0,-1.57031 0.84375,-2.50781 0.84375,-0.9375 2.25,-0.9375 1.2539,0 1.97461,0.84961 0.72656,0.84961 0.77344,2.05078 z m -1.07813,-0.31641 q -0.0703,-0.67969 -0.49805,-1.17187 -0.42187,-0.49805 -1.21875,-0.49805 -0.77929,0 -1.2832,0.51562 -0.50391,0.51563 -0.55078,1.16016 z"
       id="text165"
       style="font-size:12px;text-anchor:middle"
       aria-label="e" />
    <path
       d="M 410.5459,255.93359 V 260 h -1.08399 v -4.06641 q 0,-0.88476 -0.31054,-1.30078 -0.31055,-0.41601 -0.97266,-0.41601 -0.75586,0 -1.16601,0.53906 -0.4043,0.5332 -0.4043,1.53516 V 260 h -1.07813 v -6.5625 h 1.07813 v 0.98437 q 0.28711,-0.5625 0.7793,-0.8496 0.49218,-0.29297 1.16601,-0.29297 1.00195,0 1.49414,0.66211 0.49805,0.65625 0.49805,1.99218 z"
       id="text166"
       style="font-size:12px;text-anchor:middle"
       aria-label="n" />
    <path
       d="m 418.60449,259.66602 q -0.43359,0.25195 -0.89648,0.375 -0.45703,0.1289 -0.9375,0.1289 -1.52344,0 -2.38477,-0.91406 -0.85547,-0.91406 -0.85547,-2.53125 0,-1.61719 0.85547,-2.53125 0.86133,-0.91406 2.38477,-0.91406 0.47461,0 0.92578,0.12304 0.45117,0.12305 0.9082,0.38086 v 1.13086 q -0.42773,-0.38086 -0.86133,-0.55078 -0.42773,-0.16992 -0.97265,-0.16992 -1.01367,0 -1.5586,0.65625 -0.54492,0.65625 -0.54492,1.875 0,1.21289 0.54492,1.875 0.55079,0.65625 1.5586,0.65625 0.5625,0 1.00781,-0.16992 0.44531,-0.17578 0.82617,-0.53907 z"
       id="text167"
       style="font-size:12px;text-anchor:middle"
       aria-label="c" />
    <path
       d="m 426.9502,256.17969 v 0.52734 h -4.66993 v 0.0352 q -0.0469,1.34179 0.50977,1.92773 0.5625,0.58594 1.58203,0.58594 0.51563,0 1.07813,-0.16406 0.5625,-0.16407 1.20117,-0.49805 v 1.07227 q -0.61524,0.25195 -1.18946,0.375 -0.56836,0.1289 -1.10156,0.1289 -1.5293,0 -2.39062,-0.91406 -0.86133,-0.91992 -0.86133,-2.53125 0,-1.57031 0.84375,-2.50781 0.84375,-0.9375 2.25,-0.9375 1.2539,0 1.97461,0.84961 0.72656,0.84961 0.77344,2.05078 z m -1.07813,-0.31641 q -0.0703,-0.67969 -0.49805,-1.17187 -0.42187,-0.49805 -1.21875,-0.49805 -0.77929,0 -1.2832,0.51562 -0.50391,0.51563 -0.55078,1.16016 z"
       id="text168"
       style="font-size:12px;text-anchor:middle"
       aria-label="e" />
    <path
       d="m 391.99707,270.19336 q -0.82031,0 -1.24219,0.63867 -0.42187,0.63867 -0.42187,1.89258 0,1.24805 0.42187,1.89258 0.42188,0.63867 1.24219,0.63867 0.82617,0 1.24805,-0.63867 0.42187,-0.64453 0.42187,-1.89258 0,-1.25391 -0.42187,-1.89258 -0.42188,-0.63867 -1.24805,-0.63867 z m 0,-0.91406 q 1.36523,0 2.08594,0.88476 0.72656,0.88477 0.72656,2.56055 0,1.68164 -0.7207,2.56641 -0.72071,0.8789 -2.0918,0.8789 -1.36523,0 -2.08594,-0.8789 -0.7207,-0.88477 -0.7207,-2.56641 0,-1.67578 0.7207,-2.56055 0.72071,-0.88476 2.08594,-0.88476 z"
       id="text169"
       style="font-size:12px;text-anchor:middle"
       aria-label="o" />
    <path
       d="m 402.61621,266.88281 v 0.89649 h -1.22461 q -0.58008,0 -0.80859,0.24023 -0.22266,0.23438 -0.22266,0.83789 v 0.58008 h 2.25586 v 0.83789 h -2.25586 V 276 h -1.07812 v -5.72461 h -1.75196 v -0.83789 h 1.75196 v -0.45703 q 0,-1.07813 0.49218,-1.58789 0.49805,-0.50977 1.54688,-0.50977 z"
       id="text170"
       style="font-size:12px;text-anchor:middle"
       aria-label="f" />
    <path
       d="m 382.72559,284.22461 v 3.28711 h 1.37109 q 0.82031,0 1.27734,-0.4336 0.46289,-0.43359 0.46289,-1.21289 0,-0.77929 -0.45703,-1.20703 -0.45703,-0.43359 -1.2832,-0.43359 z m -1.1836,-0.97266 h 2.55469 q 1.46484,0 2.2207,0.66797 0.75586,0.66211 0.75586,1.94531 0,1.29493 -0.75586,1.95704 -0.75,0.6621 -2.2207,0.6621 h -1.37109 V 292 h -1.1836 z"
       id="text171"
       style="font-size:12px;text-anchor:middle"
       aria-label="P" />
    <path
       d="m 391.99707,286.19336 q -0.82031,0 -1.24219,0.63867 -0.42187,0.63867 -0.42187,1.89258 0,1.24805 0.42187,1.89258 0.42188,0.63867 1.24219,0.63867 0.82617,0 1.24805,-0.63867 0.42187,-0.64453 0.42187,-1.89258 0,-1.25391 -0.42187,-1.89258 -0.42188,-0.63867 -1.24805,-0.63867 z m 0,-0.91406 q 1.36523,0 2.08594,0.88476 0.72656,0.88477 0.72656,2.56055 0,1.68164 -0.7207,2.56641 -0.72071,0.8789 -2.0918,0.8789 -1.36523,0 -2.08594,-0.8789 -0.7207,-0.88477 -0.7207,-2.56641 0,-1.67578 0.7207,-2.56055 0.72071,-0.88476 2.08594,-0.88476 z"
       id="text172"
       style="font-size:12px;text-anchor:middle"
       aria-label="o" />
    <path
       d="m 401.41504,286.27539 v -3.39258 h 1.07812 V 292 h -1.07812 v -0.82617 q -0.26953,0.48633 -0.7207,0.74414 -0.44532,0.25195 -1.03125,0.25195 -1.18946,0 -1.875,-0.91992 -0.67969,-0.92578 -0.67969,-2.54883 0,-1.59961 0.68555,-2.50781 0.68554,-0.91406 1.86914,-0.91406 0.59179,0 1.04296,0.25781 0.45118,0.25195 0.70899,0.73828 z m -3.16992,2.44922 q 0,1.25391 0.39843,1.89258 0.39844,0.63867 1.17774,0.63867 0.7793,0 1.18359,-0.64453 0.41016,-0.64453 0.41016,-1.88672 0,-1.24805 -0.41016,-1.88672 -0.40429,-0.64453 -1.18359,-0.64453 -0.7793,0 -1.17774,0.63867 -0.39843,0.63867 -0.39843,1.89258 z"
       id="text173"
       style="font-size:12px;text-anchor:middle"
       aria-label="d" />
    <path
       d="m 410.08887,285.66602 v 1.05468 q -0.46289,-0.26953 -0.93164,-0.40429 -0.46875,-0.13477 -0.95508,-0.13477 -0.73242,0 -1.0957,0.24023 -0.35743,0.23438 -0.35743,0.72071 0,0.43945 0.26953,0.65625 0.26954,0.21679 1.3418,0.42187 l 0.4336,0.082 q 0.80273,0.15235 1.21289,0.60938 0.41601,0.45703 0.41601,1.18945 0,0.97266 -0.6914,1.52344 -0.69141,0.54492 -1.92188,0.54492 -0.48633,0 -1.01953,-0.10547 -0.5332,-0.0996 -1.1543,-0.30468 v -1.11329 q 0.60352,0.31055 1.1543,0.46875 0.55078,0.15235 1.04297,0.15235 0.71484,0 1.10742,-0.28711 0.39258,-0.29297 0.39258,-0.81445 0,-0.75 -1.43555,-1.03711 l -0.0469,-0.0117 -0.4043,-0.082 q -0.93164,-0.18164 -1.35938,-0.60938 -0.42773,-0.43359 -0.42773,-1.17773 0,-0.94336 0.63867,-1.45313 0.63867,-0.51562 1.82227,-0.51562 0.52734,0 1.01367,0.0996 0.48633,0.0937 0.95508,0.28711 z"
       id="text174"
       style="font-size:12px;text-anchor:middle"
       aria-label="s" />
    <path
       d="m 58.674805,307.68945 q -0.451172,0.24024 -0.925782,0.35742 -0.474609,0.12305 -1.007812,0.12305 -1.681641,0 -2.613281,-1.18945 -0.925782,-1.18945 -0.925782,-3.3457 0,-2.14454 0.931641,-3.33985 0.9375,-1.20117 2.607422,-1.20117 0.533203,0 1.007812,0.12305 0.47461,0.11718 0.925782,0.35742 v 1.21289 q -0.433594,-0.35742 -0.931641,-0.54492 -0.498047,-0.1875 -1.001953,-0.1875 -1.154297,0 -1.728516,0.89062 -0.574218,0.89063 -0.574218,2.68946 0,1.79296 0.574218,2.68359 0.574219,0.89062 1.728516,0.89062 0.515625,0 1.007812,-0.1875 0.498047,-0.1875 0.925782,-0.54492 z"
       id="text175"
       style="font-size:12px;text-anchor:middle"
       aria-label="C" />
    <path
       d="m 63.99707,302.19336 q -0.820312,0 -1.242187,0.63867 -0.421875,0.63867 -0.421875,1.89258 0,1.24805 0.421875,1.89258 0.421875,0.63867 1.242187,0.63867 0.826172,0 1.248047,-0.63867 0.421875,-0.64453 0.421875,-1.89258 0,-1.25391 -0.421875,-1.89258 -0.421875,-0.63867 -1.248047,-0.63867 z m 0,-0.91406 q 1.365235,0 2.085938,0.88476 0.726562,0.88477 0.726562,2.56055 0,1.68164 -0.720703,2.56641 -0.720703,0.8789 -2.091797,0.8789 -1.365234,0 -2.085937,-0.8789 -0.720703,-0.88477 -0.720703,-2.56641 0,-1.67578 0.720703,-2.56055 0.720703,-0.88476 2.085937,-0.88476 z"
       id="text176"
       style="font-size:12px;text-anchor:middle"
       aria-label="o" />
    <path
       d="m 71.99707,302.19336 q -0.820312,0 -1.242187,0.63867 -0.421875,0.63867 -0.421875,1.89258 0,1.24805 0.421875,1.89258 0.421875,0.63867 1.242187,0.63867 0.826172,0 1.248047,-0.63867 0.421875,-0.64453 0.421875,-1.89258 0,-1.25391 -0.421875,-1.89258 -0.421875,-0.63867 -1.248047,-0.63867 z m 0,-0.91406 q 1.365235,0 2.085938,0.88476 0.726562,0.88477 0.726562,2.56055 0,1.68164 -0.720703,2.56641 -0.720703,0.8789 -2.091797,0.8789 -1.365234,0 -2.085937,-0.8789 -0.720703,-0.88477 -0.720703,-2.56641 0,-1.67578 0.720703,-2.56055 0.720703,-0.88476 2.085937,-0.88476 z"
       id="text177"
       style="font-size:12px;text-anchor:middle"
       aria-label="o" />
    <path
       d="m 83.155273,302.79102 q -0.345703,-0.26954 -0.703125,-0.39258 -0.357421,-0.12305 -0.785156,-0.12305 -1.007812,0 -1.541015,0.63281 -0.533204,0.63282 -0.533204,1.82813 V 308 h -1.083984 v -6.5625 h 1.083984 v 1.2832 q 0.269532,-0.69726 0.826172,-1.0664 0.5625,-0.375 1.330078,-0.375 0.398438,0 0.744141,0.0996 0.345703,0.0996 0.662109,0.31054 z"
       id="text178"
       style="font-size:12px;text-anchor:middle"
       aria-label="r" />
    <path
       d="m 89.415039,302.27539 v -3.39258 h 1.078125 V 308 h -1.078125 v -0.82617 q -0.269531,0.48633 -0.720703,0.74414 -0.445313,0.25195 -1.03125,0.25195 -1.189453,0 -1.875,-0.91992 -0.679688,-0.92578 -0.679688,-2.54883 0,-1.59961 0.685547,-2.50781 0.685547,-0.91406 1.869141,-0.91406 0.591797,0 1.042969,0.25781 0.451172,0.25195 0.708984,0.73828 z m -3.169922,2.44922 q 0,1.25391 0.398438,1.89258 0.398437,0.63867 1.177734,0.63867 0.779297,0 1.183594,-0.64453 0.410156,-0.64453 0.410156,-1.88672 0,-1.24805 -0.410156,-1.88672 -0.404297,-0.64453 -1.183594,-0.64453 -0.779297,0 -1.177734,0.63867 -0.398438,0.63867 -0.398438,1.89258 z"
       id="text179"
       style="font-size:12px;text-anchor:middle"
       aria-label="d" />
    <path
       d="m 94.239258,301.46094 h 2.759765 v 5.70117 h 2.138672 V 308 h -5.355468 v -0.83789 h 2.138671 v -4.86328 h -1.68164 z m 1.68164,-2.54883 h 1.078125 v 1.35937 h -1.078125 z"
       id="text180"
       style="font-size:12px;text-anchor:middle"
       aria-label="i" />
    <path
       d="M 106.5459,303.93359 V 308 h -1.08399 v -4.06641 q 0,-0.88476 -0.31054,-1.30078 -0.31055,-0.41601 -0.97266,-0.41601 -0.75586,0 -1.16601,0.53906 -0.4043,0.5332 -0.4043,1.53516 V 308 h -1.07813 v -6.5625 h 1.07813 v 0.98437 q 0.28711,-0.5625 0.7793,-0.8496 0.49218,-0.29297 1.16601,-0.29297 1.00195,0 1.49414,0.66211 0.49805,0.65625 0.49805,1.99218 z"
       id="text181"
       style="font-size:12px;text-anchor:middle"
       aria-label="n" />
    <path
       d="m 112.50098,304.70117 h -0.35743 q -0.94335,0 -1.42382,0.33399 -0.47461,0.32812 -0.47461,0.98437 0,0.5918 0.35742,0.91992 0.35742,0.32813 0.99023,0.32813 0.89063,0 1.40039,-0.61524 0.50977,-0.62109 0.51563,-1.71093 v -0.24024 z m 2.09179,-0.44531 V 308 h -1.08398 v -0.97266 q -0.3457,0.58594 -0.87305,0.86719 -0.52148,0.27539 -1.27148,0.27539 -1.00196,0 -1.59961,-0.5625 -0.59766,-0.56836 -0.59766,-1.51758 0,-1.0957 0.73242,-1.66406 0.73829,-0.56836 2.16211,-0.56836 h 1.44727 v -0.16992 q -0.006,-0.78516 -0.39844,-1.13672 -0.39258,-0.35742 -1.2539,-0.35742 -0.55079,0 -1.11329,0.1582 -0.5625,0.15821 -1.0957,0.46289 v -1.07812 q 0.59766,-0.22852 1.14258,-0.33985 0.55078,-0.11718 1.06641,-0.11718 0.81445,0 1.38867,0.24023 0.58008,0.24024 0.9375,0.7207 0.22265,0.29297 0.3164,0.72657 0.0937,0.42773 0.0937,1.28906 z"
       id="text182"
       style="font-size:12px;text-anchor:middle"
       aria-label="a" />
    <path
       d="m 119.98535,299.57422 v 1.86328 h 2.44922 v 0.83789 h -2.44922 v 3.5625 q 0,0.72656 0.27539,1.01367 0.27539,0.28711 0.96094,0.28711 h 1.21289 V 308 h -1.31836 q -1.21289,0 -1.71094,-0.48633 -0.49804,-0.48633 -0.49804,-1.67578 v -3.5625 h -1.75196 v -0.83789 h 1.75196 v -1.86328 z"
       id="text183"
       style="font-size:12px;text-anchor:middle"
       aria-label="t" />
    <path
       d="m 127.99707,302.19336 q -0.82031,0 -1.24219,0.63867 -0.42187,0.63867 -0.42187,1.89258 0,1.24805 0.42187,1.89258 0.42188,0.63867 1.24219,0.63867 0.82617,0 1.24805,-0.63867 0.42187,-0.64453 0.42187,-1.89258 0,-1.25391 -0.42187,-1.89258 -0.42188,-0.63867 -1.24805,-0.63867 z m 0,-0.91406 q 1.36523,0 2.08594,0.88476 0.72656,0.88477 0.72656,2.56055 0,1.68164 -0.7207,2.56641 -0.72071,0.8789 -2.0918,0.8789 -1.36523,0 -2.08594,-0.8789 -0.7207,-0.88477 -0.7207,-2.56641 0,-1.67578 0.7207,-2.56055 0.72071,-0.88476 2.08594,-0.88476 z"
       id="text184"
       style="font-size:12px;text-anchor:middle"
       aria-label="o" />
    <path
       d="m 139.15527,302.79102 q -0.3457,-0.26954 -0.70312,-0.39258 -0.35742,-0.12305 -0.78516,-0.12305 -1.00781,0 -1.54101,0.63281 -0.53321,0.63282 -0.53321,1.82813 V 308 h -1.08398 v -6.5625 h 1.08398 v 1.2832 q 0.26953,-0.69726 0.82618,-1.0664 0.5625,-0.375 1.33007,-0.375 0.39844,0 0.74414,0.0996 0.34571,0.0996 0.66211,0.31054 z"
       id="text185"
       style="font-size:12px;text-anchor:middle"
       aria-label="r" />
    <path
       d="m 369.39746,298.30859 q -0.7793,1.33594 -1.16601,2.66602 -0.38086,1.32422 -0.38086,2.67187 0,1.3418 0.38086,2.67188 0.38671,1.33008 1.16601,2.67773 h -0.9375 q -0.88476,-1.39453 -1.31836,-2.71289 -0.43359,-1.32422 -0.43359,-2.63672 0,-1.30664 0.43359,-2.63086 0.4336,-1.32421 1.31836,-2.70703 z"
       id="text186"
       style="font-size:12px;text-anchor:middle"
       aria-label="(" />
    <path
       d="m 372.97363,301.4375 h 1.11914 l 1.9043,5.50781 1.91016,-5.50781 h 1.11914 L 376.69434,308 h -1.38868 z"
       id="text187"
       style="font-size:12px;text-anchor:middle"
       aria-label="v" />
    <path
       d="m 382.23926,301.46094 h 2.75976 v 5.70117 h 2.13868 V 308 h -5.35547 v -0.83789 h 2.13867 v -4.86328 h -1.68164 z m 1.68164,-2.54883 h 1.07812 v 1.35937 h -1.07812 z"
       id="text188"
       style="font-size:12px;text-anchor:middle"
       aria-label="i" />
    <path
       d="m 392.50098,304.70117 h -0.35743 q -0.94335,0 -1.42382,0.33399 -0.47461,0.32812 -0.47461,0.98437 0,0.5918 0.35742,0.91992 0.35742,0.32813 0.99023,0.32813 0.89063,0 1.40039,-0.61524 0.50977,-0.62109 0.51563,-1.71093 v -0.24024 z m 2.09179,-0.44531 V 308 h -1.08398 v -0.97266 q -0.3457,0.58594 -0.87305,0.86719 -0.52148,0.27539 -1.27148,0.27539 -1.00196,0 -1.59961,-0.5625 -0.59766,-0.56836 -0.59766,-1.51758 0,-1.0957 0.73242,-1.66406 0.73829,-0.56836 2.16211,-0.56836 h 1.44727 v -0.16992 q -0.006,-0.78516 -0.39844,-1.13672 -0.39258,-0.35742 -1.2539,-0.35742 -0.55079,0 -1.11329,0.1582 -0.5625,0.15821 -1.0957,0.46289 v -1.07812 q 0.59766,-0.22852 1.14258,-0.33985 0.55078,-0.11718 1.06641,-0.11718 0.81445,0 1.38867,0.24023 0.58008,0.24024 0.9375,0.7207 0.22265,0.29297 0.3164,0.72657 0.0937,0.42773 0.0937,1.28906 z"
       id="text189"
       style="font-size:12px;text-anchor:middle"
       aria-label="a" />
    <path
       d="m 406.72559,300.22461 v 3.28711 h 1.37109 q 0.82031,0 1.27734,-0.4336 0.46289,-0.43359 0.46289,-1.21289 0,-0.77929 -0.45703,-1.20703 -0.45703,-0.43359 -1.2832,-0.43359 z m -1.1836,-0.97266 h 2.55469 q 1.46484,0 2.2207,0.66797 0.75586,0.66211 0.75586,1.94531 0,1.29493 -0.75586,1.95704 -0.75,0.6621 -2.2207,0.6621 h -1.37109 V 308 h -1.1836 z"
       id="text190"
       style="font-size:12px;text-anchor:middle"
       aria-label="P" />
    <path
       d="m 415.99707,302.19336 q -0.82031,0 -1.24219,0.63867 -0.42187,0.63867 -0.42187,1.89258 0,1.24805 0.42187,1.89258 0.42188,0.63867 1.24219,0.63867 0.82617,0 1.24805,-0.63867 0.42187,-0.64453 0.42187,-1.89258 0,-1.25391 -0.42187,-1.89258 -0.42188,-0.63867 -1.24805,-0.63867 z m 0,-0.91406 q 1.36523,0 2.08594,0.88476 0.72656,0.88477 0.72656,2.56055 0,1.68164 -0.7207,2.56641 -0.72071,0.8789 -2.0918,0.8789 -1.36523,0 -2.08594,-0.8789 -0.7207,-0.88477 -0.7207,-2.56641 0,-1.67578 0.7207,-2.56055 0.72071,-0.88476 2.08594,-0.88476 z"
       id="text191"
       style="font-size:12px;text-anchor:middle"
       aria-label="o" />
    <path
       d="m 425.41504,302.27539 v -3.39258 h 1.07812 V 308 h -1.07812 v -0.82617 q -0.26953,0.48633 -0.7207,0.74414 -0.44532,0.25195 -1.03125,0.25195 -1.18946,0 -1.875,-0.91992 -0.67969,-0.92578 -0.67969,-2.54883 0,-1.59961 0.68555,-2.50781 0.68554,-0.91406 1.86914,-0.91406 0.59179,0 1.04296,0.25781 0.45118,0.25195 0.70899,0.73828 z m -3.16992,2.44922 q 0,1.25391 0.39843,1.89258 0.39844,0.63867 1.17774,0.63867 0.7793,0 1.18359,-0.64453 0.41016,-0.64453 0.41016,-1.88672 0,-1.24805 -0.41016,-1.88672 -0.40429,-0.64453 -1.18359,-0.64453 -0.7793,0 -1.17774,0.63867 -0.39843,0.63867 -0.39843,1.89258 z"
       id="text192"
       style="font-size:12px;text-anchor:middle"
       aria-label="d" />
    <path
       d="M 442.5459,303.93359 V 308 h -1.08399 v -4.06641 q 0,-0.88476 -0.31054,-1.30078 -0.31055,-0.41601 -0.97266,-0.41601 -0.75586,0 -1.16601,0.53906 -0.4043,0.5332 -0.4043,1.53516 V 308 h -1.07813 v -6.5625 h 1.07813 v 0.98437 q 0.28711,-0.5625 0.7793,-0.8496 0.49218,-0.29297 1.16601,-0.29297 1.00195,0 1.49414,0.66211 0.49805,0.65625 0.49805,1.99218 z"
       id="text193"
       style="font-size:12px;text-anchor:middle"
       aria-label="n" />
    <path
       d="m 450.9502,304.17969 v 0.52734 h -4.66993 v 0.0352 q -0.0469,1.34179 0.50977,1.92773 0.5625,0.58594 1.58203,0.58594 0.51563,0 1.07813,-0.16406 0.5625,-0.16407 1.20117,-0.49805 v 1.07227 q -0.61524,0.25195 -1.18946,0.375 -0.56836,0.1289 -1.10156,0.1289 -1.5293,0 -2.39062,-0.91406 -0.86133,-0.91992 -0.86133,-2.53125 0,-1.57031 0.84375,-2.50781 0.84375,-0.9375 2.25,-0.9375 1.2539,0 1.97461,0.84961 0.72656,0.84961 0.77344,2.05078 z m -1.07813,-0.31641 q -0.0703,-0.67969 -0.49805,-1.17187 -0.42187,-0.49805 -1.21875,-0.49805 -0.77929,0 -1.2832,0.51562 -0.50391,0.51563 -0.55078,1.16016 z"
       id="text194"
       style="font-size:12px;text-anchor:middle"
       aria-label="e" />
    <path
       d="m 455.98535,299.57422 v 1.86328 h 2.44922 v 0.83789 h -2.44922 v 3.5625 q 0,0.72656 0.27539,1.01367 0.27539,0.28711 0.96094,0.28711 h 1.21289 V 308 h -1.31836 q -1.21289,0 -1.71094,-0.48633 -0.49804,-0.48633 -0.49804,-1.67578 v -3.5625 h -1.75196 v -0.83789 h 1.75196 v -1.86328 z"
       id="text195"
       style="font-size:12px;text-anchor:middle"
       aria-label="t" />
    <path
       d="m 460.3877,301.4375 h 1.0664 l 1.14258,5.30273 0.9375,-3.38671 h 0.91992 l 0.94922,3.38671 1.14258,-5.30273 h 1.0664 L 466.07715,308 H 465.0459 L 463.99707,304.40234 462.9541,308 h -1.03125 z"
       id="text196"
       style="font-size:12px;text-anchor:middle"
       aria-label="w" />
    <path
       d="m 471.99707,302.19336 q -0.82031,0 -1.24219,0.63867 -0.42187,0.63867 -0.42187,1.89258 0,1.24805 0.42187,1.89258 0.42188,0.63867 1.24219,0.63867 0.82617,0 1.24805,-0.63867 0.42187,-0.64453 0.42187,-1.89258 0,-1.25391 -0.42187,-1.89258 -0.42188,-0.63867 -1.24805,-0.63867 z m 0,-0.91406 q 1.36523,0 2.08594,0.88476 0.72656,0.88477 0.72656,2.56055 0,1.68164 -0.7207,2.56641 -0.72071,0.8789 -2.0918,0.8789 -1.36523,0 -2.08594,-0.8789 -0.7207,-0.88477 -0.7207,-2.56641 0,-1.67578 0.7207,-2.56055 0.72071,-0.88476 2.08594,-0.88476 z"
       id="text197"
       style="font-size:12px;text-anchor:middle"
       aria-label="o" />
    <path
       d="m 483.15527,302.79102 q -0.3457,-0.26954 -0.70312,-0.39258 -0.35742,-0.12305 -0.78516,-0.12305 -1.00781,0 -1.54101,0.63281 -0.53321,0.63282 -0.53321,1.82813 V 308 h -1.08398 v -6.5625 h 1.08398 v 1.2832 q 0.26953,-0.69726 0.82618,-1.0664 0.5625,-0.375 1.33007,-0.375 0.39844,0 0.74414,0.0996 0.34571,0.0996 0.66211,0.31054 z"
       id="text198"
       style="font-size:12px;text-anchor:middle"
       aria-label="r" />
    <path
       d="m 485.77051,298.88281 h 1.11328 v 5.2793 l 2.83008,-2.72461 h 1.3125 l -2.58399,2.47266 2.98828,4.08984 h -1.31836 l -2.42578,-3.38672 -0.80273,0.75586 V 308 h -1.11328 z"
       id="text199"
       style="font-size:12px;text-anchor:middle"
       aria-label="k" />
    <path
       d="m 494.42676,298.30859 h 0.9375 q 0.88476,1.38282 1.31836,2.70703 0.43359,1.32422 0.43359,2.63086 0,1.31836 -0.43359,2.64258 -0.4336,1.32422 -1.31836,2.70703 h -0.9375 q 0.77929,-1.35937 1.16015,-2.68945 0.38672,-1.33008 0.38672,-2.66016 0,-1.33593 -0.38672,-2.66601 -0.38086,-1.33008 -1.16015,-2.67188 z"
       id="text200"
       style="font-size:12px;text-anchor:middle"
       aria-label=")" />
    <path
       d="m 218.6748,355.68945 q -0.45117,0.24024 -0.92578,0.35742 -0.47461,0.12305 -1.00781,0.12305 -1.68164,0 -2.61328,-1.18945 -0.92578,-1.18945 -0.92578,-3.3457 0,-2.14454 0.93164,-3.33985 0.9375,-1.20117 2.60742,-1.20117 0.5332,0 1.00781,0.12305 0.47461,0.11718 0.92578,0.35742 v 1.21289 q -0.43359,-0.35742 -0.93164,-0.54492 -0.49804,-0.1875 -1.00195,-0.1875 -1.1543,0 -1.72851,0.89062 -0.57422,0.89063 -0.57422,2.68946 0,1.79296 0.57422,2.68359 0.57421,0.89062 1.72851,0.89062 0.51563,0 1.00781,-0.1875 0.49805,-0.1875 0.92578,-0.54492 z"
       id="text201"
       style="font-size:12px;text-anchor:middle"
       aria-label="C" />
    <path
       d="m 223.99707,350.19336 q -0.82031,0 -1.24219,0.63867 -0.42187,0.63867 -0.42187,1.89258 0,1.24805 0.42187,1.89258 0.42188,0.63867 1.24219,0.63867 0.82617,0 1.24805,-0.63867 0.42187,-0.64453 0.42187,-1.89258 0,-1.25391 -0.42187,-1.89258 -0.42188,-0.63867 -1.24805,-0.63867 z m 0,-0.91406 q 1.36523,0 2.08594,0.88476 0.72656,0.88477 0.72656,2.56055 0,1.68164 -0.7207,2.56641 -0.72071,0.8789 -2.0918,0.8789 -1.36523,0 -2.08594,-0.8789 -0.7207,-0.88477 -0.7207,-2.56641 0,-1.67578 0.7207,-2.56055 0.72071,-0.88476 2.08594,-0.88476 z"
       id="text202"
       style="font-size:12px;text-anchor:middle"
       aria-label="o" />
    <path
       d="m 232.34863,350.10547 q 0.19922,-0.42188 0.50391,-0.6211 0.31055,-0.20507 0.74414,-0.20507 0.79102,0 1.11328,0.61523 0.32813,0.60938 0.32813,2.30274 V 356 h -0.98438 v -3.75586 q 0,-1.38867 -0.1582,-1.72266 -0.15235,-0.33984 -0.5625,-0.33984 -0.46875,0 -0.64453,0.36328 -0.16993,0.35742 -0.16993,1.69922 V 356 h -0.98437 v -3.75586 q 0,-1.40625 -0.16992,-1.73437 -0.16406,-0.32813 -0.59766,-0.32813 -0.42773,0 -0.59765,0.36328 -0.16407,0.35742 -0.16407,1.69922 V 356 h -0.97851 v -6.5625 h 0.97851 V 350 q 0.19336,-0.35156 0.48047,-0.5332 0.29297,-0.1875 0.66211,-0.1875 0.44531,0 0.73828,0.20507 0.29883,0.20508 0.46289,0.6211 z"
       id="text203"
       style="font-size:12px;text-anchor:middle"
       aria-label="m" />
    <path
       d="m 238.58496,355.17383 v 3.32226 h -1.08398 v -9.05859 h 1.08398 v 0.83789 q 0.26953,-0.48633 0.71484,-0.73828 0.45118,-0.25781 1.03711,-0.25781 1.18946,0 1.86329,0.91992 0.67968,0.91992 0.67968,2.54883 0,1.59961 -0.67968,2.51367 -0.67969,0.9082 -1.86329,0.9082 -0.59765,0 -1.04882,-0.25195 -0.44532,-0.25781 -0.70313,-0.74414 z m 3.16406,-2.44922 q 0,-1.25391 -0.39843,-1.89258 -0.39258,-0.63867 -1.17188,-0.63867 -0.78516,0 -1.18945,0.64453 -0.4043,0.63867 -0.4043,1.88672 0,1.24219 0.4043,1.88672 0.40429,0.64453 1.18945,0.64453 0.7793,0 1.17188,-0.63867 0.39843,-0.63867 0.39843,-1.89258 z"
       id="text204"
       style="font-size:12px;text-anchor:middle"
       aria-label="p" />
    <path
       d="m 247.99707,350.19336 q -0.82031,0 -1.24219,0.63867 -0.42187,0.63867 -0.42187,1.89258 0,1.24805 0.42187,1.89258 0.42188,0.63867 1.24219,0.63867 0.82617,0 1.24805,-0.63867 0.42187,-0.64453 0.42187,-1.89258 0,-1.25391 -0.42187,-1.89258 -0.42188,-0.63867 -1.24805,-0.63867 z m 0,-0.91406 q 1.36523,0 2.08594,0.88476 0.72656,0.88477 0.72656,2.56055 0,1.68164 -0.7207,2.56641 -0.72071,0.8789 -2.0918,0.8789 -1.36523,0 -2.08594,-0.8789 -0.7207,-0.88477 -0.7207,-2.56641 0,-1.67578 0.7207,-2.56055 0.72071,-0.88476 2.08594,-0.88476 z"
       id="text205"
       style="font-size:12px;text-anchor:middle"
       aria-label="o" />
    <path
       d="m 258.08887,349.66602 v 1.05468 q -0.46289,-0.26953 -0.93164,-0.40429 -0.46875,-0.13477 -0.95508,-0.13477 -0.73242,0 -1.0957,0.24023 -0.35743,0.23438 -0.35743,0.72071 0,0.43945 0.26953,0.65625 0.26954,0.21679 1.3418,0.42187 l 0.4336,0.082 q 0.80273,0.15235 1.21289,0.60938 0.41601,0.45703 0.41601,1.18945 0,0.97266 -0.6914,1.52344 -0.69141,0.54492 -1.92188,0.54492 -0.48633,0 -1.01953,-0.10547 -0.5332,-0.0996 -1.1543,-0.30468 v -1.11329 q 0.60352,0.31055 1.1543,0.46875 0.55078,0.15235 1.04297,0.15235 0.71484,0 1.10742,-0.28711 0.39258,-0.29297 0.39258,-0.81445 0,-0.75 -1.43555,-1.03711 l -0.0469,-0.0117 -0.4043,-0.082 q -0.93164,-0.18164 -1.35938,-0.60938 -0.42773,-0.43359 -0.42773,-1.17773 0,-0.94336 0.63867,-1.45313 0.63867,-0.51562 1.82227,-0.51562 0.52734,0 1.01367,0.0996 0.48633,0.0937 0.95508,0.28711 z"
       id="text206"
       style="font-size:12px;text-anchor:middle"
       aria-label="s" />
    <path
       d="m 262.23926,349.46094 h 2.75976 v 5.70117 h 2.13868 V 356 h -5.35547 v -0.83789 h 2.13867 v -4.86328 h -1.68164 z m 1.68164,-2.54883 h 1.07812 v 1.35937 h -1.07812 z"
       id="text207"
       style="font-size:12px;text-anchor:middle"
       aria-label="i" />
    <path
       d="m 271.98535,347.57422 v 1.86328 h 2.44922 v 0.83789 h -2.44922 v 3.5625 q 0,0.72656 0.27539,1.01367 0.27539,0.28711 0.96094,0.28711 h 1.21289 V 356 h -1.31836 q -1.21289,0 -1.71094,-0.48633 -0.49804,-0.48633 -0.49804,-1.67578 v -3.5625 h -1.75196 v -0.83789 h 1.75196 v -1.86328 z"
       id="text208"
       style="font-size:12px;text-anchor:middle"
       aria-label="t" />
    <path
       d="m 282.9502,352.17969 v 0.52734 h -4.66993 v 0.0352 q -0.0469,1.34179 0.50977,1.92773 0.5625,0.58594 1.58203,0.58594 0.51563,0 1.07813,-0.16406 0.5625,-0.16407 1.20117,-0.49805 v 1.07227 q -0.61524,0.25195 -1.18946,0.375 -0.56836,0.1289 -1.10156,0.1289 -1.5293,0 -2.39062,-0.91406 -0.86133,-0.91992 -0.86133,-2.53125 0,-1.57031 0.84375,-2.50781 0.84375,-0.9375 2.25,-0.9375 1.2539,0 1.97461,0.84961 0.72656,0.84961 0.77344,2.05078 z m -1.07813,-0.31641 q -0.0703,-0.67969 -0.49805,-1.17187 -0.42187,-0.49805 -1.21875,-0.49805 -0.77929,0 -1.2832,0.51562 -0.50391,0.51563 -0.55078,1.16016 z"
       id="text209"
       style="font-size:12px;text-anchor:middle"
       aria-label="e" />
    <path
       d="m 294.94238,355.02734 q 1.49414,0 2.08594,-0.73242 0.5918,-0.73828 0.5918,-2.66015 0,-1.93946 -0.5918,-2.67188 -0.58594,-0.73828 -2.08594,-0.73828 h -0.5625 v 6.80273 z m 0.0234,-7.77539 q 2.00391,0 2.95313,1.06641 0.94921,1.06641 0.94921,3.31641 0,2.23828 -0.94921,3.30468 Q 296.96973,356 294.96582,356 h -1.77539 v -8.74805 z"
       id="text210"
       style="font-size:12px;text-anchor:middle"
       aria-label="D" />
    <path
       d="m 306.9502,352.17969 v 0.52734 h -4.66993 v 0.0352 q -0.0469,1.34179 0.50977,1.92773 0.5625,0.58594 1.58203,0.58594 0.51563,0 1.07813,-0.16406 0.5625,-0.16407 1.20117,-0.49805 v 1.07227 q -0.61524,0.25195 -1.18946,0.375 -0.56836,0.1289 -1.10156,0.1289 -1.5293,0 -2.39062,-0.91406 -0.86133,-0.91992 -0.86133,-2.53125 0,-1.57031 0.84375,-2.50781 0.84375,-0.9375 2.25,-0.9375 1.2539,0 1.97461,0.84961 0.72656,0.84961 0.77344,2.05078 z m -1.07813,-0.31641 q -0.0703,-0.67969 -0.49805,-1.17187 -0.42187,-0.49805 -1.21875,-0.49805 -0.77929,0 -1.2832,0.51562 -0.50391,0.51563 -0.55078,1.16016 z"
       id="text211"
       style="font-size:12px;text-anchor:middle"
       aria-label="e" />
    <path
       d="m 308.97363,349.4375 h 1.11914 l 1.9043,5.50781 1.91016,-5.50781 h 1.11914 L 312.69434,356 h -1.38868 z"
       id="text212"
       style="font-size:12px;text-anchor:middle"
       aria-label="v" />
    <path
       d="m 318.23926,349.46094 h 2.75976 v 5.70117 h 2.13868 V 356 h -5.35547 v -0.83789 h 2.13867 v -4.86328 h -1.68164 z m 1.68164,-2.54883 h 1.07812 v 1.35937 h -1.07812 z"
       id="text213"
       style="font-size:12px;text-anchor:middle"
       aria-label="i" />
    <path
       d="m 330.60449,355.66602 q -0.43359,0.25195 -0.89648,0.375 -0.45703,0.1289 -0.9375,0.1289 -1.52344,0 -2.38477,-0.91406 -0.85547,-0.91406 -0.85547,-2.53125 0,-1.61719 0.85547,-2.53125 0.86133,-0.91406 2.38477,-0.91406 0.47461,0 0.92578,0.12304 0.45117,0.12305 0.9082,0.38086 v 1.13086 q -0.42773,-0.38086 -0.86133,-0.55078 -0.42773,-0.16992 -0.97265,-0.16992 -1.01367,0 -1.5586,0.65625 -0.54492,0.65625 -0.54492,1.875 0,1.21289 0.54492,1.875 0.55079,0.65625 1.5586,0.65625 0.5625,0 1.00781,-0.16992 0.44531,-0.17578 0.82617,-0.53907 z"
       id="text214"
       style="font-size:12px;text-anchor:middle"
       aria-label="c" />
    <path
       d="m 338.9502,352.17969 v 0.52734 h -4.66993 v 0.0352 q -0.0469,1.34179 0.50977,1.92773 0.5625,0.58594 1.58203,0.58594 0.51563,0 1.07813,-0.16406 0.5625,-0.16407 1.20117,-0.49805 v 1.07227 q -0.61524,0.25195 -1.18946,0.375 -0.56836,0.1289 -1.10156,0.1289 -1.5293,0 -2.39062,-0.91406 -0.86133,-0.91992 -0.86133,-2.53125 0,-1.57031 0.84375,-2.50781 0.84375,-0.9375 2.25,-0.9375 1.2539,0 1.97461,0.84961 0.72656,0.84961 0.77344,2.05078 z m -1.07813,-0.31641 q -0.0703,-0.67969 -0.49805,-1.17187 -0.42187,-0.49805 -1.21875,-0.49805 -0.77929,0 -1.2832,0.51562 -0.50391,0.51563 -0.55078,1.16016 z"
       id="text215"
       style="font-size:12px;text-anchor:middle"
       aria-label="e" />
  </g>
</svg>
