<svg width="1776" height="746" viewBox="0 0 1776 746" fill="none" xmlns="http://www.w3.org/2000/svg">
<rect width="1776" height="746" fill="white"/>
<path d="M1198 282L1286 222.03L1198 162L1110 222.03L1198 282Z" fill="black" fill-opacity="0.4"/>
<path d="M1313.5 205L1401 144.03L1313.5 83L1226 144.03L1313.5 205Z" fill="black" fill-opacity="0.4"/>
<path d="M738 439L826 378.03L738 317L650 378.03L738 439Z" fill="black" fill-opacity="0.4"/>
<path d="M624 518L712 457.03L624 396L536 457.03L624 518Z" fill="black" fill-opacity="0.4"/>
<path d="M1313.5 362L1401 300.53L1313.5 239L1226 300.53L1313.5 362Z" fill="black" fill-opacity="0.4"/>
<path d="M624 674L712 613.03L624 552L536 613.03L624 674Z" fill="black" fill-opacity="0.4"/>
<path d="M1084 518L1172 457.03L1084 396L996 457.03L1084 518Z" fill="black" fill-opacity="0.4"/>
<path d="M738 595L826 535.03L738 475L650 535.03L738 595Z" fill="black" fill-opacity="0.4"/>
<path d="M508.5 439L596 378.03L508.5 317L421 378.03L508.5 439Z" fill="black" fill-opacity="0.4"/>
<path fill-rule="evenodd" clip-rule="evenodd" d="M1089.69 298.155L852.721 451.554L1045.51 578.213L1041.94 583.646L840.822 451.514L1077.92 298.027L735.447 65.5915C734.869 65.1994 734.114 65.1883 733.525 65.5633L615.626 140.616L612.135 135.133L730.034 60.08C732.811 58.3122 736.373 58.3645 739.097 60.2132L1089.69 298.155Z" fill="#75FB7A"/>
<path fill-rule="evenodd" clip-rule="evenodd" d="M977.065 460.546L974.59 458.882C972.832 457.701 972.819 455.12 974.564 453.92L977.074 452.195L974.242 448.074L971.732 449.8C967.078 452.999 967.114 459.882 971.801 463.032L974.276 464.696L977.065 460.546ZM982.095 448.743L979.263 444.623L984.284 441.172L987.116 445.292L982.095 448.743ZM992.137 441.841L989.305 437.72L994.326 434.269L997.158 438.389L992.137 441.841ZM1002.18 434.938L999.347 430.818L1004.37 427.366L1007.2 431.487L1002.18 434.938ZM1012.22 428.035L1009.39 423.915L1014.41 420.463L1017.24 424.584L1012.22 428.035ZM1022.26 421.133L1019.43 417.012L1024.45 413.561L1027.28 417.681L1022.26 421.133ZM1032.31 414.23L1029.47 410.109L1034.49 406.658L1037.33 410.779L1032.31 414.23ZM1042.35 407.327L1039.52 403.207L1044.54 399.755L1047.37 403.876L1042.35 407.327ZM1052.39 400.424L1049.56 396.304L1054.58 392.853L1057.41 396.973L1052.39 400.424ZM1062.43 393.522L1059.6 389.401L1064.62 385.95L1067.45 390.07L1062.43 393.522ZM1072.47 386.619L1069.64 382.499L1074.66 379.047L1077.49 383.168L1072.47 386.619ZM1082.52 379.716L1079.68 375.596L1084.7 372.145L1087.54 376.265L1082.52 379.716ZM1092.56 372.814L1089.73 368.693L1094.75 365.242L1097.58 369.362L1092.56 372.814ZM1102.6 365.911L1099.77 361.791L1104.79 358.339L1107.62 362.46L1102.6 365.911ZM1112.64 359.008L1109.81 354.888L1114.83 351.437L1117.66 355.557L1112.64 359.008ZM1122.68 352.106L1119.85 347.985L1124.87 344.534L1127.71 348.654L1122.68 352.106ZM1132.73 345.203L1129.89 341.083L1134.91 337.631L1137.75 341.752L1132.73 345.203ZM1142.77 338.3L1139.94 334.18L1144.96 330.729L1147.79 334.849L1142.77 338.3ZM1152.81 331.398L1149.98 327.277L1155 323.826L1157.83 327.946L1152.81 331.398ZM1162.85 324.495L1160.02 320.375L1165.04 316.923L1167.87 321.044L1162.85 324.495ZM1172.89 317.592L1170.06 313.472L1175.08 310.02L1177.92 314.141L1172.89 317.592ZM1182.94 310.69L1180.1 306.569L1185.13 303.118L1187.96 307.238L1182.94 310.69ZM1192.98 303.787L1190.15 299.666L1190.24 299.605L1190.16 299.556L1192.96 295.411L1195.47 297.102C1197.22 298.285 1197.23 300.863 1195.49 302.061L1192.98 303.787ZM1187.95 292.029L1185.15 296.174L1180.14 292.792L1182.93 288.647L1187.95 292.029ZM1177.92 285.265L1175.12 289.411L1170.11 286.029L1172.9 281.884L1177.92 285.265ZM1167.89 278.502L1165.09 282.647L1160.08 279.265L1162.87 275.12L1167.89 278.502ZM1157.86 271.738L1155.07 275.883L1150.05 272.502L1152.85 268.356L1157.86 271.738ZM1147.83 264.974L1145.04 269.12L1140.02 265.738L1142.82 261.593L1147.83 264.974ZM1137.8 258.211L1135.01 262.356L1129.99 258.974L1132.79 254.829L1137.8 258.211ZM1127.78 251.447L1124.98 255.592L1119.97 252.211L1122.76 248.065L1127.78 251.447ZM1117.75 244.684L1114.95 248.829L1109.94 245.447L1112.73 241.302L1117.75 244.684ZM1107.72 237.92L1104.92 242.065L1099.91 238.683L1102.7 234.538L1107.72 237.92ZM1097.69 231.156L1094.89 235.302L1089.88 231.92L1092.68 227.774L1097.69 231.156ZM1087.66 224.393L1084.87 228.538L1079.85 225.156L1082.65 221.011L1087.66 224.393ZM1077.63 217.629L1074.84 221.774L1069.82 218.392L1072.62 214.247L1077.63 217.629ZM1067.61 210.865L1064.81 215.011L1059.8 211.629L1062.59 207.484L1067.61 210.865ZM1057.58 204.102L1054.78 208.247L1049.77 204.865L1052.56 200.72L1057.58 204.102ZM1047.55 197.338L1044.75 201.483L1039.74 198.102L1042.53 193.956L1047.55 197.338ZM1037.52 190.574L1034.73 194.72L1029.71 191.338L1032.51 187.193L1037.52 190.574ZM1027.49 183.811L1024.7 187.956L1019.68 184.574L1022.48 180.429L1027.49 183.811ZM1017.46 177.047L1014.67 181.192L1009.65 177.811L1012.45 173.665L1017.46 177.047ZM1007.44 170.284L1004.64 174.429L999.626 171.047L1002.42 166.902L1007.44 170.284ZM997.408 163.52L994.612 167.665L989.598 164.283L992.393 160.138L997.408 163.52ZM987.379 156.756L984.583 160.902L979.569 157.52L982.365 153.374L987.379 156.756ZM977.351 149.993L974.555 154.138L969.541 150.756L972.337 146.611L977.351 149.993ZM967.322 143.229L964.527 147.374L959.512 143.992L962.308 139.847L967.322 143.229ZM957.294 136.465L954.498 140.611L949.484 137.229L952.28 133.083L957.294 136.465ZM947.266 129.702L944.47 133.847L939.456 130.465L942.252 126.32L947.266 129.702ZM937.237 122.938L934.442 127.083L929.427 123.701L932.223 119.556L937.237 122.938ZM927.209 116.174L924.413 120.32L919.399 116.938L922.195 112.792L927.209 116.174ZM917.181 109.411L914.385 113.556L909.371 110.174L912.167 106.029L917.181 109.411ZM907.152 102.647L904.357 106.792L899.342 103.41L902.138 99.2652L907.152 102.647ZM897.124 95.8834L894.328 100.029L889.314 96.6469L892.11 92.5015L897.124 95.8834ZM887.096 89.1197L884.3 93.265L879.286 89.8832L882.081 85.7379L887.096 89.1197ZM877.067 82.3561L874.271 86.5013L869.257 83.1195L872.053 78.9742L877.067 82.3561ZM867.039 75.5924L864.243 79.7377L859.229 76.3559L862.025 72.2106L867.039 75.5924ZM857.011 68.8287L854.215 72.9741L852.833 72.0417L851.442 72.9904L848.624 68.8598L851.136 67.1468C852.151 66.4545 853.485 66.451 854.504 67.1379L857.011 68.8287ZM843.602 72.2858L846.419 76.4164L841.396 79.8424L838.579 75.7119L843.602 72.2858ZM833.556 79.1379L836.374 83.2684L831.351 86.6945L828.534 82.5639L833.556 79.1379ZM823.511 85.9899L826.328 90.1205L821.306 93.5465L818.488 89.416L823.511 85.9899ZM813.466 92.842L816.283 96.9725L811.26 100.399L808.443 96.268L813.466 92.842ZM803.42 99.694L806.238 103.825L801.215 107.251L798.398 103.12L803.42 99.694ZM793.375 106.546L796.192 110.677L791.17 114.103L788.352 109.972L793.375 106.546ZM783.33 113.398L786.147 117.529L781.124 120.955L778.307 116.824L783.33 113.398ZM773.284 120.25L776.102 124.381L771.079 127.807L768.262 123.676L773.284 120.25ZM763.239 127.102L766.056 131.233L761.034 134.659L758.216 130.528L763.239 127.102ZM753.194 133.954L756.011 138.085L750.988 141.511L748.171 137.38L753.194 133.954ZM743.148 140.806L745.966 144.937L745.879 144.996L745.951 145.045L743.137 149.178L740.639 147.478C738.891 146.288 738.89 143.711 740.637 142.519L743.148 140.806ZM748.132 152.578L750.946 148.445L755.941 151.846L753.127 155.979L748.132 152.578ZM758.123 159.38L760.936 155.247L765.932 158.647L763.118 162.78L758.123 159.38ZM768.113 166.181L770.927 162.048L775.922 165.448L773.108 169.581L768.113 166.181ZM778.104 172.982L780.917 168.849L785.913 172.249L783.099 176.383L778.104 172.982ZM788.094 179.783L790.908 175.65L795.903 179.051L793.089 183.184L788.094 179.783ZM798.085 186.584L800.898 182.451L805.894 185.852L803.08 189.985L798.085 186.584ZM808.075 193.386L810.889 189.252L815.884 192.653L813.07 196.786L808.075 193.386ZM818.066 200.187L820.879 196.054L825.875 199.454L823.061 203.587L818.066 200.187ZM828.056 206.988L830.87 202.855L835.865 206.255L833.051 210.389L828.056 206.988ZM838.047 213.789L840.86 209.656L845.856 213.057L843.042 217.19L838.047 213.789ZM848.037 220.59L850.851 216.457L855.846 219.858L853.032 223.991L848.037 220.59ZM858.028 227.392L860.841 223.258L865.837 226.659L863.023 230.792L858.028 227.392ZM868.018 234.193L870.832 230.06L875.827 233.46L873.013 237.593L868.018 234.193ZM878.009 240.994L880.822 236.861L885.818 240.261L883.004 244.394L878.009 240.994ZM887.999 247.795L890.813 243.662L895.808 247.062L892.994 251.196L887.999 247.795ZM897.99 254.596L900.803 250.463L905.799 253.864L902.985 257.997L897.99 254.596ZM907.98 261.397L910.794 257.264L915.789 260.665L912.975 264.798L907.98 261.397ZM917.971 268.199L920.784 264.065L925.78 267.466L922.966 271.599L917.971 268.199ZM927.961 275L930.775 270.867L935.77 274.267L932.956 278.4L927.961 275ZM937.952 281.801L940.765 277.668L945.761 281.068L942.947 285.202L937.952 281.801ZM947.942 288.602L950.756 284.469L955.751 287.87L952.937 292.003L947.942 288.602ZM957.933 295.403L960.746 291.27L963.244 292.971C967.889 296.132 967.912 302.972 963.289 306.166L960.791 307.892L957.949 303.778L960.447 302.052C962.181 300.854 962.172 298.289 960.43 297.104L957.933 295.403ZM952.951 307.231L955.793 311.344L950.796 314.797L947.954 310.683L952.951 307.231ZM942.956 314.136L945.798 318.25L940.8 321.702L937.958 317.588L942.956 314.136ZM932.961 321.041L935.803 325.155L930.805 328.607L927.963 324.493L932.961 321.041ZM922.966 327.946L925.808 332.06L920.81 335.512L917.968 331.399L922.966 327.946ZM912.971 334.851L915.813 338.965L910.815 342.417L907.973 338.304L912.971 334.851ZM902.976 341.756L905.818 345.87L900.82 349.323L897.978 345.209L902.976 341.756ZM892.981 348.661L895.823 352.775L890.825 356.228L887.983 352.114L892.981 348.661ZM882.985 355.566L885.827 359.68L880.83 363.133L877.988 359.019L882.985 355.566ZM872.99 362.472L875.832 366.585L870.835 370.038L867.993 365.924L872.99 362.472ZM862.995 369.377L865.837 373.49L860.84 376.943L857.998 372.829L862.995 369.377ZM853 376.282L855.842 380.396L850.845 383.848L848.003 379.734L853 376.282ZM843.005 383.187L845.847 387.301L840.85 390.753L838.008 386.639L843.005 383.187ZM833.01 390.092L835.852 394.206L830.854 397.658L828.012 393.544L833.01 390.092ZM823.015 396.997L825.857 401.111L820.859 404.563L818.017 400.45L823.015 396.997ZM813.02 403.902L815.862 408.016L810.864 411.468L808.022 407.355L813.02 403.902ZM803.025 410.807L805.867 414.921L800.869 418.374L798.027 414.26L803.025 410.807ZM793.03 417.712L795.872 421.826L790.874 425.279L788.032 421.165L793.03 417.712ZM783.035 424.617L785.877 428.731L780.879 432.184L778.037 428.07L783.035 424.617ZM773.039 431.523L775.881 435.636L770.884 439.089L768.042 434.975L773.039 431.523ZM763.044 438.428L765.886 442.541L760.889 445.994L758.047 441.88L763.044 438.428ZM753.049 445.333L755.891 449.447L750.894 452.899L748.052 448.785L753.049 445.333ZM743.054 452.238L740.555 453.964C738.834 455.154 738.828 457.696 740.544 458.893L742.98 460.592L745.841 456.492L745.768 456.44L745.896 456.352L743.054 452.238ZM747.853 463.991L750.713 459.89L755.586 463.289L752.725 467.39L747.853 463.991ZM757.597 470.789L760.458 466.688L765.33 470.087L762.47 474.188L757.597 470.789ZM767.342 477.587L770.203 473.486L775.075 476.885L772.214 480.986L767.342 477.587ZM777.087 484.385L779.947 480.284L784.82 483.683L781.959 487.784L777.087 484.385ZM786.831 491.183L789.692 487.082L794.564 490.481L791.704 494.581L786.831 491.183ZM796.576 497.98L799.437 493.88L804.309 497.279L801.448 501.379L796.576 497.98ZM806.321 504.778L809.181 500.677L814.054 504.076L811.193 508.177L806.321 504.778ZM816.065 511.576L818.926 507.475L823.798 510.874L820.938 514.975L816.065 511.576ZM825.81 518.374L828.671 514.273L833.543 517.672L830.682 521.773L825.81 518.374ZM835.555 525.172L838.415 521.071L843.288 524.47L840.427 528.571L835.555 525.172ZM845.299 531.97L848.16 527.869L853.032 531.268L850.172 535.368L845.299 531.97ZM855.044 538.767L857.905 534.667L862.777 538.066L859.916 542.166L855.044 538.767ZM864.789 545.565L867.649 541.464L872.522 544.863L869.661 548.964L864.789 545.565ZM874.533 552.363L877.394 548.262L882.266 551.661L879.406 555.762L874.533 552.363ZM884.278 559.161L887.139 555.06L892.011 558.459L889.15 562.56L884.278 559.161ZM894.022 565.959L896.883 561.858L901.756 565.257L898.895 569.358L894.022 565.959ZM903.767 572.757L906.628 568.656L911.5 572.055L908.639 576.155L903.767 572.757ZM913.512 579.554L916.372 575.454L921.245 578.852L918.384 582.953L913.512 579.554ZM923.256 586.352L926.117 582.251L930.989 585.65L928.129 589.751L923.256 586.352ZM933.001 593.15L935.862 589.049L940.734 592.448L937.873 596.549L933.001 593.15ZM942.746 599.948L945.606 595.847L950.479 599.246L947.618 603.347L942.746 599.948ZM952.49 606.746L955.351 602.645L960.223 606.044L957.363 610.145L952.49 606.746ZM962.235 613.543L965.096 609.443L969.968 612.842L967.107 616.942L962.235 613.543ZM971.98 620.341L974.84 616.241L979.713 619.639L976.852 623.74L971.98 620.341ZM981.724 627.139L984.585 623.038L989.457 626.437L986.597 630.538L981.724 627.139ZM991.469 633.937L994.33 629.836L999.202 633.235L996.341 637.336L991.469 633.937ZM1001.21 640.735L1004.07 636.634L1008.95 640.033L1006.09 644.134L1001.21 640.735ZM1010.96 647.533L1013.82 643.432L1018.69 646.831L1015.83 650.932L1010.96 647.533ZM1020.7 654.331L1023.56 650.23L1028.44 653.629L1025.58 657.729L1020.7 654.331ZM1030.45 661.128L1033.31 657.028L1038.18 660.427L1035.32 664.527L1030.45 661.128ZM1040.19 667.926L1043.05 663.825L1047.93 667.224L1045.06 671.325L1040.19 667.926ZM1049.94 674.724L1052.8 670.623L1057.67 674.022L1054.81 678.123L1049.94 674.724ZM1059.68 681.522L1062.54 677.421L1067.41 680.82L1064.55 684.921L1059.68 681.522ZM1069.43 688.32L1072.29 684.219L1077.16 687.618L1074.3 691.719L1069.43 688.32ZM1079.17 695.118L1082.03 691.017L1083.34 691.927L1084.64 691.039L1087.46 695.171L1085.01 696.836C1083.98 697.537 1082.63 697.529 1081.61 696.817L1079.17 695.118ZM1092.35 691.841L1089.53 687.709L1094.42 684.379L1097.23 688.511L1092.35 691.841ZM1102.12 685.181L1099.31 681.049L1104.2 677.719L1107.01 681.851L1102.12 685.181ZM1111.9 678.521L1109.08 674.389L1113.97 671.059L1116.79 675.191L1111.9 678.521ZM1121.68 671.861L1118.86 667.729L1123.75 664.399L1126.56 668.531L1121.68 671.861ZM1131.45 665.201L1128.64 661.069L1133.53 657.739L1136.34 661.871L1131.45 665.201ZM1141.23 658.541L1138.41 654.409L1143.3 651.079L1146.12 655.211L1141.23 658.541ZM1151.01 651.881L1148.19 647.749L1153.08 644.419L1155.9 648.551L1151.01 651.881ZM1160.78 645.221L1157.97 641.089L1162.86 637.759L1165.67 641.891L1160.78 645.221ZM1170.56 638.561L1167.75 634.429L1172.63 631.099L1175.45 635.231L1170.56 638.561ZM1180.34 631.901L1177.52 627.769L1182.41 624.439L1185.23 628.571L1180.34 631.901ZM1190.11 625.241L1187.3 621.109L1192.19 617.779L1195 621.911L1190.11 625.241ZM1199.89 618.581L1197.08 614.449L1197.08 614.448L1197.06 614.433L1199.85 610.283L1202.32 611.947C1204.08 613.132 1204.09 615.721 1202.34 616.916L1199.89 618.581ZM1194.89 606.956L1192.11 611.106L1187.15 607.778L1189.94 603.628L1194.89 606.956ZM1184.99 600.301L1182.2 604.451L1177.25 601.123L1180.04 596.973L1184.99 600.301ZM1175.09 593.646L1172.3 597.796L1167.35 594.468L1170.14 590.319L1175.09 593.646ZM1165.19 586.991L1162.4 591.141L1157.45 587.813L1160.24 583.664L1165.19 586.991ZM1155.29 580.336L1152.5 584.486L1147.55 581.158L1150.34 577.009L1155.29 580.336ZM1145.39 573.681L1142.6 577.831L1137.65 574.503L1140.44 570.354L1145.39 573.681ZM1135.49 567.026L1132.7 571.176L1127.75 567.848L1130.54 563.699L1135.49 567.026ZM1125.59 560.371L1122.8 564.521L1117.85 561.193L1120.63 557.044L1125.59 560.371ZM1115.68 553.716L1112.89 557.866L1107.94 554.538L1110.73 550.389L1115.68 553.716ZM1105.78 547.061L1102.99 551.211L1098.04 547.883L1100.83 543.734L1105.78 547.061ZM1095.88 540.406L1093.09 544.556L1088.14 541.228L1090.93 537.079L1095.88 540.406ZM1085.98 533.751L1083.19 537.901L1078.24 534.573L1081.03 530.424L1085.98 533.751ZM1076.08 527.096L1073.29 531.246L1068.34 527.918L1071.13 523.769L1076.08 527.096ZM1066.18 520.441L1063.39 524.591L1058.44 521.263L1061.23 517.114L1066.18 520.441ZM1056.28 513.786L1053.49 517.936L1048.54 514.608L1051.32 510.459L1056.28 513.786ZM1046.37 507.131L1043.59 511.281L1038.63 507.953L1041.42 503.804L1046.37 507.131ZM1036.47 500.476L1033.68 504.626L1028.73 501.298L1031.52 497.149L1036.47 500.476ZM1026.57 493.821L1023.78 497.971L1018.83 494.643L1021.62 490.494L1026.57 493.821ZM1016.67 487.166L1013.88 491.316L1008.93 487.988L1011.72 483.839L1016.67 487.166ZM1006.77 480.511L1003.98 484.661L999.029 481.333L1001.82 477.184L1006.77 480.511ZM996.868 473.856L994.078 478.006L989.128 474.678L991.917 470.529L996.868 473.856ZM986.966 467.201L984.177 471.351L979.226 468.023L982.016 463.874L986.966 467.201Z" fill="#75FB7A"/>
<path d="M854.89 205.338L943.167 144.678L854.89 83.9579L766.614 144.678L854.89 205.338Z" fill="black"/>
<path d="M969.4 283.205L1057.68 222.545L969.4 161.825L881.123 222.545L969.4 283.205Z" fill="black"/>
<path d="M1083.91 361.071L1172.19 300.411L1083.91 239.691L995.633 300.411L1083.91 361.071Z" fill="black"/>
<path d="M969.4 438.938L1057.68 378.277L969.4 317.557L881.123 378.277L969.4 438.938Z" fill="black"/>
<path d="M854.89 516.804L943.167 456.144L854.89 395.424L766.614 456.144L854.89 516.804Z" fill="black"/>
<path d="M969.4 594.67L1057.68 534.01L969.4 473.29L881.123 534.01L969.4 594.67Z" fill="black"/>
<path d="M1083.91 672.537L1172.19 611.877L1083.91 551.157L995.633 611.877L1083.91 672.537Z" fill="black"/>
<path d="M854.89 205.338L943.167 144.678L854.89 83.9579L766.614 144.678L854.89 205.338Z" fill="url(#paint0_linear_254_1284)"/>
<path fill-rule="evenodd" clip-rule="evenodd" d="M854.89 202.911L770.144 144.677L854.89 86.3853L939.637 144.677L854.89 202.911ZM854.89 205.338L766.614 144.678L854.89 83.9579L943.167 144.678L854.89 205.338Z" fill="#75FB7A"/>
<path d="M969.4 283.205L1057.68 222.545L969.4 161.825L881.123 222.545L969.4 283.205Z" fill="url(#paint1_linear_254_1284)"/>
<path fill-rule="evenodd" clip-rule="evenodd" d="M969.4 280.778L884.654 222.544L969.4 164.252L1054.15 222.544L969.4 280.778ZM969.4 283.205L881.123 222.545L969.4 161.825L1057.68 222.545L969.4 283.205Z" fill="#75FB7A"/>
<path d="M1083.91 361.071L1172.19 300.411L1083.91 239.691L995.633 300.411L1083.91 361.071Z" fill="url(#paint2_linear_254_1284)"/>
<path fill-rule="evenodd" clip-rule="evenodd" d="M1083.91 358.644L999.163 300.41L1083.91 242.118L1168.66 300.41L1083.91 358.644ZM1083.91 361.071L995.633 300.411L1083.91 239.691L1172.19 300.411L1083.91 361.071Z" fill="#75FB7A"/>
<path d="M969.4 438.938L1057.68 378.277L969.4 317.557L881.123 378.277L969.4 438.938Z" fill="url(#paint3_linear_254_1284)"/>
<path fill-rule="evenodd" clip-rule="evenodd" d="M969.4 436.511L884.654 378.277L969.4 319.985L1054.15 378.277L969.4 436.511ZM969.4 438.938L881.123 378.277L969.4 317.557L1057.68 378.277L969.4 438.938Z" fill="#75FB7A"/>
<path d="M854.89 516.804L943.167 456.144L854.89 395.424L766.614 456.144L854.89 516.804Z" fill="url(#paint4_linear_254_1284)"/>
<path fill-rule="evenodd" clip-rule="evenodd" d="M854.89 514.377L770.144 456.143L854.89 397.851L939.637 456.143L854.89 514.377ZM854.89 516.804L766.614 456.144L854.89 395.424L943.167 456.144L854.89 516.804Z" fill="#75FB7A"/>
<path d="M969.4 594.67L1057.68 534.01L969.4 473.29L881.123 534.01L969.4 594.67Z" fill="url(#paint5_linear_254_1284)"/>
<path fill-rule="evenodd" clip-rule="evenodd" d="M969.4 592.243L884.654 534.009L969.4 475.717L1054.15 534.009L969.4 592.243ZM969.4 594.67L881.123 534.01L969.4 473.29L1057.68 534.01L969.4 594.67Z" fill="#75FB7A"/>
<path d="M1083.91 672.537L1172.19 611.877L1083.91 551.157L995.633 611.877L1083.91 672.537Z" fill="url(#paint6_linear_254_1284)"/>
<path fill-rule="evenodd" clip-rule="evenodd" d="M1083.91 670.11L999.163 611.876L1083.91 553.584L1168.66 611.876L1083.91 670.11ZM1083.91 672.537L995.633 611.877L1083.91 551.157L1172.19 611.877L1083.91 672.537Z" fill="#75FB7A"/>
<path d="M629.926 452.479C629.84 452.462 629.753 452.455 629.665 452.459C629.515 452.467 629.367 452.505 629.232 452.572C628.969 452.699 628.765 452.922 628.663 453.196C628.561 453.47 628.568 453.772 628.683 454.041L628.675 454.052L631.27 460.324C633.752 458.739 635.635 456.372 636.623 453.595L629.937 452.465L629.926 452.479ZM619.523 453.368C619.467 453.12 619.329 452.899 619.133 452.739C618.936 452.58 618.691 452.491 618.438 452.487C618.363 452.486 618.288 452.492 618.215 452.506L618.203 452.493L611.576 453.619C612.571 456.373 614.447 458.722 616.912 460.3L619.48 454.089L619.46 454.065C619.555 453.845 619.577 453.601 619.523 453.368ZM625.074 455.803C624.977 455.623 624.833 455.472 624.657 455.367C624.481 455.262 624.28 455.206 624.075 455.206C623.871 455.207 623.67 455.263 623.494 455.368C623.319 455.474 623.175 455.625 623.079 455.806H623.073L619.814 461.704C622.148 462.499 624.656 462.628 627.059 462.077C627.505 461.975 627.94 461.853 628.365 461.711L625.098 455.803L625.074 455.803ZM635.391 442.103L630.376 446.594L630.379 446.609C630.225 446.744 630.11 446.918 630.047 447.112C629.984 447.307 629.975 447.515 630.02 447.715C630.066 447.915 630.164 448.098 630.306 448.246C630.447 448.394 630.626 448.501 630.823 448.556L630.829 448.583L637.324 450.455C637.605 447.535 636.926 444.603 635.391 442.103V442.103ZM626.075 442.606C626.084 442.811 626.149 443.009 626.262 443.18C626.375 443.35 626.532 443.487 626.716 443.576C626.901 443.665 627.106 443.702 627.309 443.683C627.513 443.665 627.708 443.591 627.874 443.471L627.893 443.479L633.38 439.586C631.292 437.538 628.589 436.234 625.687 435.874L626.069 442.604L626.075 442.606ZM620.264 443.495C620.43 443.616 620.625 443.689 620.829 443.707C621.032 443.726 621.237 443.688 621.422 443.599C621.606 443.51 621.763 443.373 621.875 443.202C621.988 443.031 622.052 442.832 622.06 442.628L622.088 442.615L622.469 435.874C622.009 435.929 621.552 436.008 621.1 436.11C618.695 436.651 616.489 437.854 614.731 439.584L620.254 443.502L620.264 443.495ZM617.32 448.589C617.518 448.535 617.697 448.428 617.839 448.28C617.981 448.132 618.08 447.948 618.125 447.748C618.171 447.548 618.162 447.34 618.098 447.145C618.035 446.95 617.919 446.776 617.765 446.641L617.77 446.615L612.728 442.101C611.19 444.607 610.53 447.554 610.852 450.477L617.315 448.611L617.32 448.589ZM622.217 450.571L624.077 451.466L625.932 450.573L626.392 448.569L625.109 446.963H623.043L621.756 448.567L622.217 450.571Z" fill="#326CE5"/>
<path d="M654.826 454.519L649.526 431.479C649.383 430.883 649.11 430.326 648.726 429.848C648.343 429.371 647.858 428.984 647.307 428.717L625.853 418.466C625.297 418.2 624.689 418.062 624.073 418.062C623.457 418.062 622.848 418.2 622.292 418.466L600.843 428.722C600.292 428.99 599.807 429.376 599.423 429.854C599.039 430.331 598.766 430.888 598.624 431.484L593.332 454.523C593.202 455.106 593.201 455.71 593.331 456.292C593.369 456.47 593.419 456.644 593.48 456.815C593.584 457.107 593.721 457.385 593.889 457.645C593.962 457.756 594.038 457.864 594.122 457.969L608.969 476.443C609.034 476.523 609.105 476.597 609.176 476.671C609.409 476.92 609.672 477.138 609.959 477.321C610.322 477.549 610.718 477.721 611.132 477.831C611.472 477.925 611.823 477.973 612.176 477.975H612.407L635.985 477.97C636.128 477.969 636.271 477.961 636.414 477.944C636.618 477.921 636.82 477.883 637.019 477.829C637.161 477.792 637.301 477.747 637.439 477.695C637.546 477.654 637.653 477.613 637.757 477.563C637.912 477.489 638.062 477.405 638.207 477.313C638.58 477.078 638.913 476.783 639.191 476.44L639.644 475.877L654.033 457.963C654.309 457.617 654.526 457.228 654.674 456.811C654.737 456.639 654.787 456.464 654.826 456.286C654.957 455.703 654.956 455.099 654.825 454.517L654.826 454.519ZM632.573 463.48C632.633 463.657 632.705 463.83 632.787 463.998C632.656 464.228 632.62 464.5 632.687 464.756C633 465.472 633.381 466.155 633.826 466.796C634.075 467.124 634.305 467.466 634.514 467.82C634.566 467.916 634.634 468.065 634.683 468.166C634.775 468.321 634.834 468.493 634.856 468.672C634.878 468.85 634.862 469.032 634.81 469.204C634.758 469.376 634.67 469.536 634.552 469.672C634.435 469.809 634.29 469.919 634.127 469.996C633.964 470.073 633.787 470.115 633.607 470.119C633.427 470.124 633.248 470.09 633.082 470.021C632.916 469.953 632.766 469.85 632.642 469.719C632.518 469.589 632.422 469.434 632.361 469.264C632.312 469.164 632.244 469.03 632.203 468.935C632.056 468.55 631.931 468.156 631.83 467.757C631.607 467.01 631.312 466.286 630.949 465.596C630.791 465.383 630.556 465.24 630.294 465.198C630.253 465.128 630.1 464.848 630.019 464.704C626.2 466.152 621.982 466.141 618.17 464.674L617.88 465.201C617.672 465.233 617.48 465.327 617.326 465.471C616.889 466.19 616.554 466.967 616.332 467.779C616.232 468.178 616.108 468.572 615.962 468.957C615.921 469.051 615.852 469.183 615.803 469.283V469.286L615.801 469.289C615.74 469.458 615.645 469.614 615.52 469.744C615.396 469.875 615.246 469.978 615.08 470.047C614.913 470.116 614.734 470.149 614.554 470.144C614.374 470.14 614.197 470.098 614.034 470.02C613.871 469.943 613.726 469.832 613.609 469.696C613.491 469.559 613.404 469.399 613.352 469.226C613.3 469.054 613.285 468.872 613.307 468.693C613.33 468.514 613.39 468.342 613.483 468.188C613.531 468.086 613.596 467.938 613.647 467.842C613.857 467.487 614.086 467.144 614.335 466.815C614.788 466.157 615.177 465.457 615.497 464.725C615.532 464.477 615.492 464.224 615.383 463.998L615.617 463.438C612.103 461.362 609.469 458.071 608.213 454.186L607.653 454.282C607.436 454.127 607.18 454.037 606.915 454.021C606.149 454.168 605.4 454.389 604.677 454.68C604.302 454.849 603.917 454.997 603.525 455.122C603.432 455.147 603.298 455.173 603.192 455.196C603.184 455.199 603.176 455.203 603.168 455.205C603.161 455.206 603.155 455.207 603.148 455.207C602.978 455.263 602.797 455.283 602.619 455.265C602.44 455.248 602.268 455.193 602.111 455.104C601.955 455.016 601.819 454.896 601.712 454.752C601.605 454.608 601.529 454.443 601.489 454.268C601.449 454.093 601.446 453.912 601.481 453.736C601.515 453.559 601.585 453.392 601.688 453.245C601.79 453.097 601.923 452.973 602.076 452.88C602.229 452.787 602.4 452.726 602.578 452.703L602.597 452.698L602.608 452.695C602.715 452.67 602.853 452.635 602.951 452.616C603.359 452.559 603.771 452.526 604.183 452.516C604.96 452.466 605.731 452.339 606.484 452.138C606.707 451.996 606.896 451.806 607.036 451.581L607.573 451.424C606.99 447.369 607.923 443.241 610.193 439.833L609.782 439.465C609.767 439.199 609.677 438.942 609.524 438.724C608.933 438.215 608.293 437.765 607.614 437.381C607.248 437.194 606.892 436.986 606.55 436.758C606.472 436.7 606.369 436.613 606.284 436.544L606.265 436.53C605.973 436.32 605.776 436.003 605.716 435.648C605.657 435.293 605.741 434.93 605.949 434.636C606.072 434.485 606.229 434.366 606.407 434.287C606.584 434.208 606.778 434.173 606.972 434.183C607.299 434.197 607.613 434.316 607.867 434.521C607.954 434.589 608.074 434.681 608.152 434.748C608.45 435.031 608.733 435.331 608.997 435.646C609.522 436.223 610.102 436.747 610.728 437.211C610.963 437.335 611.237 437.362 611.491 437.285C611.644 437.397 611.798 437.507 611.954 437.615C614.21 435.215 617.132 433.544 620.343 432.818C621.108 432.645 621.883 432.526 622.664 432.461L622.695 431.918C622.894 431.741 623.039 431.51 623.112 431.253C623.14 430.473 623.092 429.693 622.969 428.923C622.887 428.519 622.829 428.111 622.793 427.701C622.79 427.607 622.795 427.478 622.797 427.371C622.797 427.359 622.793 427.347 622.793 427.336C622.775 427.156 622.795 426.974 622.851 426.803C622.907 426.631 622.999 426.473 623.12 426.339C623.241 426.205 623.388 426.098 623.553 426.025C623.718 425.952 623.896 425.914 624.077 425.914C624.257 425.913 624.436 425.951 624.601 426.024C624.765 426.098 624.913 426.205 625.034 426.339C625.155 426.472 625.247 426.63 625.303 426.802C625.36 426.973 625.379 427.155 625.361 427.334C625.361 427.447 625.368 427.596 625.364 427.7C625.329 428.11 625.27 428.518 625.188 428.921C625.064 429.692 625.015 430.473 625.043 431.252C625.093 431.513 625.244 431.744 625.462 431.895C625.467 431.988 625.482 432.298 625.493 432.468C629.552 432.838 633.339 434.669 636.15 437.622L636.639 437.273C636.901 437.318 637.171 437.288 637.418 437.188C638.044 436.723 638.624 436.198 639.149 435.621C639.414 435.305 639.697 435.005 639.997 434.723C640.075 434.655 640.194 434.564 640.281 434.495C640.41 434.368 640.564 434.27 640.734 434.206C640.903 434.142 641.084 434.115 641.264 434.126C641.445 434.137 641.621 434.185 641.782 434.269C641.943 434.352 642.084 434.469 642.197 434.61C642.309 434.752 642.391 434.916 642.437 435.091C642.482 435.266 642.49 435.449 642.46 435.628C642.43 435.806 642.364 435.977 642.264 436.128C642.164 436.279 642.033 436.407 641.881 436.504C641.795 436.574 641.681 436.671 641.598 436.733C641.255 436.961 640.899 437.169 640.531 437.355C639.853 437.74 639.213 438.19 638.622 438.698C638.45 438.9 638.363 439.161 638.381 439.426C638.309 439.492 638.058 439.714 637.925 439.835C640.202 443.231 641.154 447.346 640.6 451.399L641.119 451.55C641.248 451.783 641.44 451.976 641.672 452.107C642.425 452.308 643.197 452.435 643.974 452.486C644.386 452.496 644.797 452.529 645.205 452.585C645.313 452.605 645.469 452.648 645.58 452.673C645.757 452.697 645.928 452.757 646.082 452.85C646.235 452.944 646.367 453.068 646.469 453.215C646.572 453.363 646.642 453.53 646.677 453.706C646.711 453.883 646.708 454.064 646.668 454.239C646.628 454.414 646.552 454.579 646.445 454.723C646.337 454.867 646.201 454.987 646.045 455.075C645.889 455.163 645.716 455.218 645.537 455.235C645.359 455.253 645.179 455.233 645.008 455.177L644.99 455.174C644.981 455.172 644.973 455.168 644.964 455.165C644.859 455.142 644.726 455.119 644.633 455.095C644.241 454.969 643.856 454.82 643.481 454.65C642.758 454.358 642.008 454.137 641.241 453.991C640.976 453.982 640.718 454.078 640.523 454.258C640.34 454.223 640.157 454.191 639.974 454.161C638.733 458.071 636.099 461.387 632.573 463.48Z" fill="#326CE5"/>
<path d="M657.624 455.11L651.842 429.974C651.686 429.323 651.389 428.716 650.97 428.194C650.551 427.673 650.022 427.251 649.421 426.96L626.016 415.777C625.409 415.487 624.746 415.337 624.073 415.337C623.401 415.337 622.738 415.487 622.131 415.777L598.728 426.966C598.127 427.258 597.598 427.679 597.179 428.2C596.76 428.721 596.462 429.329 596.306 429.979L590.534 455.116C590.404 455.696 590.391 456.295 590.495 456.88C590.599 457.465 590.819 458.023 591.141 458.522C591.22 458.643 591.305 458.762 591.396 458.875L607.594 479.032C608.019 479.55 608.552 479.969 609.157 480.258C609.762 480.547 610.423 480.698 611.092 480.702L637.069 480.696C637.738 480.692 638.399 480.541 639.004 480.253C639.608 479.964 640.142 479.546 640.567 479.028L656.759 458.87C657.174 458.347 657.467 457.738 657.617 457.088C657.766 456.438 657.769 455.762 657.624 455.111V455.11ZM654.826 456.287C654.787 456.465 654.737 456.64 654.675 456.811C654.526 457.228 654.309 457.618 654.033 457.964L639.644 475.877L639.192 476.441C638.913 476.784 638.58 477.078 638.206 477.313C638.062 477.406 637.912 477.489 637.758 477.564C637.654 477.612 637.548 477.655 637.44 477.695C637.302 477.747 637.161 477.792 637.019 477.83C636.82 477.884 636.618 477.922 636.414 477.946C636.271 477.962 636.128 477.97 635.985 477.971L612.407 477.976H612.176C611.823 477.974 611.473 477.925 611.133 477.832C610.718 477.722 610.323 477.55 609.96 477.321C609.673 477.138 609.409 476.92 609.176 476.672C609.105 476.597 609.034 476.524 608.969 476.444L594.122 457.97C594.039 457.865 593.962 457.757 593.889 457.645C593.721 457.385 593.584 457.107 593.481 456.815C593.42 456.644 593.37 456.469 593.331 456.292C593.202 455.709 593.202 455.105 593.333 454.523L598.624 431.484C598.767 430.888 599.04 430.331 599.424 429.853C599.807 429.376 600.292 428.989 600.843 428.722L622.293 418.467C622.849 418.201 623.457 418.063 624.073 418.063C624.69 418.063 625.298 418.201 625.854 418.467L647.307 428.718C647.858 428.985 648.343 429.372 648.726 429.849C649.11 430.327 649.383 430.884 649.526 431.48L654.826 454.519C654.956 455.101 654.956 455.705 654.826 456.287V456.287Z" fill="white"/>
<path d="M645.579 452.674C645.47 452.648 645.313 452.605 645.206 452.585C644.798 452.529 644.387 452.496 643.975 452.486C643.197 452.435 642.426 452.309 641.672 452.108C641.44 451.977 641.248 451.784 641.119 451.55L640.6 451.399C641.154 447.347 640.203 443.232 637.926 439.835C638.059 439.715 638.31 439.492 638.381 439.427C638.363 439.162 638.45 438.901 638.622 438.699C639.213 438.19 639.853 437.741 640.531 437.356C640.899 437.169 641.255 436.961 641.598 436.733C641.681 436.672 641.794 436.574 641.881 436.505C642.033 436.408 642.164 436.279 642.264 436.128C642.363 435.977 642.43 435.807 642.46 435.629C642.49 435.45 642.482 435.267 642.437 435.092C642.391 434.917 642.31 434.753 642.197 434.611C642.084 434.47 641.943 434.353 641.782 434.27C641.622 434.186 641.446 434.138 641.265 434.127C641.085 434.116 640.904 434.143 640.734 434.207C640.565 434.27 640.411 434.369 640.282 434.496C640.194 434.565 640.075 434.655 639.997 434.723C639.697 435.006 639.414 435.306 639.149 435.621C638.624 436.199 638.044 436.723 637.418 437.188C637.171 437.289 636.901 437.318 636.639 437.273L636.15 437.622C633.339 434.669 629.552 432.838 625.493 432.469C625.481 432.298 625.467 431.989 625.462 431.895C625.244 431.744 625.094 431.513 625.043 431.253C625.016 430.473 625.065 429.692 625.189 428.922C625.27 428.518 625.329 428.111 625.363 427.7C625.367 427.597 625.361 427.447 625.361 427.335C625.379 427.155 625.36 426.974 625.303 426.802C625.247 426.631 625.155 426.473 625.034 426.339C624.913 426.205 624.765 426.098 624.601 426.025C624.436 425.952 624.257 425.914 624.077 425.914C623.896 425.914 623.718 425.952 623.553 426.025C623.388 426.099 623.241 426.206 623.12 426.34C622.999 426.474 622.907 426.632 622.851 426.803C622.795 426.975 622.775 427.156 622.793 427.336C622.793 427.348 622.796 427.36 622.797 427.372C622.795 427.479 622.79 427.608 622.793 427.701C622.829 428.111 622.887 428.519 622.969 428.923C623.092 429.693 623.14 430.474 623.112 431.253C623.039 431.51 622.894 431.741 622.695 431.918L622.664 432.462C621.883 432.526 621.108 432.645 620.343 432.819C617.132 433.545 614.211 435.215 611.955 437.615C611.799 437.507 611.644 437.397 611.491 437.286C611.237 437.362 610.963 437.335 610.728 437.212C610.102 436.747 609.522 436.223 608.997 435.646C608.733 435.331 608.451 435.031 608.152 434.748C608.074 434.681 607.955 434.59 607.867 434.52C607.613 434.314 607.299 434.196 606.972 434.182C606.778 434.172 606.584 434.208 606.406 434.286C606.229 434.365 606.072 434.485 605.949 434.636C605.741 434.929 605.657 435.293 605.716 435.648C605.776 436.003 605.973 436.32 606.265 436.53L606.285 436.544C606.369 436.613 606.472 436.701 606.55 436.758C606.892 436.986 607.248 437.194 607.614 437.381C608.293 437.766 608.932 438.216 609.524 438.724C609.677 438.942 609.767 439.199 609.782 439.466L610.193 439.833C607.923 443.242 606.99 447.37 607.573 451.425L607.036 451.581C606.895 451.806 606.707 451.996 606.484 452.138C605.731 452.339 604.96 452.466 604.182 452.517C603.77 452.527 603.359 452.56 602.951 452.616C602.852 452.635 602.715 452.669 602.608 452.696L602.597 452.699L602.578 452.704C602.401 452.728 602.23 452.788 602.076 452.881C601.923 452.974 601.791 453.099 601.689 453.246C601.586 453.393 601.516 453.561 601.481 453.737C601.447 453.913 601.45 454.094 601.49 454.269C601.53 454.444 601.606 454.609 601.713 454.753C601.82 454.897 601.956 455.017 602.112 455.105C602.268 455.194 602.441 455.249 602.62 455.266C602.798 455.284 602.978 455.264 603.149 455.208L603.168 455.205C603.176 455.203 603.184 455.199 603.192 455.197C603.298 455.173 603.431 455.148 603.524 455.122C603.916 454.997 604.301 454.85 604.676 454.681C605.399 454.389 606.149 454.168 606.915 454.022C607.18 454.038 607.436 454.128 607.653 454.282L608.212 454.187C609.469 458.072 612.103 461.363 615.617 463.438L615.383 463.998C615.492 464.224 615.532 464.477 615.498 464.725C615.178 465.457 614.789 466.157 614.336 466.815C614.087 467.143 613.857 467.486 613.647 467.841C613.596 467.938 613.531 468.086 613.482 468.188C613.39 468.342 613.33 468.514 613.308 468.693C613.286 468.872 613.301 469.053 613.353 469.225C613.405 469.398 613.493 469.557 613.61 469.694C613.728 469.83 613.872 469.941 614.035 470.018C614.197 470.095 614.374 470.137 614.554 470.142C614.734 470.147 614.913 470.114 615.079 470.045C615.246 469.976 615.396 469.874 615.52 469.743C615.644 469.613 615.74 469.458 615.801 469.289L615.803 469.286V469.283C615.852 469.183 615.921 469.051 615.962 468.957C616.108 468.572 616.232 468.179 616.332 467.779C616.554 466.967 616.889 466.19 617.326 465.471C617.48 465.327 617.672 465.233 617.88 465.2L618.171 464.674C621.982 466.141 626.2 466.151 630.019 464.704C630.1 464.849 630.253 465.128 630.293 465.198C630.555 465.24 630.79 465.383 630.948 465.597C631.312 466.287 631.607 467.01 631.83 467.757C631.931 468.157 632.056 468.55 632.203 468.935C632.244 469.03 632.312 469.163 632.361 469.264C632.422 469.434 632.518 469.589 632.642 469.719C632.766 469.85 632.916 469.953 633.082 470.022C633.248 470.091 633.427 470.124 633.607 470.12C633.787 470.115 633.964 470.073 634.127 469.996C634.29 469.919 634.434 469.809 634.552 469.672C634.67 469.536 634.758 469.377 634.81 469.204C634.862 469.032 634.878 468.851 634.856 468.672C634.834 468.493 634.775 468.321 634.683 468.166C634.634 468.065 634.566 467.917 634.515 467.82C634.306 467.466 634.076 467.124 633.827 466.796C633.382 466.155 633.001 465.472 632.688 464.756C632.621 464.5 632.656 464.228 632.787 463.998C632.705 463.83 632.633 463.657 632.573 463.48C636.099 461.387 638.733 458.071 639.974 454.162C640.14 454.188 640.429 454.239 640.523 454.258C640.719 454.079 640.976 453.983 641.241 453.991C642.007 454.137 642.757 454.358 643.48 454.65C643.856 454.821 644.24 454.969 644.633 455.095C644.726 455.12 644.858 455.143 644.964 455.166C644.973 455.169 644.981 455.172 644.99 455.175L645.008 455.178C645.178 455.233 645.358 455.253 645.537 455.236C645.715 455.218 645.888 455.163 646.044 455.075C646.2 454.986 646.336 454.867 646.443 454.723C646.55 454.579 646.626 454.414 646.666 454.239C646.706 454.064 646.709 453.883 646.675 453.707C646.641 453.531 646.57 453.364 646.468 453.216C646.366 453.069 646.234 452.945 646.081 452.851C645.928 452.758 645.757 452.697 645.579 452.674ZM633.38 439.586L627.893 443.479L627.874 443.47C627.709 443.591 627.514 443.664 627.31 443.683C627.106 443.702 626.901 443.665 626.716 443.576C626.532 443.487 626.375 443.35 626.262 443.18C626.149 443.009 626.084 442.811 626.075 442.606L626.069 442.603L625.688 435.874C628.589 436.234 631.292 437.538 633.38 439.586H633.38ZM623.044 446.962H625.109L626.392 448.569L625.932 450.572L624.078 451.465L622.218 450.57L621.756 448.566L623.044 446.962ZM621.101 436.109C621.553 436.007 622.01 435.929 622.471 435.874L622.089 442.613L622.061 442.627C622.052 442.831 621.988 443.03 621.876 443.201C621.764 443.372 621.607 443.51 621.423 443.599C621.238 443.688 621.033 443.725 620.829 443.707C620.625 443.689 620.43 443.615 620.265 443.495L620.254 443.501L614.731 439.582C616.49 437.853 618.696 436.65 621.101 436.109ZM612.729 442.101L617.771 446.614L617.765 446.642C617.92 446.776 618.035 446.95 618.099 447.145C618.162 447.34 618.171 447.548 618.126 447.748C618.08 447.948 617.981 448.132 617.839 448.28C617.698 448.428 617.518 448.535 617.321 448.589L617.315 448.61L610.852 450.477C610.53 447.554 611.191 444.606 612.729 442.101ZM619.48 454.09L616.912 460.3C614.447 458.721 612.572 456.372 611.577 453.618L618.204 452.492L618.215 452.507C618.288 452.493 618.363 452.486 618.437 452.487C618.623 452.49 618.805 452.538 618.968 452.628C619.131 452.718 619.269 452.847 619.37 453.003C619.471 453.159 619.532 453.337 619.548 453.523C619.564 453.708 619.534 453.894 619.46 454.065L619.48 454.09ZM627.059 462.076C624.657 462.628 622.148 462.499 619.815 461.704L623.074 455.806H623.079C623.176 455.626 623.32 455.475 623.495 455.37C623.671 455.265 623.871 455.209 624.076 455.209C624.28 455.209 624.481 455.264 624.657 455.369C624.833 455.474 624.977 455.624 625.074 455.804H625.098L628.365 461.712C627.941 461.853 627.506 461.975 627.059 462.077V462.076ZM631.27 460.325L628.676 454.052L628.684 454.041C628.569 453.772 628.561 453.47 628.664 453.196C628.766 452.923 628.969 452.699 629.232 452.572C629.368 452.506 629.515 452.468 629.666 452.46C629.753 452.456 629.84 452.462 629.926 452.479L629.937 452.465L636.623 453.596C635.636 456.372 633.752 458.74 631.27 460.325ZM637.325 450.455L630.829 448.582L630.823 448.555C630.626 448.5 630.447 448.394 630.306 448.246C630.164 448.097 630.066 447.914 630.02 447.714C629.975 447.515 629.984 447.306 630.047 447.112C630.11 446.917 630.225 446.743 630.379 446.608L630.377 446.595L635.391 442.104C636.926 444.603 637.605 447.535 637.325 450.455L637.325 450.455Z" fill="white"/>
<g filter="url(#filter0_d_254_1284)">
<path d="M845.815 102.28L889.881 134.228L865.645 151.855L821.578 119.907L845.815 102.28Z" fill="white"/>
<path d="M821.587 119.906L865.645 151.854V178.294L821.578 146.346L821.587 119.906Z" fill="#D9D9D9"/>
<path d="M825.985 127.319C825.985 126.513 826.89 126.038 827.553 126.496L827.756 126.636C828.027 126.823 828.189 127.131 828.189 127.459V145.999C828.189 146.823 827.248 147.293 826.589 146.799L826.385 146.646C826.133 146.457 825.985 146.161 825.985 145.846V127.319Z" fill="#626262"/>
<path d="M831.494 131.725C831.494 130.92 832.398 130.445 833.061 130.902L833.265 131.042C833.535 131.229 833.697 131.537 833.697 131.866V150.405C833.697 151.229 832.756 151.699 832.097 151.205L831.894 151.052C831.642 150.863 831.494 150.567 831.494 150.252V131.725Z" fill="#626262"/>
<path d="M837.002 136.132C837.002 135.326 837.907 134.851 838.57 135.309L838.773 135.449C839.044 135.636 839.206 135.944 839.206 136.272V154.812C839.206 155.636 838.265 156.106 837.606 155.612L837.402 155.459C837.15 155.27 837.002 154.974 837.002 154.659V136.132Z" fill="#626262"/>
<path d="M842.51 139.437C842.51 138.631 843.414 138.156 844.078 138.614L844.281 138.754C844.552 138.94 844.713 139.248 844.713 139.577V158.116C844.713 158.94 843.773 159.411 843.113 158.916L842.91 158.764C842.658 158.575 842.51 158.279 842.51 157.964V139.437Z" fill="#626262"/>
<path d="M848.018 143.844C848.018 143.038 848.922 142.563 849.586 143.02L849.789 143.16C850.06 143.347 850.221 143.655 850.221 143.984V162.523C850.221 163.347 849.28 163.817 848.621 163.323L848.418 163.171C848.166 162.982 848.018 162.685 848.018 162.371V143.844Z" fill="#626262"/>
<path d="M853.527 148.25C853.527 147.444 854.432 146.97 855.095 147.427L855.298 147.567C855.569 147.754 855.731 148.062 855.731 148.39V166.93C855.731 167.754 854.79 168.224 854.131 167.73L853.927 167.577C853.676 167.388 853.527 167.092 853.527 166.777V148.25Z" fill="#626262"/>
<path d="M859.035 152.657C859.035 151.851 859.939 151.376 860.603 151.834L860.806 151.974C861.077 152.161 861.238 152.468 861.238 152.797V171.336C861.238 172.161 860.298 172.631 859.638 172.136L859.435 171.984C859.183 171.795 859.035 171.499 859.035 171.184V152.657Z" fill="#626262"/>
<path d="M889.873 134.228L865.645 151.854V178.294L889.873 160.667L889.873 134.228Z" fill="#9A9A9A"/>
</g>
<g filter="url(#filter1_d_254_1284)">
<path d="M845.815 416.036L889.881 447.984L865.645 465.61L821.578 433.663L845.815 416.036Z" fill="white"/>
<path d="M821.587 433.662L865.645 465.61V492.05L821.578 460.102L821.587 433.662Z" fill="#D9D9D9"/>
<path d="M825.985 441.075C825.985 440.269 826.89 439.794 827.553 440.252L827.756 440.392C828.027 440.579 828.189 440.886 828.189 441.215V459.754C828.189 460.578 827.248 461.049 826.589 460.554L826.385 460.402C826.133 460.213 825.985 459.917 825.985 459.602V441.075Z" fill="#626262"/>
<path d="M831.494 445.481C831.494 444.675 832.398 444.201 833.061 444.658L833.265 444.798C833.535 444.985 833.697 445.293 833.697 445.621V464.161C833.697 464.985 832.756 465.455 832.097 464.961L831.894 464.808C831.642 464.619 831.494 464.323 831.494 464.008V445.481Z" fill="#626262"/>
<path d="M837.002 449.888C837.002 449.082 837.907 448.607 838.57 449.065L838.773 449.205C839.044 449.392 839.206 449.699 839.206 450.028V468.567C839.206 469.391 838.265 469.862 837.606 469.367L837.402 469.215C837.15 469.026 837.002 468.73 837.002 468.415V449.888Z" fill="#626262"/>
<path d="M842.51 453.193C842.51 452.387 843.414 451.912 844.078 452.369L844.281 452.51C844.552 452.696 844.713 453.004 844.713 453.333V471.872C844.713 472.696 843.773 473.167 843.113 472.672L842.91 472.52C842.658 472.331 842.51 472.034 842.51 471.72V453.193Z" fill="#626262"/>
<path d="M848.018 457.599C848.018 456.794 848.922 456.319 849.586 456.776L849.789 456.916C850.06 457.103 850.221 457.411 850.221 457.74V476.279C850.221 477.103 849.28 477.573 848.621 477.079L848.418 476.926C848.166 476.738 848.018 476.441 848.018 476.126V457.599Z" fill="#626262"/>
<path d="M853.527 462.006C853.527 461.2 854.432 460.725 855.095 461.183L855.298 461.323C855.569 461.51 855.731 461.818 855.731 462.146V480.686C855.731 481.51 854.79 481.98 854.131 481.486L853.927 481.333C853.676 481.144 853.527 480.848 853.527 480.533V462.006Z" fill="#626262"/>
<path d="M859.035 466.413C859.035 465.607 859.939 465.132 860.603 465.59L860.806 465.73C861.077 465.916 861.238 466.224 861.238 466.553V485.092C861.238 485.916 860.298 486.387 859.638 485.892L859.435 485.74C859.183 485.551 859.035 485.255 859.035 484.94V466.413Z" fill="#626262"/>
<path d="M889.873 447.983L865.645 465.61V492.049L889.873 474.423L889.873 447.983Z" fill="#9A9A9A"/>
</g>
<g filter="url(#filter2_d_254_1284)">
<path d="M1077.12 258.013L1121.19 289.961L1096.95 307.587L1052.89 275.639L1077.12 258.013Z" fill="white"/>
<path d="M1052.9 275.639L1096.95 307.587V334.026L1052.89 302.078L1052.9 275.639Z" fill="#D9D9D9"/>
<path d="M1057.29 283.052C1057.29 282.246 1058.2 281.771 1058.86 282.228L1059.07 282.369C1059.34 282.555 1059.5 282.863 1059.5 283.192V301.731C1059.5 302.555 1058.56 303.025 1057.9 302.531L1057.69 302.379C1057.44 302.19 1057.29 301.893 1057.29 301.579V283.052Z" fill="#626262"/>
<path d="M1062.8 287.458C1062.8 286.652 1063.71 286.177 1064.37 286.635L1064.57 286.775C1064.84 286.961 1065.01 287.269 1065.01 287.598V306.137C1065.01 306.961 1064.07 307.432 1063.41 306.937L1063.2 306.785C1062.95 306.596 1062.8 306.3 1062.8 305.985V287.458Z" fill="#626262"/>
<path d="M1068.31 291.865C1068.31 291.059 1069.22 290.584 1069.88 291.041L1070.08 291.181C1070.35 291.368 1070.51 291.676 1070.51 292.005V310.544C1070.51 311.368 1069.57 311.838 1068.91 311.344L1068.71 311.192C1068.46 311.003 1068.31 310.706 1068.31 310.392V291.865Z" fill="#626262"/>
<path d="M1073.82 295.169C1073.82 294.363 1074.72 293.888 1075.39 294.346L1075.59 294.486C1075.86 294.673 1076.02 294.981 1076.02 295.309V313.849C1076.02 314.673 1075.08 315.143 1074.42 314.649L1074.22 314.496C1073.97 314.307 1073.82 314.011 1073.82 313.696V295.169Z" fill="#626262"/>
<path d="M1079.33 299.576C1079.33 298.77 1080.23 298.295 1080.89 298.753L1081.1 298.893C1081.37 299.08 1081.53 299.387 1081.53 299.716V318.255C1081.53 319.079 1080.59 319.55 1079.93 319.055L1079.73 318.903C1079.48 318.714 1079.33 318.418 1079.33 318.103V299.576Z" fill="#626262"/>
<path d="M1084.84 303.983C1084.84 303.177 1085.74 302.702 1086.4 303.159L1086.61 303.3C1086.88 303.486 1087.04 303.794 1087.04 304.123V322.662C1087.04 323.486 1086.1 323.957 1085.44 323.462L1085.24 323.31C1084.98 323.121 1084.84 322.824 1084.84 322.51V303.983Z" fill="#626262"/>
<path d="M1090.34 308.389C1090.34 307.584 1091.25 307.109 1091.91 307.566L1092.12 307.706C1092.39 307.893 1092.55 308.201 1092.55 308.53V327.069C1092.55 327.893 1091.61 328.363 1090.95 327.869L1090.74 327.716C1090.49 327.528 1090.34 327.231 1090.34 326.916V308.389Z" fill="#626262"/>
<path d="M1121.18 289.96L1096.95 307.586V334.026L1121.18 316.4L1121.18 289.96Z" fill="#9A9A9A"/>
</g>
<g filter="url(#filter3_d_254_1284)">
<path d="M973.687 333.589L929.621 365.537L953.857 383.163L997.923 351.215L973.687 333.589Z" fill="#EEEEEE"/>
<path d="M997.914 351.215L953.856 383.163V409.603L997.922 377.655L997.914 351.215Z" fill="#D9D9D9"/>
<path d="M993.515 358.628C993.515 357.822 992.611 357.347 991.947 357.804L991.744 357.945C991.473 358.131 991.312 358.439 991.312 358.768V377.307C991.312 378.131 992.253 378.602 992.912 378.107L993.115 377.955C993.367 377.766 993.515 377.469 993.515 377.155V358.628Z" fill="#626262"/>
<path d="M988.008 363.034C988.008 362.228 987.104 361.753 986.44 362.211L986.237 362.351C985.966 362.538 985.805 362.845 985.805 363.174V381.713C985.805 382.537 986.746 383.008 987.405 382.513L987.608 382.361C987.86 382.172 988.008 381.876 988.008 381.561V363.034Z" fill="#626262"/>
<path d="M982.499 367.441C982.499 366.635 981.594 366.16 980.931 366.617L980.728 366.758C980.457 366.944 980.295 367.252 980.295 367.581V386.12C980.295 386.944 981.236 387.415 981.895 386.92L982.099 386.768C982.35 386.579 982.499 386.282 982.499 385.968V367.441Z" fill="#626262"/>
<path d="M976.993 370.746C976.993 369.941 976.088 369.466 975.425 369.923L975.222 370.063C974.951 370.25 974.789 370.558 974.789 370.887V389.426C974.789 390.25 975.73 390.72 976.389 390.226L976.593 390.073C976.844 389.884 976.993 389.588 976.993 389.273V370.746Z" fill="#626262"/>
<path d="M971.483 375.153C971.483 374.347 970.579 373.872 969.916 374.329L969.712 374.47C969.442 374.656 969.28 374.964 969.28 375.293V393.832C969.28 394.656 970.221 395.126 970.88 394.632L971.083 394.48C971.335 394.291 971.483 393.994 971.483 393.68V375.153Z" fill="#626262"/>
<path d="M965.975 379.559C965.975 378.753 965.07 378.278 964.407 378.736L964.204 378.876C963.933 379.062 963.771 379.37 963.771 379.699V398.238C963.771 399.062 964.712 399.533 965.371 399.038L965.575 398.886C965.826 398.697 965.975 398.401 965.975 398.086V379.559Z" fill="#626262"/>
<path d="M960.468 383.966C960.468 383.16 959.563 382.685 958.9 383.142L958.697 383.283C958.426 383.469 958.264 383.777 958.264 384.106V402.645C958.264 403.469 959.205 403.939 959.864 403.445L960.068 403.293C960.32 403.104 960.468 402.807 960.468 402.493V383.966Z" fill="#626262"/>
<path d="M929.629 365.536L953.857 383.163V409.602L929.629 391.976L929.629 365.536Z" fill="#9A9A9A"/>
</g>
<g filter="url(#filter4_d_254_1284)">
<path d="M1090.08 567.188L1046.02 599.136L1070.25 616.763L1114.32 584.815L1090.08 567.188Z" fill="#EEEEEE"/>
<path d="M1114.31 584.815L1070.25 616.763V643.202L1114.32 611.255L1114.31 584.815Z" fill="#D9D9D9"/>
<path d="M1109.91 592.227C1109.91 591.421 1109.01 590.947 1108.34 591.404L1108.14 591.544C1107.87 591.731 1107.71 592.039 1107.71 592.368V610.907C1107.71 611.731 1108.65 612.201 1109.31 611.707L1109.51 611.554C1109.76 611.365 1109.91 611.069 1109.91 610.754V592.227Z" fill="#626262"/>
<path d="M1104.4 596.634C1104.4 595.828 1103.5 595.353 1102.84 595.81L1102.63 595.951C1102.36 596.137 1102.2 596.445 1102.2 596.774V615.313C1102.2 616.137 1103.14 616.607 1103.8 616.113L1104 615.961C1104.26 615.772 1104.4 615.475 1104.4 615.161V596.634Z" fill="#626262"/>
<path d="M1098.9 601.04C1098.9 600.234 1097.99 599.76 1097.33 600.217L1097.12 600.357C1096.85 600.544 1096.69 600.852 1096.69 601.18V619.72C1096.69 620.544 1097.63 621.014 1098.29 620.52L1098.5 620.367C1098.75 620.178 1098.9 619.882 1098.9 619.567V601.04Z" fill="#626262"/>
<path d="M1093.39 604.346C1093.39 603.54 1092.49 603.065 1091.82 603.523L1091.62 603.663C1091.35 603.85 1091.19 604.157 1091.19 604.486V623.025C1091.19 623.849 1092.13 624.32 1092.79 623.825L1092.99 623.673C1093.24 623.484 1093.39 623.188 1093.39 622.873V604.346Z" fill="#626262"/>
<path d="M1087.88 608.752C1087.88 607.946 1086.98 607.471 1086.31 607.929L1086.11 608.069C1085.84 608.256 1085.68 608.564 1085.68 608.892V627.432C1085.68 628.256 1086.62 628.726 1087.28 628.232L1087.48 628.079C1087.73 627.89 1087.88 627.594 1087.88 627.279V608.752Z" fill="#626262"/>
<path d="M1082.37 613.158C1082.37 612.353 1081.47 611.878 1080.8 612.335L1080.6 612.475C1080.33 612.662 1080.17 612.97 1080.17 613.299V631.838C1080.17 632.662 1081.11 633.132 1081.77 632.638L1081.97 632.485C1082.22 632.297 1082.37 632 1082.37 631.685V613.158Z" fill="#626262"/>
<path d="M1076.86 617.565C1076.86 616.759 1075.96 616.284 1075.3 616.742L1075.09 616.882C1074.82 617.069 1074.66 617.377 1074.66 617.705V636.245C1074.66 637.069 1075.6 637.539 1076.26 637.045L1076.46 636.892C1076.72 636.703 1076.86 636.407 1076.86 636.092V617.565Z" fill="#626262"/>
<path d="M1046.03 599.136L1070.25 616.762V643.202L1046.03 625.575L1046.03 599.136Z" fill="#9A9A9A"/>
</g>
<g filter="url(#filter5_d_254_1284)">
<path d="M975.574 177.856L931.508 209.804L955.744 227.431L999.81 195.483L975.574 177.856Z" fill="#B0B0B0"/>
<path d="M999.801 195.483L955.744 227.431V253.87L999.81 221.923L999.801 195.483Z" fill="#D9D9D9"/>
<path d="M995.402 202.895C995.402 202.089 994.497 201.615 993.834 202.072L993.631 202.212C993.36 202.399 993.198 202.707 993.198 203.035V221.575C993.198 222.399 994.139 222.869 994.798 222.375L995.002 222.222C995.254 222.033 995.402 221.737 995.402 221.422V202.895Z" fill="#626262"/>
<path d="M989.895 207.302C989.895 206.496 988.991 206.021 988.328 206.478L988.124 206.619C987.854 206.805 987.692 207.113 987.692 207.442V225.981C987.692 226.805 988.633 227.275 989.292 226.781L989.495 226.629C989.747 226.44 989.895 226.143 989.895 225.829V207.302Z" fill="#626262"/>
<path d="M984.386 211.709C984.386 210.903 983.482 210.428 982.818 210.886L982.615 211.026C982.344 211.212 982.183 211.52 982.183 211.849V230.388C982.183 231.212 983.123 231.683 983.783 231.188L983.986 231.036C984.238 230.847 984.386 230.551 984.386 230.236V211.709Z" fill="#626262"/>
<path d="M978.88 215.013C978.88 214.207 977.976 213.732 977.312 214.19L977.109 214.33C976.838 214.517 976.677 214.824 976.677 215.153V233.692C976.677 234.516 977.617 234.987 978.277 234.492L978.48 234.34C978.732 234.151 978.88 233.855 978.88 233.54V215.013Z" fill="#626262"/>
<path d="M973.37 219.42C973.37 218.614 972.466 218.139 971.803 218.597L971.599 218.737C971.329 218.924 971.167 219.232 971.167 219.56V238.1C971.167 238.924 972.108 239.394 972.767 238.9L972.97 238.747C973.222 238.558 973.37 238.262 973.37 237.947V219.42Z" fill="#626262"/>
<path d="M967.861 223.826C967.861 223.021 966.957 222.546 966.293 223.003L966.09 223.143C965.819 223.33 965.658 223.638 965.658 223.967V242.506C965.658 243.33 966.598 243.8 967.258 243.306L967.461 243.153C967.713 242.965 967.861 242.668 967.861 242.353V223.826Z" fill="#626262"/>
<path d="M962.355 228.233C962.355 227.427 961.451 226.952 960.787 227.41L960.584 227.55C960.313 227.737 960.152 228.045 960.152 228.373V246.913C960.152 247.737 961.092 248.207 961.752 247.713L961.955 247.56C962.207 247.371 962.355 247.075 962.355 246.76V228.233Z" fill="#626262"/>
<path d="M931.516 209.805L955.743 227.431V253.871L931.516 236.244L931.516 209.805Z" fill="#9A9A9A"/>
</g>
<g filter="url(#filter6_d_254_1284)">
<path d="M960.324 493.902L1004.39 525.85L980.154 543.477L936.088 511.529L960.324 493.902Z" fill="#B0B0B0"/>
<path d="M936.096 511.529L980.153 543.477V569.916L936.087 537.968L936.096 511.529Z" fill="#D9D9D9"/>
<path d="M940.494 518.941C940.494 518.135 941.398 517.66 942.062 518.117L942.265 518.258C942.536 518.444 942.697 518.752 942.697 519.081V537.62C942.697 538.444 941.756 538.915 941.097 538.42L940.894 538.268C940.642 538.079 940.494 537.782 940.494 537.468V518.941Z" fill="#626262"/>
<path d="M946.002 523.347C946.002 522.542 946.907 522.067 947.57 522.524L947.773 522.664C948.044 522.851 948.206 523.159 948.206 523.488V542.027C948.206 542.851 947.265 543.321 946.606 542.827L946.402 542.674C946.151 542.486 946.002 542.189 946.002 541.874V523.347Z" fill="#626262"/>
<path d="M951.51 527.754C951.51 526.948 952.414 526.473 953.078 526.931L953.281 527.071C953.552 527.258 953.713 527.566 953.713 527.894V546.434C953.713 547.258 952.773 547.728 952.113 547.234L951.91 547.081C951.658 546.892 951.51 546.596 951.51 546.281V527.754Z" fill="#626262"/>
<path d="M957.019 531.059C957.019 530.253 957.923 529.778 958.587 530.236L958.79 530.376C959.06 530.562 959.222 530.87 959.222 531.199V549.738C959.222 550.562 958.281 551.033 957.622 550.538L957.419 550.386C957.167 550.197 957.019 549.901 957.019 549.586V531.059Z" fill="#626262"/>
<path d="M962.527 535.466C962.527 534.66 963.431 534.185 964.094 534.642L964.298 534.783C964.568 534.969 964.73 535.277 964.73 535.606V554.145C964.73 554.969 963.789 555.439 963.13 554.945L962.927 554.793C962.675 554.604 962.527 554.307 962.527 553.993V535.466Z" fill="#626262"/>
<path d="M968.035 539.872C968.035 539.066 968.94 538.592 969.603 539.049L969.806 539.189C970.077 539.376 970.239 539.684 970.239 540.013V558.552C970.239 559.376 969.298 559.846 968.639 559.352L968.435 559.199C968.183 559.01 968.035 558.714 968.035 558.399V539.872Z" fill="#626262"/>
<path d="M973.544 544.279C973.544 543.473 974.448 542.998 975.111 543.456L975.315 543.596C975.585 543.783 975.747 544.09 975.747 544.419V562.959C975.747 563.783 974.806 564.253 974.147 563.759L973.944 563.606C973.692 563.417 973.544 563.121 973.544 562.806V544.279Z" fill="#626262"/>
<path d="M1004.38 525.85L980.154 543.476V569.916L1004.38 552.289L1004.38 525.85Z" fill="#9A9A9A"/>
</g>
<path fill-rule="evenodd" clip-rule="evenodd" d="M623.853 67.3457H558.927V87.2912C563.915 87.2578 568.994 88.0547 573.979 89.7723C589.037 94.9607 600.445 106.733 603.338 123.324L585.005 123.332C581.692 114.677 576.149 108.908 568.315 106.209C553.753 101.191 537.881 108.929 532.863 123.491C527.846 138.053 535.583 153.925 550.145 158.943C564.184 163.78 580.989 155.797 585.013 140.646L603.346 140.638C603.346 142.081 602.523 145.905 602.034 147.325C595.542 166.164 577.828 177.982 558.927 177.858V197.198H623.853V67.3457Z" fill="#7A49F6"/>
<path d="M585.013 140.646C580.989 155.797 564.184 163.78 550.145 158.943C535.583 153.925 527.845 138.053 532.863 123.491C537.881 108.928 553.753 101.191 568.315 106.209C576.149 108.908 581.691 114.677 585.004 123.332L603.338 123.324C600.444 106.733 589.037 94.9606 573.978 89.7721C550.339 81.6266 524.572 94.1872 516.426 117.827C508.281 141.467 520.842 167.234 544.481 175.379C568.121 183.525 593.896 170.941 602.033 147.325C602.523 145.905 603.346 142.081 603.345 140.638L585.013 140.646Z" fill="white"/>
<path fill-rule="evenodd" clip-rule="evenodd" d="M494 67.3457H558.926V87.2912C540.256 87.4163 522.854 99.172 516.426 117.827C508.281 141.467 520.842 167.234 544.481 175.379C549.263 177.027 554.133 177.826 558.926 177.858V197.198H494V67.3457ZM512.087 98.4175C519.258 98.4175 525.072 92.6038 525.072 85.4323C525.072 78.2607 519.258 72.447 512.087 72.447C504.915 72.447 499.101 78.2607 499.101 85.4323C499.101 92.6038 504.915 98.4175 512.087 98.4175Z" fill="black"/>
<path d="M525.072 85.4325C525.072 92.6041 519.258 98.4177 512.087 98.4177C504.915 98.4177 499.101 92.6041 499.101 85.4325C499.101 78.2609 504.915 72.4473 512.087 72.4473C519.258 72.4473 525.072 78.2609 525.072 85.4325Z" fill="white"/>
<defs>
<filter id="filter0_d_254_1284" x="817.578" y="102.28" width="76.3023" height="84.0137" filterUnits="userSpaceOnUse" color-interpolation-filters="sRGB">
<feFlood flood-opacity="0" result="BackgroundImageFix"/>
<feColorMatrix in="SourceAlpha" type="matrix" values="0 0 0 0 0 0 0 0 0 0 0 0 0 0 0 0 0 0 127 0" result="hardAlpha"/>
<feOffset dy="4"/>
<feGaussianBlur stdDeviation="2"/>
<feComposite in2="hardAlpha" operator="out"/>
<feColorMatrix type="matrix" values="0 0 0 0 0 0 0 0 0 0 0 0 0 0 0 0 0 0 0.25 0"/>
<feBlend mode="normal" in2="BackgroundImageFix" result="effect1_dropShadow_254_1284"/>
<feBlend mode="normal" in="SourceGraphic" in2="effect1_dropShadow_254_1284" result="shape"/>
</filter>
<filter id="filter1_d_254_1284" x="817.578" y="416.036" width="76.3023" height="84.0137" filterUnits="userSpaceOnUse" color-interpolation-filters="sRGB">
<feFlood flood-opacity="0" result="BackgroundImageFix"/>
<feColorMatrix in="SourceAlpha" type="matrix" values="0 0 0 0 0 0 0 0 0 0 0 0 0 0 0 0 0 0 127 0" result="hardAlpha"/>
<feOffset dy="4"/>
<feGaussianBlur stdDeviation="2"/>
<feComposite in2="hardAlpha" operator="out"/>
<feColorMatrix type="matrix" values="0 0 0 0 0 0 0 0 0 0 0 0 0 0 0 0 0 0 0.25 0"/>
<feBlend mode="normal" in2="BackgroundImageFix" result="effect1_dropShadow_254_1284"/>
<feBlend mode="normal" in="SourceGraphic" in2="effect1_dropShadow_254_1284" result="shape"/>
</filter>
<filter id="filter2_d_254_1284" x="1048.89" y="258.013" width="76.3023" height="84.0137" filterUnits="userSpaceOnUse" color-interpolation-filters="sRGB">
<feFlood flood-opacity="0" result="BackgroundImageFix"/>
<feColorMatrix in="SourceAlpha" type="matrix" values="0 0 0 0 0 0 0 0 0 0 0 0 0 0 0 0 0 0 127 0" result="hardAlpha"/>
<feOffset dy="4"/>
<feGaussianBlur stdDeviation="2"/>
<feComposite in2="hardAlpha" operator="out"/>
<feColorMatrix type="matrix" values="0 0 0 0 0 0 0 0 0 0 0 0 0 0 0 0 0 0 0.25 0"/>
<feBlend mode="normal" in2="BackgroundImageFix" result="effect1_dropShadow_254_1284"/>
<feBlend mode="normal" in="SourceGraphic" in2="effect1_dropShadow_254_1284" result="shape"/>
</filter>
<filter id="filter3_d_254_1284" x="925.621" y="333.589" width="76.3023" height="84.0142" filterUnits="userSpaceOnUse" color-interpolation-filters="sRGB">
<feFlood flood-opacity="0" result="BackgroundImageFix"/>
<feColorMatrix in="SourceAlpha" type="matrix" values="0 0 0 0 0 0 0 0 0 0 0 0 0 0 0 0 0 0 127 0" result="hardAlpha"/>
<feOffset dy="4"/>
<feGaussianBlur stdDeviation="2"/>
<feComposite in2="hardAlpha" operator="out"/>
<feColorMatrix type="matrix" values="0 0 0 0 0 0 0 0 0 0 0 0 0 0 0 0 0 0 0.25 0"/>
<feBlend mode="normal" in2="BackgroundImageFix" result="effect1_dropShadow_254_1284"/>
<feBlend mode="normal" in="SourceGraphic" in2="effect1_dropShadow_254_1284" result="shape"/>
</filter>
<filter id="filter4_d_254_1284" x="1042.02" y="567.188" width="76.3023" height="84.0142" filterUnits="userSpaceOnUse" color-interpolation-filters="sRGB">
<feFlood flood-opacity="0" result="BackgroundImageFix"/>
<feColorMatrix in="SourceAlpha" type="matrix" values="0 0 0 0 0 0 0 0 0 0 0 0 0 0 0 0 0 0 127 0" result="hardAlpha"/>
<feOffset dy="4"/>
<feGaussianBlur stdDeviation="2"/>
<feComposite in2="hardAlpha" operator="out"/>
<feColorMatrix type="matrix" values="0 0 0 0 0 0 0 0 0 0 0 0 0 0 0 0 0 0 0.25 0"/>
<feBlend mode="normal" in2="BackgroundImageFix" result="effect1_dropShadow_254_1284"/>
<feBlend mode="normal" in="SourceGraphic" in2="effect1_dropShadow_254_1284" result="shape"/>
</filter>
<filter id="filter5_d_254_1284" x="927.508" y="177.856" width="76.3023" height="84.0142" filterUnits="userSpaceOnUse" color-interpolation-filters="sRGB">
<feFlood flood-opacity="0" result="BackgroundImageFix"/>
<feColorMatrix in="SourceAlpha" type="matrix" values="0 0 0 0 0 0 0 0 0 0 0 0 0 0 0 0 0 0 127 0" result="hardAlpha"/>
<feOffset dy="4"/>
<feGaussianBlur stdDeviation="2"/>
<feComposite in2="hardAlpha" operator="out"/>
<feColorMatrix type="matrix" values="0 0 0 0 0 0 0 0 0 0 0 0 0 0 0 0 0 0 0.25 0"/>
<feBlend mode="normal" in2="BackgroundImageFix" result="effect1_dropShadow_254_1284"/>
<feBlend mode="normal" in="SourceGraphic" in2="effect1_dropShadow_254_1284" result="shape"/>
</filter>
<filter id="filter6_d_254_1284" x="932.087" y="493.902" width="76.3029" height="84.0142" filterUnits="userSpaceOnUse" color-interpolation-filters="sRGB">
<feFlood flood-opacity="0" result="BackgroundImageFix"/>
<feColorMatrix in="SourceAlpha" type="matrix" values="0 0 0 0 0 0 0 0 0 0 0 0 0 0 0 0 0 0 127 0" result="hardAlpha"/>
<feOffset dy="4"/>
<feGaussianBlur stdDeviation="2"/>
<feComposite in2="hardAlpha" operator="out"/>
<feColorMatrix type="matrix" values="0 0 0 0 0 0 0 0 0 0 0 0 0 0 0 0 0 0 0.25 0"/>
<feBlend mode="normal" in2="BackgroundImageFix" result="effect1_dropShadow_254_1284"/>
<feBlend mode="normal" in="SourceGraphic" in2="effect1_dropShadow_254_1284" result="shape"/>
</filter>
<linearGradient id="paint0_linear_254_1284" x1="855.931" y1="205.338" x2="854.89" y2="83.9579" gradientUnits="userSpaceOnUse">
<stop stop-color="#75FB7A"/>
<stop offset="1" stop-color="white" stop-opacity="0.28"/>
</linearGradient>
<linearGradient id="paint1_linear_254_1284" x1="969.4" y1="283.205" x2="969.4" y2="161.825" gradientUnits="userSpaceOnUse">
<stop stop-color="#75FB7A"/>
<stop offset="1" stop-color="white" stop-opacity="0.4"/>
</linearGradient>
<linearGradient id="paint2_linear_254_1284" x1="1083.91" y1="361.071" x2="1083.91" y2="239.691" gradientUnits="userSpaceOnUse">
<stop stop-color="#75FB7A"/>
<stop offset="1" stop-color="white" stop-opacity="0.4"/>
</linearGradient>
<linearGradient id="paint3_linear_254_1284" x1="969.4" y1="438.938" x2="969.4" y2="317.557" gradientUnits="userSpaceOnUse">
<stop stop-color="#75FB7A"/>
<stop offset="1" stop-color="white" stop-opacity="0.4"/>
</linearGradient>
<linearGradient id="paint4_linear_254_1284" x1="854.89" y1="516.804" x2="854.89" y2="395.424" gradientUnits="userSpaceOnUse">
<stop stop-color="#75FB7A"/>
<stop offset="1" stop-color="white" stop-opacity="0.4"/>
</linearGradient>
<linearGradient id="paint5_linear_254_1284" x1="969.4" y1="594.67" x2="969.4" y2="473.29" gradientUnits="userSpaceOnUse">
<stop stop-color="#75FB7A"/>
<stop offset="1" stop-color="white" stop-opacity="0.4"/>
</linearGradient>
<linearGradient id="paint6_linear_254_1284" x1="1083.91" y1="672.537" x2="1083.91" y2="551.157" gradientUnits="userSpaceOnUse">
<stop stop-color="#75FB7A"/>
<stop offset="1" stop-color="white" stop-opacity="0.4"/>
</linearGradient>
</defs>
</svg>
